<svg xmlns="http://www.w3.org/2000/svg" xmlns:xlink="http://www.w3.org/1999/xlink" width="360.096" height="59.339" viewBox="0 0 360.096 59.339">
  <defs>
    <filter id="Rectangle_169186" x="235.096" y="-5.661" width="134" height="77" filterUnits="userSpaceOnUse">
      <feOffset dy="3" input="SourceAlpha"/>
      <feGaussianBlur stdDeviation="3" result="blur"/>
      <feFlood flood-opacity="0.161"/>
      <feComposite operator="in" in2="blur"/>
      <feComposite in="SourceGraphic"/>
    </filter>
    <clipPath id="clip-path">
      <g transform="matrix(1, 0, 0, 1, 0, 0)" filter="url(#Rectangle_169186)">
        <path id="Rectangle_169186-2" data-name="Rectangle 169186" d="M3,0H113a3,3,0,0,1,3,3V56a3,3,0,0,1-3,3H0a0,0,0,0,1,0,0V3A3,3,0,0,1,3,0Z" transform="translate(0.05)" fill="#f35f52"/>
      </g>
    </clipPath>
  </defs>
  <g id="activenow" transform="translate(0.096 -458.661)">
    <rect id="Rectangle_168591" data-name="Rectangle 168591" width="360" height="59" transform="translate(0 459)" fill="#f39890"/>
    <g id="Mask_Group_4" data-name="Mask Group 4" transform="translate(243.949 459)" clip-path="url(#clip-path)">
      <ellipse id="Ellipse_10091" data-name="Ellipse 10091" cx="85.5" cy="58" rx="85.5" ry="58" transform="translate(0.051 -26)" fill="#f35f52"/>
    </g>
    <rect id="Rectangle_168592" data-name="Rectangle 168592" width="81" height="23" rx="11.5" transform="translate(263 478)" fill="#fff"/>
    <text id="Activate_your_health_care_package" data-name="Activate your health care package" transform="translate(152 492)" fill="#fff" font-size="10" font-family="NunitoSans-SemiBold, Nunito Sans" font-weight="600"><tspan x="-76" y="0">Activate your health care package</tspan></text>
    <text id="Activate_Now" data-name="Activate Now" transform="translate(304 493)" fill="#383838" font-size="9" font-family="Poppins-Medium, Poppins" font-weight="500"><tspan x="-29" y="0">Activate Now</tspan></text>
    <path id="Path_207080" data-name="Path 207080" d="M-785,2544.118s64.088-26.771,113.634-9.19,100.69,18.78,131.856,0" transform="translate(785 -2031)" fill="none" stroke="#f35f52" stroke-width="0.5"/>
    <path id="Path_207081" data-name="Path 207081" d="M-785,2544.118s64.088-26.771,113.634-9.19,100.69,18.78,131.856,0" transform="translate(785 -2032.947)" fill="none" stroke="#f35f52" stroke-width="0.5"/>
    <g id="credit-card" transform="translate(16 405.675)">
      <path id="Path_114286" data-name="Path 114286" d="M38.579,155.085V135.8a2.934,2.934,0,0,0-2.934-2.934H2.934A2.934,2.934,0,0,0,0,135.8v19.288a2.934,2.934,0,0,0,2.934,2.934h32.71A2.934,2.934,0,0,0,38.579,155.085Z" transform="translate(0 -59.981)" fill="#004473"/>
      <path id="Path_114287" data-name="Path 114287" d="M414.585,132.862h-2.614a2.934,2.934,0,0,1,2.934,2.934v19.288a2.934,2.934,0,0,1-2.934,2.934h2.614a2.934,2.934,0,0,0,2.934-2.934V135.8A2.934,2.934,0,0,0,414.585,132.862Z" transform="translate(-378.703 -59.981)" fill="#005797"/>
      <g id="Group_504" data-name="Group 504" transform="translate(4.045 91.328)">
        <path id="Path_114288" data-name="Path 114288" d="M69.084,362.551H50.724a.629.629,0,0,1,0-1.258h18.36a.629.629,0,0,1,0,1.258Z" transform="translate(-50.095 -361.294)" fill="#c0d6f2"/>
      </g>
      <g id="Group_505" data-name="Group 505" transform="translate(4.045 93.704)">
        <path id="Path_114289" data-name="Path 114289" d="M59.9,391.981h-9.18a.629.629,0,1,1,0-1.257H59.9a.629.629,0,1,1,0,1.257Z" transform="translate(-50.095 -390.724)" fill="#c0d6f2"/>
      </g>
      <g id="Group_516" data-name="Group 516" transform="translate(4.045 86.843)">
        <g id="Group_506" data-name="Group 506" transform="translate(10.457 0)">
          <path id="Path_114290" data-name="Path 114290" d="M180.211,308.522a.629.629,0,0,1-.629-.629v-1.508a.629.629,0,1,1,1.257,0v1.508A.629.629,0,0,1,180.211,308.522Z" transform="translate(-179.582 -305.756)" fill="#e2e2e2"/>
        </g>
        <g id="Group_507" data-name="Group 507" transform="translate(13.308 0)">
          <path id="Path_114291" data-name="Path 114291" d="M215.525,308.522a.629.629,0,0,1-.629-.629v-1.508a.629.629,0,1,1,1.257,0v1.508A.629.629,0,0,1,215.525,308.522Z" transform="translate(-214.896 -305.756)" fill="#e2e2e2"/>
        </g>
        <g id="Group_508" data-name="Group 508" transform="translate(16.16 0)">
          <path id="Path_114292" data-name="Path 114292" d="M250.84,308.522a.629.629,0,0,1-.629-.629v-1.508a.629.629,0,1,1,1.257,0v1.508A.629.629,0,0,1,250.84,308.522Z" transform="translate(-250.211 -305.756)" fill="#e2e2e2"/>
        </g>
        <g id="Group_509" data-name="Group 509" transform="translate(19.012 0)">
          <path id="Path_114293" data-name="Path 114293" d="M286.155,308.522a.629.629,0,0,1-.629-.629v-1.508a.629.629,0,0,1,1.258,0v1.508A.629.629,0,0,1,286.155,308.522Z" transform="translate(-285.526 -305.756)" fill="#e2e2e2"/>
        </g>
        <g id="Group_510" data-name="Group 510" transform="translate(23.765 0)">
          <path id="Path_114294" data-name="Path 114294" d="M345.012,308.522a.629.629,0,0,1-.629-.629v-1.508a.629.629,0,1,1,1.257,0v1.508A.629.629,0,0,1,345.012,308.522Z" transform="translate(-344.383 -305.756)" fill="#e2e2e2"/>
        </g>
        <g id="Group_511" data-name="Group 511" transform="translate(26.617 0)">
          <path id="Path_114295" data-name="Path 114295" d="M380.327,308.522a.629.629,0,0,1-.629-.629v-1.508a.629.629,0,1,1,1.258,0v1.508A.629.629,0,0,1,380.327,308.522Z" transform="translate(-379.698 -305.756)" fill="#e2e2e2"/>
        </g>
        <g id="Group_512" data-name="Group 512" transform="translate(29.468 0)">
          <path id="Path_114296" data-name="Path 114296" d="M415.642,308.522a.629.629,0,0,1-.629-.629v-1.508a.629.629,0,1,1,1.258,0v1.508A.629.629,0,0,1,415.642,308.522Z" transform="translate(-415.013 -305.756)" fill="#e2e2e2"/>
        </g>
        <g id="Group_513" data-name="Group 513" transform="translate(0 0)">
          <path id="Path_114297" data-name="Path 114297" d="M50.724,308.522a.629.629,0,0,1-.629-.629v-1.508a.629.629,0,1,1,1.257,0v1.508A.629.629,0,0,1,50.724,308.522Z" transform="translate(-50.095 -305.756)" fill="#e2e2e2"/>
        </g>
        <g id="Group_514" data-name="Group 514" transform="translate(2.852 0)">
          <path id="Path_114298" data-name="Path 114298" d="M86.039,308.522a.629.629,0,0,1-.629-.629v-1.508a.629.629,0,1,1,1.257,0v1.508A.629.629,0,0,1,86.039,308.522Z" transform="translate(-85.41 -305.756)" fill="#e2e2e2"/>
        </g>
        <g id="Group_515" data-name="Group 515" transform="translate(5.704 0)">
          <path id="Path_114299" data-name="Path 114299" d="M121.353,308.522a.629.629,0,0,1-.629-.629v-1.508a.629.629,0,1,1,1.257,0v1.508A.629.629,0,0,1,121.353,308.522Z" transform="translate(-120.724 -305.756)" fill="#e2e2e2"/>
        </g>
      </g>
      <circle id="Ellipse_90" data-name="Ellipse 90" cx="5.715" cy="5.715" r="5.715" transform="translate(29.916 67.612)" fill="#ffc344"/>
      <path id="Path_114300" data-name="Path 114300" d="M429.059,67.612a5.74,5.74,0,0,0-1.069.1,5.714,5.714,0,0,1,0,11.227,5.714,5.714,0,1,0,1.069-11.328Z" transform="translate(-393.428)" fill="#feb137"/>
      <g id="Group_517" data-name="Group 517" transform="translate(32.047 70.68)">
        <path id="Path_114301" data-name="Path 114301" d="M399.242,110.9a.615.615,0,0,1-.073,0,.629.629,0,0,1-.462-.294l-1.76-2.852a.629.629,0,1,1,1.07-.66l1.342,2.175,3.473-3.473a.629.629,0,1,1,.889.889l-4.036,4.036A.628.628,0,0,1,399.242,110.9Z" transform="translate(-396.853 -105.605)" fill="#fff0ad"/>
      </g>
      <path id="Path_114302" data-name="Path 114302" d="M65.985,186.279H58.823a.942.942,0,0,1-.942-.942v-5.654a.942.942,0,0,1,.942-.942h7.161a.942.942,0,0,1,.942.942v5.654A.942.942,0,0,1,65.985,186.279Z" transform="translate(-53.207 -102.155)" fill="#ffd15b"/>
      <path id="Path_114303" data-name="Path 114303" d="M58.827,170.954H51.665a1.573,1.573,0,0,0-1.571,1.571v5.654a1.573,1.573,0,0,0,1.571,1.571h7.162a1.573,1.573,0,0,0,1.571-1.571v-5.654A1.573,1.573,0,0,0,58.827,170.954Zm.314,1.571v2.2H55.875v-2.512h2.952A.314.314,0,0,1,59.14,172.525Zm-7.789,5.654v-5.654a.314.314,0,0,1,.313-.314h2.952v6.281H51.665A.314.314,0,0,1,51.352,178.179Zm7.475.314H55.875v-2.512H59.14v2.2A.314.314,0,0,1,58.827,178.492Z" transform="translate(-46.049 -94.997)" fill="#feb137"/>
      <path id="Path_114304" data-name="Path 114304" d="M351.645,243.461h-6.372a.335.335,0,0,1-.335-.335v-1.844a.335.335,0,0,1,.335-.335h6.372a.335.335,0,0,1,.335.335v1.844A.335.335,0,0,1,351.645,243.461Z" transform="translate(-317.083 -159.337)" fill="#fd4755"/>
    </g>
    <path id="Path_207083" data-name="Path 207083" d="M-528.269,2490s-61.95,33.633-152.927.564" transform="translate(785 -2031)" fill="none" stroke="#d79484" stroke-linecap="round" stroke-width="0.5"/>
  </g>
</svg>
