<svg xmlns="http://www.w3.org/2000/svg" xmlns:xlink="http://www.w3.org/1999/xlink" width="378" height="98" viewBox="0 0 378 98">
  <defs>
    <filter id="family_health_insurance_vector" x="0" y="0" width="378" height="98" filterUnits="userSpaceOnUse">
      <feOffset dy="3" input="SourceAlpha"/>
      <feGaussianBlur stdDeviation="3" result="blur"/>
      <feFlood flood-opacity="0.161"/>
      <feComposite operator="in" in2="blur"/>
      <feComposite in="SourceGraphic"/>
    </filter>
    <clipPath id="clip-path">
      <rect id="family_health_insurance_vector-2" data-name="family_health_insurance_vector" width="360" height="80" transform="translate(1315.961 2284)" fill="#fff" stroke="#707070" stroke-width="1"/>
    </clipPath>
    <clipPath id="clip-path-2">
      <path id="SVGID" d="M297.6,232.631c-.018-1.743-.249-3.87-1.809-4.952-1.226-.85-1.163.1-1.163-1.322-1.336-.065-2.606-.265-3.575-.207-.969-.058-2.238.143-3.575.207,0,1.42.062.692-1.163,1.542a5.522,5.522,0,0,0-2.088,4.674c-.031,2.921-.105,11.1.081,12.312a4.734,4.734,0,0,0,.292,1.366c.519.963,1.92,1.145,2.861,1.18,1.736.064,3.475.087,5.212.08a15.814,15.814,0,0,0,3.684-.228c1.784-.55,1.3-2.609,1.4-4.494C297.83,241.564,297.634,235.552,297.6,232.631Z" transform="translate(-284.189 -226.139)" fill="none"/>
    </clipPath>
  </defs>
  <g id="banner2" transform="translate(9 -800)">
    <g transform="matrix(1, 0, 0, 1, -9, 800)" filter="url(#family_health_insurance_vector)">
      <rect id="family_health_insurance_vector-3" data-name="family_health_insurance_vector" width="360" height="80" transform="translate(9 6)" fill="#fff"/>
    </g>
    <text id="Lorem_ipsum_dolor_sit_amet_consetetur_sadipscing_elitr_sed" data-name="Lorem ipsum dolor sit amet, consetetur sadipscing elitr, sed" transform="translate(24 832)" fill="#383838" font-size="12" font-family="Inter-Regular, Inter"><tspan x="0" y="12">Lorem ipsum dolor sit amet, </tspan><tspan x="0" y="27">consetetur sadipscing elitr, sed</tspan></text>
    <g id="Mask_Group_3" data-name="Mask Group 3" transform="translate(-1315.961 -1478)" clip-path="url(#clip-path)">
      <path id="Path_207071" data-name="Path 207071" d="M100.389,514c3.814-25.171-12.966-47.29-32.034-62.545-14.492-10.677-38.137-16.779-45.764-34.322-6.865-13.729-1.526-35.086,1.525-49.578,4.576-17.543,4.576-31.272-2.288-48.815s-20.594-26.7-33.56-39.662c-6.1,18.306-3.051,41.95-1.526,61.019q1.145,30.889,0,61.781c-1.525,38.9-3.813,77.036-3.813,115.935Z" transform="translate(1206.107 2371.929) rotate(-90)" fill="#ff536d" opacity="0.18"/>
    </g>
    <path id="Path_207023" data-name="Path 207023" d="M129.935-24.781l1.831-2.028-.139,2.729,2.728-.14-2.028,1.831,2.028,1.831-2.728-.14.139,2.729L129.935-20,128.1-17.969l.139-2.729-2.728.14,2.028-1.831-2.028-1.831,2.728.14L128.1-26.81Z" transform="translate(-59.466 840.908)" fill="#394fa0" opacity="0.29"/>
    <path id="Path_207075" data-name="Path 207075" d="M129.935-24.781l1.831-2.028-.139,2.729,2.728-.14-2.028,1.831,2.028,1.831-2.728-.14.139,2.729L129.935-20,128.1-17.969l.139-2.729-2.728.14,2.028-1.831-2.028-1.831,2.728.14L128.1-26.81Z" transform="translate(190.534 842.307)" fill="#394fa0" opacity="0.29"/>
    <path id="Path_207076" data-name="Path 207076" d="M127.725-25.8l.915-1.014-.07,1.364,1.364-.07-1.014.915,1.014.916-1.364-.07.07,1.364-.915-1.014-.915,1.014.07-1.364-1.364.07,1.014-.916-1.014-.915,1.364.07-.07-1.364Z" transform="translate(203.534 846.728)" fill="#394fa0" opacity="0.29"/>
    <path id="Path_207077" data-name="Path 207077" d="M127.725-25.8l.915-1.014-.07,1.364,1.364-.07-1.014.915,1.014.916-1.364-.07.07,1.364-.915-1.014-.915,1.014.07-1.364-1.364.07,1.014-.916-1.014-.915,1.364.07-.07-1.364Z" transform="translate(183.534 851.148)" fill="#394fa0" opacity="0.29"/>
    <path id="Path_207074" data-name="Path 207074" d="M129.935-24.781l1.831-2.028-.139,2.729,2.728-.14-2.028,1.831,2.028,1.831-2.728-.14.139,2.729L129.935-20,128.1-17.969l.139-2.729-2.728.14,2.028-1.831-2.028-1.831,2.728.14L128.1-26.81Z" transform="translate(22.534 897.908)" fill="#394fa0" opacity="0.25"/>
    <path id="Path_207073" data-name="Path 207073" d="M49.612,371.892a.835.835,0,1,1-.835-.835A.835.835,0,0,1,49.612,371.892Z" transform="translate(-31.942 493.023)" fill="#394fa0" opacity="0.3"/>
    <g id="Group_158207" data-name="Group 158207" transform="translate(16 863.08)" opacity="0.25">
      <path id="Path_207032" data-name="Path 207032" d="M72.245,367.393c.39,2.777.942,6.372,5.723,7.491-3.3,1.586-4.282,5.2-4.811,7.948-.742-1.419-1.3-5.659-5.871-7.555a5.347,5.347,0,0,0,3.957-3.775,16.527,16.527,0,0,0,1-4.109Z" transform="translate(-67.286 -364.57)" fill="#394fa0"/>
      <path id="Path_207033" data-name="Path 207033" d="M84.3,360.583c.165,1.248.4,2.861,2.407,3.364-1.388.712-1.8,2.335-2.023,3.569-.312-.636-.547-2.541-2.469-3.392a2.337,2.337,0,0,0,1.664-1.7,7.89,7.89,0,0,0,.421-1.846Z" transform="translate(-73.781 -359.583)" fill="#394fa0"/>
    </g>
    <g id="Group_158183" data-name="Group 158183" transform="translate(230.797 818.519)">
      <path id="Path_207042" data-name="Path 207042" d="M150.129,73.5c-.724-1.687-2.007-3.574-3.835-4.171a2.965,2.965,0,0,0-1.218-.1,5.37,5.37,0,0,0-1.205.193,22.437,22.437,0,0,0,2.526-10.9c-.222-10.462-10.117-19.244-18.691-16.565a18.991,18.991,0,0,0-5.173,2.519,12.491,12.491,0,0,0-3.841-1.336.687.687,0,0,0-.149-.042,32.564,32.564,0,0,0-12.294.546,19.322,19.322,0,0,0-2.777-.9c-5.908-1.433-12.078,2.411-15.309,8.285a28.024,28.024,0,0,0-2.955,2.4.686.686,0,0,0-.112.137,7.513,7.513,0,0,0-2.423,5.492,19.452,19.452,0,0,0,.461,3.888c-.005.007-.012.014-.017.022a.987.987,0,0,0-.215.444,1.994,1.994,0,0,0,.04.721c.089.5.166,1,.222,1.5a6.061,6.061,0,0,1,.077,1.887c-.174.808-.949,1.274-1.316,1.967a5.578,5.578,0,0,0-.716,2.5,11.613,11.613,0,0,0,.038,2.15c.247,1.874.542,3.331,1.276,7.032.12-.049.244-.091.368-.132a67.351,67.351,0,0,0,4.18,13.921c1.018,2.376,2.128,5.136,4.511,6.453,2.418,1.336,4.324-.4,6.379-1.455.52.4,1.121-.39,1.607-.456,1.013-.107,1.727-.549,1.6-1.546-.08-.614-.709-1.466-1.517-1.079-.716.343-.935.88-1.456,1.266-.355.262-.794.313-.774.824a1.044,1.044,0,0,0,.082.344,20.776,20.776,0,0,1-2.822,1.585,3.563,3.563,0,0,1-3.449-.667c-2.138-1.66-3.156-4.841-4.108-7.253a67.448,67.448,0,0,1-3.462-12.168c.207-.06.413-.123.611-.2-.159-.782-.367-1.548-.522-2.351-.205-1.063-.28-2.154-.41-3.226a9.94,9.94,0,0,1,.005-3.482,6.15,6.15,0,0,1,1.084-2.561,6.068,6.068,0,0,1,2.806-1.731c2.3,6.308,6.956,10.181,9.368,12.387,1.626,1.487,7.985,5.657,13.223,9.012a7.318,7.318,0,0,1,.328,1.717,3.546,3.546,0,0,1-1.234,2.9,12.286,12.286,0,0,1-3.038,1.579,1.059,1.059,0,0,0-.243-.264c-.413-.3-.7.035-1.116.182a7.788,7.788,0,0,0-1.864.5c-.772.454-.417,1.452.047,1.861.755.666,1.52.32,2.175-.46.326-.365,1.312-.421,1.277-1.069a17.815,17.815,0,0,0,3.114-1.592,4.347,4.347,0,0,0,1.61-2.6,5.29,5.29,0,0,0-.029-2.1c3.581,2.285,6.407,4.047,6.407,4.047s1.82-1.307,4.363-3.165a3.876,3.876,0,0,0,.308,2.076,2.272,2.272,0,0,0,.836.415c.016,1.48.049,2.642.11,3.043a4.734,4.734,0,0,0,.292,1.366c.519.963,1.92,1.145,2.861,1.18,1.736.064,3.475.087,5.212.08a15.815,15.815,0,0,0,3.684-.228c1.784-.55,1.3-2.609,1.4-4.494.066-1.225-.131-7.237-.161-10.158a8.078,8.078,0,0,0-.749-3.757c.681-.571,1.213-1.045,1.537-1.383l.191-.2a9.472,9.472,0,0,0,5.4,6.262,3.687,3.687,0,0,0,4.023-.46,4.153,4.153,0,0,0,1.352-3.616,2.977,2.977,0,0,0,1.788-1.007C151.138,77.576,150.963,75.448,150.129,73.5ZM117.656,44.279a.7.7,0,0,0,.209.055,10.533,10.533,0,0,1,3.537.992,18.226,18.226,0,0,0-5.187,6.579l-.32.744-.312-.723a18.579,18.579,0,0,0-7.4-7.351A29.918,29.918,0,0,1,117.656,44.279ZM85.95,64.152c-.386-.327-.756-.669-1.118-1.02a3.008,3.008,0,0,0-.366-.315,22.949,22.949,0,0,1-.479-3.39,6.477,6.477,0,0,1,2.5-5.386.677.677,0,0,0,.077-.085q.219-.2.442-.385a17.715,17.715,0,0,0-1.109,6.919,22.888,22.888,0,0,0,.55,4.093C86.276,64.437,86.112,64.288,85.95,64.152Z" transform="translate(-81.179 -41.475)" fill="#394fa0" opacity="0.2"/>
    </g>
    <g id="Group_158206" data-name="Group 158206" transform="translate(229.798 819.918)">
      <path id="Path_207043" data-name="Path 207043" d="M98.638,68.426a25.328,25.328,0,0,1,5.243-3.866,49.634,49.634,0,0,1,7.156-3.3c4.006-1.314,8.656-2.888,12.832-3.2a27.047,27.047,0,0,1,7.471.2" transform="translate(-94.149 -56.01)" fill="none" stroke="#443e40" stroke-width="1.3"/>
      <g id="Group_158187" data-name="Group 158187" transform="translate(4.698 0)">
        <g id="Group_158186" data-name="Group 158186">
          <g id="Group_158185" data-name="Group 158185">
            <g id="Group_158184" data-name="Group 158184">
              <path id="Path_207044" data-name="Path 207044" d="M129.393,58.926a18.845,18.845,0,0,0-12.111-9.178C108.551,47.63,99.247,57.035,99.7,67.489s7.529,16.249,10.707,19.156c2.885,2.638,20.657,13.715,20.657,13.715s16.992-12.207,19.7-15.025c2.982-3.107,9.663-9.349,9.442-19.809S150.09,46.283,141.516,48.962a18.846,18.846,0,0,0-11.491,9.944l-.32.744Z" transform="translate(-99.687 -48.475)" fill="#ff536d"/>
            </g>
          </g>
        </g>
        <path id="Path_207045" data-name="Path 207045" d="M147.826,142.349l7.548-.245,1.3-4.338,1.554,4.247,2.212-.071,1.079,2.565.782-2.628,3.465-.112,1.172-9.911,3.57,18.7,1.135-8.984,3.128-.1a21.457,21.457,0,0,0,1.107,2.687c-.012-.371,2.376-10.729,2.376-10.729l1.929,7.867,11-.309" transform="translate(-138.205 -115.191)" fill="none" stroke="#fbfbf9" stroke-linecap="round" stroke-linejoin="round" stroke-width="3"/>
      </g>
      <g id="Group_158191" data-name="Group 158191" transform="translate(0 12.105)">
        <g id="Group_158190" data-name="Group 158190" transform="translate(0 9.04)">
          <g id="Group_158188" data-name="Group 158188" transform="translate(15.134 8.012)">
            <path id="Path_207046" data-name="Path 207046" d="M161.05,219.274a23.923,23.923,0,0,1,2.773-1.337c3.143-1.664,2.63-4.792,1.152-7.5a59.363,59.363,0,0,0-4.117-6.3,76.587,76.587,0,0,0-8.959-9.775" transform="translate(-151.899 -194.362)" fill="none" stroke="#6c5f64" stroke-width="0.8"/>
            <path id="Path_207047" data-name="Path 207047" d="M184.047,315.85c.339-.38,1.4-.424,1.271-1.149a1.569,1.569,0,0,0-.512-.935c-.413-.3-.7.035-1.116.182a7.788,7.788,0,0,0-1.864.5c-.772.454-.417,1.452.047,1.861C182.627,316.975,183.392,316.63,184.047,315.85Z" transform="translate(-175.483 -289.805)" fill="#443e40"/>
          </g>
          <g id="Group_158189" data-name="Group 158189" transform="translate(1.572 15.229)">
            <path id="Path_207048" data-name="Path 207048" d="M99.594,251.978a23.919,23.919,0,0,0-2.658,1.553c-3.137,1.677-5.444-.5-6.866-3.235a59.276,59.276,0,0,1-2.923-6.933,76.577,76.577,0,0,1-3.1-12.891" transform="translate(-84.044 -230.472)" fill="none" stroke="#6c5f64" stroke-width="0.8"/>
            <path id="Path_207049" data-name="Path 207049" d="M159.578,327.911c-.5.069-1.131.921-1.663.412a1.569,1.569,0,0,1-.489-.947c-.02-.511.42-.562.774-.824.522-.386.74-.924,1.456-1.266.808-.387,1.437.465,1.517,1.079C161.3,327.362,160.591,327.8,159.578,327.911Z" transform="translate(-142.76 -306.258)" fill="#443e40"/>
          </g>
          <path id="Path_207050" data-name="Path 207050" d="M79.269,172.262c-.159-.782-.367-1.548-.522-2.351-.205-1.063-.28-2.154-.41-3.226a9.94,9.94,0,0,1,.005-3.482,5.144,5.144,0,0,1,4.685-4.478,6.151,6.151,0,0,1,2.73.532,9.924,9.924,0,0,1,2.891,1.94c.817.707,1.68,1.378,2.447,2.142.58.577,1.1,1.178,1.658,1.747.493-.346.937-.8,1.441-1.134-2.659-2.676-3.7-3.735-5.12-4.986a11.63,11.63,0,0,0-1.761-1.233,5.584,5.584,0,0,0-2.474-.8c-.78-.083-1.6.3-2.367-.008A6.044,6.044,0,0,1,80.95,155.8c-.386-.327-.756-.669-1.118-1.02a2,2,0,0,0-.576-.436,1,1,0,0,0-.489-.07.536.536,0,0,0-.175.025.921.921,0,0,0-.186.082.931.931,0,0,0-.171.109.535.535,0,0,0-.118.132.987.987,0,0,0-.215.444,1.994,1.994,0,0,0,.04.721c.089.5.166,1,.222,1.5a6.062,6.062,0,0,1,.077,1.887c-.174.808-.949,1.274-1.316,1.967a5.578,5.578,0,0,0-.716,2.5,11.613,11.613,0,0,0,.038,2.15c.247,1.874.542,3.331,1.276,7.032C78.085,172.595,78.707,172.478,79.269,172.262Z" transform="translate(-76.179 -154.273)" fill="#443e40"/>
        </g>
        <path id="Path_207051" data-name="Path 207051" d="M88.662,122.6a25.533,25.533,0,0,1-1.724-7.365c-.122-1.573-.138-3.746,2.664-6.192" transform="translate(-84.756 -109.042)" fill="none" stroke="#443e40" stroke-width="1.3"/>
      </g>
      <g id="Group_158195" data-name="Group 158195" transform="translate(36.687 2.209)">
        <g id="Group_158194" data-name="Group 158194" transform="translate(19.218 24.159)">
          <path id="Path_207052" data-name="Path 207052" d="M366.27,205.151c.742,1.509-.369,3.383-1.37,4.176-1.629,1.29-4.439-.084-5.69-1.192-2.713-2.4-4.263-6.78-2.672-9.995a3.786,3.786,0,0,1,4.855-1.324C362.766,197.7,363.529,198.364,366.27,205.151Z" transform="translate(-355.897 -193.201)" fill="#a6a4a4" stroke="#383536" stroke-width="3"/>
          <path id="Path_207053" data-name="Path 207053" d="M369.357,186.492c-.626-1.169-1.414-3.149-2.691-6.085" transform="translate(-364.514 -180.407)" fill="none" stroke="#615c5e" stroke-width="0.75"/>
          <path id="Path_207054" data-name="Path 207054" d="M374.787,191.315l-2.843,4.458s-1.344,3.021,2.272,5.337l5.638.325Z" transform="translate(-368.542 -189.135)" fill="#919191"/>
          <g id="Group_158193" data-name="Group 158193" transform="translate(5.221 1.614)">
            <g id="Group_158192" data-name="Group 158192">
              <path id="Path_207055" data-name="Path 207055" d="M389.251,198.165a2.712,2.712,0,0,1-3.077.84,6.552,6.552,0,0,1-3.368-3.514,9.046,9.046,0,0,1-.775-3.075,4.505,4.505,0,0,1,1.014-3.368,2.816,2.816,0,0,1,1.906-.554c2.746-.284,5.333,4.413,5.328,6.748A4.627,4.627,0,0,1,389.251,198.165Z" transform="translate(-382.02 -188.481)" fill="#ababab" stroke="#443e40" stroke-width="2.5"/>
            </g>
            <path id="Path_207056" data-name="Path 207056" d="M401.326,209.4c.225.673.706,1.119,1.074,1s.483-.768.258-1.442-.706-1.119-1.074-1S401.1,208.725,401.326,209.4Z" transform="translate(-397.376 -204.048)" fill="#828181"/>
          </g>
          <path id="Path_207057" data-name="Path 207057" d="M372.275,211.268a2.251,2.251,0,0,0-.558,1.781,5.324,5.324,0,0,0,2.58,4.025" transform="translate(-368.526 -205.1)" fill="none" stroke="#797577" stroke-width="1"/>
        </g>
        <path id="Path_207058" data-name="Path 207058" d="M259.739,59.53c4.826.364,8.772,4.557,11.107,7.329A78.847,78.847,0,0,1,282.025,85.7" transform="translate(-259.739 -59.53)" fill="none" stroke="#443e40" stroke-width="1.3"/>
      </g>
      <g id="Group_158205" data-name="Group 158205" transform="translate(41.573 32.187)">
        <g id="Group_158202" data-name="Group 158202" transform="translate(0 3.321)">
          <g id="Group_158198" data-name="Group 158198">
            <g id="Group_158197" data-name="Group 158197">
              <g id="Group_158196" data-name="Group 158196">
                <path id="Path_207059" data-name="Path 207059" d="M297.6,232.631c-.018-1.743-.249-3.87-1.809-4.952-1.226-.85-1.163.1-1.163-1.322-1.336-.065-2.606-.265-3.575-.207-.969-.058-2.238.143-3.575.207,0,1.42.062.692-1.163,1.542a5.522,5.522,0,0,0-2.088,4.674c-.031,2.921-.105,11.1.081,12.312a4.734,4.734,0,0,0,.292,1.366c.519.963,1.92,1.145,2.861,1.18,1.736.064,3.475.087,5.212.08a15.814,15.814,0,0,0,3.684-.228c1.784-.55,1.3-2.609,1.4-4.494C297.83,241.564,297.634,235.552,297.6,232.631Z" transform="translate(-284.189 -226.139)" fill="#ff966b"/>
              </g>
            </g>
          </g>
          <g id="Group_158199" data-name="Group 158199" transform="translate(11.604 2.86)">
            <path id="Path_207060" data-name="Path 207060" d="M342.249,240.447c.913.632.848,1.744,1.059,3.219" transform="translate(-342.249 -240.447)" fill="none" stroke="#fffffd" stroke-width="2" opacity="0.27"/>
            <path id="Path_207061" data-name="Path 207061" d="M348.251,263.93" transform="translate(-347.051 -259.237)" fill="none" stroke="#fffffd" stroke-width="2" opacity="0.27"/>
            <path id="Path_207062" data-name="Path 207062" d="M348.821,280.444q.026,2.037.053,4.073" transform="translate(-347.508 -272.45)" fill="none" stroke="#fffffd" stroke-width="2" opacity="0.27"/>
          </g>
          <g id="Group_158201" data-name="Group 158201">
            <g id="Group_158200" data-name="Group 158200" clip-path="url(#clip-path-2)">
              <path id="Path_207063" data-name="Path 207063" d="M278.942,264.11s6.159.33,10.009.11l-.11,8.359c.113.109-8.531.569-10.009-.77C278.081,271.128,278.942,264.11,278.942,264.11Z" transform="translate(-279.657 -256.521)" fill="#fffffd" opacity="0.85"/>
            </g>
          </g>
        </g>
        <g id="Group_158204" data-name="Group 158204" transform="translate(0.732)">
          <path id="Path_207064" data-name="Path 207064" d="M288.158,212.259a.746.746,0,0,0-.279.662,38.642,38.642,0,0,0,.058,4.133c.158.434.995.46,1.456.529a34.733,34.733,0,0,0,4.535.285,29.476,29.476,0,0,0,3.972-.223,9.56,9.56,0,0,0,1.838-.393c.3-.183.179-.511.184-.788.014-.837.014-3.187.017-3.447a.822.822,0,0,0-.3-.786,41.216,41.216,0,0,1-11.478.028Z" transform="translate(-287.852 -211.69)" fill="#fbfbf9"/>
          <path id="Path_207065" data-name="Path 207065" d="M294.8,209.522c-1.014,0-3.244.058-4.245.193a6.985,6.985,0,0,0-1.415.385,40.182,40.182,0,0,0,5.815.379,39.58,39.58,0,0,0,5.712-.415,1.6,1.6,0,0,0-.647-.219A37.411,37.411,0,0,0,294.8,209.522Z" transform="translate(-288.88 -209.522)" fill="#97ddef"/>
          <g id="Group_158203" data-name="Group 158203" transform="translate(1.315 1.494)">
            <path id="Path_207066" data-name="Path 207066" d="M294.436,217.306c-.028,1.106.037,2.259.024,3.361" transform="translate(-294.429 -217.244)" fill="none" stroke="#97ddef" stroke-width="1"/>
            <path id="Path_207067" data-name="Path 207067" d="M305.68,217.928c0,1.04,0,2.384,0,3.424" transform="translate(-303.431 -217.742)" fill="none" stroke="#97ddef" stroke-width="1"/>
            <path id="Path_207068" data-name="Path 207068" d="M318.241,218.241c-.011.484.035,2.78.035,3.489" transform="translate(-313.48 -217.992)" fill="none" stroke="#97ddef" stroke-width="1"/>
            <path id="Path_207069" data-name="Path 207069" d="M330.322,217.825c.049.934.049,2.76.073,3.548" transform="translate(-323.148 -217.659)" fill="none" stroke="#97ddef" stroke-width="1"/>
            <path id="Path_207070" data-name="Path 207070" d="M341.665,216.995c.049,1.037.073,2.552.073,3.548" transform="translate(-332.224 -216.995)" fill="none" stroke="#97ddef" stroke-width="1"/>
          </g>
        </g>
      </g>
    </g>
  </g>
</svg>
