<svg xmlns="http://www.w3.org/2000/svg" width="118" height="112" viewBox="0 0 118 112">
  <g id="bg2" transform="translate(0 -634.177)">
    <path id="Intersection_13" data-name="Intersection 13" d="M0,40.99A69.749,69.749,0,0,1,13.279,0H107a11,11,0,0,1,11,11V96.194A73.029,73.029,0,0,1,72.436,112C32.431,112,0,80.207,0,40.99Z" transform="translate(118 746.177) rotate(180)" fill="#7eccf7"/>
    <path id="Intersection_12" data-name="Intersection 12" d="M0,32.206A54.69,54.69,0,0,1,10.466,0H93V75.581A57.67,57.67,0,0,1,57.089,88C25.56,88,0,63.02,0,32.206Z" transform="translate(93 746.177) rotate(180)" fill="#449dcf"/>
  </g>
</svg>
