<svg xmlns="http://www.w3.org/2000/svg" width="16" height="16" viewBox="0 0 16 16">
  <g id="call" transform="translate(-2 -2)">
    <path id="Path_114233" data-name="Path 114233" d="M17.653,14.206c-.5-.419-3.429-2.274-3.915-2.189-.229.041-.4.235-.871.794a6.678,6.678,0,0,1-.711.77,6.147,6.147,0,0,1-1.357-.5A8.4,8.4,0,0,1,6.922,9.2a6.147,6.147,0,0,1-.5-1.357,6.678,6.678,0,0,1,.77-.711c.558-.468.753-.642.794-.871.085-.488-1.771-3.416-2.189-3.915C5.619,2.139,5.461,2,5.257,2,4.667,2,2,5.3,2,5.726c0,.035.057,3.469,4.394,7.881C10.806,17.943,14.239,18,14.274,18,14.7,18,18,15.333,18,14.743,18,14.539,17.861,14.381,17.653,14.206Z" transform="translate(0 0)" fill="#f9f9f9"/>
    <path id="Path_114234" data-name="Path 114234" d="M20.438,11.584h1.146A4.589,4.589,0,0,0,17,7V8.146A3.442,3.442,0,0,1,20.438,11.584Z" transform="translate(-6.438 -2.146)" fill="#f9f9f9"/>
    <path id="Path_114235" data-name="Path 114235" d="M23.3,9.449h1.146A7.458,7.458,0,0,0,17,2V3.146A6.311,6.311,0,0,1,23.3,9.449Z" transform="translate(-6.449)" fill="#f9f9f9"/>
  </g>
</svg>
