<svg xmlns="http://www.w3.org/2000/svg" width="36" height="36" viewBox="0 0 36 36">
  <g id="Call" transform="translate(-169 -416.81)">
    <rect id="Rectangle_167737" data-name="Rectangle 167737" width="36" height="36" transform="translate(169 416.81)" fill="none"/>
    <g id="telephone-call" transform="translate(169 417.155)">
      <path id="Path_114233" data-name="Path 114233" d="M36.882,29.2c-1.113-.933-7.64-5.067-8.725-4.877-.509.09-.9.525-1.942,1.769a14.882,14.882,0,0,1-1.584,1.715,13.7,13.7,0,0,1-3.023-1.121,18.719,18.719,0,0,1-8.639-8.641,13.7,13.7,0,0,1-1.121-3.023,14.882,14.882,0,0,1,1.715-1.584c1.243-1.043,1.678-1.43,1.769-1.942.19-1.087-3.947-7.612-4.877-8.725-.39-.461-.744-.77-1.2-.77C7.944,2,2,9.35,2,10.3c0,.078.127,7.729,9.791,17.561,9.832,9.664,17.484,9.791,17.561,9.791.952,0,8.3-5.944,8.3-7.258,0-.453-.309-.807-.773-1.2Z" transform="translate(-2 -2)" fill="#2784b7"/>
    </g>
  </g>
</svg>
