<svg xmlns="http://www.w3.org/2000/svg" width="30" height="30" viewBox="0 0 30 30">
  <g id="car" transform="translate(-1157 4973)">
    <g id="car-insurance_3_" data-name="car-insurance (3)" transform="translate(1147.001 -5058.007)">
      <path id="Path_206968" data-name="Path 206968" d="M317.465,198.371a4.546,4.546,0,0,1-1.746-3.3v-5.128l4.74-2.321-.609-.3-5.35,2.62v5.128a4.546,4.546,0,0,0,1.746,3.3l3.6,2.459.61-.416Z" transform="translate(-285.934 -91.502)" fill="#ffe5d9"/>
      <g id="Group_158143" data-name="Group 158143" transform="translate(9.999 89.877)">
        <path id="Path_206969" data-name="Path 206969" d="M62.027,242.132a1.509,1.509,0,1,0,.011,3.018h.011a1.509,1.509,0,0,0-.011-3.018Zm.788,1.5a.778.778,0,0,1-.772.783h-.006a.777.777,0,1,1-.006-1.555h.006A.778.778,0,0,1,62.815,243.635Z" transform="translate(-57.443 -232.848)" fill="#d82a1b"/>
        <path id="Path_206970" data-name="Path 206970" d="M37.026,95.99a4.038,4.038,0,0,0-.2-.979,1.84,1.84,0,0,0-1.836-1.119h-.02c-.554,0-1.566.008-2.007.009l-.914-1.656c-.626-1.1-1.535-2.369-3.024-2.369H29l-10.98.081c-1.223.009-2.3.867-3.044,2.415l-.93,1.676-2.024.012a1.845,1.845,0,0,0-1.839,1.146A4.047,4.047,0,0,0,10,96.19a.366.366,0,0,0,.366.381h0l1.494-.013a2.583,2.583,0,0,0-1.05,2.16.361.361,0,0,0,0,.046l.682,5.089a1.471,1.471,0,0,0,1.26,1.418l.012,1.66a.918.918,0,0,0,.917.911h.007l1.675-.012a.918.918,0,0,0,.911-.924l-.012-1.643,12.161-.09a.366.366,0,0,0-.005-.732l-15.452.114h-.006a.738.738,0,0,1-.737-.732.374.374,0,0,0,0-.046l-.682-5.087A1.686,1.686,0,0,1,13.025,96.9a.364.364,0,0,0,.064.006h0l18.756-.137-.005-.732-.6,0A2.652,2.652,0,0,0,28.6,93.695h-.02a2.656,2.656,0,0,0-2.619,2.383l-12.252.09,1.913-3.449.01-.02c.355-.746,1.138-2,2.393-2.008l10.98-.081h.014c.878,0,1.593.6,2.385,1.994L33.171,95.8l.64-.354-.447-.81c.5,0,1.187,0,1.61-.008a1.154,1.154,0,0,1,1.158.624,3.293,3.293,0,0,1,.108.4l-1.081.008a.366.366,0,0,0,0,.732h0l1.5-.012a.366.366,0,0,0,.362-.386ZM15.547,106.91a.186.186,0,0,1-.184.187l-1.675.012h0a.186.186,0,0,1-.186-.184l-.012-1.643,2.046-.015ZM28.588,94.427A1.921,1.921,0,0,1,30.5,96.045l-3.8.028A1.924,1.924,0,0,1,28.588,94.427ZM10.883,95.434a1.154,1.154,0,0,1,1.148-.641l1.612-.01-.572,1.032-2.29.02A3.3,3.3,0,0,1,10.883,95.434Z" transform="translate(-9.999 -89.877)" fill="#d82a1b"/>
        <path id="Path_206971" data-name="Path 206971" d="M178.509,244.231h0a.366.366,0,0,0-.363.369l.008,1.053a.366.366,0,0,0,.366.363h0a.366.366,0,0,0,.363-.369l-.008-1.053A.366.366,0,0,0,178.509,244.231Z" transform="translate(-167.89 -234.819)" fill="#d82a1b"/>
        <path id="Path_206972" data-name="Path 206972" d="M146.506,244.467a.366.366,0,0,0-.363.369l.008,1.053a.366.366,0,0,0,.366.363h0a.366.366,0,0,0,.363-.369l-.008-1.053A.368.368,0,0,0,146.506,244.467Z" transform="translate(-137.841 -235.041)" fill="#d82a1b"/>
        <path id="Path_206973" data-name="Path 206973" d="M210.509,244h0a.366.366,0,0,0-.363.369l.008,1.053a.366.366,0,0,0,.366.363h0a.366.366,0,0,0,.363-.369l-.008-1.053A.366.366,0,0,0,210.509,244Z" transform="translate(-197.939 -234.602)" fill="#d82a1b"/>
        <path id="Path_206974" data-name="Path 206974" d="M242.51,243.76h0a.366.366,0,0,0-.363.369l.008,1.053a.366.366,0,0,0,.366.363h0a.366.366,0,0,0,.363-.369l-.008-1.053A.366.366,0,0,0,242.51,243.76Z" transform="translate(-227.989 -234.377)" fill="#d82a1b"/>
        <path id="Path_206975" data-name="Path 206975" d="M274.51,243.524h0a.366.366,0,0,0-.363.369l.008,1.053a.366.366,0,0,0,.366.363h0a.366.366,0,0,0,.363-.369l-.008-1.053A.366.366,0,0,0,274.51,243.524Z" transform="translate(-258.038 -234.155)" fill="#d82a1b"/>
      </g>
      <path id="Path_206976" data-name="Path 206976" d="M314.464,177.481l-5.716-2.808a.366.366,0,0,0-.322,0l-5.716,2.8a.366.366,0,0,0-.2.329v5.357a5.215,5.215,0,0,0,2.065,3.906l3.811,2.6a.366.366,0,0,0,.412,0l3.811-2.6a5.217,5.217,0,0,0,2.065-3.906V177.81A.366.366,0,0,0,314.464,177.481Zm-.527,5.677a4.546,4.546,0,0,1-1.746,3.3l-3.6,2.459-3.6-2.459a4.546,4.546,0,0,1-1.746-3.3V178.03l5.35-2.62,5.351,2.628Z" transform="translate(-274.669 -79.591)" fill="#d79484"/>
      <path id="Path_206977" data-name="Path 206977" d="M367.651,275.774a.366.366,0,1,0-.538.5l1.232,1.336a.366.366,0,0,0,.516.022l2.333-2.137a.366.366,0,1,0-.494-.54l-2.064,1.891Z" transform="translate(-335.248 -173.699)" fill="#e74c3f"/>
    </g>
    <rect id="Rectangle_169175" data-name="Rectangle 169175" width="30" height="30" transform="translate(1157 -4973)" fill="none"/>
  </g>
</svg>
