<svg xmlns="http://www.w3.org/2000/svg" width="30.906" height="30.908" viewBox="0 0 30.906 30.908">
  <g id="Diagnostics" transform="translate(-43.5 -305.457)">
    <rect id="Rectangle_167549" data-name="Rectangle 167549" width="30" height="30" transform="translate(44 305.957)" fill="none"/>
    <g id="health-insurance_2_" data-name="health-insurance (2)" transform="translate(44 305.957)">
      <path id="Path_114162" data-name="Path 114162" d="M290,8.787v4.16h4.16Z" transform="translate(-273.061 -8.274)" fill="#ffb125"/>
      <path id="Path_114163" data-name="Path 114163" d="M115.257,112.628V110H113.5v2.628a.876.876,0,0,1-.876.876H110v1.752h2.628a.876.876,0,0,1,.876.876v2.628h1.752v-2.628a.876.876,0,0,1,.876-.876h2.628V113.5h-2.628A.876.876,0,0,1,115.257,112.628Z" transform="translate(-103.575 -103.575)" fill="#ffb125"/>
      <path id="Path_114164" data-name="Path 114164" d="M16.764,17.541a2.625,2.625,0,0,1,1.8-2.494l3.051-1.017V6.425H16.063a.876.876,0,0,1-.876-.876V0H.876A.876.876,0,0,0,0,.876V27.161a.876.876,0,0,0,.876.876H18.613a9.662,9.662,0,0,1-1.849-5.693Zm-1.869,6.991H4.381a.876.876,0,1,1,0-1.752H14.895a.876.876,0,1,1,0,1.752Zm0-3.5H4.381a.876.876,0,0,1,0-1.752H14.895a.876.876,0,0,1,0,1.752Zm1.168-7.593H13.434v2.628a.876.876,0,0,1-.876.876h-3.5a.876.876,0,0,1-.876-.876V13.434H5.549a.876.876,0,0,1-.876-.876v-3.5a.876.876,0,0,1,.876-.876H8.177V5.549a.876.876,0,0,1,.876-.876h3.5a.876.876,0,0,1,.876.876V8.178h2.628a.876.876,0,0,1,.876.876v3.5A.876.876,0,0,1,16.063,13.434Z" transform="translate(0 0)" fill="#fff" stroke="#25d18e" stroke-width="1"/>
      <path id="Path_114165" data-name="Path 114165" d="M327.79,259.464l-4.819-1.606a.876.876,0,0,0-.554,0l-4.819,1.606a.876.876,0,0,0-.6.831v4.8a7.924,7.924,0,0,0,5.418,7.517.876.876,0,0,0,.554,0,7.923,7.923,0,0,0,5.418-7.517v-4.8A.876.876,0,0,0,327.79,259.464Zm-2.432,4.834-2.726,2.726a.876.876,0,0,1-1.239,0l-1.363-1.363a.876.876,0,1,1,1.239-1.239l.743.743,2.106-2.106a.876.876,0,1,1,1.239,1.239Z" transform="translate(-298.483 -242.753)" fill="#fff" stroke="#ffb125" stroke-width="1"/>
    </g>
  </g>
</svg>
