<svg xmlns="http://www.w3.org/2000/svg" width="30.911" height="30.913" viewBox="0 0 30.911 30.913">
  <g id="Diagnostics" transform="translate(-43.5 -305.595)">
    <rect id="Rectangle_167549" data-name="Rectangle 167549" width="30" height="30" transform="translate(44 306.007)" fill="none"/>
    <g id="health-insurance_2_" data-name="health-insurance (2)" transform="translate(44 306.095)">
      <path id="Path_114162" data-name="Path 114162" d="M290,8.787v4.16h4.16Z" transform="translate(-273.058 -8.274)" fill="#ffb125"/>
      <path id="Path_114163" data-name="Path 114163" d="M115.258,112.629V110h-1.753v2.629a.876.876,0,0,1-.876.876H110v1.753h2.629a.876.876,0,0,1,.876.876v2.629h1.753v-2.629a.876.876,0,0,1,.876-.876h2.629v-1.753h-2.629A.876.876,0,0,1,115.258,112.629Z" transform="translate(-103.574 -103.574)" fill="#ffb125"/>
      <path id="Path_114164" data-name="Path 114164" d="M16.767,17.544a2.626,2.626,0,0,1,1.8-2.494l3.051-1.017V6.426h-5.55a.876.876,0,0,1-.876-.876V0H.876A.876.876,0,0,0,0,.876V27.166a.876.876,0,0,0,.876.876h17.74a9.663,9.663,0,0,1-1.849-5.694ZM14.9,24.537H4.382a.876.876,0,1,1,0-1.753H14.9a.876.876,0,1,1,0,1.753Zm0-3.505H4.382a.876.876,0,0,1,0-1.753H14.9a.876.876,0,0,1,0,1.753Zm1.168-7.595H13.437v2.629a.876.876,0,0,1-.876.876H9.055a.876.876,0,0,1-.876-.876V13.437H5.55a.876.876,0,0,1-.876-.876V9.055a.876.876,0,0,1,.876-.876H8.179V5.55a.876.876,0,0,1,.876-.876H12.56a.876.876,0,0,1,.876.876V8.179h2.629a.876.876,0,0,1,.876.876V12.56A.876.876,0,0,1,16.066,13.437Z" transform="translate(0 0)" fill="#fff" stroke="#25d18e" stroke-width="1"/>
      <path id="Path_114165" data-name="Path 114165" d="M327.792,259.464l-4.82-1.607a.876.876,0,0,0-.554,0l-4.82,1.607a.876.876,0,0,0-.6.831v4.8a7.925,7.925,0,0,0,5.419,7.518.876.876,0,0,0,.554,0,7.925,7.925,0,0,0,5.419-7.518v-4.8A.876.876,0,0,0,327.792,259.464Zm-2.432,4.835-2.726,2.726a.876.876,0,0,1-1.239,0l-1.363-1.363a.876.876,0,1,1,1.239-1.239l.744.744,2.107-2.107a.876.876,0,1,1,1.239,1.239Z" transform="translate(-298.48 -242.751)" fill="#fff" stroke="#ffb125" stroke-width="1"/>
    </g>
  </g>
</svg>
