<svg xmlns="http://www.w3.org/2000/svg" width="30" height="30.44" viewBox="0 0 30 30.44">
  <g id="Doctor" transform="translate(-44 -305.986)">
    <rect id="Rectangle_167549" data-name="Rectangle 167549" width="30" height="30" transform="translate(44 306.12)" fill="none"/>
    <g id="doctor-2" data-name="doctor" transform="translate(47.313 306.386)">
      <path id="Path_114053" data-name="Path 114053" d="M20.014,0A6.438,6.438,0,1,0,26.45,6.437,6.443,6.443,0,0,0,20.014,0Z" transform="translate(-8.461)" fill="#fff" stroke="#ffb125" stroke-width="0.8"/>
      <path id="Path_114054" data-name="Path 114054" d="M21.817,23.269a14.166,14.166,0,0,1,.471,3.838c.947.839,3.43,3.313,2.89,5.754a2.859,2.859,0,0,1-2,2.028.618.618,0,0,1-.4-1.169,1.668,1.668,0,0,0,1.189-1.1c.369-1.674-1.483-3.706-2.513-4.61-1.233.6-3.563,2.066-3.653,3.747a1.656,1.656,0,0,0,.849,1.4.618.618,0,1,1-.695,1.022,2.854,2.854,0,0,1-1.386-2.522c.14-2.609,3.55-4.387,4.5-4.834a16.828,16.828,0,0,0-.611-3.92.688.688,0,0,1-.006-.1,10.7,10.7,0,0,0-2.816-.387H16.051a10.722,10.722,0,0,0-3.142.471.564.564,0,0,1-.035.132,26.861,26.861,0,0,0-1.99,7.047,2.53,2.53,0,1,1-1.244-.028,30.115,30.115,0,0,1,1.675-6.509,10.765,10.765,0,0,0-6.024,9.65V37.6a.617.617,0,0,0,.618.618H27.782a.624.624,0,0,0,.618-.626v-4.4a10.781,10.781,0,0,0-6.583-9.917Z" transform="translate(-5.291 -8.577)" fill="#fff" stroke="#25d18e" stroke-width="0.8"/>
    </g>
  </g>
</svg>
