<svg xmlns="http://www.w3.org/2000/svg" width="28" height="28" viewBox="0 0 28 28">
  <g id="Download_form" transform="translate(6725 -5058)">
    <g id="surface1" transform="translate(-6723.736 5058)">
      <rect id="Rectangle_169386" data-name="Rectangle 169386" width="28" height="28" transform="translate(-1.264)" fill="none"/>
      <path id="Path_208213" data-name="Path 208213" d="M19.083,12.121v-5.3a.613.613,0,0,0-.169-.4L12.973.181A.592.592,0,0,0,12.547,0H3.128A3.138,3.138,0,0,0,0,3.157V20.968A3.118,3.118,0,0,0,3.128,24.1h7.435a8.025,8.025,0,1,0,8.52-11.981ZM13.131,2.048l3.986,4.2H14.531a1.41,1.41,0,0,1-1.4-1.406Zm-10,20.886a1.955,1.955,0,0,1-1.961-1.967V3.157a1.971,1.971,0,0,1,1.961-1.99h8.835V4.838a2.573,2.573,0,0,0,2.568,2.573h3.385v4.558c-.175-.006-.315-.023-.467-.023a8.143,8.143,0,0,0-5.322,2.008H4.715a.584.584,0,1,0,0,1.167h6.326a9.285,9.285,0,0,0-1.027,1.809h-5.3a.584.584,0,0,0,0,1.167h4.92a8.009,8.009,0,0,0,.35,4.844H3.128Zm14.315,3.9A6.857,6.857,0,1,1,24.3,19.982,6.864,6.864,0,0,1,17.443,26.839Zm0,0" fill="#d82a1b"/>
      <path id="Path_208214" data-name="Path 208214" d="M76.134,202.851h5.912a.584.584,0,1,0,0-1.167H76.134a.584.584,0,1,0,0,1.167Zm0,0" transform="translate(-71.419 -190.654)" fill="#d79484"/>
      <path id="Path_208215" data-name="Path 208215" d="M252.662,287.582l-2.4,2.585v-6.373a.584.584,0,1,0-1.167,0v6.373l-2.416-2.585a.589.589,0,0,0-.829-.029.581.581,0,0,0-.029.823l3.414,3.671a.579.579,0,0,0,.852,0l3.42-3.671a.58.58,0,1,0-.846-.794Zm0,0" transform="translate(-232.231 -267.723)" fill="#d79484"/>
    </g>
  </g>
</svg>
