<svg xmlns="http://www.w3.org/2000/svg" width="30" height="30" viewBox="0 0 30 30">
  <g id="Download_form" transform="translate(-44 -306.408)">
    <rect id="Rectangle_167549" data-name="Rectangle 167549" width="30" height="30" transform="translate(44 306.408)" fill="none"/>
    <g id="_x35_7" transform="translate(41.646 303.408)">
      <path id="Path_114098" data-name="Path 114098" d="M27.977,7.91,23.852,4.1A4,4,0,0,0,21.086,3H9.51A4.084,4.084,0,0,0,5.435,7.075V28.832A4.084,4.084,0,0,0,9.51,32.906H25.2a4.084,4.084,0,0,0,4.075-4.075V10.9a4.11,4.11,0,0,0-1.3-2.991ZM13.285,14.277a1.241,1.241,0,0,1,1.757,0l1.072,1.072V10.925a1.246,1.246,0,1,1,2.492,0v4.4l1.059-1.059a1.242,1.242,0,0,1,1.757,1.757l-3.19,3.2a1.256,1.256,0,0,1-1.757,0l-3.19-3.19a1.241,1.241,0,0,1,0-1.757Zm8.9,11.95H12.525a1.246,1.246,0,1,1,0-2.492h9.657a1.246,1.246,0,0,1,0,2.492Z" fill="#338ec0"/>
    </g>
  </g>
</svg>
