<svg xmlns="http://www.w3.org/2000/svg" width="36" height="36" viewBox="0 0 36 36">
  <g id="Email" transform="translate(-169 -416.711)">
    <rect id="Rectangle_167737" data-name="Rectangle 167737" width="36" height="36" transform="translate(169 416.711)" fill="none"/>
    <g id="gmail" transform="translate(169 421.519)">
      <path id="Path_114238" data-name="Path 114238" d="M2.424,177.3H8.081V163.559l-3.7-6.468L0,157.5v17.374A2.424,2.424,0,0,0,2.424,177.3Z" transform="translate(0 -150.623)" fill="#0085f7"/>
      <path id="Path_114239" data-name="Path 114239" d="M395.636,177.3h5.657a2.424,2.424,0,0,0,2.424-2.424V157.5l-4.371-.407-3.71,6.468Z" transform="translate(-368.161 -150.623)" fill="#00a94b"/>
      <path id="Path_114240" data-name="Path 114240" d="M351.112,66.384l-3.323,6.341,3.323,4.165,8.081-6.061V67.6a3.637,3.637,0,0,0-5.818-2.909Z" transform="translate(-323.636 -63.953)" fill="#ffbc00"/>
      <path id="Path_114241" data-name="Path 114241" d="M73.937,109.461l-3.166-6.688,3.166-3.817,9.7,7.273,9.7-7.273v10.505l-9.7,7.273Z" transform="translate(-65.856 -96.525)" fill="#ff4131" fill-rule="evenodd"/>
      <path id="Path_114242" data-name="Path 114242" d="M0,67.6v3.232l8.081,6.061V66.384l-2.263-1.7A3.637,3.637,0,0,0,0,67.6Z" transform="translate(0 -63.953)" fill="#e51c19"/>
    </g>
  </g>
</svg>
