<svg id="Employee-Details" xmlns="http://www.w3.org/2000/svg" width="30" height="30" viewBox="0 0 30 30">
  <path id="Path_208243" data-name="Path 208243" d="M29,26.5H28v-12A1.5,1.5,0,0,0,26.5,13h-9A1.5,1.5,0,0,0,16,14.5v4.678a4.491,4.491,0,0,0-3.321-1.669L11,16.25V14.817a5.06,5.06,0,0,0,2.507-3.882,2,2,0,0,0,1.486-1.844A19.221,19.221,0,0,0,15.5,5a6.235,6.235,0,0,0-.109-1.167A2.926,2.926,0,0,0,12.8,1.515a2.562,2.562,0,0,0-.714-.68A6.472,6.472,0,0,0,8.5,0C5.617,0,4.56.975,4.2,1.513,2.346,1.682,1.5,3.4,1.5,5a19.228,19.228,0,0,0,.508,4.092,1.963,1.963,0,0,0,1.51,1.829A5.01,5.01,0,0,0,6,14.816V16.25L4.321,17.509A4.5,4.5,0,0,0,0,22v6a2,2,0,0,0,2,2H15a2,2,0,0,0,2-2V25.5h1v3A1.54,1.54,0,0,0,19.5,30h9A1.5,1.5,0,0,0,30,28.5v-1A1,1,0,0,0,29,26.5ZM7.96,21H9.039L9.4,25.336a9.96,9.96,0,0,1-.9.985,9.969,9.969,0,0,1-.9-.986Zm2.33,3.017-.274-3.327.234-.234a.769.769,0,0,0,.822-.2l.793-.846a13.415,13.415,0,0,1-1.575,4.611ZM9.291,20H7.707l-.207-.2,1-1.064,1,1.064ZM6.5,20.5a.785.785,0,0,0,.25-.044l.234.234-.273,3.324a13.476,13.476,0,0,1-1.573-4.6l.8.85A.784.784,0,0,0,6.5,20.5Zm1.67,6.877a.5.5,0,0,0,.659,0,12.825,12.825,0,0,0,3.984-7.516l1.2,2.575L9.245,29H7.754L3,22.458l1.19-2.586A12.809,12.809,0,0,0,8.17,27.376ZM10.5,19.4,9.246,18.065l1.253-.94,1.253.94ZM4.5,2.5a.525.525,0,0,0,.469-.326C4.973,2.161,5.485,1,8.5,1a5.42,5.42,0,0,1,3.033.666,1.37,1.37,0,0,1,.492.491A.5.5,0,0,0,12.5,2.5a1.929,1.929,0,0,1,1.908,1.524A5.228,5.228,0,0,1,14.5,5a16.378,16.378,0,0,1-.214,2.48,1.992,1.992,0,0,0-.809-.412A3.607,3.607,0,0,0,10.8,4.03a.722.722,0,0,0-.788.272A1.745,1.745,0,0,1,8.5,5a1.75,1.75,0,0,1-1.521-.71A.718.718,0,0,0,6.2,4.03,3.65,3.65,0,0,0,3.5,7.062a1.973,1.973,0,0,0-.788.412A16.367,16.367,0,0,1,2.5,5C2.5,3.846,3.023,2.5,4.5,2.5Zm.014,8.338a1,1,0,0,0-.769-.87,1,1,0,0,1,0-1.937,1,1,0,0,0,.768-.857A2.568,2.568,0,0,1,6.3,5.05,2.773,2.773,0,0,0,8.5,6a2.773,2.773,0,0,0,2.2-.95,2.567,2.567,0,0,1,1.783,2.125,1,1,0,0,0,.767.856,1,1,0,0,1,0,1.936,1,1,0,0,0-.769.87,4,4,0,0,1-7.972,0ZM8.5,15.5a4.923,4.923,0,0,0,1.5-.237v.987L8.5,17.375,7,16.25v-.987A4.921,4.921,0,0,0,8.5,15.5Zm-2,1.625,1.253.94L6.5,19.4,5.246,18.065ZM1,28V22a3.5,3.5,0,0,1,2.672-3.4L2.089,22.041a.99.99,0,0,0,.092.981L6.519,29H2A1,1,0,0,1,1,28Zm15,0a1,1,0,0,1-1,1H10.48l4.346-5.989a.985.985,0,0,0,.083-.971L13.328,18.6A3.5,3.5,0,0,1,16,22Zm1-3.5v-10a.5.5,0,1,1,1,0v10Zm3,3v.946a.542.542,0,0,1-.413.546A.505.505,0,0,1,19,28.5v-14a1.483,1.483,0,0,0-.092-.5H26.5a.5.5,0,0,1,.5.5v12H21A1,1,0,0,0,20,27.5Zm9,1a.5.5,0,0,1-.5.5H20.9a1.6,1.6,0,0,0,.1-.554V27.5h8Z" transform="translate(0 0)" fill="#d82a1b"/>
  <path id="Path_208244" data-name="Path 208244" d="M42.627,38.417a.858.858,0,0,0,.75,0A4.65,4.65,0,0,0,46,34.293V32.356a.857.857,0,0,0-.714-.851,14.224,14.224,0,0,1-2.027-.467.834.834,0,0,0-.523,0,14.285,14.285,0,0,1-2.026.466.857.857,0,0,0-.714.851v1.937a4.653,4.653,0,0,0,2.627,4.124ZM41,32.473a15.067,15.067,0,0,0,2-.465,15.085,15.085,0,0,0,2,.465v1.82a3.69,3.69,0,0,1-2,3.192,3.69,3.69,0,0,1-2-3.192Z" transform="translate(-20.006 -15.502)" fill="#d82a1b"/>
  <path id="Path_208245" data-name="Path 208245" d="M44.831,38a.346.346,0,0,0,.05,0,.5.5,0,0,0,.367-.22l.667-1a.5.5,0,1,0-.833-.555l-.339.508a.5.5,0,0,0-.6.79l.334.334A.5.5,0,0,0,44.831,38Z" transform="translate(-21.998 -18.001)" fill="#d82a1b"/>
  <path id="Path_208246" data-name="Path 208246" d="M46,48.5a.5.5,0,0,0-.5-.5h-5a.5.5,0,0,0,0,1h5A.5.5,0,0,0,46,48.5Z" transform="translate(-20.006 -24.006)" fill="#d82a1b"/>
</svg>
