<svg xmlns="http://www.w3.org/2000/svg" width="40" height="40" viewBox="0 0 40 40">
  <g id="Find_Hospital" data-name="Find Hospital" transform="translate(-44 -305.957)">
    <rect id="Rectangle_167549" data-name="Rectangle 167549" width="40" height="40" transform="translate(44 305.957)" fill="none"/>
    <g id="Network_hospital" transform="translate(44 306.402)">
      <rect id="Rectangle_167549-2" data-name="Rectangle 167549" width="40" height="40" transform="translate(0 -0.446)" fill="none"/>
      <g id="Group_193" data-name="Group 193" transform="translate(0 14.447)">
        <path id="Path_114033" data-name="Path 114033" d="M5.17,186.392H1.157A1.157,1.157,0,0,0,0,187.549V211.5H5.17Z" transform="translate(0 -186.392)" fill="#4cb74d"/>
        <path id="Path_114034" data-name="Path 114034" d="M448.965,186.392h-4.013V211.5h5.17V187.549A1.157,1.157,0,0,0,448.965,186.392Z" transform="translate(-410.641 -186.392)" fill="#4cb74d"/>
      </g>
      <g id="Group_194" data-name="Group 194" transform="translate(7.484 0.074)">
        <path id="Path_114035" data-name="Path 114035" d="M0,0H7.729V4.023H0Z" transform="translate(14.268 31.752) rotate(90)" fill="#4cb74d"/>
        <path id="Path_114036" data-name="Path 114036" d="M120.405,4.751h-3.642V1.157A1.157,1.157,0,0,0,115.607,0H103.167a1.157,1.157,0,0,0-1.157,1.157V4.751H98.2a1.157,1.157,0,0,0-1.157,1.157V39.481h7.932V30.6a1.157,1.157,0,0,1,1.157-1.157h6.336A1.157,1.157,0,0,1,113.63,30.6v8.885h7.932V5.908a1.157,1.157,0,0,0-1.157-1.157ZM104.067,25.442h-1.246a1.157,1.157,0,0,1,0-2.313h1.246a1.157,1.157,0,0,1,0,2.313Zm0-4.627h-1.246a1.157,1.157,0,0,1,0-2.313h1.246a1.157,1.157,0,0,1,0,2.313Zm0-4.627h-1.246a1.157,1.157,0,0,1,0-2.313h1.246a1.157,1.157,0,0,1,0,2.313Zm5.86,9.253h-1.246a1.157,1.157,0,1,1,0-2.313h1.246a1.157,1.157,0,1,1,0,2.313Zm0-4.627h-1.246a1.157,1.157,0,1,1,0-2.313h1.246a1.157,1.157,0,1,1,0,2.313Zm0-4.627h-1.246a1.157,1.157,0,1,1,0-2.313h1.246a1.157,1.157,0,1,1,0,2.313Zm1.708-6.917h-1.174v1.174a1.157,1.157,0,1,1-2.313,0V9.271h-1.174a1.157,1.157,0,1,1,0-2.313h1.174V5.783a1.157,1.157,0,1,1,2.313,0V6.958h1.174a1.157,1.157,0,0,1,0,2.313Zm4.152,16.171h-1.246a1.157,1.157,0,1,1,0-2.313h1.246a1.157,1.157,0,1,1,0,2.313Zm0-4.627h-1.246a1.157,1.157,0,1,1,0-2.313h1.246a1.157,1.157,0,1,1,0,2.313Zm0-4.627h-1.246a1.157,1.157,0,1,1,0-2.313h1.246a1.157,1.157,0,1,1,0,2.313Z" transform="translate(-97.048)" fill="#4cb74d"/>
      </g>
    </g>
  </g>
</svg>
