<svg xmlns="http://www.w3.org/2000/svg" width="40" height="40" viewBox="0 0 40 40">
  <g id="Find_Doctor" data-name="Find Doctor" transform="translate(-44 -305.957)">
    <rect id="Rectangle_167549" data-name="Rectangle 167549" width="40" height="40" transform="translate(44 305.957)" fill="none"/>
    <g id="doctor" transform="translate(48.393 306.526)">
      <path id="Path_114053" data-name="Path 114053" d="M22.113,0a8.537,8.537,0,1,0,8.535,8.536A8.544,8.544,0,0,0,22.113,0Z" transform="translate(-6.792)" fill="#4cb74d"/>
      <path id="Path_114054" data-name="Path 114054" d="M27.206,23.545a18.786,18.786,0,0,1,.624,5.089c1.255,1.113,4.549,4.393,3.832,7.63a3.791,3.791,0,0,1-2.653,2.69.819.819,0,0,1-.529-1.55,2.212,2.212,0,0,0,1.577-1.454c.49-2.22-1.967-4.915-3.333-6.113-1.635.794-4.725,2.74-4.845,4.969a2.2,2.2,0,0,0,1.126,1.86.819.819,0,1,1-.921,1.355,3.785,3.785,0,0,1-1.838-3.344c.186-3.46,4.708-5.817,5.97-6.41a22.316,22.316,0,0,0-.811-5.2.913.913,0,0,1-.008-.133,14.19,14.19,0,0,0-3.735-.513h-2.1a14.218,14.218,0,0,0-4.167.625.748.748,0,0,1-.046.175,35.621,35.621,0,0,0-2.638,9.345,3.355,3.355,0,1,1-1.65-.037A39.937,39.937,0,0,1,13.28,23.9,14.277,14.277,0,0,0,5.291,36.7v5.853a.818.818,0,0,0,.819.819H35.117a.828.828,0,0,0,.819-.83V36.7a14.3,14.3,0,0,0-8.729-13.151Z" transform="translate(-5.291 -4.061)" fill="#4cb74d"/>
    </g>
  </g>
</svg>
