<svg xmlns="http://www.w3.org/2000/svg" width="30" height="30" viewBox="0 0 30 30">
  <g id="health" transform="translate(-1205 4973)">
    <rect id="Rectangle_169177" data-name="Rectangle 169177" width="30" height="30" transform="translate(1205 -4973)" fill="none"/>
    <g id="life-insurance_5_" data-name="life-insurance (5)" transform="translate(1171.965 -5000)">
      <path id="Path_206982" data-name="Path 206982" d="M162.456,54.346a7,7,0,0,1-3.188-5.813v-3.7a33.479,33.479,0,0,0,6.234-3.572q-.569-.384-1.122-.791a33.479,33.479,0,0,1-6.422,3.708v3.7a7,7,0,0,0,3.188,5.813,11.986,11.986,0,0,0,2.332,1.319A11.221,11.221,0,0,1,162.456,54.346Z" transform="translate(-116.345 -12.592)" fill="#ffe5d9"/>
      <path id="Path_206983" data-name="Path 206983" d="M36.863,169.62l3.221,2.219.021.014a1.033,1.033,0,0,1,.463.6l.539,2.393a.389.389,0,0,0,.082.164l-.625.478a.393.393,0,0,0-.154.312v3.771a.393.393,0,0,0,.61.328l5.963-3.94a.393.393,0,0,0,.176-.328v-4.394a.393.393,0,0,0-.632-.312l-.641.491a2.111,2.111,0,0,1-.041-.309l-.049-.852c0-.011,0-.021,0-.032a4.634,4.634,0,0,0-3.077-3.743l-.277-.1a2.664,2.664,0,0,1-1-.629L40.1,164.415l-.457-1.547a2.14,2.14,0,0,0-1.816-1.567l-.067-.223,0-.009a1.663,1.663,0,0,0-1.665-1.062l-.013-.043a1.932,1.932,0,0,0-2.32-1.324.393.393,0,0,0-.292.453l1.475,7.936a.385.385,0,0,0,.014.054A5.087,5.087,0,0,0,36.863,169.62Zm9.511,5.8L41.2,178.839v-2.846l5.177-3.962Zm-7.491-12.342,0,.01.123.417a2.286,2.286,0,0,0-.582-.192l-.341-1.138A1.352,1.352,0,0,1,38.883,163.076Zm-1.876-1.767.6,2a2.291,2.291,0,0,0-.486.141l-.013-.042-.778-2.6A.84.84,0,0,1,37.007,161.309Zm-2.69-1.937a1.148,1.148,0,0,1,1.008.817l1.031,3.446.079.256c-.018.017-.037.034-.055.052a.393.393,0,0,0,.013.568l1.614,1.474a10.419,10.419,0,0,1,1.278,1.4.393.393,0,1,0,.627-.474,11.2,11.2,0,0,0-1.375-1.508l-1.268-1.158a1.513,1.513,0,0,1,1.8.252l1.81,1.81a3.455,3.455,0,0,0,1.3.815l.277.1a3.851,3.851,0,0,1,2.555,3.095l.048.835a2.881,2.881,0,0,0,.154.777l-3.377,2.584-.506-2.245-.005-.021a1.816,1.816,0,0,0-.807-1.062l-3.21-2.212a4.3,4.3,0,0,1-1.6-2.116Z" transform="translate(0 -122.963)" fill="#d79484"/>
      <path id="Path_206984" data-name="Path 206984" d="M282.762,158.639a1.932,1.932,0,0,0-2.32,1.324l-.013.043a1.664,1.664,0,0,0-1.665,1.062l0,.009-.067.223a2.14,2.14,0,0,0-1.816,1.567l-.457,1.547-1.338,1.338a2.665,2.665,0,0,1-1,.629l-.277.1a4.634,4.634,0,0,0-3.077,3.743c0,.011,0,.021,0,.032l-.049.852a2.115,2.115,0,0,1-.041.309l-.641-.491a.393.393,0,0,0-.632.312v4.394a.393.393,0,0,0,.176.328l5.963,3.94a.393.393,0,0,0,.61-.328V175.8a.393.393,0,0,0-.154-.312l-.625-.478a.39.39,0,0,0,.082-.164l.539-2.393a1.033,1.033,0,0,1,.463-.6l.021-.014,3.222-2.22a5.086,5.086,0,0,0,1.908-2.536.382.382,0,0,0,.014-.054l1.475-7.936A.393.393,0,0,0,282.762,158.639Zm-3.25,2.669a.84.84,0,0,1,.678-.505l-.777,2.6-.014.046a2.3,2.3,0,0,0-.486-.141Zm-1.876,1.767a1.352,1.352,0,0,1,.8-.9l-.341,1.138a2.291,2.291,0,0,0-.582.192l.123-.417Zm-2.314,15.763-5.177-3.421v-3.387l5.177,3.962Zm5.489-11.982a4.3,4.3,0,0,1-1.6,2.115L276,171.185a1.816,1.816,0,0,0-.807,1.062c0,.007,0,.014-.005.021l-.506,2.245-3.377-2.584a2.88,2.88,0,0,0,.154-.777l.048-.835a3.851,3.851,0,0,1,2.555-3.095l.277-.1a3.455,3.455,0,0,0,1.3-.815l1.81-1.81a1.513,1.513,0,0,1,1.8-.252l-1.267,1.158a11.206,11.206,0,0,0-1.375,1.508.393.393,0,0,0,.627.474,10.417,10.417,0,0,1,1.278-1.4l1.614-1.474a.393.393,0,0,0,.013-.568l-.055-.052.08-.26,1.03-3.443a1.148,1.148,0,0,1,1.008-.817Z" transform="translate(-220.449 -122.963)" fill="#d79484"/>
      <g id="Group_158144" data-name="Group 158144" transform="translate(40.827 27)">
        <path id="Path_206985" data-name="Path 206985" d="M201.767,96.923V98.9h-1.974a.393.393,0,0,0-.393.393v1.894a.393.393,0,0,0,.393.393h1.974v1.974a.393.393,0,0,0,.393.393h1.894a.393.393,0,0,0,.393-.393v-1.974h1.974a.393.393,0,0,0,.393-.393V99.291a.393.393,0,0,0-.393-.393h-1.974V96.923a.393.393,0,0,0-.393-.393H202.16A.393.393,0,0,0,201.767,96.923Zm.786,2.368V97.316h1.108v1.974a.393.393,0,0,0,.393.393h1.974v1.108h-1.974a.393.393,0,0,0-.393.393v1.974h-1.108v-1.974a.393.393,0,0,0-.393-.393h-1.974V99.684h1.974a.393.393,0,0,0,.393-.393Z" transform="translate(-195.899 -91.976)" fill="#d82a1b"/>
        <path id="Path_206986" data-name="Path 206986" d="M160.136,30.971l-.045-.02a32.687,32.687,0,0,1-6.69-3.873.393.393,0,0,0-.472,0,32.687,32.687,0,0,1-6.69,3.873l-.045.019a.393.393,0,0,0-.238.361v3.954a7.849,7.849,0,0,0,3.509,6.447,12.4,12.4,0,0,0,3.47,1.775.393.393,0,0,0,.217,0,13,13,0,0,0,3.587-1.772,7.785,7.785,0,0,0,3.633-6.451V31.332a.393.393,0,0,0-.238-.361Zm-.549,4.315a6.938,6.938,0,0,1-3.282,5.8,12.612,12.612,0,0,1-3.256,1.637,11.95,11.95,0,0,1-3.118-1.62,7,7,0,0,1-3.188-5.813v-3.7a33.479,33.479,0,0,0,6.422-3.708,33.482,33.482,0,0,0,6.422,3.708Z" transform="translate(-145.958 -27)" fill="#d82a1b"/>
      </g>
    </g>
  </g>
</svg>
