<svg xmlns="http://www.w3.org/2000/svg" width="30.493" height="30.493" viewBox="0 0 30.493 30.493">
  <g id="Hospital" transform="translate(-43.532 -305.839)">
    <rect id="Rectangle_167549" data-name="Rectangle 167549" width="30" height="30" transform="translate(44 305.886)" fill="none"/>
    <g id="Find_Hospital" data-name="Find Hospital" transform="translate(44.032 306.006)">
      <rect id="Rectangle_167549-2" data-name="Rectangle 167549" width="29.826" height="29.826" transform="translate(0 0)" fill="none"/>
      <g id="Network_hospital" transform="translate(0 0)">
        <rect id="Rectangle_167549-3" data-name="Rectangle 167549" width="29.826" height="29.826" transform="translate(0 0)" fill="none"/>
        <g id="Group_193" data-name="Group 193" transform="translate(0 11.07)">
          <path id="Path_114033" data-name="Path 114033" d="M3.862,186.392h-3a.864.864,0,0,0-.864.864v17.892H3.862Z" transform="translate(0 -186.392)" fill="#fff" stroke="#25d18e" stroke-width="1"/>
          <path id="Path_114034" data-name="Path 114034" d="M447.95,186.392h-3v18.756h3.862V187.256A.864.864,0,0,0,447.95,186.392Z" transform="translate(-419.322 -186.392)" fill="#fff" stroke="#25d18e" stroke-width="1"/>
        </g>
        <g id="Group_194" data-name="Group 194" transform="translate(5.59 0.333)">
          <path id="Path_114035" data-name="Path 114035" d="M0,0H5.773V3.005H0Z" transform="translate(10.659 23.719) rotate(90)" fill="#fff" stroke="#ffb125" stroke-width="1"/>
          <path id="Path_114036" data-name="Path 114036" d="M114.5,3.549h-2.72V.864A.864.864,0,0,0,110.912,0h-9.293a.864.864,0,0,0-.864.864V3.549H97.912a.864.864,0,0,0-.864.864v25.08h5.925V22.855a.864.864,0,0,1,.864-.864h4.733a.864.864,0,0,1,.864.864v6.637h5.926V4.413A.864.864,0,0,0,114.5,3.549Zm-12.2,15.456h-.931a.864.864,0,0,1,0-1.728h.931a.864.864,0,0,1,0,1.728Zm0-3.456h-.931a.864.864,0,0,1,0-1.728h.931a.864.864,0,0,1,0,1.728Zm0-3.456h-.931a.864.864,0,0,1,0-1.728h.931a.864.864,0,0,1,0,1.728Zm4.378,6.912h-.931a.864.864,0,1,1,0-1.728h.931a.864.864,0,1,1,0,1.728Zm0-3.456h-.931a.864.864,0,1,1,0-1.728h.931a.864.864,0,1,1,0,1.728Zm0-3.456h-.931a.864.864,0,0,1,0-1.728h.931a.864.864,0,1,1,0,1.728Zm1.276-5.167h-.877V7.8a.864.864,0,1,1-1.728,0V6.926h-.877a.864.864,0,1,1,0-1.728h.877V4.32a.864.864,0,1,1,1.728,0V5.2h.877a.864.864,0,1,1,0,1.728Zm3.1,12.08h-.931a.864.864,0,1,1,0-1.728h.931a.864.864,0,1,1,0,1.728Zm0-3.456h-.931a.864.864,0,1,1,0-1.728h.931a.864.864,0,1,1,0,1.728Zm0-3.456h-.931a.864.864,0,1,1,0-1.728h.931a.864.864,0,0,1,0,1.728Z" transform="translate(-97.048)" fill="#fff" stroke="#ffb125" stroke-width="1"/>
        </g>
      </g>
    </g>
  </g>
</svg>
