<svg xmlns="http://www.w3.org/2000/svg" width="30" height="30" viewBox="0 0 30 30">
  <g id="Intimate_my_claim" transform="translate(-0.648 0.035)">
    <rect id="Rectangle_167549" data-name="Rectangle 167549" width="30" height="30" transform="translate(0.648 -0.035)" fill="none"/>
    <path id="Path_114024" data-name="Path 114024" d="M8.825,242a7.825,7.825,0,1,0,7.825,7.825A7.834,7.834,0,0,0,8.825,242Zm3.455,6.875-4.058,4.058a.869.869,0,0,1-1.23,0l-1.739-1.739a.869.869,0,0,1,1.23-1.23l1.124,1.124,3.443-3.443a.869.869,0,1,1,1.23,1.23Z" transform="translate(-0.059 -227.979)" fill="#338ec0"/>
    <path id="Path_114025" data-name="Path 114025" d="M136.941,7.536a.87.87,0,0,1-.869-.869V0H123.608A2.611,2.611,0,0,0,121,2.608v9.72c.286-.026.576-.04.869-.04a9.549,9.549,0,0,1,7.372,3.478h9.438a.869.869,0,1,1,0,1.739h-8.292a9.492,9.492,0,0,1,1.006,3.478h7.286a.869.869,0,1,1,0,1.739h-7.286a9.568,9.568,0,0,1-4.032,6.956H141a2.611,2.611,0,0,0,2.608-2.608V7.536Zm1.739,4.753H125.927a.869.869,0,0,1,0-1.739H138.68a.869.869,0,1,1,0,1.739Z" transform="translate(-113.103 -0.006)" fill="#338ec0"/>
    <path id="Path_114026" data-name="Path 114026" d="M411,8.783V14.07h5.287Z" transform="translate(-386.293 -8.28)" fill="#338ec0"/>
  </g>
</svg>
