<svg xmlns="http://www.w3.org/2000/svg" width="30" height="30.001" viewBox="0 0 30 30.001">
  <g id="life" transform="translate(-1258 4973)">
    <g id="Group_158147" data-name="Group 158147" transform="translate(53 -75)">
      <g id="life-insurance_6_" data-name="life-insurance (6)" transform="translate(1162.487 -4907.98)">
        <path id="Path_206987" data-name="Path 206987" d="M94.541,16.718a.365.365,0,0,0,.416-.3A5.58,5.58,0,0,0,84.528,12.92a5.579,5.579,0,1,0-8.86,6.585l8.6,8.6a.365.365,0,0,0,.516,0l1.648-1.648a.365.365,0,1,0-.516-.516l-1.391,1.39-8.345-8.345a4.849,4.849,0,1,1,8-5.048.365.365,0,0,0,.687,0,4.85,4.85,0,0,1,9.365,2.36.365.365,0,0,0,.3.416Z" transform="translate(-27.558)" fill="#d79484"/>
        <g id="Group_158145" data-name="Group 158145" transform="translate(53.49 13.245)">
          <path id="Path_206988" data-name="Path 206988" d="M204.413,68.811a7.027,7.027,0,0,0-13.51,0,2.03,2.03,0,0,0,0,3.861,7.027,7.027,0,0,0,13.511,0,2.03,2.03,0,0,0,0-3.863Zm-.368,3.207a.364.364,0,0,0-.283.269,6.3,6.3,0,0,1-12.209,0,.365.365,0,0,0-.282-.269,1.3,1.3,0,0,1,0-2.549.365.365,0,0,0,.282-.268,6.3,6.3,0,0,1,12.209,0,.365.365,0,0,0,.283.268,1.3,1.3,0,0,1,0,2.551Z" transform="translate(-189.5 -63.719)" fill="#d82a1b"/>
          <path id="Path_206989" data-name="Path 206989" d="M359.407,169.979a1.016,1.016,0,1,0,1.016,1.016A1.016,1.016,0,0,0,359.407,169.979Zm0,1.3a.287.287,0,1,1,.287-.287A.287.287,0,0,1,359.407,171.282Z" transform="translate(-348.13 -163.523)" fill="#d82a1b"/>
          <path id="Path_206990" data-name="Path 206990" d="M256.823,166.443a1.016,1.016,0,1,0,1.016,1.016A1.016,1.016,0,0,0,256.823,166.443Zm0,1.3a.287.287,0,1,1,.287-.287A.287.287,0,0,1,256.823,167.746Z" transform="translate(-251.779 -160.202)" fill="#d82a1b"/>
          <path id="Path_206991" data-name="Path 206991" d="M290.947,214.5a.365.365,0,0,0-.365.365,1.519,1.519,0,1,1-3.039,0,.365.365,0,1,0-.729,0,2.248,2.248,0,1,0,4.5,0A.365.365,0,0,0,290.947,214.5Z" transform="translate(-280.902 -205.339)" fill="#d82a1b"/>
          <path id="Path_206992" data-name="Path 206992" d="M275.806,93.375a.363.363,0,0,0,.258-.107l1.274-1.274a.365.365,0,1,0-.515-.516l-1.274,1.274a.365.365,0,0,0,.258.622Z" transform="translate(-270.221 -89.692)" fill="#d82a1b"/>
          <path id="Path_206993" data-name="Path 206993" d="M305.8,93.267a.365.365,0,0,0,.516,0l1.274-1.274a.365.365,0,0,0-.516-.516L305.8,92.751A.365.365,0,0,0,305.8,93.267Z" transform="translate(-298.631 -89.691)" fill="#d82a1b"/>
        </g>
        <path id="Path_206994" data-name="Path 206994" d="M59.775,343.253l2.6,8.434.792,0-2.791-9.041-2.888.012.076.607Z" transform="translate(-12.022 -312.452)" fill="#ffe5d9"/>
        <path id="Path_206995" data-name="Path 206995" d="M126.174,334.12a3.259,3.259,0,0,0,1.192-.681l.724-.65a4.55,4.55,0,0,1,4.722-.474l.306.134a3.9,3.9,0,0,0,1.695.369l2.964-.013a1.809,1.809,0,0,1,.956.268,1.841,1.841,0,0,0-1.566-.873l-2.964.013a3.9,3.9,0,0,1-1.695-.369l-.306-.134a4.55,4.55,0,0,0-4.722.474l-.724.65a3.259,3.259,0,0,1-1.192.681l1.455,4.7.353-.225Z" transform="translate(-75.958 -301.76)" fill="#ffe5d9"/>
        <path id="Path_206996" data-name="Path 206996" d="M51.936,326.064a.379.379,0,0,0,.055-.331l-.706-2.285,2.163-1.382a1.287,1.287,0,0,1,.937-.126l.023,0,4.459.8a5.8,5.8,0,0,0,3.581-.521.363.363,0,0,0,.044-.026l7.684-5.325a.365.365,0,0,0,.1-.489,2.148,2.148,0,0,0-2.867-.771l-.108.059a1.84,1.84,0,0,0-2.175-.517l-.008,0-.29.158a2.389,2.389,0,0,0-2.718-.234l-1.659.9-2.214.009a3.164,3.164,0,0,1-1.377-.3l-.306-.141a5.277,5.277,0,0,0-5.489.563c-.008.006-.016.014-.023.021l-.735.661a2.53,2.53,0,0,1-.921.527l-.416-1.341a.363.363,0,0,0-.35-.255l-3.569.015a.362.362,0,0,0-.36.408l1.231,9.765a.377.377,0,0,0,.363.333l5.354-.023a.379.379,0,0,0,.292-.163ZM65.466,315.8a1.089,1.089,0,0,1,1.172.234L63.762,317.6l-.138.073a2.565,2.565,0,0,0-.372-.669Zm-3-.07.009,0a1.657,1.657,0,0,1,1.636-.019l-1.413.769a2.558,2.558,0,0,0-.863-.4ZM50.8,317.343l.724-.65a4.55,4.55,0,0,1,4.722-.474l.306.134a3.9,3.9,0,0,0,1.695.369l2.964-.013a1.853,1.853,0,0,1,1.805,1.461l-2.108-.08a12.886,12.886,0,0,0-2.343.122.366.366,0,1,0,.1.724,12.172,12.172,0,0,1,2.211-.111l2.529.1h.017a.364.364,0,0,0,.363-.366c0-.047,0-.095,0-.141l.328-.174,3.654-1.992a1.42,1.42,0,0,1,1.683.24L62.1,321.584a5.065,5.065,0,0,1-3.1.444l-4.447-.8a2.013,2.013,0,0,0-1.466.205l-.017.01-2,1.278-1.455-4.7a3.258,3.258,0,0,0,1.192-.681ZM46.61,325.52l-1.14-9.048,2.888-.012,2.791,9.041Z" transform="translate(0 -286.269)" fill="#d82a1b"/>
        <path id="Path_206997" data-name="Path 206997" d="M92.532,452.383a1.078,1.078,0,1,0,1.074-1.083A1.078,1.078,0,0,0,92.532,452.383Zm1.077-.354a.349.349,0,1,1-.348.351.349.349,0,0,1,.348-.351Z" transform="translate(-44.933 -414.507)" fill="#d79484"/>
      </g>
      <rect id="Rectangle_169176" data-name="Rectangle 169176" width="30" height="30" transform="translate(1205 -4898)" fill="none"/>
    </g>
  </g>
</svg>
