<svg xmlns="http://www.w3.org/2000/svg" xmlns:xlink="http://www.w3.org/1999/xlink" width="328" height="282.256" viewBox="0 0 328 282.256">
  <defs>
    <clipPath id="clip-path">
      <path id="Path_208070" data-name="Path 208070" d="M335.241,194.164c1.437-.484,1.941,0,3.358-.952,0,0,4.386-1.83,6.012-7.828s-7.73-3.283-9.6,1.08c-.5,1.165.481,4.115-1.878,5.843Z" transform="translate(-333.13 -181.914)" fill="none"/>
    </clipPath>
    <clipPath id="clip-path-2">
      <path id="Path_208077" data-name="Path 208077" d="M175.006,194.164c-1.438-.484-1.941,0-3.358-.952,0,0-4.386-1.83-6.012-7.828s7.73-3.283,9.6,1.08c.5,1.165-.482,4.115,1.878,5.843Z" transform="translate(-165.448 -181.914)" fill="none"/>
    </clipPath>
    <clipPath id="clip-path-3">
      <path id="Path_208106" data-name="Path 208106" d="M248.217,153.58h12.724s-.49,5.954-5.955,5.954S248.543,155.864,248.217,153.58Z" transform="translate(-248.217 -153.58)" fill="none"/>
    </clipPath>
    <clipPath id="clip-path-4">
      <path id="Path_208122" data-name="Path 208122" d="M145.472,249.23V249.2l-.192.016-.192-.016v.034c-2.669.259-18.629,2.269-24.242,13.614,0,0,5.731-1.355,12.313,2.813a42.4,42.4,0,0,1,24.243,0c6.581-4.168,12.313-2.813,12.313-2.813C164.1,251.5,148.142,249.489,145.472,249.23Z" transform="translate(-120.846 -249.196)" fill="none"/>
    </clipPath>
  </defs>
  <g id="login" transform="translate(-1.584 -9.205)">
    <g id="Group_158889" data-name="Group 158889" transform="translate(57.805 10.406)">
      <circle id="Ellipse_10097" data-name="Ellipse 10097" cx="85.2" cy="85.2" r="85.2" transform="translate(15.295 185.057) rotate(-85.038)" fill="none" stroke="#4ab4f3" stroke-width="1.902" opacity="0.3"/>
      <circle id="Ellipse_10098" data-name="Ellipse 10098" cx="76.047" cy="76.047" r="76.047" transform="translate(0 107.546) rotate(-45)" fill="none" stroke="#4ab4f3" stroke-width="1.697" opacity="0.3"/>
      <path id="Path_208062" data-name="Path 208062" d="M272.125,391.451c0,1.575-16.176,2.85-36.134,2.85s-36.135-1.275-36.135-2.85,16.178-2.849,36.135-2.849S272.125,389.878,272.125,391.451Z" transform="translate(-125.595 -146.807)" fill="#c7d2e6"/>
      <g id="Group_158872" data-name="Group 158872" transform="translate(52.774 56.651)">
        <path id="Path_208063" data-name="Path 208063" d="M273.464,379.862s4.223,3.191,6.885,3.39,9.086,3.8,1.887,4.6c0,0-8.9-.35-10.905-3.334l-.187,2.517-3.994-.3s-2.234-5.93.545-7.308Z" transform="translate(-203.321 -200.013)" fill="#242020"/>
        <path id="Path_208064" data-name="Path 208064" d="M234.927,379.862s-4.223,3.191-6.885,3.39-9.086,3.8-1.888,4.6c0,0,8.9-.35,10.905-3.334l.188,2.517,3.994-.3s2.235-5.93-.545-7.308Z" transform="translate(-187.005 -200.013)" fill="#242020"/>
        <path id="Path_208065" data-name="Path 208065" d="M264.372,254.143l-1.777,75.076s-4.168,2.42-7.627-.163l-2.808-66.1a12.878,12.878,0,0,1-2.558.262,13.237,13.237,0,0,1-1.382-.081l-1.407,66.082a5.891,5.891,0,0,1-7.626-.163L235.714,253.4a9.724,9.724,0,0,1-.147-1.645c0-.1.009-.2.011-.3l-.012-.2h.022c.194-4.316,3.162-7.749,6.822-7.76a6.9,6.9,0,0,1,6.191,4.567c.33-.024.663-.039,1-.039a12.79,12.79,0,0,1,2.391.23,6.9,6.9,0,0,1,6.2-4.758S264.6,243.78,264.372,254.143Z" transform="translate(-191.778 -148.965)" fill="#414141"/>
        <g id="Group_158854" data-name="Group 158854" transform="translate(68.884 56.073)">
          <g id="Group_158851" data-name="Group 158851" transform="translate(35.83)">
            <g id="Group_158850" data-name="Group 158850" clip-path="url(#clip-path)">
              <path id="Path_208066" data-name="Path 208066" d="M335.241,194.164c1.437-.484,1.941,0,3.358-.952,0,0,4.386-1.83,6.012-7.828s-7.73-3.283-9.6,1.08c-.5,1.165.481,4.115-1.878,5.843Z" transform="translate(-333.13 -181.914)" fill="#ffc6a1"/>
              <path id="Path_208067" data-name="Path 208067" d="M343.971,191.158a13.747,13.747,0,0,1,5.164-5.194" transform="translate(-337.201 -183.435)" fill="none" stroke="#963e45" stroke-width="0.663"/>
              <path id="Path_208068" data-name="Path 208068" d="M343.481,187.276a17.381,17.381,0,0,1,5.405-4.008" transform="translate(-337.017 -182.422)" fill="none" stroke="#963e45" stroke-width="0.663"/>
              <path id="Path_208069" data-name="Path 208069" d="M341.317,185.309c1.28-1.588,4.727-2.959,6.678-3.4" transform="translate(-336.204 -181.911)" fill="none" stroke="#963e45" stroke-width="0.663"/>
            </g>
          </g>
          <path id="Path_208071" data-name="Path 208071" d="M284.8,186.963c-1.669-2.485-5.463-3.044-7.389-1.8-2.288,1.481-2.011,4.317-.346,6.795,3.944,5.871,7.791,11.811,12.034,17.473,1.436,1.915,3.189,5.39,5.7,5.962,2.728.622,5.343-.221,6.4-2.949,1.039-2.685-1.883-4.761-3.4-6.747-4.365-5.7-8.294-11.713-12.284-17.676Q285.156,187.494,284.8,186.963Z" transform="translate(-275.755 -182.894)" fill="#4ab4f3"/>
          <g id="Group_158853" data-name="Group 158853" transform="translate(18.685 7.932)">
            <g id="Group_158852" data-name="Group 158852">
              <path id="Path_208072" data-name="Path 208072" d="M311.327,217.983l17.328-16.45-6.917-6.917-16.061,15.334Z" transform="translate(-305.676 -194.615)" fill="#4ab4f3"/>
            </g>
          </g>
        </g>
        <g id="Group_158859" data-name="Group 158859" transform="translate(0 56.073)">
          <g id="Group_158856" data-name="Group 158856">
            <g id="Group_158855" data-name="Group 158855" clip-path="url(#clip-path-2)">
              <path id="Path_208073" data-name="Path 208073" d="M175.006,194.164c-1.438-.484-1.941,0-3.358-.952,0,0-4.386-1.83-6.012-7.828s7.73-3.283,9.6,1.08c.5,1.165-.482,4.115,1.878,5.843Z" transform="translate(-165.448 -181.914)" fill="#ffc6a1"/>
              <path id="Path_208074" data-name="Path 208074" d="M170.188,191.158a13.741,13.741,0,0,0-5.163-5.194" transform="translate(-165.289 -183.435)" fill="none" stroke="#963e45" stroke-width="0.663"/>
              <path id="Path_208075" data-name="Path 208075" d="M170.533,187.276a17.379,17.379,0,0,0-5.4-4.008" transform="translate(-165.328 -182.422)" fill="none" stroke="#963e45" stroke-width="0.663"/>
              <path id="Path_208076" data-name="Path 208076" d="M171.933,185.309c-1.28-1.588-4.726-2.959-6.677-3.4" transform="translate(-165.376 -181.911)" fill="none" stroke="#963e45" stroke-width="0.663"/>
            </g>
          </g>
          <path id="Path_208078" data-name="Path 208078" d="M217.034,186.963c1.67-2.485,5.463-3.044,7.389-1.8,2.288,1.481,2.012,4.317.347,6.795-3.944,5.871-7.791,11.811-12.034,17.473-1.436,1.915-3.189,5.39-5.7,5.962-2.728.622-5.343-.221-6.4-2.949-1.04-2.685,1.882-4.761,3.4-6.747,4.364-5.7,8.294-11.713,12.284-17.676Z" transform="translate(-178.58 -182.894)" fill="#4ab4f3"/>
          <g id="Group_158858" data-name="Group 158858" transform="translate(5.835 7.932)">
            <g id="Group_158857" data-name="Group 158857">
              <path id="Path_208079" data-name="Path 208079" d="M192.12,217.983l-17.329-16.45,6.918-6.917,16.061,15.334Z" transform="translate(-174.791 -194.615)" fill="#4ab4f3"/>
            </g>
          </g>
        </g>
        <g id="Group_158869" data-name="Group 158869" transform="translate(35.054 3.654)">
          <g id="Group_158868" data-name="Group 158868">
            <g id="Group_158860" data-name="Group 158860" transform="translate(20.487 37.131)">
              <rect id="Rectangle_169354" data-name="Rectangle 169354" width="4.799" height="10.35" fill="#d88f5c"/>
              <rect id="Rectangle_169355" data-name="Rectangle 169355" width="4.799" height="11.816" transform="translate(0 9.987)" fill="#ffc6a1"/>
            </g>
            <path id="Path_208080" data-name="Path 208080" d="M228.1,130.406s-8.81-7.468-5.946,2.763,8.593,8.592,9,5.728Z" transform="translate(-221.581 -109.165)" fill="#ffc6a1"/>
            <path id="Path_208081" data-name="Path 208081" d="M265.671,120.789c0,12.6-7.914,22.815-17.676,22.815s-17.678-10.215-17.678-22.815,7.915-22.815,17.678-22.815S265.671,108.189,265.671,120.789Z" transform="translate(-224.862 -97.974)" fill="#ffc6a1"/>
            <g id="Group_158861" data-name="Group 158861" transform="translate(2.075 21.383)">
              <path id="Path_208082" data-name="Path 208082" d="M224.9,132.216a8.092,8.092,0,0,1,4.7,5.987" transform="translate(-224.903 -132.216)" fill="none" stroke="#d08249" stroke-width="0.514"/>
              <path id="Path_208083" data-name="Path 208083" d="M228.766,135.64c-.856.856-1.283,2.994.143,3.706" transform="translate(-226.058 -133.502)" fill="none" stroke="#d08249" stroke-width="0.514"/>
            </g>
            <g id="Group_158863" data-name="Group 158863" transform="translate(27.758 18.966)">
              <path id="Path_208084" data-name="Path 208084" d="M266.031,131.873c0,1.948,1.2,3.528,2.673,3.528s2.673-1.58,2.673-3.528-1.2-3.528-2.673-3.528S266.031,129.925,266.031,131.873Z" transform="translate(-266.031 -128.345)" fill="#050505"/>
              <g id="Group_158862" data-name="Group 158862" transform="translate(0 0.749)">
                <path id="Path_208085" data-name="Path 208085" d="M266.031,133.072c0,1.948,1.2,3.528,2.673,3.528s2.673-1.579,2.673-3.528-1.2-3.528-2.673-3.528S266.031,131.123,266.031,133.072Z" transform="translate(-266.031 -129.544)" fill="#fff"/>
                <path id="Path_208086" data-name="Path 208086" d="M266.85,133.478c0,1.576.968,2.854,2.162,2.854s2.161-1.278,2.161-2.854-.967-2.854-2.161-2.854S266.85,131.9,266.85,133.478Z" transform="translate(-266.339 -129.95)" fill="#050505"/>
              </g>
            </g>
            <path id="Path_208087" data-name="Path 208087" d="M255.264,144.542c0,.856.285,1.427,1.425,1.712" transform="translate(-234.23 -115.461)" fill="none" stroke="#d08249" stroke-width="0.514"/>
            <g id="Group_158864" data-name="Group 158864" transform="translate(36.691 18.369)">
              <path id="Path_208088" data-name="Path 208088" d="M283.623,129.62s8.578-6.826,5.714,3.4-8.593,8.592-9,5.728Z" transform="translate(-280.335 -127.389)" fill="#ffc6a1"/>
              <path id="Path_208089" data-name="Path 208089" d="M289.538,132.216a8.092,8.092,0,0,0-4.7,5.987" transform="translate(-282.024 -129.202)" fill="none" stroke="#d08249" stroke-width="0.514"/>
            </g>
            <g id="Group_158865" data-name="Group 158865" transform="translate(10.093 27.798)" opacity="0.6">
              <path id="Path_208090" data-name="Path 208090" d="M242.447,144.84a2.352,2.352,0,1,1-2.352-2.352A2.352,2.352,0,0,1,242.447,144.84Z" transform="translate(-237.743 -142.488)" fill="#ed515f"/>
              <path id="Path_208091" data-name="Path 208091" d="M276.157,144.84a2.352,2.352,0,1,1-2.352-2.352A2.352,2.352,0,0,1,276.157,144.84Z" transform="translate(-250.402 -142.488)" fill="#ed515f"/>
            </g>
            <path id="Path_208092" data-name="Path 208092" d="M281.348,110.446" transform="translate(-244.025 -102.658)" fill="none" stroke="#cd9967" stroke-width="0.6"/>
            <g id="Group_158867" data-name="Group 158867" transform="translate(12.445 18.966)">
              <path id="Path_208093" data-name="Path 208093" d="M246.856,131.873c0,1.948-1.2,3.528-2.673,3.528s-2.673-1.58-2.673-3.528,1.2-3.528,2.673-3.528S246.856,129.925,246.856,131.873Z" transform="translate(-241.51 -128.345)" fill="#050505"/>
              <g id="Group_158866" data-name="Group 158866" transform="translate(0 0.749)">
                <path id="Path_208094" data-name="Path 208094" d="M246.856,133.072c0,1.948-1.2,3.528-2.673,3.528s-2.673-1.579-2.673-3.528,1.2-3.528,2.673-3.528S246.856,131.123,246.856,133.072Z" transform="translate(-241.51 -129.544)" fill="#fff"/>
                <path id="Path_208095" data-name="Path 208095" d="M246.652,133.478c0,1.576-.968,2.854-2.162,2.854s-2.162-1.278-2.162-2.854.968-2.854,2.162-2.854S246.652,131.9,246.652,133.478Z" transform="translate(-241.817 -129.95)" fill="#050505"/>
              </g>
            </g>
            <path id="Path_208096" data-name="Path 208096" d="M287.945,135.64c.856.856,1.283,2.994-.142,3.706" transform="translate(-246.449 -112.118)" fill="none" stroke="#d08249" stroke-width="0.514"/>
          </g>
          <path id="Path_208097" data-name="Path 208097" d="M247.278,181.739v-.005l-.023,0-.022,0v.005l-18.9,2.226,1.894,48.628h34.056l1.894-48.628Z" transform="translate(-224.117 -129.428)" fill="#0c88c2"/>
          <path id="Path_208098" data-name="Path 208098" d="M250.513,182.294l2.708,6.068H257.9l2.465-6.628Z" transform="translate(-232.446 -129.428)" fill="#fff"/>
          <path id="Path_208099" data-name="Path 208099" d="M252.874,180.956l9.4,8.365V178.186h-18.8v11.135Z" transform="translate(-229.802 -128.095)" fill="#4ab4f3"/>
          <path id="Path_208100" data-name="Path 208100" d="M260.216,231.118,256.2,234.1l-3.925-2.986,2.274-40.221h3.389Z" transform="translate(-233.109 -132.868)" fill="#fff"/>
        </g>
        <path id="Path_208101" data-name="Path 208101" d="M253.069,96c-1.978-3.157-6.228-3.808-9.624-3.873-9.1-.176-15.473,7.492-23.56,10.5a.853.853,0,0,0-.332.233,1.045,1.045,0,0,0-.689,1.105c.321,6.572,9.007,8.262,14.221,8.522a24.382,24.382,0,0,0,11.439-2.71c2.271-1.085,5.7-3.258,6.8-5.958C256.038,103.838,254.729,98.65,253.069,96Z" transform="translate(-185.506 -92.122)" fill="#442606"/>
        <path id="Path_208102" data-name="Path 208102" d="M280.078,106.029c-1.968-3.5-5.7-8.561-10.389-7.032a4.719,4.719,0,0,0-3.315,3.315c-.013.081-.027.161-.04.242-.6,3.56,2.1,4.776,4.608,6.45,3.4,2.269,4.5,6.673,4.735,10.631a1.9,1.9,0,0,0,3.51.95A12.73,12.73,0,0,0,280.078,106.029Z" transform="translate(-203.3 -94.599)" fill="#442606"/>
        <path id="Path_208103" data-name="Path 208103" d="M227.187,106.029c1.968-3.5,5.7-8.561,10.39-7.032a4.718,4.718,0,0,1,3.315,3.315c.014.081.027.161.041.242.6,3.56-2.1,4.776-4.609,6.45-3.4,2.269-4.5,6.673-4.735,10.631a1.9,1.9,0,0,1-3.51.95A12.731,12.731,0,0,1,227.187,106.029Z" transform="translate(-187.933 -94.599)" fill="#442606"/>
        <g id="Group_158871" data-name="Group 158871" transform="translate(51.687 38.379)">
          <g id="Group_158870" data-name="Group 158870" clip-path="url(#clip-path-3)">
            <path id="Path_208104" data-name="Path 208104" d="M248.217,153.58h12.724s-.49,5.954-5.955,5.954S248.543,155.864,248.217,153.58Z" transform="translate(-248.217 -153.58)" fill="#a52f13"/>
            <path id="Path_208105" data-name="Path 208105" d="M262.994,163.279a7.122,7.122,0,1,1-7.122-7.121A7.122,7.122,0,0,1,262.994,163.279Z" transform="translate(-248.418 -154.548)" fill="#c7613b"/>
          </g>
        </g>
        <path id="Path_208107" data-name="Path 208107" d="M266.241,124.213c1-2.138,3.99-1.425,4.987.427" transform="translate(-203.298 -103.68)" fill="none" stroke="#442606" stroke-width="0.913"/>
        <path id="Path_208108" data-name="Path 208108" d="M246.636,124.213c-1-2.138-3.989-1.425-4.986.427" transform="translate(-194.064 -103.68)" fill="none" stroke="#442606" stroke-width="0.913"/>
      </g>
      <g id="Group_158873" data-name="Group 158873" transform="translate(154.394 90.894)">
        <path id="Path_208109" data-name="Path 208109" d="M363.149,146.958c-8.189,0-9.945,7.9-9.945,7.9s-1.755-7.9-9.945-7.9-10.824,8.191-8.483,14.334S349.4,176.8,353.2,178.843c3.8-2.048,16.088-11.409,18.429-17.552S371.341,146.958,363.149,146.958Z" transform="translate(-330.347 -146.958)" fill="#e21010"/>
        <path id="Path_208110" data-name="Path 208110" d="M328.177,169.223h13.394l3.51-5.429,2.128,13.688,2.48-9.47,2.32,6.652,3.2-10.87,1.688,8.286h21.647" transform="translate(-328.177 -153.28)" fill="none" stroke="#fff" stroke-width="1.083"/>
      </g>
      <g id="Group_158881" data-name="Group 158881" transform="translate(15.679 68.955)">
        <path id="Path_208111" data-name="Path 208111" d="M146.285,112.406a.8.8,0,0,0-.963-.568c-12.365,2.026-25.181,1.364-37.627.421a.888.888,0,0,0-.806.007.781.781,0,0,0-.384,1.019c-.3,16.7-1.233,33.486.944,50.109a.8.8,0,0,0,.964.568c12.364-2.026,25.181-1.363,37.626-.421a.89.89,0,0,0,.806-.006.781.781,0,0,0,.384-1.019C147.533,145.812,148.463,129.029,146.285,112.406Z" transform="translate(-106.047 -111.826)" fill="#c7d2e6"/>
        <g id="Group_158875" data-name="Group 158875" transform="translate(3.1 5.172)">
          <path id="Path_208112" data-name="Path 208112" d="M122.469,121.709c-4.372-3.688-10.85-.555-11.414,4.847-.24,2.3.528,4.985,2.6,6.252a8.233,8.233,0,0,0,10.262-2.027C126.031,127.91,125.084,123.916,122.469,121.709Z" transform="translate(-111.012 -120.108)" fill="#e21010"/>
          <g id="Group_158874" data-name="Group 158874" transform="translate(2.578 2.393)">
            <path id="Path_208113" data-name="Path 208113" d="M122.274,123.941v8.909" transform="translate(-117.82 -123.941)" fill="none" stroke="#fff" stroke-width="0.339"/>
            <path id="Path_208114" data-name="Path 208114" d="M124.049,131.075h-8.908" transform="translate(-115.141 -126.62)" fill="none" stroke="#fff" stroke-width="0.339"/>
          </g>
        </g>
        <g id="Group_158876" data-name="Group 158876" transform="translate(19.072 8.109)">
          <rect id="Rectangle_169356" data-name="Rectangle 169356" width="18.622" height="1.085" fill="#36536e"/>
          <rect id="Rectangle_169357" data-name="Rectangle 169357" width="18.622" height="1.085" transform="translate(0 2.722)" fill="#36536e"/>
          <rect id="Rectangle_169358" data-name="Rectangle 169358" width="18.622" height="1.086" transform="translate(0 5.445)" fill="#36536e"/>
          <rect id="Rectangle_169359" data-name="Rectangle 169359" width="18.622" height="1.086" transform="translate(0 8.167)" fill="#36536e"/>
        </g>
        <g id="Group_158877" data-name="Group 158877" transform="translate(4.47 21.447)">
          <rect id="Rectangle_169360" data-name="Rectangle 169360" width="33.555" height="1.086" fill="#36536e"/>
          <rect id="Rectangle_169361" data-name="Rectangle 169361" width="33.555" height="1.086" transform="translate(0 2.723)" fill="#36536e"/>
          <rect id="Rectangle_169362" data-name="Rectangle 169362" width="33.555" height="1.085" transform="translate(0 5.446)" fill="#36536e"/>
          <rect id="Rectangle_169363" data-name="Rectangle 169363" width="33.555" height="1.085" transform="translate(0 8.168)" fill="#36536e"/>
        </g>
        <g id="Group_158878" data-name="Group 158878" transform="translate(4.47 34.964)">
          <rect id="Rectangle_169364" data-name="Rectangle 169364" width="20.554" height="1.085" fill="#36536e"/>
          <rect id="Rectangle_169365" data-name="Rectangle 169365" width="20.554" height="1.085" transform="translate(0 2.722)" fill="#36536e"/>
          <rect id="Rectangle_169366" data-name="Rectangle 169366" width="20.554" height="1.085" transform="translate(0 5.445)" fill="#36536e"/>
          <rect id="Rectangle_169367" data-name="Rectangle 169367" width="20.554" height="1.085" transform="translate(0 8.167)" fill="#36536e"/>
        </g>
        <g id="Group_158880" data-name="Group 158880" transform="translate(27.399 32.462)">
          <path id="Path_208115" data-name="Path 208115" d="M151.781,176.474l-1.858,5.131,3-.893,1.284,2.781,1.286-7.019Z" transform="translate(-149.923 -168.565)" fill="#4ab4f3"/>
          <path id="Path_208116" data-name="Path 208116" d="M162.542,176.474l1.858,5.131-3-.893-1.284,2.781-1.286-7.019Z" transform="translate(-153.269 -168.565)" fill="#4ab4f3"/>
          <g id="Group_158879" data-name="Group 158879">
            <path id="Path_208117" data-name="Path 208117" d="M158.989,165.076c-3.46-2.919-8.587-.44-9.033,3.836a5.154,5.154,0,0,0,2.056,4.948,6.516,6.516,0,0,0,8.121-1.606A5.367,5.367,0,0,0,158.989,165.076Z" transform="translate(-149.922 -163.809)" fill="#ffe6b3"/>
            <path id="Path_208118" data-name="Path 208118" d="M158.953,166.786a4.291,4.291,0,0,0-6.95,2.951,3.968,3.968,0,0,0,1.582,3.807,5.014,5.014,0,0,0,6.248-1.235A4.128,4.128,0,0,0,158.953,166.786Z" transform="translate(-150.694 -164.561)" fill="#ffca11"/>
          </g>
        </g>
      </g>
      <g id="Group_158885" data-name="Group 158885" transform="translate(24.92 145.598)">
        <g id="Group_158882" data-name="Group 158882" transform="translate(17.963 15.472)">
          <path id="Path_208119" data-name="Path 208119" d="M156.57,259.559c-1.258,4.829-.8,9.786-.636,14.725.061,1.872.092,3.759.067,5.632-.026,1.9-1.541,2.949-3.219,1.606a4.186,4.186,0,0,1-1.316-4.164.889.889,0,0,0-1.713-.471c-1.131,3.838,4.723,10.253,7.317,5.483,1.132-2.083.346-5.864.244-8.085-.225-4.874-.712-9.771-.114-14.64.044-.365-.541-.427-.63-.085Z" transform="translate(-149.61 -259.333)" fill="#ffb5a6"/>
        </g>
        <g id="Group_158884" data-name="Group 158884" transform="translate(0.001 9.141)">
          <g id="Group_158883" data-name="Group 158883" clip-path="url(#clip-path-4)">
            <path id="Path_208120" data-name="Path 208120" d="M145.472,249.23V249.2l-.192.016-.192-.016v.034c-2.669.259-18.629,2.269-24.242,13.614,0,0,5.731-1.355,12.313,2.813a42.4,42.4,0,0,1,24.243,0c6.581-4.168,12.313-2.813,12.313-2.813C164.1,251.5,148.142,249.489,145.472,249.23Z" transform="translate(-120.846 -249.196)" fill="#f16d61"/>
            <path id="Path_208121" data-name="Path 208121" d="M152.723,247.161s-13.854,11.683-11.859,20.232l24.354-1.568S164.44,255.851,152.723,247.161Z" transform="translate(-128.289 -248.432)" fill="#fff" opacity="0.6"/>
          </g>
        </g>
        <path id="Path_208123" data-name="Path 208123" d="M181.645,234.558l-4.7,3.44,3.98,1.756-3.98,5.082,7.551-5.082-4.559-2.326Z" transform="translate(-141.911 -234.558)" fill="#ffca11"/>
        <path id="Path_208124" data-name="Path 208124" d="M191.963,247.21l-2.927,2.141,2.478,1.094-2.478,3.164,4.7-3.164L190.9,249Z" transform="translate(-146.452 -239.309)" fill="#ffca11"/>
        <path id="Path_208125" data-name="Path 208125" d="M129,246.349c-.295-.259-3.536,5.832,0,5.832S129.3,246.606,129,246.349Z" transform="translate(-123.293 -238.983)" fill="#4ab4f3"/>
        <path id="Path_208126" data-name="Path 208126" d="M147.863,238.118c-.295-.257-3.536,5.833,0,5.833S148.158,238.377,147.863,238.118Z" transform="translate(-130.375 -235.892)" fill="#4ab4f3"/>
        <path id="Path_208127" data-name="Path 208127" d="M122.484,238.118c-.295-.257-3.536,5.833,0,5.833S122.779,238.377,122.484,238.118Z" transform="translate(-120.845 -235.892)" fill="#4ab4f3"/>
      </g>
      <g id="Group_158886" data-name="Group 158886" transform="translate(151.046 147.817)">
        <path id="Path_208128" data-name="Path 208128" d="M351.27,260.446c-1.49-5.81-8.218-9.638-14.805-9.4a14.471,14.471,0,0,0-13.3,10.542c-1.229,4.621.857,9.922,5.018,12.952,4.38,3.19,13.033,3.316,17.667.466C350.848,271.926,352.552,265.448,351.27,260.446Z" transform="translate(-322.814 -242.963)" fill="#b1c98f"/>
        <path id="Path_208129" data-name="Path 208129" d="M348.515,240.108a1.3,1.3,0,0,0-1.29-1.29c-1.29.111-2.571.29-3.857.413a8.1,8.1,0,0,1-2.863-.274c-.784-1.654-3.786-.7-3.155,1.265.827,2.573,1.244,5.233,2.534,7.64a1.476,1.476,0,0,0,1.646.668c1.628-.347,3.255-.7,4.887-1.031a1.371,1.371,0,0,0,1-1.31C347.545,244.107,348.662,242.269,348.515,240.108Z" transform="translate(-328.24 -238.111)" fill="#b1c98f"/>
        <path id="Path_208130" data-name="Path 208130" d="M339.033,250.517c.859,1.226,7.978.859,9.819.368" transform="translate(-328.905 -242.77)" fill="none" stroke="#60694e" stroke-width="0.393"/>
        <path id="rupee_2_" data-name="rupee (2)" d="M13.53,5.369V4H6V5.369H8.4a2.049,2.049,0,0,1,1.927,1.369H6V8.107h4.323A2.049,2.049,0,0,1,8.4,9.476H6v1.652l3.824,3.824H11.76L7.652,10.845H8.4a3.427,3.427,0,0,0,3.353-2.738H13.53V6.738H11.749a3.377,3.377,0,0,0-.633-1.369Z" transform="translate(4.891 11.596)" fill="#446810"/>
      </g>
      <g id="Group_158887" data-name="Group 158887" transform="translate(149.898 28.603)">
        <path id="Path_208131" data-name="Path 208131" d="M348.918,57.039c-.882.108-1.2,1.321-.222,1.582.235.063.456.142.678.219,3.627,1.54-.382,8.522-3.8,5.341a12.855,12.855,0,0,1-3.327-6.465c-.759-3.443,1.078-6.167,3.508-8.473.932-.886-.113-2.2-1.12-2.016a1.03,1.03,0,0,0-.285.039c-4.533,1.3-8.138,3.119-9.427,7.8-1.284,4.667,3.733,9.719-.479,13.677-3.018,2.836-6.366-11.7-7.466-12.388a.9.9,0,0,0-1.321.439c-1.807,6.859-1.006,14.27,4.7,19.293a16.751,16.751,0,0,0,8.906,3.771,20.615,20.615,0,0,0,5.778-.092c7.279-1.123,13.033-4.791,13.367-12.551C358.638,61.9,354.993,56.3,348.918,57.039Z" transform="translate(-322.413 -47.209)" fill="#ffdf59"/>
        <path id="Path_208132" data-name="Path 208132" d="M359.075,79.461a8.131,8.131,0,0,0-1.954-4.7c-.166-.219-.6-.185-.578.157.226,3.141-3.154,3.783-5.621,3.557a5.022,5.022,0,0,1-3.852-2.632,8.919,8.919,0,0,1-.922-2.349c-.1-.393-.219-.816-.285-1.211a5.14,5.14,0,0,1,.006-1.313c-1.366.407-1.895,2.294-1.784,3.523a17.838,17.838,0,0,0,1.192,4.071c.639,1.867.575,4.156-1.876,4.424-1.487.164-4.353-.458-5.258-1.808-.31-.465-.515.094-.541.325-.18,1.587,1.188,2.943,2.387,3.772,2.706,1.871,6.143,2.057,9.313,1.774a12.948,12.948,0,0,0,7.976-3.541,5.708,5.708,0,0,0,1.743-3.385A4.365,4.365,0,0,0,359.075,79.461Z" transform="translate(-327.215 -56.132)" fill="#ed4343"/>
        <path id="Path_208133" data-name="Path 208133" d="M366.578,57.481c2.047,1.86,5.767.93,7.07,4.093" transform="translate(-338.101 -51.066)" fill="none" stroke="#ffdf59" stroke-width="0.894"/>
        <path id="Path_208134" data-name="Path 208134" d="M321.361,66.784c-.558-2.6-.744-5.767,1.117-7.813" transform="translate(-320.977 -51.626)" fill="none" stroke="#ffdf59" stroke-width="0.894"/>
      </g>
      <path id="Path_208135" data-name="Path 208135" d="M209.095,95.6a.048.048,0,0,0,.047.048h.19a.048.048,0,0,0,.047-.048h0a.047.047,0,0,0-.047-.047h-.19a.047.047,0,0,0-.047.047Z" transform="translate(-129.065 -36.762)" fill="#bbb"/>
      <g id="Group_158888" data-name="Group 158888" transform="translate(34.888 31.26)">
        <rect id="Rectangle_169368" data-name="Rectangle 169368" width="18.888" height="17.66" transform="translate(8.666 9.838)" fill="#bbb"/>
        <path id="Path_208136" data-name="Path 208136" d="M136.806,63.524l18.111-12.06,18.11,12.06Z" transform="translate(-136.806 -51.463)" fill="#e0885d"/>
        <rect id="Rectangle_169369" data-name="Rectangle 169369" width="9.453" height="6.627" transform="translate(13.294 15.355)" fill="#0673b9"/>
        <path id="Path_208137" data-name="Path 208137" d="M167.694,77.146h-6.139V71.007a.231.231,0,1,0-.462,0v6.139h-6.139a.231.231,0,0,0,0,.462h6.139v6.139a.231.231,0,0,0,.462,0V77.608h6.139a.231.231,0,0,0,0-.462Z" transform="translate(-143.534 -58.716)" fill="#bbb"/>
      </g>
    </g>
    <g id="Group_158892" data-name="Group 158892" transform="translate(24.584 22.458)" opacity="0.7">
      <g id="Group_158890" data-name="Group 158890" transform="translate(-23)">
        <path id="Path_208138" data-name="Path 208138" d="M85.662,70.036H79.073V63.448H75.641v6.589H69.052v3.432h6.589v6.589h3.432V73.468h6.589Z" transform="translate(-41.283 -44.422)" fill="#fed5d1"/>
        <path id="Path_208139" data-name="Path 208139" d="M143.573,361.1h-6.589v-6.589h-3.432V361.1h-6.589v3.432h6.589v6.589h3.432v-6.589h6.589Z" transform="translate(-63.03 -153.721)" fill="#fed5d1"/>
        <path id="Path_208140" data-name="Path 208140" d="M45.613,245.605H39.025v-6.589H35.593v6.589H29v3.432h6.589v6.589h3.432v-6.589h6.589Z" transform="translate(-26.244 -110.352)" fill="#fed5d1"/>
        <path id="Path_208141" data-name="Path 208141" d="M79.264,191.116H75.213v-4.051H73.1v4.051H69.052v2.11H73.1v4.051h2.11v-4.051h4.051Z" transform="translate(-41.283 -90.843)" fill="#fed5d1"/>
        <path id="Path_208142" data-name="Path 208142" d="M57.637,342.207H53.586v-4.051h-2.11v4.051H47.425v2.11h4.051v4.051h2.11v-4.051h4.051Z" transform="translate(-33.161 -147.581)" fill="#fed5d1"/>
        <path id="Path_208143" data-name="Path 208143" d="M92.562,401.952H88.512V397.9H86.4v4.051H82.351v2.11H86.4v4.051h2.11v-4.051h4.051Z" transform="translate(-46.277 -170.016)" fill="#fed5d1"/>
        <path id="Path_208144" data-name="Path 208144" d="M39.215,37.031H35.165V32.98h-2.11v4.051H29v2.11h4.051v4.051h2.11V39.141h4.051Z" transform="translate(-26.244 -32.98)" fill="#fed5d1"/>
        <path id="Path_208145" data-name="Path 208145" d="M55.492,108.868H43.231V96.608H36.845v12.261H24.584v6.386H36.845v12.26h6.386v-12.26H55.492Z" transform="translate(-24.584 -56.874)" fill="#fed5d1"/>
        <path id="Path_208146" data-name="Path 208146" d="M60.469,426.513H48.208v-12.26H41.822v12.26H29.561V432.9H41.822v12.26h6.386V432.9H60.469Z" transform="translate(-26.453 -176.157)" fill="#fed5d1"/>
        <path id="Path_208147" data-name="Path 208147" d="M96.3,300.924H84.037v-12.26H77.651v12.26H65.39v6.386H77.651v12.26h6.386v-12.26H96.3Z" transform="translate(-39.908 -128.995)" fill="#fed5d1"/>
      </g>
      <g id="Group_158891" data-name="Group 158891" transform="translate(224.456)">
        <path id="Path_208148" data-name="Path 208148" d="M404.35,70.036h6.589V63.448h3.432v6.589h6.588v3.432H414.37v6.589h-3.432V73.468H404.35Z" transform="translate(-368.185 -44.422)" fill="#ffe0e5"/>
        <path id="Path_208149" data-name="Path 208149" d="M346.438,361.1h6.589v-6.589h3.432V361.1h6.589v3.432h-6.589v6.589h-3.432v-6.589h-6.589Z" transform="translate(-346.438 -153.721)" fill="#ffe0e5"/>
        <path id="Path_208150" data-name="Path 208150" d="M444.4,245.605h6.589v-6.589h3.432v6.589h6.589v3.432h-6.589v6.589h-3.432v-6.589H444.4Z" transform="translate(-383.224 -110.352)" fill="#ffe0e5"/>
        <path id="Path_208151" data-name="Path 208151" d="M414.595,191.116h4.051v-4.051h2.109v4.051h4.051v2.11h-4.051v4.051h-2.109v-4.051h-4.051Z" transform="translate(-372.032 -90.843)" fill="#ffe0e5"/>
        <path id="Path_208152" data-name="Path 208152" d="M436.222,342.207h4.051v-4.051h2.111v4.051h4.051v2.11h-4.051v4.051h-2.111v-4.051h-4.051Z" transform="translate(-380.153 -147.581)" fill="#ffe0e5"/>
        <path id="Path_208153" data-name="Path 208153" d="M401.3,401.952h4.051V397.9h2.109v4.051h4.051v2.11h-4.051v4.051h-2.109v-4.051H401.3Z" transform="translate(-367.038 -170.016)" fill="#ffe0e5"/>
        <path id="Path_208154" data-name="Path 208154" d="M454.644,37.031h4.051V32.98h2.11v4.051h4.051v2.11H460.8v4.051h-2.11V39.141h-4.051Z" transform="translate(-387.071 -32.98)" fill="#ffe0e5"/>
        <path id="Path_208155" data-name="Path 208155" d="M425.922,108.868h12.261V96.608h6.386v12.261H456.83v6.386H444.568v12.26h-6.386v-12.26H425.922Z" transform="translate(-376.286 -56.874)" fill="#ffe0e5"/>
        <path id="Path_208156" data-name="Path 208156" d="M420.944,426.513h12.261v-12.26h6.386v12.26h12.261V432.9H439.591v12.26h-6.386V432.9H420.944Z" transform="translate(-374.416 -176.157)" fill="#ffe0e5"/>
        <path id="Path_208157" data-name="Path 208157" d="M385.115,300.924h12.261v-12.26h6.386v12.26h12.262v6.386H403.762v12.26h-6.386v-12.26H385.115Z" transform="translate(-360.962 -128.995)" fill="#ffe0e5"/>
      </g>
    </g>
  </g>
</svg>
