<svg xmlns="http://www.w3.org/2000/svg" width="182.25" height="158.253" viewBox="0 0 182.25 158.253">
  <g id="Login_Image" transform="translate(-129.59 -452.798)">
    <g id="phone" transform="translate(194.604 452.798)">
      <g id="Group_346" data-name="Group 346" transform="translate(0 0)">
        <g id="Group_345" data-name="Group 345">
          <path id="Path_114102" data-name="Path 114102" d="M740.408,460.825c-1.227-7.268-12.419-10.549-12.2-5.805l-51.309.3c-3.554.021-6.435,3.218-6.438,7.144l-.107,134.942c0,4.068,2.929,7.394,6.55,7.425l52.378.449a4.192,4.192,0,0,0,1.892,1.823c6.007.128,8.888-2.839,9.94-6.192a8.074,8.074,0,0,0,.521-2.944C741.426,596.21,740.787,462.529,740.408,460.825Z" transform="translate(-663.713 -452.798)" fill="#408bff"/>
          <path id="Path_114103" data-name="Path 114103" d="M687.136,607.249l-60.122-.388c-3.752-.024-6.786-3.44-6.78-7.625l.226-138.775c.007-4.036,2.993-7.315,6.672-7.327l58.954-.192c3.708-.012,6.741,3.262,6.772,7.316l1.068,139.417C693.959,603.881,690.918,607.273,687.136,607.249Z" transform="translate(-620.234 -452.924)" fill="#408bff"/>
          <path id="Path_114104" data-name="Path 114104" d="M694.611,612.3a5.426,5.426,0,0,1-.76.048l-60.1-.455c-3.224-.024-5.859-3.019-5.853-6.672l.208-138.623c.005-3.523,2.6-6.4,5.761-6.413l58.95-.257c.092,0,.185,0,.277.006a5.578,5.578,0,0,1,3.906,1.9,6.663,6.663,0,0,1,1.661,4.413L699.711,605.8A6.267,6.267,0,0,1,694.611,612.3Z" transform="translate(-626.879 -458.981)"/>
          <path id="Path_114105" data-name="Path 114105" d="M709.681,512.919l1.014,139.072-67.709-.405.173-138.667Z" transform="translate(-639.971 -504.952)" fill="#fff"/>
        </g>
      </g>
      <g id="Group_355" data-name="Group 355" transform="translate(19.754 75.443)">
        <g id="Group_354" data-name="Group 354">
          <rect id="Rectangle_167685" data-name="Rectangle 167685" width="33.211" height="6.564" fill="#fff"/>
          <g id="Group_353" data-name="Group 353" transform="translate(5.205 2.074)">
            <circle id="Ellipse_31" data-name="Ellipse 31" cx="1.434" cy="1.434" r="1.434" fill="#296acc"/>
            <circle id="Ellipse_32" data-name="Ellipse 32" cx="1.434" cy="1.434" r="1.434" transform="translate(4.915)" fill="#296acc"/>
            <circle id="Ellipse_33" data-name="Ellipse 33" cx="1.434" cy="1.434" r="1.434" transform="translate(9.83)" fill="#296acc"/>
            <circle id="Ellipse_34" data-name="Ellipse 34" cx="1.434" cy="1.434" r="1.434" transform="translate(14.745)" fill="#296acc"/>
            <circle id="Ellipse_35" data-name="Ellipse 35" cx="1.434" cy="1.434" r="1.434" transform="translate(19.66)" fill="#296acc"/>
          </g>
        </g>
        <path id="Path_114112" data-name="Path 114112" d="M854.018,1111.454h-8.889a2.281,2.281,0,0,1-2.281-2.282h0a2.281,2.281,0,0,1,2.281-2.282h8.889a2.282,2.282,0,0,1,2.281,2.282h0A2.282,2.282,0,0,1,854.018,1111.454Z" transform="translate(-833.103 -1095.663)" fill="#296acc"/>
      </g>
      <g id="Group_356" data-name="Group 356" transform="translate(14.314 99.126)">
        <rect id="Rectangle_167686" data-name="Rectangle 167686" width="27.39" height="2.054" transform="translate(8.826)" fill="#80d1ff"/>
        <rect id="Rectangle_167687" data-name="Rectangle 167687" width="45.422" height="2.054" transform="translate(0 4.565)" fill="#80d1ff"/>
        <rect id="Rectangle_167688" data-name="Rectangle 167688" width="41.618" height="2.054" transform="translate(1.902 9.13)" fill="#80d1ff"/>
      </g>
      <g id="Odin_Logo" data-name="Odin Logo" transform="translate(-17.213 16.628)">
        <path id="Path_114512" data-name="Path 114512" d="M31.146,32.27a1.635,1.635,0,0,0,.445,1.314C32.656,34.64,34.37,34.6,35.918,34.6a22.5,22.5,0,0,0,6.9-1.4l1.765-.733c.19-.092.97-.418,1.035-.617.344-.845-.166-2.895-.344-3.535a8.087,8.087,0,0,0-.691-1.6,4.566,4.566,0,0,0-.344-.463,11.849,11.849,0,0,0-2.2.768l-.691.311a20.991,20.991,0,0,0-3.2,1.868,14,14,0,0,0-1.685,1.358,7,7,0,0,0-.985,1.068,2.55,2.55,0,0,0-.587,1.714,3.513,3.513,0,0,0,.071.43,1.427,1.427,0,0,1-.368-1.868,2.878,2.878,0,0,1,.231-.418c.092-.142.184-.276.282-.4a12.158,12.158,0,0,1,1.349-1.358,18.051,18.051,0,0,1,1.53-1.148c.884-.581,1.587-1.017,2.515-1.539.071-.042.142-.068.214-.11l.655-.356c.644-.314,2.165-1.062,2.785-1.314A14.034,14.034,0,0,0,46,24.393a6.892,6.892,0,0,0-1.091.214,22.307,22.307,0,0,0-3.058.9A23.719,23.719,0,0,0,35.9,28.717l-.549.427c-.083.074-.122.089-.2.163s-.228.187-.344.3a4.267,4.267,0,0,0-1.628,3.126,7.166,7.166,0,0,0,.145.825,1.866,1.866,0,0,1-.839-1.433,3.7,3.7,0,0,1,1.266-2.266,14.724,14.724,0,0,1,1.907-1.631A29.19,29.19,0,0,1,38.9,26.149l3.636-1.759a7.76,7.76,0,0,1,.839-.359c-.418-.564-4.167,1.136-4.989,1.539-.288.139-.569.261-.863.406l-1.637.893c-.516.3-1.424.89-1.907,1.246l-.691.566a3.923,3.923,0,0,0-.344.32,9.292,9.292,0,0,0-1.121,1.406c-.077.125-.154.237-.231.383A3.831,3.831,0,0,0,31.146,32.27Z" transform="translate(-1.96 -2.025)" fill="#0676b8" fill-rule="evenodd"/>
        <path id="Path_114513" data-name="Path 114513" d="M28.35,29.064c.148-.042.32-.383.472-.611a13.135,13.135,0,0,1,1.5-1.815l.546-.54a19.615,19.615,0,0,1,3.182-2.376l1.78-1.017c.133-.077.214-.119.344-.19.593-.288,1.293-.644,1.9-.893a1.781,1.781,0,0,0,.208-.083c.128-.065.107-.018.142-.145a8.2,8.2,0,0,0-2.488-.356A7.776,7.776,0,0,0,31.512,22.5a10.524,10.524,0,0,0-1.041.913,9.454,9.454,0,0,0-.866,1.08A7.619,7.619,0,0,0,28.35,29.064Z" transform="translate(0 0)" fill="#0676b8" fill-rule="evenodd"/>
        <path id="Path_114514" data-name="Path 114514" d="M36.353,57.052a9.486,9.486,0,0,1-3.319-.5,3.946,3.946,0,0,0-.394-.145c.145.273.641.994.955,1.1a13.291,13.291,0,0,0,3.666.442,21.333,21.333,0,0,0,6.457-1.388c.169-.065,2.118-.827,2.233-.919A3.5,3.5,0,0,0,46.4,54.51a4.826,4.826,0,0,1-.543.219C42.946,55.874,39.619,57.052,36.353,57.052Z" transform="translate(-3.018 -23.544)" fill="#0676b8" fill-rule="evenodd"/>
        <path id="Path_114515" data-name="Path 114515" d="M42.132,64.531c-1.035,0-1.726-.024-2.732-.11.065.243,1.13.635,1.358.744a8.64,8.64,0,0,0,1.572.543,7.2,7.2,0,0,0,6.317-1.61,7.068,7.068,0,0,0,.928-.857,1.281,1.281,0,0,0,.133-.151l-1.744.5c-.572.166-1.18.308-1.8.445A19.232,19.232,0,0,1,42.132,64.531Z" transform="translate(-7.773 -29.58)" fill="#0676b8" fill-rule="evenodd"/>
        <path id="Path_114516" data-name="Path 114516" d="M96.225,34.977V34.95a2.88,2.88,0,0,0-2.806-2.957c-.033,0-.062,0-.095,0a2.844,2.844,0,0,0-2.877,2.8c0,.042,0,.086,0,.128v.027a2.88,2.88,0,0,0,2.8,2.966l.107,0a2.843,2.843,0,0,0,2.877-2.8C96.228,35.069,96.225,35.024,96.225,34.977Zm-7.975,0V34.95a5.093,5.093,0,0,1,10.176-.027v.027a5.093,5.093,0,0,1-10.176.027Z" transform="translate(-42.135 -6.36)" fill="#0676b8"/>
        <path id="Path_114517" data-name="Path 114517" d="M129.02,38.234a2.687,2.687,0,0,0,2.871-2.8v-.024a2.71,2.71,0,0,0-2.613-2.806c-.086,0-.169,0-.255,0H127.4v5.626Zm-3.71-7.5h3.71c2.99,0,5.057,2.02,5.057,4.656v.027a4.732,4.732,0,0,1-5.057,4.68h-3.71Z" transform="translate(-68.203 -6.817)" fill="#0676b8"/>
        <rect id="Rectangle_167949" data-name="Rectangle 167949" width="2.094" height="9.363" transform="translate(66.847 23.913)" fill="#0676b8"/>
        <path id="Path_114518" data-name="Path 114518" d="M169.893,30.73h1.934l4.458,5.769V30.73h2.07v9.363h-1.782l-4.612-5.952v5.952h-2.07Z" transform="translate(-99.561 -6.817)" fill="#0676b8"/>
      </g>
    </g>
    <g id="male_02" data-name="male 02" transform="translate(153.364 531.081)">
      <g id="Group_369" data-name="Group 369" transform="translate(0 12.975)">
        <path id="Path_114113" data-name="Path 114113" d="M371.741,1204.273a39.731,39.731,0,0,0-8.916,12.692c-.764-1.983-.577-1.548-2.42-5.909-.848-2.05-6.328-.891-6.466.913,0,0-.984,12.563,4.818,17.511s22.159-15.711,22.159-15.711C386.139,1206.632,377.362,1199.812,371.741,1204.273Z" transform="translate(-347.93 -1194.72)" fill="#007382"/>
        <g id="Group_360" data-name="Group 360" transform="translate(6.022 42.507)">
          <path id="Path_114114" data-name="Path 114114" d="M414.35,1473.66c-6.167,12.033-51.153,7.748-58.9,1.2-5.722-8.4,15.006-12.5,15.466-12.517,10.188-.278,24.226.628,29.4.628C412.349,1464.819,415.7,1469.08,414.35,1473.66Z" transform="translate(-354.456 -1462.29)" fill="#092e66"/>
          <path id="Path_114115" data-name="Path 114115" d="M477.985,1509.991a61.361,61.361,0,0,0,24.918,1.234s-13.978,6.179-14.054,6.407S477.985,1509.991,477.985,1509.991Z" transform="translate(-461.617 -1503.67)" fill="#051733"/>
          <path id="Path_114116" data-name="Path 114116" d="M529.9,1506.367c-9.011,9.977-47.466,9.018-40.069-.054,6.713-.839,25.157-5.324,26.784-6.2C522.279,1495.514,533.561,1500.967,529.9,1506.367Z" transform="translate(-471.075 -1493.602)" fill="#092e66"/>
          <g id="Group_359" data-name="Group 359" transform="translate(0.617 3.576)">
            <g id="Group_357" data-name="Group 357" transform="translate(36.995 11.311)">
              <path id="Path_114117" data-name="Path 114117" d="M701.287,1585.646c-.446-2.007-2.76-3.286-5.233-4.092a13.252,13.252,0,0,0-2.944,8.322C698.6,1591.107,702.053,1589.094,701.287,1585.646Z" transform="translate(-685.849 -1580.638)" fill="#73ccff"/>
              <path id="Path_114118" data-name="Path 114118" d="M641.555,1574.658a2.683,2.683,0,0,0-2.972,2.355c-.228.933-.9,2.8,1.346,4.262a22.109,22.109,0,0,0,5.643,2.6,13.253,13.253,0,0,1,2.944-8.322A23.026,23.026,0,0,0,641.555,1574.658Z" transform="translate(-638.31 -1574.639)" fill="#aae0ff"/>
            </g>
            <path id="Path_114119" data-name="Path 114119" d="M398.634,1500.923c4.388,1.052,2.134,6.462-.126,6.142,2.462.349-43.576.354-39.085-13.571h.018c1.717-2.932,7.081-5.467,11.426-3.554A119.452,119.452,0,0,0,398.634,1500.923Z" transform="translate(-359.115 -1489.276)" fill="#092e66"/>
            <g id="Group_358" data-name="Group 358" transform="translate(38.32 12.198)">
              <path id="Path_114120" data-name="Path 114120" d="M651.151,1586.621s-3.915-.306-2.558-3.453a2.652,2.652,0,0,1,4.112-1.3S654.175,1585.079,651.151,1586.621Z" transform="translate(-648.307 -1581.329)" fill="#aae0ff"/>
              <path id="Path_114121" data-name="Path 114121" d="M670,1590.282a.179.179,0,0,1-.179-.173,7.009,7.009,0,0,1,1.743-4.817.179.179,0,0,1,.258.248,6.771,6.771,0,0,0-1.643,4.557.179.179,0,0,1-.173.185Z" transform="translate(-666.965 -1584.719)" fill="#fff"/>
              <path id="Path_114122" data-name="Path 114122" d="M678.349,1593.476a.179.179,0,0,1-.178-.173,7.009,7.009,0,0,1,1.743-4.817.179.179,0,0,1,.258.248,6.771,6.771,0,0,0-1.643,4.557.179.179,0,0,1-.172.185Z" transform="translate(-674.21 -1587.49)" fill="#fff"/>
              <path id="Path_114123" data-name="Path 114123" d="M687.192,1595.686a.179.179,0,0,1-.179-.173,7.009,7.009,0,0,1,1.742-4.817.179.179,0,0,1,.257.248,6.773,6.773,0,0,0-1.643,4.557.179.179,0,0,1-.172.185Z" transform="translate(-681.881 -1589.408)" fill="#fff"/>
            </g>
          </g>
          <path id="Path_114124" data-name="Path 114124" d="M395.707,1532.983c-.938.519-24.663,1.623-37.87-6.884a4.971,4.971,0,0,1-2.037-6.741S358.876,1530.873,395.707,1532.983Z" transform="translate(-355.106 -1511.796)" fill="#051733"/>
          <path id="Path_114125" data-name="Path 114125" d="M475.555,1505.231a.267.267,0,0,1-.076-.011c-17.1-5.066-24.979-10.311-25.057-10.363a.268.268,0,1,1,.3-.445c.077.052,7.9,5.255,24.909,10.294a.268.268,0,0,1-.076.526Z" transform="translate(-437.603 -1490.116)" fill="#051733"/>
          <path id="Path_114126" data-name="Path 114126" d="M557.373,1519.3a.268.268,0,0,1-.047-.532c.108-.019,10.891-1.959,15.065-3.748a.268.268,0,0,1,.211.493c-4.231,1.814-14.737,3.7-15.182,3.783A.274.274,0,0,1,557.373,1519.3Z" transform="translate(-530.253 -1508.01)" fill="#051733"/>
        </g>
        <path id="Path_114127" data-name="Path 114127" d="M491.261,1227.934c.375,2.877-20.1,3.563-30.577-.607-1.566-6.494-6.974-36.049,9.178-35.96C487.3,1191.464,489.6,1220.095,491.261,1227.934Z" transform="translate(-438.734 -1184.759)" fill="#fff"/>
        <path id="Path_114128" data-name="Path 114128" d="M357.394,1243.034l-.241-3.659L361,1238.8l1.453,3.29C362.617,1243.059,357.558,1244.007,357.394,1243.034Z" transform="translate(-350.773 -1225.903)" fill="#f7a594"/>
        <g id="Group_362" data-name="Group 362" transform="translate(0 2.021)">
          <path id="Path_114129" data-name="Path 114129" d="M369.586,1204.01l.932-5.93s-1.355-.381-1.482,1.228-2.753,2.626-2.076,4.193S369.586,1204.01,369.586,1204.01Z" transform="translate(-359.184 -1192.57)" fill="#f7a594"/>
          <path id="Path_114130" data-name="Path 114130" d="M337.573,1191.4s-2.884-4.406-3.134-6.9c-.026-.915.381-1.186.381-1.186l6.565,6.438s.424,1.313-.085,1.864A2.58,2.58,0,0,1,337.573,1191.4Z" transform="translate(-331.067 -1179.794)" fill="#f7a594"/>
          <path id="Path_114131" data-name="Path 114131" d="M373.076,1217.774s.066,1.043-.531.828c-1.754-.514-1.858-3.09-1.858-3.09Z" transform="translate(-362.514 -1207.727)" fill="#cc7767"/>
          <g id="Group_361" data-name="Group 361">
            <path id="Path_114132" data-name="Path 114132" d="M323.626,1168.1l-12.212-11.343a1.256,1.256,0,0,0-.7.155l12.879,11.811A1.565,1.565,0,0,0,323.626,1168.1Z" transform="translate(-310.489 -1156.753)" fill="#404040"/>
            <path id="Path_114133" data-name="Path 114133" d="M309.234,1157.942c-.186.128-.3.356-.166.776.341,1.039,11.121,10.971,12.212,11.343.533.181.749-.037.833-.308Z" transform="translate(-309.008 -1157.784)"/>
          </g>
          <path id="Path_114134" data-name="Path 114134" d="M334.412,1185.066s.124-1.02,1.963.232c2.233,1.52,3.732,4.231,3.229,4.926C338.962,1191.11,333.926,1187.1,334.412,1185.066Z" transform="translate(-331.017 -1180.975)" fill="#f7a594"/>
        </g>
        <path id="Path_114135" data-name="Path 114135" d="M462.366,1195.063c-11.583,2.54-8.461,30.2-7.649,36.2a96.443,96.443,0,0,0,12.047,3.068C461.2,1221.157,458.273,1196.32,462.366,1195.063Z" transform="translate(-434.547 -1187.965)" fill="#007382"/>
        <path id="Path_114136" data-name="Path 114136" d="M511.83,1148.99c-1.287,6.276-8.189,6.115-8.279,2.593a1.537,1.537,0,0,1-.018-.286l-.554-7.617-.071-.929.608-.125,5.489-1.09.2-.036.161.483.7,1.984Z" transform="translate(-477.215 -1141.498)" fill="#f7a594"/>
        <path id="Path_114137" data-name="Path 114137" d="M563.927,1194.427c-2.182,5.129.7,31.911,2.7,39.9,5.4,1.826,13.552-.844,15.73-3.584C580.813,1223.438,578.341,1197.9,563.927,1194.427Z" transform="translate(-529.472 -1187.414)" fill="#007382"/>
        <g id="Group_368" data-name="Group 368" transform="translate(20.049 11.508)">
          <path id="Path_114138" data-name="Path 114138" d="M563.4,1233.172c-.842,4.612.762,12.61,2.009,16.767,3.31,2.435,8.453,1.178,8.453-2.563a50.189,50.189,0,0,0-.968-11.447C572.091,1226.293,563.813,1226.382,563.4,1233.172Z" transform="translate(-549.535 -1228.35)" fill="#007382"/>
          <g id="Group_363" data-name="Group 363" transform="translate(4.942 10.835)">
            <path id="Path_114139" data-name="Path 114139" d="M501.463,1310.313c-3.409-1.229-5.165,3.667-2.683,5.365,5.9,3.982,15.068,9.338,16.7,5.925C517.863,1316.613,509.231,1312.775,501.463,1310.313Z" transform="translate(-497.614 -1310.117)" fill="#007382"/>
          </g>
          <g id="Group_367" data-name="Group 367" transform="translate(0 4.38)">
            <path id="Path_114140" data-name="Path 114140" d="M483.3,1309.7l-2.524-1.334c-1.586-1.229,1.207-3.759,2.34-3.351l1.963,1.232C486.077,1307.187,484.664,1309.594,483.3,1309.7Z" transform="translate(-477.655 -1299.197)" fill="#f7a594"/>
            <g id="Group_366" data-name="Group 366">
              <g id="Group_364" data-name="Group 364" transform="translate(1.972 2.071)">
                <path id="Path_114141" data-name="Path 114141" d="M476.6,1284.19c-2.066-.44-1.351-2.526-.886-4.909C474.047,1272.132,483.142,1284.38,476.6,1284.19Z" transform="translate(-475.202 -1277.039)" fill="#f7a594"/>
              </g>
              <path id="Path_114142" data-name="Path 114142" d="M474.085,1264.805s-.674-1.051-2.159-3.4c-.669.127-1.027,1.3-.128,2.329C472.589,1264.641,473.733,1265.253,474.085,1264.805Z" transform="translate(-469.811 -1261.408)" fill="#f7a594"/>
              <g id="Group_365" data-name="Group 365" transform="translate(0 2.6)">
                <path id="Path_114143" data-name="Path 114143" d="M462.561,1281.2c-1.492-.845-2.554,1.615-2.163,3.536.6,2.94,2.787,1.488,3.441.7C465.034,1284,464.389,1282.235,462.561,1281.2Z" transform="translate(-460.316 -1281.028)" fill="#f7a594"/>
              </g>
            </g>
          </g>
          <path id="Path_114144" data-name="Path 114144" d="M562.506,1253.348a.179.179,0,0,1-.176-.15c-.011-.065-1.068-6.582.239-10.985a.179.179,0,1,1,.343.1c-1.284,4.324-.24,10.761-.229,10.825a.179.179,0,0,1-.147.206Z" transform="translate(-548.453 -1240.265)" fill="#003331"/>
          <path id="Path_114145" data-name="Path 114145" d="M569.2,1309.491a16.89,16.89,0,0,1-6.641-1.96.179.179,0,1,1,.169-.315c.068.036,6.788,3.6,9.245.9,2.156-2.364.55-12.6.533-12.708a.179.179,0,0,1,.353-.057c.068.428,1.649,10.515-.622,13.005A3.946,3.946,0,0,1,569.2,1309.491Z" transform="translate(-548.927 -1286.345)" fill="#003331"/>
          <path id="Path_114146" data-name="Path 114146" d="M530.129,1312.39a.181.181,0,0,1-.073-.016c-4.306-1.914-9.7-3.648-9.751-3.665a.179.179,0,0,1,.109-.341c.054.017,5.464,1.757,9.787,3.679a.179.179,0,0,1-.073.342Z" transform="translate(-512.249 -1297.758)" fill="#fff"/>
        </g>
        <path id="Path_114147" data-name="Path 114147" d="M504.182,1151.65c-.16-1.683-1.085-8.021-.015-8.792l5.489-1.09C510.913,1148.685,506.225,1152.139,504.182,1151.65Z" transform="translate(-477.865 -1141.732)" fill="#d97661"/>
      </g>
      <g id="Group_371" data-name="Group 371" transform="translate(12.011)">
        <path id="Path_114148" data-name="Path 114148" d="M452.085,1062.707c-.266,5.656-5.3,10.046-9.05,9.838s-8.352-4.989-8.085-10.645,4.318-10.061,9.05-9.838S452.352,1057.051,452.085,1062.707Z" transform="translate(-430.263 -1050.931)" fill="#f7a594"/>
        <path id="Path_114149" data-name="Path 114149" d="M416.381,1045.509c-4.737-3.887-7.943-1.176-10.9,1.755-2.076,2.057-3.55,3.536-5.827,3.6,3.63,5.952,12.668,3.434,16.046-1.665-.115,3.126,3.215,6.137,5.776,6.152C422.717,1052.014,421.191,1044.763,416.381,1045.509Z" transform="translate(-399.653 -1043.579)" fill="#0e0e0e"/>
        <circle id="Ellipse_36" data-name="Ellipse 36" cx="1.953" cy="1.953" r="1.953" transform="translate(18.533 10.644) rotate(-15.268)" fill="#f7a594"/>
        <g id="Group_370" data-name="Group 370" transform="translate(6.093 10.273)">
          <path id="Path_114150" data-name="Path 114150" d="M474.6,1147.295a.67.67,0,0,1-.394-.111c-.49-.346-.009-3.248.15-4.129a.116.116,0,0,1,.228.041c-.314,1.737-.5,3.721-.244,3.9.331.233,1.112-.181,1.385-.361a.116.116,0,0,1,.127.193A2.794,2.794,0,0,1,474.6,1147.295Z" transform="translate(-470.237 -1140.064)" fill="#bd4a31"/>
          <path id="Path_114151" data-name="Path 114151" d="M504.444,1132.709c.1.452.362.778.586.729s.325-.456.225-.908-.362-.778-.586-.729S504.345,1132.258,504.444,1132.709Z" transform="translate(-496.618 -1130.38)" fill="#0e0e0e"/>
          <path id="Path_114152" data-name="Path 114152" d="M450.389,1146.442c.093.422.338.726.547.68s.3-.426.21-.848-.338-.726-.547-.68S450.3,1146.02,450.389,1146.442Z" transform="translate(-449.728 -1142.346)" fill="#0e0e0e"/>
          <path id="Path_114153" data-name="Path 114153" d="M500.991,1164.723a2.588,2.588,0,0,1-.317-.017.116.116,0,0,1,.03-.229,2.885,2.885,0,0,0,2.019-.561,2.736,2.736,0,0,0,.856-2.093.112.112,0,0,1,.12-.112.115.115,0,0,1,.111.12,2.677,2.677,0,0,1-2.82,2.892Z" transform="translate(-493.294 -1156.331)" fill="#803221"/>
          <path id="Path_114154" data-name="Path 114154" d="M497.62,1122.266h-.005a.116.116,0,0,1-.11-.121,1.079,1.079,0,0,1,.816-.984,1.119,1.119,0,0,1,1.254.375.116.116,0,0,1-.187.136.892.892,0,0,0-1-.289.86.86,0,0,0-.651.773A.116.116,0,0,1,497.62,1122.266Z" transform="translate(-490.631 -1121.106)" fill="#803221"/>
          <path id="Path_114155" data-name="Path 114155" d="M445.752,1134.652h-.01a.116.116,0,0,1-.105-.125,1.017,1.017,0,0,1,.837-1.035.979.979,0,0,1,1.026.69.116.116,0,1,1-.218.076.75.75,0,0,0-.779-.537c-.275.034-.586.269-.635.826A.116.116,0,0,1,445.752,1134.652Z" transform="translate(-445.636 -1131.843)" fill="#803221"/>
        </g>
      </g>
    </g>
    <g id="message" transform="translate(129.59 493.988)">
      <g id="Group_374" data-name="Group 374" transform="translate(0 23.118)">
        <g id="Group_372" data-name="Group 372">
          <rect id="Rectangle_167689" data-name="Rectangle 167689" width="29.682" height="14.733" rx="7.367" fill="#aae0ff"/>
          <path id="Path_114156" data-name="Path 114156" d="M272.268,1030.507v6.647l-6.775-6.775Z" transform="translate(-247.486 -1018.154)" fill="#aae0ff"/>
        </g>
        <g id="Group_373" data-name="Group 373" transform="translate(3.849 5.675)">
          <circle id="Ellipse_37" data-name="Ellipse 37" cx="1.293" cy="1.293" r="1.293" transform="translate(0 1.829) rotate(-45)" fill="#fff"/>
          <circle id="Ellipse_38" data-name="Ellipse 38" cx="1.293" cy="1.293" r="1.293" transform="translate(4.611 2.792) rotate(-76.774)" fill="#fff"/>
          <circle id="Ellipse_39" data-name="Ellipse 39" cx="1.293" cy="1.293" r="1.293" transform="translate(8.948 2.792) rotate(-76.774)" fill="#fff"/>
          <circle id="Ellipse_40" data-name="Ellipse 40" cx="1.293" cy="1.293" r="1.293" transform="translate(13.356 2.899) rotate(-80.783)" fill="#fff"/>
          <circle id="Ellipse_41" data-name="Ellipse 41" cx="1.293" cy="1.293" r="1.293" transform="translate(17.347 1.829) rotate(-45)" fill="#fff"/>
        </g>
      </g>
      <g id="Group_378" data-name="Group 378" transform="translate(35.893 0)">
        <g id="Group_376" data-name="Group 376">
          <g id="Group_375" data-name="Group 375">
            <rect id="Rectangle_167690" data-name="Rectangle 167690" width="21.522" height="17.456" rx="8.728" fill="#aae0ff"/>
            <path id="Path_114157" data-name="Path 114157" d="M459.224,891.291l2.466,4.327,2.715-4.327Z" transform="translate(-451.438 -874.378)" fill="#aae0ff"/>
          </g>
        </g>
        <g id="Group_377" data-name="Group 377" transform="translate(5.64 5.081)">
          <path id="Path_114158" data-name="Path 114158" d="M450.044,805.239l-4.3-3.238h8.57Z" transform="translate(-445.389 -802.001)" fill="#296acc"/>
          <path id="Path_114159" data-name="Path 114159" d="M452.324,808.3v5.62h-9.29V808.3l4.655,3.492Z" transform="translate(-443.035 -807.462)" fill="#296acc"/>
        </g>
      </g>
    </g>
    <g id="shadow" transform="translate(151.393 607.066)">
      <path id="Path_114160" data-name="Path 114160" d="M453.687,1618.817H295.028a.894.894,0,0,1,0-1.788H453.687a.894.894,0,0,1,0,1.788Z" transform="translate(-294.134 -1617.029)" fill="#2e5b99"/>
    </g>
  </g>
</svg>
