<svg xmlns="http://www.w3.org/2000/svg" xmlns:xlink="http://www.w3.org/1999/xlink" width="20" height="20" viewBox="0 0 20 20">
  <defs>
    <clipPath id="clip-path">
      <path id="Path_114261" data-name="Path 114261" d="M0,0H20V20H0Z" fill="none"/>
    </clipPath>
  </defs>
  <g id="Logout" transform="translate(12692 13923.417)">
    <g id="Group_309" data-name="Group 309" transform="translate(-12692 -13923.417)">
      <rect id="Rectangle_167666" data-name="Rectangle 167666" width="20" height="20" fill="none"/>
      <g id="Group_315" data-name="Group 315" transform="translate(0 0)">
        <rect id="Rectangle_167462" data-name="Rectangle 167462" width="20" height="20" fill="none"/>
        <g id="leave" clip-path="url(#clip-path)">
          <path id="Path_114260" data-name="Path 114260" d="M8.1,7.361a7.547,7.547,0,0,1,.331-3.2A3.038,3.038,0,0,1,9.757,2.831a7.547,7.547,0,0,1,3.2-.331h2.43a7.548,7.548,0,0,1,3.2.331,3.038,3.038,0,0,1,1.328,1.328,7.547,7.547,0,0,1,.331,3.2V16.88a7.547,7.547,0,0,1-.331,3.2,3.037,3.037,0,0,1-1.328,1.328,7.547,7.547,0,0,1-3.2.331h-2.43a7.547,7.547,0,0,1-3.2-.331,3.038,3.038,0,0,1-1.328-1.328,7.548,7.548,0,0,1-.331-3.2V15.411h4.051a3.291,3.291,0,0,0,0-6.582H8.1ZM5.449,9.977a1.266,1.266,0,0,0-1.79-1.79L.621,11.225a1.266,1.266,0,0,0,0,1.79l3.038,3.038a1.266,1.266,0,0,0,1.79-1.79l-.877-.877h7.577a1.266,1.266,0,0,0,0-2.532H4.572Z" transform="translate(-0.25 -2.12)" fill="#338ec0" fill-rule="evenodd"/>
        </g>
      </g>
    </g>
  </g>
</svg>
