<svg xmlns="http://www.w3.org/2000/svg" width="28.736" height="22.197" viewBox="0 0 28.736 22.197">
  <g id="Me-spose-child" transform="translate(-5.6 -62.586)">
    <g id="Group_157580" data-name="Group 157580" transform="translate(19.627 62.586)">
      <g id="Group_157578" data-name="Group 157578" transform="translate(1.608 0)">
        <rect id="Rectangle_168809" data-name="Rectangle 168809" width="3.126" height="2.885" transform="translate(4.18 13.505)" fill="#fac1ac"/>
        <path id="Path_204780" data-name="Path 204780" d="M350.929,304.592v-2.655h3.126Z" transform="translate(-346.749 -288.203)" fill="#fb9d6e"/>
        <path id="Path_204781" data-name="Path 204781" d="M451.1,195.4a1.355,1.355,0,0,1,0,2.709" transform="translate(-441.176 -187.775)" fill="#fb9d6e"/>
        <path id="Path_204782" data-name="Path 204782" d="M296.163,66.9v4.058a.966.966,0,0,1-.825.955l-3.089-.007-1.118,0-4.528-.01a1.1,1.1,0,0,1-.842-1.064V68.118a5.535,5.535,0,0,1,5.475-5.532h.008a1.171,1.171,0,0,1,.975.525h.03A3.923,3.923,0,0,1,296.163,66.9Z" transform="translate(-285.321 -62.586)" fill="#565656"/>
        <path id="Path_204783" data-name="Path 204783" d="M398.817,126.369v.8a.966.966,0,0,1-.825.955l-3.089-.007-.157,0-.013-5.218s-.291-.675.323-.675h1.158a1.546,1.546,0,0,1,1.546,1.546v.524a2.57,2.57,0,0,0,1.056,2.077Z" transform="translate(-387.975 -118.8)" fill="#424242"/>
        <path id="Path_204784" data-name="Path 204784" d="M279.434,198.106a1.355,1.355,0,1,1,0-2.709" transform="translate(-278.08 -187.776)" fill="#fb9d6e"/>
        <path id="Path_204785" data-name="Path 204785" d="M292.094,70.807l0,1.084h-5.492a1.1,1.1,0,0,1-.842-1.064V68.118a5.412,5.412,0,0,1,.069-.865.015.015,0,0,0,0,0h0a5.527,5.527,0,0,1,5.405-4.662h.008a1.171,1.171,0,0,1,.975.525s.018.033.045.091a3.664,3.664,0,0,1-.185,3.481Z" transform="translate(-285.322 -62.586)" fill="#606060"/>
        <path id="Path_204786" data-name="Path 204786" d="M292.093,138.111,290.33,139.2H286.6a1.1,1.1,0,0,1-.842-1.064v-2.709a5.416,5.416,0,0,1,.069-.865c-.006.134-.11,2.408.428,2.131.554-.285.822-1.511,2.586-1.551s2.374-.049,3.235-1.151Z" transform="translate(-285.321 -129.89)" fill="#424242"/>
        <path id="Path_204787" data-name="Path 204787" d="M303.255,135.714h.321a2.67,2.67,0,0,0,2.5-1.729h0l1.127.008a1.389,1.389,0,0,1,1.389,1.389V136a2.171,2.171,0,0,0,.376,1.221h0a2.171,2.171,0,0,1,.376,1.221v1.132a4.367,4.367,0,0,1-4.367,4.367h0a4.367,4.367,0,0,1-4.367-4.367V138.36a2.646,2.646,0,0,1,2.646-2.646h0" transform="translate(-299.316 -129.888)" fill="#fac1ac"/>
        <path id="Path_204788" data-name="Path 204788" d="M397.144,213.093h.024a.24.24,0,0,0,.208-.131.275.275,0,0,1,.483,0,.239.239,0,0,0,.208.131h.024a.239.239,0,0,0,.218-.341.771.771,0,0,0-1.384,0A.239.239,0,0,0,397.144,213.093Z" transform="translate(-390.084 -203.73)" fill="#565656"/>
        <path id="Path_204789" data-name="Path 204789" d="M354.07,254.916a1.316,1.316,0,0,1-1.089-.583.213.213,0,0,0-.269-.077h0a.212.212,0,0,0-.085.308,1.731,1.731,0,0,0,2.886,0,.212.212,0,0,0-.085-.308h0a.213.213,0,0,0-.269.077A1.317,1.317,0,0,1,354.07,254.916Z" transform="translate(-348.316 -243.238)" fill="#fb9d6e"/>
        <path id="Path_204790" data-name="Path 204790" d="M335.569,212.322a.772.772,0,0,0-.692.431.239.239,0,0,0,.218.341h.024a.239.239,0,0,0,.208-.131.275.275,0,0,1,.483,0,.239.239,0,0,0,.208.131h.024a.239.239,0,0,0,.218-.341A.772.772,0,0,0,335.569,212.322Z" transform="translate(-331.595 -203.73)" fill="#565656"/>
      </g>
      <g id="Group_157579" data-name="Group 157579" transform="translate(0 15.159)">
        <path id="Path_204791" data-name="Path 204791" d="M264.767,331.629v2.4H250.058v-2.4a4.121,4.121,0,0,1,1.834-3.429c.077-.052.156-.1.237-.148a4.134,4.134,0,0,1,1.138-.443l1.314-.3.237-.053.305-.069.731-.165.481.255.935.5.1.052.139-.069.686-.345.775-.389.76.172.231.052.116.027.121.027,1.359.308a4.1,4.1,0,0,1,1.093.418q.122.067.237.142A4.121,4.121,0,0,1,264.767,331.629Z" transform="translate(-250.058 -327.009)" fill="#a6e0f6"/>
        <path id="Path_204792" data-name="Path 204792" d="M352.612,334.742l-1.509-.365-.02,2.419,1.53-1.617,1.6,1.6v-2.405Z" transform="translate(-345.286 -333.939)" fill="#2e426a"/>
        <path id="Path_204793" data-name="Path 204793" d="M376,363.039v4.822h-.237v-4.822a.119.119,0,0,1,.12-.119h0A.119.119,0,0,1,376,363.039Z" transform="translate(-368.546 -360.846)" fill="#2e426a"/>
        <path id="Path_204794" data-name="Path 204794" d="M451.675,400.73v2.659h-.237V400.73a.119.119,0,0,1,.12-.119h0A.119.119,0,0,1,451.675,400.73Z" transform="translate(-439.883 -396.374)" fill="#5cb4e2"/>
        <path id="Path_204795" data-name="Path 204795" d="M351.083,327.024v2.405l1.53-1.617Z" transform="translate(-345.286 -327.009)" fill="#3196ca"/>
        <path id="Path_204796" data-name="Path 204796" d="M379.338,326.761v2.405l-1.6-1.6Z" transform="translate(-370.412 -326.761)" fill="#3196ca"/>
      </g>
    </g>
    <g id="Group_157581" data-name="Group 157581" transform="translate(5.6 63.403)">
      <path id="Path_204797" data-name="Path 204797" d="M19.3,94.773h.141a3.342,3.342,0,0,0-.213-5.047,1.473,1.473,0,0,1-.559-1.152v-6.08a5.669,5.669,0,0,0-5.649-5.671h-.069a5.6,5.6,0,0,0-5.492,5.6v6.118a1.477,1.477,0,0,1-.57,1.162,3.339,3.339,0,0,0-.272,5.031Z" transform="translate(-5.6 -76.822)" fill="#565656"/>
      <path id="Path_204798" data-name="Path 204798" d="M6.615,94.766a3.339,3.339,0,0,1,.272-5.031,1.477,1.477,0,0,0,.57-1.162V82.455a5.6,5.6,0,0,1,5.492-5.6V94.766" transform="translate(-5.6 -76.85)" fill="#606060"/>
      <path id="Path_204799" data-name="Path 204799" d="M66.122,236.641H63.587a3.022,3.022,0,0,1-3.022-3.022v-5.8h8.579v5.8A3.022,3.022,0,0,1,66.122,236.641Z" transform="translate(-57.411 -219.153)" fill="#424242"/>
      <path id="Path_204800" data-name="Path 204800" d="M35,318.418v.03a5.5,5.5,0,0,1-.865.44,7.814,7.814,0,0,1-2.979.593H22.687a3.753,3.753,0,0,1,2.547-2.321l.138-.037,2.356-.534v-1.3h2.836v1.3l2.356.534A3.744,3.744,0,0,1,35,318.418Z" transform="translate(-21.707 -301.607)" fill="#fac1ac"/>
      <path id="Path_204801" data-name="Path 204801" d="M117.806,318.419v.03a5.5,5.5,0,0,1-.865.44c-1.113-1.047-3.7-1.212-3.7-1.212l-.289-.009a.68.68,0,0,1-.659-.68h0a.68.68,0,0,0-.587-.674l-.662-.266a.824.824,0,0,1-.517-.758h2.836v1.3l2.356.534A3.743,3.743,0,0,1,117.806,318.419Z" transform="translate(-104.51 -301.608)" fill="#fb9d6e"/>
      <path id="Path_204802" data-name="Path 204802" d="M64.777,135.349l-.073.34a2.9,2.9,0,0,1-2.037,2.178h0a2.9,2.9,0,0,0-2.1,2.788v1.105a4.339,4.339,0,0,0,.022.438,4.29,4.29,0,0,0,4.249,3.851h.018a4.29,4.29,0,0,0,4.267-3.851,4.338,4.338,0,0,0,.022-.438v-1.111a2.9,2.9,0,0,0-2.115-2.791l-.117-.033a2.9,2.9,0,0,1-2.01-2.02Z" transform="translate(-57.412 -131.991)" fill="#fac1ac"/>
      <path id="Path_204803" data-name="Path 204803" d="M69.144,130.783v.914a2.9,2.9,0,0,0-2.115-2.791l-.117-.033a2.9,2.9,0,0,1-2.011-2.02l-.125-.455-.073.34a2.9,2.9,0,0,1-2.036,2.178,2.9,2.9,0,0,0-2.1,2.788v-.914a2.9,2.9,0,0,1,2.1-2.788,2.771,2.771,0,0,0,1.995-2.011l.01-.046a.118.118,0,0,1,.23-.005h0a2.9,2.9,0,0,0,2.011,2.02l.117.033A2.9,2.9,0,0,1,69.144,130.783Z" transform="translate(-57.411 -123.038)" fill="#424242"/>
      <path id="Path_204804" data-name="Path 204804" d="M32.01,372.058v2.181H18.616v-2.181a3.736,3.736,0,0,1,.234-1.3h8.471a7.427,7.427,0,0,0,3.844-1.034v-.036a3.743,3.743,0,0,1,.845,2.371Z" transform="translate(-17.869 -352.882)" fill="#fce48c"/>
      <path id="Path_204805" data-name="Path 204805" d="M54.689,372.058v2.181H42.676v-2.181a3.736,3.736,0,0,1,.233-1.3H50a7.427,7.427,0,0,0,3.844-1.034v-.036a3.744,3.744,0,0,1,.845,2.371Z" transform="translate(-40.549 -352.882)" fill="#fdc323"/>
      <path id="Path_204806" data-name="Path 204806" d="M154.109,227.32h.024a.239.239,0,0,0,.208-.131.275.275,0,0,1,.483,0,.239.239,0,0,0,.208.131h.024a.239.239,0,0,0,.218-.341.771.771,0,0,0-1.384,0A.239.239,0,0,0,154.109,227.32Z" transform="translate(-145.36 -217.958)" fill="#565656"/>
      <path id="Path_204807" data-name="Path 204807" d="M111.035,269.142a1.316,1.316,0,0,1-1.089-.583.213.213,0,0,0-.269-.077h0a.212.212,0,0,0-.085.308,1.731,1.731,0,0,0,2.886,0,.212.212,0,0,0-.085-.308h0a.213.213,0,0,0-.269.077A1.317,1.317,0,0,1,111.035,269.142Z" transform="translate(-103.592 -257.465)" fill="#fb9d6e"/>
      <path id="Path_204808" data-name="Path 204808" d="M92.534,226.549a.772.772,0,0,0-.692.431.239.239,0,0,0,.218.341h.024a.239.239,0,0,0,.208-.131.275.275,0,0,1,.483,0,.239.239,0,0,0,.208.131h.024a.239.239,0,0,0,.218-.341A.772.772,0,0,0,92.534,226.549Z" transform="translate(-86.871 -217.958)" fill="#565656"/>
    </g>
    <g id="Group_157584" data-name="Group 157584" transform="translate(14.824 69.913)">
      <g id="Group_157582" data-name="Group 157582" transform="translate(0.806 0)">
        <path id="Path_204809" data-name="Path 204809" d="M182.385,199.754h-.08a1.905,1.905,0,0,1-1.905-1.905V194.71a4.38,4.38,0,1,1,8.761-.055v3.193a1.905,1.905,0,0,1-1.905,1.905h0" transform="translate(-180.4 -190.275)" fill="#565656"/>
        <path id="Path_204810" data-name="Path 204810" d="M205.548,248.5l.468.468a.217.217,0,0,0,.307,0h0a.217.217,0,0,0,0-.307l-.468-.468a.217.217,0,0,0-.307,0h0A.217.217,0,0,0,205.548,248.5Z" transform="translate(-204.045 -244.809)" fill="#d8d8d8"/>
        <path id="Path_204811" data-name="Path 204811" d="M214.46,240.524l-.468-.468a.217.217,0,0,0-.307,0h0a.217.217,0,0,0,0,.307l.468.468a.217.217,0,0,0,.307,0h0A.217.217,0,0,0,214.46,240.524Z" transform="translate(-211.715 -237.14)" fill="#d8d8d8"/>
        <rect id="Rectangle_168810" data-name="Rectangle 168810" width="2.186" height="2.15" transform="translate(3.262 8.797)" fill="#fac1ac"/>
        <path id="Path_204812" data-name="Path 204812" d="M237.244,350.452v-1.863h2.186Z" transform="translate(-233.982 -339.505)" fill="#fb9d6e"/>
        <path id="Path_204813" data-name="Path 204813" d="M200.924,248.274a2.456,2.456,0,0,0,.994,1.61.73.73,0,0,1,.281.663,3.556,3.556,0,0,1-7.049.375.732.732,0,0,1,.639-.881c1.121-.119,3.259-.535,4.386-1.986a.4.4,0,0,1,.458-.13l.027.01A.411.411,0,0,1,200.924,248.274Z" transform="translate(-194.289 -244.592)" fill="#fac1ac"/>
        <path id="Path_204814" data-name="Path 204814" d="M236.291,322.313a1.084,1.084,0,0,1-.9-.48.176.176,0,0,0-.222-.064h0a.174.174,0,0,0-.07.254,1.425,1.425,0,0,0,2.376,0,.174.174,0,0,0-.07-.254h0a.176.176,0,0,0-.222.064A1.084,1.084,0,0,1,236.291,322.313Z" transform="translate(-231.936 -314.208)" fill="#fb9d6e"/>
        <path id="Path_204815" data-name="Path 204815" d="M230.777,303.065a.34.34,0,0,1-.681,0" transform="translate(-227.244 -296.593)" fill="#ffe8e1"/>
        <path id="Path_204816" data-name="Path 204816" d="M271.312,303.065a.34.34,0,0,1-.681,0" transform="translate(-265.453 -296.593)" fill="#ffe8e1"/>
        <path id="Path_204817" data-name="Path 204817" d="M232.752,295.567a.2.2,0,0,0-.2.2v.239a.2.2,0,0,0,.4,0v-.239A.2.2,0,0,0,232.752,295.567Z" transform="translate(-229.56 -289.525)" fill="#565656"/>
        <path id="Path_204818" data-name="Path 204818" d="M273.287,296.205h0a.2.2,0,0,0,.2-.2v-.239a.2.2,0,0,0-.2-.2h0a.2.2,0,0,0-.2.2v.239A.2.2,0,0,0,273.287,296.205Z" transform="translate(-267.769 -289.525)" fill="#565656"/>
      </g>
      <g id="Group_157583" data-name="Group 157583" transform="translate(0 9.957)">
        <path id="Path_204819" data-name="Path 204819" d="M176.678,367.026v1.681H166.356v-1.681a2.889,2.889,0,0,1,2.253-2.82l.513-.116h0l1.052-.238.251-.057a1.261,1.261,0,0,0,1.118.568,1.135,1.135,0,0,0,1.068-.568l.295.067,1.087.246.433.1a2.892,2.892,0,0,1,2.253,2.82Z" transform="translate(-166.355 -363.794)" fill="#eb5d29"/>
        <path id="Path_204820" data-name="Path 204820" d="M167.87,375.7h0v4.23h-1.523v-1.681A2.893,2.893,0,0,1,167.87,375.7Z" transform="translate(-166.347 -375.021)" fill="#db3a09"/>
        <path id="Path_204821" data-name="Path 204821" d="M322.049,378.733v1.681h-1.472v-4.2A2.891,2.891,0,0,1,322.049,378.733Z" transform="translate(-311.727 -375.501)" fill="#db3a09"/>
        <path id="Path_204822" data-name="Path 204822" d="M200.222,369.361v4.2H192.9v-4.229a2.883,2.883,0,0,1,.73-.273l.513-.116v2.164h4.87v-2.147l.433.1A2.862,2.862,0,0,1,200.222,369.361Z" transform="translate(-191.373 -368.648)" fill="#fce48c"/>
        <rect id="Rectangle_168811" data-name="Rectangle 168811" width="4.865" height="0.223" transform="translate(2.766 2.46)" fill="#ea9807"/>
        <rect id="Rectangle_168812" data-name="Rectangle 168812" width="1.243" height="0.23" transform="translate(1.523 1.428)" fill="#fdc323"/>
        <rect id="Rectangle_168813" data-name="Rectangle 168813" width="1.213" height="0.23" transform="translate(7.637 1.428)" fill="#fdc323"/>
        <rect id="Rectangle_168814" data-name="Rectangle 168814" width="7.326" height="0.198" transform="translate(1.523 4.715)" fill="#fdc323"/>
        <rect id="Rectangle_168815" data-name="Rectangle 168815" width="7.326" height="0.23" transform="translate(1.523 3.132)" fill="#fdc323"/>
        <path id="Path_204823" data-name="Path 204823" d="M235.617,363.861a1.588,1.588,0,0,1-2.731-.01l.251-.057a1.262,1.262,0,0,0,1.118.568,1.135,1.135,0,0,0,1.068-.568Z" transform="translate(-229.068 -363.794)" fill="#fff"/>
      </g>
    </g>
  </g>
</svg>
