<svg xmlns="http://www.w3.org/2000/svg" width="30.002" height="22.501" viewBox="0 0 30.002 22.501">
  <g id="Me-spouse" transform="translate(0 -126.595)">
    <path id="Path_204834" data-name="Path 204834" d="M295.042,246.495h-1.068l-.066.07v.629a1.246,1.246,0,0,1-.831,1.139c-.686.353-.892,2.359.4,3.013l.366.055,2.564-.992v-1.454Z" transform="translate(-275.383 -112.9)" fill="#365e7d"/>
    <path id="Path_204835" data-name="Path 204835" d="M294.853,248.334a1.406,1.406,0,0,0,.777-.779l-.587-1.059h-1.068l-.066.07v.629a1.246,1.246,0,0,1-.831,1.139c-.686.353-.892,2.359.4,3.013l.366.055.975-.378C294.025,250.193,294.258,248.641,294.853,248.334Z" transform="translate(-275.386 -112.901)" fill="#2b4d66"/>
    <path id="Path_204836" data-name="Path 204836" d="M412.268,247.712a1.245,1.245,0,0,1-.831-1.139v-.639l-.1-.1h-1.12l-1.286,2.6v1.316l2.646,1.03.246-.075C413.082,250.034,412.947,248.062,412.268,247.712Z" transform="translate(-384.943 -112.278)" fill="#365e7d"/>
    <path id="Path_204837" data-name="Path 204837" d="M176.017,211.139h-.229l-.1-.1h-.609v2.03l.178.093h.763a1.014,1.014,0,0,0,0-2.025Z" transform="translate(-164.814 -79.515)" fill="#ffcebe"/>
    <path id="Path_204838" data-name="Path 204838" d="M49.293,211.139a1.014,1.014,0,0,0,0,2.025h.763l.124-.229V211.04H49.47Z" transform="translate(-45.511 -79.515)" fill="#ffcebe"/>
    <path id="Path_204839" data-name="Path 204839" d="M176.081,211.142c-.021,0-.042,0-.063,0h-.229l-.1-.1h-.609v2.03l.178.093h.763c.021,0,.042,0,.063,0v-2.018Z" transform="translate(-164.817 -79.515)" fill="#ffb1a0"/>
    <path id="Path_204840" data-name="Path 204840" d="M49.337,212.151a1,1,0,0,1,.845-1v-.107H49.47l-.177.1a1.014,1.014,0,0,0,0,2.025h.763l.016-.029A1,1,0,0,1,49.337,212.151Z" transform="translate(-45.511 -79.515)" fill="#ffb1a0"/>
    <path id="Path_204841" data-name="Path 204841" d="M269.364,319.826l-3.15-1.22-.281.125h-4.862l-.347-.123-3.142,1.218A2.709,2.709,0,0,0,256,322.279v2.928h2.437v4.69h10.072v-4.69h2.437v-2.928A2.7,2.7,0,0,0,269.364,319.826Z" transform="translate(-240.944 -180.801)" fill="#ff7f87"/>
    <path id="Path_204842" data-name="Path 204842" d="M258.048,331.781a2.479,2.479,0,0,1,.991-1.956l-1.457.565A2.709,2.709,0,0,0,256,332.843v2.928h2.048Z" transform="translate(-240.993 -191.365)" fill="#ff636e"/>
    <path id="Path_204843" data-name="Path 204843" d="M13.364,319.926l-3.111-1.2-.24.115H4.906l-.217-.124-3.108,1.214A2.709,2.709,0,0,0,0,322.379v2.928H2.437V330H12.509v-4.69h2.437v-2.928A2.7,2.7,0,0,0,13.364,319.926Z" transform="translate(0 -180.901)" fill="#80b4fb"/>
    <path id="Path_204844" data-name="Path 204844" d="M2.046,331.671a2.482,2.482,0,0,1,1-1.963l-1.464.572A2.709,2.709,0,0,0,0,332.733v2.928H2.046Z" transform="translate(0 -191.255)" fill="#61a2f9"/>
    <path id="Path_204845" data-name="Path 204845" d="M433.411,214.7l-.088-.089h-1.054v1.848l.058.12h.8a.962.962,0,0,0,.289-1.879Z" transform="translate(-406.921 -82.879)" fill="#ffcebe"/>
    <path id="Path_204846" data-name="Path 204846" d="M304.736,214.6h0a.961.961,0,0,0,.258,1.887h.831l.091-.107v-1.867H304.8Z" transform="translate(-286.213 -82.79)" fill="#ffcebe"/>
    <path id="Path_204847" data-name="Path 204847" d="M433.209,214.613h-.942v1.848l.058.12h.8c.03,0,.059,0,.088,0Z" transform="translate(-406.92 -82.879)" fill="#ffb1a0"/>
    <path id="Path_204848" data-name="Path 204848" d="M304.974,215.528a.961.961,0,0,1,.7-.925h0l.068-.085H304.8l-.068.085h0a.961.961,0,0,0,.258,1.887h.831l.005-.006A.961.961,0,0,1,304.974,215.528Z" transform="translate(-286.212 -82.788)" fill="#ffb1a0"/>
    <path id="Path_204851" data-name="Path 204851" d="M2.437,430.639H0v4.223a.527.527,0,0,0,.527.527h1.91Z" transform="translate(0 -286.293)" fill="#ffb1a0"/>
    <path id="Path_204852" data-name="Path 204852" d="M214.255,430.639v4.75h1.91a.527.527,0,0,0,.527-.527v-4.223Z" transform="translate(-201.696 -286.293)" fill="#ffcebe"/>
    <path id="Path_204853" data-name="Path 204853" d="M258.437,430.639H256v4.223a.527.527,0,0,0,.527.527h1.91Z" transform="translate(-240.994 -286.293)" fill="#ffb1a0"/>
    <path id="Path_204854" data-name="Path 204854" d="M470.255,430.639v4.75h1.91a.527.527,0,0,0,.527-.527v-4.223Z" transform="translate(-442.69 -286.293)" fill="#ffcebe"/>
    <path id="Path_204855" data-name="Path 204855" d="M84.914,289.224a.292.292,0,0,1-.187-.272v-.961l-.2-.2H81.67l-.18.2v.964a.269.269,0,0,1-.125.237l-1.04.406a2.941,2.941,0,0,0,5.564.009Z" transform="translate(-75.615 -151.782)" fill="#ffcebe"/>
    <path id="Path_204856" data-name="Path 204856" d="M83.107,287.788H81.669l-.18.2v.964a.269.269,0,0,1-.125.237l-1.04.406a2.892,2.892,0,0,0,2.782,1.99Z" transform="translate(-75.616 -151.782)" fill="#ffb1a0"/>
    <path id="Path_204857" data-name="Path 204857" d="M341.471,290.032a.293.293,0,0,1-.187-.272v-.98l-.129-.134H338.2l-.15.14v.972c0,.224-.2.278-.285.311l-.845.328a2.885,2.885,0,0,0,5.49,0Z" transform="translate(-317.159 -152.59)" fill="#ffcebe"/>
    <path id="Path_204858" data-name="Path 204858" d="M339.668,288.646H338.2l-.15.14v.972c0,.224-.2.278-.285.311l-.845.328a2.842,2.842,0,0,0,2.749,2Z" transform="translate(-317.169 -152.59)" fill="#ffb1a0"/>
    <path id="Path_204859" data-name="Path 204859" d="M34.921,386.381v-7.338a.451.451,0,1,0-.9,0v7.338Z" transform="translate(-32.033 -237.285)" fill="#61a2f9"/>
    <path id="Path_204860" data-name="Path 204860" d="M207.432,386.381v-7.338a.451.451,0,1,0-.9,0v7.338Z" transform="translate(-194.426 -237.285)" fill="#61a2f9"/>
    <path id="Path_204861" data-name="Path 204861" d="M290.921,386.381v-7.338a.451.451,0,1,0-.9,0v7.338Z" transform="translate(-273.023 -237.285)" fill="#ff636e"/>
    <path id="Path_204862" data-name="Path 204862" d="M463.432,386.381v-7.338a.451.451,0,1,0-.9,0v7.338Z" transform="translate(-435.416 -237.285)" fill="#ff636e"/>
    <path id="Path_204863" data-name="Path 204863" d="M116.914,193.267l-.24-.16-.18-.782h-.351l-1.464,1.063h-1.3l-.109.176v2.116a2.931,2.931,0,0,0,1.85,2.73,2.889,2.889,0,0,0,1.936-2.723V193.6Z" transform="translate(-106.633 -61.892)" fill="#ffdecf"/>
    <g id="Group_157586" data-name="Group 157586" transform="translate(4.566 131.495)">
      <path id="Path_204864" data-name="Path 204864" d="M79.989,212.823v-2.069l.143-.23h-2.11l-.143.23v2.069a2.955,2.955,0,0,0,3.99,2.7A2.866,2.866,0,0,1,79.989,212.823Z" transform="translate(-77.879 -210.524)" fill="#ffcebe"/>
    </g>
    <path id="Path_204865" data-name="Path 204865" d="M63.9,127.929a.538.538,0,0,1-.582-.423c-.089-.457-.316-.91-1.2-.91H59.051a2.037,2.037,0,0,0-2.037,2.037v2.236a.858.858,0,0,0,.858.858h3.479a2.036,2.036,0,0,0,1.8-1.078.054.054,0,0,1,.1.026,1.055,1.055,0,0,0,1.052,1.052.553.553,0,0,0,.551-.551v-2.333A.914.914,0,0,0,63.9,127.929Z" transform="translate(-53.685 0)" fill="#365e7d"/>
    <g id="Group_157587" data-name="Group 157587" transform="translate(3.329 126.595)">
      <path id="Path_204866" data-name="Path 204866" d="M58.743,130.868v-2.236a2.037,2.037,0,0,1,2.037-2.037H59.051a2.037,2.037,0,0,0-2.037,2.037v2.236a.858.858,0,0,0,.858.858H59.6A.858.858,0,0,1,58.743,130.868Z" transform="translate(-57.014 -126.595)" fill="#2b4d66"/>
    </g>
    <path id="Path_204867" data-name="Path 204867" d="M367.448,191.326h-1.263l-.992-1.233H364.6l-.92,1v2.542a2.911,2.911,0,0,0,1.932,2.747,2.88,2.88,0,0,0,2.13-2.772v-2.039Z" transform="translate(-342.358 -59.791)" fill="#ffdecf"/>
    <path id="Path_204868" data-name="Path 204868" d="M336.493,208.529V205.91l-.351.38h-1.28l-.127.173v2.066a2.838,2.838,0,0,0,2.906,2.835,2.774,2.774,0,0,0,.857-.132A2.817,2.817,0,0,1,336.493,208.529Z" transform="translate(-315.111 -74.684)" fill="#ffcebe"/>
    <path id="Path_204869" data-name="Path 204869" d="M319.988,126.6a4,4,0,0,0-3.913,4.024v1.195a.958.958,0,0,1,.259-.036h1.583c.1,0,.65-.045.609-.042a1.672,1.672,0,0,0,1.468-1.266.048.048,0,0,1,.094,0,1.669,1.669,0,0,0,1.452,1.263c.5.042.506.045.6.045h1.576a.961.961,0,0,1,.294.046v-1.264A3.966,3.966,0,0,0,319.988,126.6Z" transform="translate(-297.512 0)" fill="#365e7d"/>
    <g id="Group_157588" data-name="Group 157588" transform="translate(18.534 126.595)">
      <path id="Path_204870" data-name="Path 204870" d="M317.849,130.62a4.025,4.025,0,0,1,3.081-3.923,3.965,3.965,0,0,0-4.856,3.923v1.195a.959.959,0,0,1,.259-.036h1.516Z" transform="translate(-316.075 -126.595)" fill="#2b4d66"/>
    </g>
  </g>
</svg>
