<svg xmlns="http://www.w3.org/2000/svg" width="27.531" height="24.845" viewBox="0 0 27.531 24.845">
  <g id="Me-Spouse-2_Child" data-name="Me-Spouse-2 Child" transform="translate(0 -26.04)">
    <path id="Path_204748" data-name="Path 204748" d="M198.377,39.7s-1.557,1.717-5.442,1.335H186c-3.885.382-5.442-1.335-5.442-1.335.918-.918.89-2.892.89-6.4s1.39-7.265,8.021-7.265,8.021,3.761,8.021,7.265S197.46,38.783,198.377,39.7Z" transform="translate(-170.846 0)" fill="#e27d47"/>
    <path id="Path_204749" data-name="Path 204749" d="M186.788,33.206v7.83H186c-3.885.382-5.442-1.335-5.442-1.335.918-.918.89-2.892.89-6.4s1.39-7.265,8.022-7.265C186.394,26.04,186.788,30.1,186.788,33.206Z" transform="translate(-170.845 0)" fill="#dd542e"/>
    <path id="Path_204750" data-name="Path 204750" d="M250.168,128.831a3.217,3.217,0,0,1-3.065,3.051q-1.954.092-3.909.05h-.006q-.714-.015-1.428-.049a3.218,3.218,0,0,1-3.065-3.051q-.091-1.77-.02-3.538h0a20.282,20.282,0,0,0,3.079-.456,12.954,12.954,0,0,0,4.723-1.959s1.446,2.415,3.711,2.415Q250.259,127.062,250.168,128.831Z" transform="translate(-225.811 -91.631)" fill="#f1d0a5"/>
    <path id="Path_204751" data-name="Path 204751" d="M243.188,166.395q-.714-.015-1.428-.049a3.218,3.218,0,0,1-3.065-3.051q-.091-1.77-.02-3.539h0a20.277,20.277,0,0,0,3.079-.456h0C241.37,162.59,241.758,166.336,243.188,166.395Z" transform="translate(-225.811 -126.094)" fill="#f1b986"/>
    <path id="Path_204752" data-name="Path 204752" d="M318.376,218.551a1.719,1.719,0,0,1-1.546-.978.409.409,0,1,1,.739-.351.893.893,0,0,0,1.613,0,.409.409,0,1,1,.74.351A1.719,1.719,0,0,1,318.376,218.551Z" transform="translate(-299.755 -180.681)" fill="#da4a54"/>
    <ellipse id="Ellipse_10390" data-name="Ellipse 10390" cx="0.853" cy="0.538" rx="0.853" ry="0.538" transform="translate(21.345 35.826)" fill="#eaac9d"/>
    <ellipse id="Ellipse_10391" data-name="Ellipse 10391" cx="0.853" cy="0.538" rx="0.853" ry="0.538" transform="translate(14.189 35.826)" fill="#eaac9d"/>
    <path id="Path_204753" data-name="Path 204753" d="M33.273,33.792l-8.539.037-4.24.018c-.323-2.951-1.261-6.785,2.186-7.468a17.762,17.762,0,0,1,2.243-.307c4.487-.3,5.6,1.722,5.6,1.722a2.652,2.652,0,0,1,1.7-.641,1.489,1.489,0,0,1,.951.458C34.767,29.207,33.273,33.792,33.273,33.792Z" transform="translate(-19.047 0)" fill="#aa593d"/>
    <path id="Path_204754" data-name="Path 204754" d="M206.791,46.63c-1.049.721-1.735,2.877-2.053,4.106a6.411,6.411,0,0,1,.358-3.465A2.652,2.652,0,0,1,206.791,46.63Z" transform="translate(-193.619 -19.478)" fill="#934d36"/>
    <path id="Path_204755" data-name="Path 204755" d="M24.261,31.2l.473,3.181-4.24.018c-.323-2.951-1.261-6.785,2.186-7.468a17.762,17.762,0,0,1,2.243-.307h0C23.195,27.682,23.728,29.573,24.261,31.2Z" transform="translate(-19.047 -0.549)" fill="#934d36"/>
    <path id="Path_204756" data-name="Path 204756" d="M28.52,170.29h.008a1.257,1.257,0,0,0,0-2.515H16.961a1.257,1.257,0,0,0,0,2.515h.008" transform="translate(-14.86 -134.114)" fill="#f1b986"/>
    <path id="Path_204757" data-name="Path 204757" d="M50.578,116.022q0,.993-.051,1.987a3.218,3.218,0,0,1-3.065,3.051q-1.737.082-3.474.057h0q-.935-.013-1.869-.057a3.219,3.219,0,0,1-3.065-3.051q-.09-1.77-.02-3.539h0a2.5,2.5,0,0,0,1.258-1.809,1.66,1.66,0,0,1,1.827-1.205,1.639,1.639,0,0,1,.861.4,2.749,2.749,0,0,0,3.621,0,1.633,1.633,0,0,1,1.084-.411,1.657,1.657,0,0,1,1.6,1.22,2.5,2.5,0,0,0,1.258,1.809Q50.578,115.246,50.578,116.022Z" transform="translate(-36.905 -80.808)" fill="#f1d0a5"/>
    <path id="Path_204758" data-name="Path 204758" d="M43.987,121.117q-.935-.013-1.869-.057a3.219,3.219,0,0,1-3.065-3.051q-.09-1.77-.02-3.539h0a2.5,2.5,0,0,0,1.258-1.809,1.66,1.66,0,0,1,1.827-1.205C41.526,116.743,42.118,121.059,43.987,121.117Z" transform="translate(-36.905 -80.808)" fill="#f1b986"/>
    <path id="Path_204759" data-name="Path 204759" d="M94.231,218.272h1.4a1.419,1.419,0,0,0,1.419-1.419v-.547h-1.4a1.419,1.419,0,0,0-1.419,1.419Z" transform="translate(-89.164 -180.036)" fill="#aa593d"/>
    <path id="Path_204760" data-name="Path 204760" d="M149.456,218.272h-1.4a1.419,1.419,0,0,1-1.419-1.419v-.547h1.4a1.419,1.419,0,0,1,1.419,1.419Z" transform="translate(-138.753 -180.036)" fill="#aa593d"/>
    <path id="Path_204761" data-name="Path 204761" d="M27.109,387.645H27.1a1.24,1.24,0,0,1,0-2.481h8.972a1.24,1.24,0,0,1,0,2.481h-.008" transform="translate(-24.47 -339.813)" fill="#f1b986"/>
    <path id="Path_204762" data-name="Path 204762" d="M59.653,363.414a2.469,2.469,0,0,1-2.352,2.341q-1.532.073-3.063.037h0q-.518-.012-1.036-.036a2.47,2.47,0,0,1-2.352-2.341c-.02-.393-.026-1.274-.025-2.145,0-1.134.01-2.252.01-2.252h8.833s0,.472.007,1.114C59.681,361.235,59.682,362.841,59.653,363.414Z" transform="translate(-48.092 -315.072)" fill="#f1d0a5"/>
    <path id="Path_204763" data-name="Path 204763" d="M54.238,365.79q-.518-.012-1.036-.036a2.47,2.47,0,0,1-2.352-2.341c-.02-.393-.026-1.274-.025-2.145,0-1.134.01-2.252.01-2.252h2.29C53.093,363.32,52.878,365.16,54.238,365.79Z" transform="translate(-48.092 -315.071)" fill="#f1b986"/>
    <path id="Path_204764" data-name="Path 204764" d="M111.509,429.026a1.332,1.332,0,0,1-1.2-.758.327.327,0,0,1,.592-.281.672.672,0,0,0,1.214,0,.327.327,0,1,1,.592.281A1.333,1.333,0,0,1,111.509,429.026Z" transform="translate(-104.349 -380.156)" fill="#da4a54"/>
    <path id="Path_204765" data-name="Path 204765" d="M53.49,281.544h3.638a2.6,2.6,0,0,1,2.6,2.6v1.564h-8.84v-1.564A2.6,2.6,0,0,1,53.49,281.544Z" transform="translate(-48.153 -241.765)" fill="#8078bc"/>
    <path id="Path_204766" data-name="Path 204766" d="M55.154,281.544c-1.437,0-1.969,1.165-1.969,2.6v1.565h-2.3v-1.565a2.6,2.6,0,0,1,2.6-2.6Z" transform="translate(-48.152 -241.765)" fill="#5e54ac"/>
    <path id="Path_204767" data-name="Path 204767" d="M3.7,344.612H.409a.409.409,0,0,1,0-.819H3.7a.409.409,0,0,1,0,.819Z" transform="translate(0 -300.667)" fill="#5e54ac"/>
    <path id="Path_204768" data-name="Path 204768" d="M135.618,323.036h-.8a.978.978,0,0,0-.978.978v.956h2.76v-.956A.978.978,0,0,0,135.618,323.036Z" transform="translate(-126.64 -281.026)" fill="#e27d47"/>
    <ellipse id="Ellipse_10392" data-name="Ellipse 10392" cx="1.423" cy="0.688" rx="1.423" ry="0.688" transform="translate(11.879 49.911) rotate(-45)" fill="#934d36"/>
    <ellipse id="Ellipse_10393" data-name="Ellipse 10393" cx="0.688" cy="1.423" rx="0.688" ry="1.423" transform="translate(22.673 48.873) rotate(-45)" fill="#aa593d"/>
    <path id="Path_204769" data-name="Path 204769" d="M246.825,287.941c0,2.87-2.76,5.2-6.164,5.2q-.345,0-.68-.032c-3.084-.285-5.483-2.489-5.483-5.164,0-2.87,2.76-5.2,6.163-5.2S246.825,285.071,246.825,287.941Z" transform="translate(-221.889 -242.901)" fill="#aa593d"/>
    <path id="Path_204770" data-name="Path 204770" d="M238.168,287.388l1.816,5.717c-3.084-.285-5.483-2.489-5.483-5.164,0-2.87,2.76-5.2,6.163-5.2C238.563,283.186,238.168,285.964,238.168,287.388Z" transform="translate(-221.891 -242.901)" fill="#934d36"/>
    <path id="Path_204771" data-name="Path 204771" d="M275.784,345.7a2.464,2.464,0,0,1-2.346,2.336q-1.611.076-3.222.032h0q-.434-.012-.869-.032A2.464,2.464,0,0,1,267,345.7c-.046-.9-.015-4.387-.015-4.387a5.053,5.053,0,0,0,1.911.487,6.439,6.439,0,0,0,4.539-1.552,6.1,6.1,0,0,0,2.37,2.053C275.811,343.4,275.814,345.105,275.784,345.7Z" transform="translate(-252.619 -297.311)" fill="#f1d0a5"/>
    <path id="Path_204772" data-name="Path 204772" d="M270.216,366.8q-.434-.012-.869-.032A2.464,2.464,0,0,1,267,364.429c-.046-.9-.015-4.387-.015-4.387a5.052,5.052,0,0,0,1.911.487C268.932,364.65,269.382,366.765,270.216,366.8Z" transform="translate(-252.62 -316.042)" fill="#f1b986"/>
    <g id="Group_157577" data-name="Group 157577" transform="translate(4.683 33.697)">
      <path id="Path_204773" data-name="Path 204773" d="M287.256,173.616c-.29,0-.525.35-.525.781s.236.781.525.781.525-.35.525-.781S287.546,173.616,287.256,173.616Z" transform="translate(-275.996 -173.337)" fill="#454045"/>
      <path id="Path_204774" data-name="Path 204774" d="M386.827,173.616c-.289,0-.525.35-.525.781s.236.781.525.781.525-.35.525-.781S387.117,173.616,386.827,173.616Z" transform="translate(-370.213 -173.337)" fill="#454045"/>
      <path id="Path_204775" data-name="Path 204775" d="M87.615,168.432c-.29,0-.525.35-.525.781s.236.781.525.781.525-.35.525-.781S87.9,168.432,87.615,168.432Z" transform="translate(-87.09 -168.432)" fill="#454045"/>
      <path id="Path_204776" data-name="Path 204776" d="M187.186,168.432c-.29,0-.525.35-.525.781s.236.781.525.781.525-.35.525-.781S187.476,168.432,187.186,168.432Z" transform="translate(-181.307 -168.432)" fill="#454045"/>
      <path id="Path_204777" data-name="Path 204777" d="M87.813,390.734c-.224,0-.406.27-.406.6s.182.6.406.6.406-.27.406-.6S88.037,390.734,87.813,390.734Z" transform="translate(-87.39 -378.78)" fill="#454045"/>
      <ellipse id="Ellipse_10394" data-name="Ellipse 10394" cx="0.406" cy="0.602" rx="0.406" ry="0.602" transform="translate(4.125 11.954)" fill="#454045"/>
      <path id="Path_204778" data-name="Path 204778" d="M303.882,391.688c-.223,0-.405.27-.405.6s.182.6.405.6.405-.27.405-.6S304.105,391.688,303.882,391.688Z" transform="translate(-291.841 -379.683)" fill="#454045"/>
      <ellipse id="Ellipse_10395" data-name="Ellipse 10395" cx="0.405" cy="0.601" rx="0.405" ry="0.601" transform="translate(15.734 12.005)" fill="#454045"/>
    </g>
    <path id="Path_204779" data-name="Path 204779" d="M327.511,429.881a1.33,1.33,0,0,1-1.2-.757.327.327,0,1,1,.592-.281.669.669,0,0,0,1.209,0,.327.327,0,1,1,.592.281A1.33,1.33,0,0,1,327.511,429.881Z" transform="translate(-308.738 -380.967)" fill="#da4a54"/>
    <ellipse id="Ellipse_10396" data-name="Ellipse 10396" cx="0.653" cy="0.412" rx="0.653" ry="0.412" transform="translate(20.859 47.335)" fill="#eaac9d"/>
    <ellipse id="Ellipse_10397" data-name="Ellipse 10397" cx="0.653" cy="0.412" rx="0.653" ry="0.412" transform="translate(15.381 47.335)" fill="#eaac9d"/>
  </g>
</svg>
