<svg xmlns="http://www.w3.org/2000/svg" width="14.936" height="22.504" viewBox="0 0 14.936 22.504">
  <g id="Me" transform="translate(-78.028 0)">
    <path id="Path_204824" data-name="Path 204824" d="M92.964,20.212v1.9a.388.388,0,0,1-.388.388H78.416a.388.388,0,0,1-.388-.388v-1.9A3.617,3.617,0,0,1,81.645,16.6a2.008,2.008,0,0,0,1.686-.915,2.279,2.279,0,0,0,.322-1.421l.007-.018A4.8,4.8,0,0,1,80.7,9.8V9.653a1.2,1.2,0,0,1-1.212-1.19V6.447a6.712,6.712,0,0,1,1.8-4.9c2.078-2,5.372-1.839,7.758-.768a.1.1,0,0,1,0,.178l-.622.256a.1.1,0,0,0,.027.186l.3.032a4.895,4.895,0,0,1,3.623,2.248.1.1,0,0,1-.013.12,2.934,2.934,0,0,0-.8,2.015V8.463a1.19,1.19,0,0,1-1.19,1.19H90.3V9.8a4.8,4.8,0,0,1-2.965,4.437l.007.018a2.279,2.279,0,0,0,.322,1.421,2.008,2.008,0,0,0,1.686.915,3.617,3.617,0,0,1,3.617,3.616Z" transform="translate(0 0)" fill="#ffdfba"/>
    <path id="Path_204825" data-name="Path 204825" d="M92.964,327.9v1.9a.388.388,0,0,1-.388.388H78.416a.388.388,0,0,1-.388-.388v-1.9a3.617,3.617,0,0,1,3.617-3.616,2.008,2.008,0,0,0,1.686-.915,3.329,3.329,0,0,0,4.331,0,2.008,2.008,0,0,0,1.686.915A3.617,3.617,0,0,1,92.964,327.9Z" transform="translate(0 -307.685)" fill="#fe4f60"/>
    <path id="Path_204826" data-name="Path 204826" d="M120.878,3.682a.1.1,0,0,1-.013.119,2.936,2.936,0,0,0-.8,2.016V8.463a1.192,1.192,0,0,1-1.261,1.19v-3a2.328,2.328,0,0,0-2.328-2.328h-4.946A2.328,2.328,0,0,0,109.2,6.658v3a1.2,1.2,0,0,1-1.212-1.19V6.448a6.712,6.712,0,0,1,1.8-4.9c2.078-2,5.372-1.839,7.758-.768a.1.1,0,0,1,0,.178l-.622.256a.1.1,0,0,0,.027.186l.3.032a4.893,4.893,0,0,1,3.623,2.248Z" transform="translate(-28.506 -0.001)" fill="#42434d"/>
    <path id="Path_204827" data-name="Path 204827" d="M142.63,94.761a4.8,4.8,0,1,1-9.6-.152v-3a2.328,2.328,0,0,1,2.328-2.328H140.3a2.328,2.328,0,0,1,2.328,2.328Z" transform="translate(-52.333 -84.956)" fill="#ffebd2"/>
    <path id="Path_204828" data-name="Path 204828" d="M282.58,431.832h-1.164a.388.388,0,0,1,0-.776h1.164a.388.388,0,0,1,0,.776Z" transform="translate(-193.156 -410.153)" fill="#fff"/>
    <path id="Path_204829" data-name="Path 204829" d="M136.742,112.755a.767.767,0,0,1-.7,1.358,4.8,4.8,0,0,1-3.017-4.458v-3.147a2.317,2.317,0,0,1,.408-1.317.573.573,0,0,1,1.046.348v3.147A4.766,4.766,0,0,0,136.742,112.755Z" transform="translate(-52.333 -99.85)" fill="#fff3e4"/>
    <path id="Path_204830" data-name="Path 204830" d="M196.693,294.5a4.814,4.814,0,0,1-3.8,0,3.005,3.005,0,0,0,.055-.8l.007-.018a4.811,4.811,0,0,0,3.671,0l.007.018A3,3,0,0,0,196.693,294.5Z" transform="translate(-109.299 -279.444)" fill="#ffd6a6"/>
    <path id="Path_204831" data-name="Path 204831" d="M83.6,325.452a1.972,1.972,0,0,1-.578.089,3.626,3.626,0,0,0-3.635,3.6v.365a.679.679,0,0,1-.679.679h-.291a.388.388,0,0,1-.388-.388v-1.9a3.617,3.617,0,0,1,3.617-3.616,2.008,2.008,0,0,0,1.686-.915,3.361,3.361,0,0,0,.461.331A.969.969,0,0,1,83.6,325.452Z" transform="translate(0 -307.685)" fill="#ff6d7a"/>
    <path id="Path_204832" data-name="Path 204832" d="M258.029,325.452a1.972,1.972,0,0,0,.578.089,3.626,3.626,0,0,1,3.635,3.6v.365a.679.679,0,0,0,.679.679h.291a.388.388,0,0,0,.388-.388v-1.9a3.617,3.617,0,0,0-3.617-3.616,2.008,2.008,0,0,1-1.686-.915,3.36,3.36,0,0,1-.461.331A.969.969,0,0,0,258.029,325.452Z" transform="translate(-170.636 -307.685)" fill="#e84857"/>
    <path id="Path_204833" data-name="Path 204833" d="M117.548.959c-.57.235-.651.286-.849.256-3.185-.494-5.979.824-6.928,3.918h0a2.316,2.316,0,0,0-.569,1.525v1.82a.606.606,0,1,1-1.212-.014V6.447a6.712,6.712,0,0,1,1.8-4.9c2.078-2,5.372-1.839,7.758-.768a.1.1,0,0,1,0,.178Z" transform="translate(-28.506 0)" fill="#4d4e59"/>
  </g>
</svg>
