<svg xmlns="http://www.w3.org/2000/svg" width="31.062" height="30.5" viewBox="0 0 31.062 30.5">
  <g id="Medicine" transform="translate(-43.5 -305.957)">
    <rect id="Rectangle_167549" data-name="Rectangle 167549" width="30" height="30" transform="translate(44 305.957)" fill="none"/>
    <g id="hospital" transform="translate(44 305.957)">
      <rect id="Rectangle_167549-2" data-name="Rectangle 167549" width="30" height="30" transform="translate(0 0)" fill="none"/>
    </g>
    <g id="drug" transform="translate(44 307.784)">
      <path id="Path_114529" data-name="Path 114529" d="M92.143,20.863H93.9V19.1h1.768V17.334H93.9V15.566H92.143v1.768H90.375V19.1h1.768Z" transform="translate(-85.07 -15.566)" fill="#fff" stroke="#ffb125" stroke-width="1"/>
      <path id="Path_114530" data-name="Path 114530" d="M60.25,166.191h1.761v1.761H60.25Z" transform="translate(-56.714 -157.35)" fill="#fff" stroke="#ffb125" stroke-width="1"/>
      <path id="Path_114531" data-name="Path 114531" d="M30.125,105.941h1.761V107.7H30.125Z" transform="translate(-28.357 -100.636)" fill="#fff" stroke="#ffb125" stroke-width="1"/>
      <path id="Path_114532" data-name="Path 114532" d="M264.34,389.187a7.514,7.514,0,0,0,7.461-6.633H256.879A7.514,7.514,0,0,0,264.34,389.187Z" transform="translate(-241.802 -361.014)" fill="#fff" stroke="#ffb125" stroke-width="1"/>
      <path id="Path_114533" data-name="Path 114533" d="M256.88,246.187H271.8a7.513,7.513,0,0,0-14.923,0Z" transform="translate(-241.802 -226.407)" fill="#fff" stroke="#ffb125" stroke-width="1"/>
      <path id="Path_114534" data-name="Path 114534" d="M13.974,198.413l-6.762-6.762L2.2,196.663a7.513,7.513,0,1,0,10.625,10.625l1.334-1.334a9.3,9.3,0,0,1-.185-7.541Z" transform="translate(0 -181.316)" fill="#fff" stroke="#25d18e" stroke-width="1"/>
      <path id="Path_114535" data-name="Path 114535" d="M158.178,57.451a9.252,9.252,0,0,1,3.281.6,7.514,7.514,0,0,0-12.374-7.882L144.1,55.155l6.389,6.388A9.265,9.265,0,0,1,158.178,57.451Z" transform="translate(-135.639 -46.065)" fill="#fff" stroke="#25d18e" stroke-width="1"/>
    </g>
  </g>
</svg>
