<svg id="Members-Covered" xmlns="http://www.w3.org/2000/svg" width="28" height="28" viewBox="0 0 28 28">
  <path id="Path_208211" data-name="Path 208211" d="M25.48,1.627A3.276,3.276,0,0,0,22.659,0H15.01A1.5,1.5,0,0,0,14,.389,1.5,1.5,0,0,0,12.99,0H5.341A3.276,3.276,0,0,0,2.52,1.627L.254,5.526A1.879,1.879,0,0,0,0,6.469V8.43A1.87,1.87,0,0,0,1.867,10.3H4.517a1.867,1.867,0,0,0,1.376-.609l4.848-5.313A1.362,1.362,0,0,0,11,2.986l2.121-.125A1.416,1.416,0,0,0,14,2.482a1.414,1.414,0,0,0,.878.375L17,2.982a1.362,1.362,0,0,0,.257,1.4l4.848,5.317a1.864,1.864,0,0,0,1.376.609h2.651A1.87,1.87,0,0,0,28,8.43V6.469a1.879,1.879,0,0,0-.254-.944Zm-12.059.106a.485.485,0,0,1-.355.193l-6.515.383a1.406,1.406,0,0,0-1.285,1.1L4.8,5.519l-.88.67a.469.469,0,0,0-.09.656.475.475,0,0,0,.653.09L9.506,3.142a.4.4,0,0,1,.534.04.431.431,0,0,1,.013.564L5.205,9.063a.932.932,0,0,1-.688.3H1.867A.935.935,0,0,1,.933,8.43V6.469a.942.942,0,0,1,.126-.474L3.326,2.1A2.341,2.341,0,0,1,5.341.937H12.99a.53.53,0,0,1,.533.4.507.507,0,0,1-.1.4ZM7.92,3.166,5.947,4.654,6.178,3.61a.467.467,0,0,1,.428-.366ZM27.067,8.43a.935.935,0,0,1-.933.937H23.483a.932.932,0,0,1-.688-.3L17.947,3.747a.431.431,0,0,1,.014-.565.422.422,0,0,1,.533-.039L23.52,6.936a.478.478,0,0,0,.653-.09.469.469,0,0,0-.09-.656L23.2,5.52l-.467-2.113a1.406,1.406,0,0,0-1.287-1.1l-6.516-.383a.505.505,0,0,1-.455-.593.529.529,0,0,1,.531-.4h7.649A2.339,2.339,0,0,1,24.674,2.1L26.94,6a.939.939,0,0,1,.126.472ZM20.08,3.166l1.315.077a.467.467,0,0,1,.427.366l.233,1.044Z" transform="translate(0 0)" fill="#d82a1b"/>
  <path id="Path_208212" data-name="Path 208212" d="M2,35.861v3.588a1.4,1.4,0,0,0,1.4,1.405h7.465a1.377,1.377,0,0,0,.7-.2,1.379,1.379,0,0,0,.7.2h5.6a1.379,1.379,0,0,0,.7-.2,1.377,1.377,0,0,0,.7.2h7.465a1.4,1.4,0,0,0,1.4-1.405V35.7a5.134,5.134,0,0,0-3.194-4.766,3.736,3.736,0,1,0-3.872,0,5.222,5.222,0,0,0-2.825,2.947,4.215,4.215,0,0,0-1.393-1.059,3.269,3.269,0,1,0-3.561,0,4.216,4.216,0,0,0-1.361,1.025,5.124,5.124,0,0,0-2.849-2.917,3.736,3.736,0,1,0-3.87.007A5.324,5.324,0,0,0,2,35.861ZM20.2,27.74a2.8,2.8,0,1,1,2.8,2.81,2.8,2.8,0,0,1-2.8-2.81ZM22.715,31.5A4.206,4.206,0,0,1,27.193,35.7v3.747a.467.467,0,0,1-.467.468h-1.4V35.233a.467.467,0,1,0-.933,0v4.683h-2.8V35.233a.467.467,0,1,0-.933,0v4.683h-1.4a.445.445,0,0,1-.081-.018,1.386,1.386,0,0,0,.081-.451v-2.81a4.2,4.2,0,0,0-.364-1.71A4.245,4.245,0,0,1,22.715,31.5ZM12.73,30.082a2.333,2.333,0,1,1,2.333,2.342A2.337,2.337,0,0,1,12.73,30.082Zm2.333,3.278a3.276,3.276,0,0,1,3.266,3.278v2.81a.467.467,0,0,1-.467.468h-.933V36.17a.467.467,0,1,0-.933,0v3.747H14.13V36.17a.467.467,0,1,0-.933,0v3.747h-.933a.467.467,0,0,1-.467-.468v-2.81a3.276,3.276,0,0,1,3.266-3.278ZM4.333,27.74a2.8,2.8,0,1,1,2.8,2.81,2.8,2.8,0,0,1-2.8-2.81ZM6.852,31.5a4.185,4.185,0,0,1,4.4,3.392,4.2,4.2,0,0,0-.387,1.751v2.81a1.386,1.386,0,0,0,.081.451.444.444,0,0,1-.081.018h-1.4V35.233a.467.467,0,1,0-.933,0v4.683h-2.8V35.233a.467.467,0,1,0-.933,0v4.683H3.4a.467.467,0,0,1-.467-.468V35.861A4.3,4.3,0,0,1,6.852,31.5Z" transform="translate(-1.063 -12.853)" fill="#d79484"/>
</svg>
