<svg xmlns="http://www.w3.org/2000/svg" width="28.636" height="30" viewBox="0 0 28.636 30">
  <g id="Members-Covered" transform="translate(-1.987)">
    <g id="Group_71325" data-name="Group 71325" transform="translate(1.987)">
      <g id="Group_71324" data-name="Group 71324" transform="translate(0)">
        <path id="Path_116973" data-name="Path 116973" d="M137.421,126.012a3.849,3.849,0,1,0,3.849-3.849A3.854,3.854,0,0,0,137.421,126.012Zm3.849-2.434a2.434,2.434,0,1,1-2.434,2.434A2.435,2.435,0,0,1,141.27,123.578Z" transform="translate(-126.934 -112.234)" fill="#d82a1b"/>
        <path id="Path_116974" data-name="Path 116974" d="M100.189,230.775l-5.134-.017h0a5.108,5.108,0,0,0-5.093,5.114v4.819A1.308,1.308,0,0,0,91.263,242h12.7a1.287,1.287,0,0,0,1.305-1.3v-4.819A5.1,5.1,0,0,0,100.189,230.775Zm3.671,9.813H102.3v-4.682a.58.58,0,1,0-1.16,0v4.682H94.089v-4.682a.58.58,0,1,0-1.16,0v4.682H91.367v-4.719a3.693,3.693,0,0,1,3.684-3.7l5.13.017h0a3.689,3.689,0,0,1,3.675,3.7v4.7Z" transform="translate(-83.296 -212.002)" fill="#d82a1b"/>
        <path id="Path_116975" data-name="Path 116975" d="M59.094,7.7a3.849,3.849,0,1,0-3.849-3.849A3.854,3.854,0,0,0,59.094,7.7Zm0-6.284A2.434,2.434,0,1,1,56.66,3.849,2.435,2.435,0,0,1,59.094,1.415Z" transform="translate(-51.404 0)" fill="#d82a1b"/>
        <path id="Path_116976" data-name="Path 116976" d="M15.411,117.693a.707.707,0,0,0-.707-.707H12.136v-4.677a.583.583,0,0,0-1.165,0v4.682H9.4v-4.715a3.7,3.7,0,0,1,3.7-3.7h5.16a3.662,3.662,0,0,1,.795.087.644.644,0,0,0,.154.017.708.708,0,0,0,.154-1.4,4.92,4.92,0,0,0-1.1-.121H13.1a5.118,5.118,0,0,0-5.114,5.114v4.819A1.311,1.311,0,0,0,9.3,118.4H14.7A.713.713,0,0,0,15.411,117.693Z" transform="translate(-7.987 -98.45)" fill="#d82a1b"/>
        <path id="Path_116977" data-name="Path 116977" d="M223.241,7.7a3.849,3.849,0,1,0-3.849-3.849A3.854,3.854,0,0,0,223.241,7.7Zm0-6.284a2.434,2.434,0,1,1-2.434,2.434A2.435,2.435,0,0,1,223.241,1.415Z" transform="translate(-202.275 0)" fill="#d82a1b"/>
        <path id="Path_116978" data-name="Path 116978" d="M224.992,108.608a5.082,5.082,0,0,0-3.612-1.5l-5.156,0a4.81,4.81,0,0,0-1.09.121.708.708,0,0,0,.154,1.4.645.645,0,0,0,.154-.017,3.523,3.523,0,0,1,.782-.087l5.156,0a3.708,3.708,0,0,1,3.7,3.7v4.715H223.51v-4.677a.583.583,0,0,0-1.165,0v4.682h-2.568a.707.707,0,1,0,0,1.415h5.4a1.311,1.311,0,0,0,1.311-1.311v-4.823A5.092,5.092,0,0,0,224.992,108.608Z" transform="translate(-197.854 -98.404)" fill="#d82a1b"/>
      </g>
    </g>
  </g>
</svg>
