<svg xmlns="http://www.w3.org/2000/svg" width="30" height="30" viewBox="0 0 30 30">
  <g id="Members_Covered" transform="translate(-44 -306.408)">
    <rect id="Rectangle_167549" data-name="Rectangle 167549" width="30" height="30" transform="translate(44 306.408)" fill="none"/>
    <g id="insurance_2_" data-name="insurance (2)" transform="translate(44 306.914)">
      <g id="Group_196" data-name="Group 196" transform="translate(12.116 19.064)">
        <g id="Group_195" data-name="Group 195">
          <path id="Path_114037" data-name="Path 114037" d="M213.584,332a2.584,2.584,0,1,0,2.584,2.584A2.587,2.587,0,0,0,213.584,332Z" transform="translate(-211 -332)" fill="#338ec0"/>
        </g>
      </g>
      <g id="Group_198" data-name="Group 198" transform="translate(9.619 24.232)">
        <g id="Group_197" data-name="Group 197">
          <path id="Path_114038" data-name="Path 114038" d="M177.664,426.13a5.169,5.169,0,0,0-10.127,0,.872.872,0,0,0,.855,1.038h8.417A.872.872,0,0,0,177.664,426.13Z" transform="translate(-167.52 -422)" fill="#338ec0"/>
        </g>
      </g>
      <g id="Group_200" data-name="Group 200" transform="translate(21.706 16.423)">
        <g id="Group_199" data-name="Group 199">
          <path id="Path_114039" data-name="Path 114039" d="M380.584,286a2.584,2.584,0,1,0,2.584,2.584A2.587,2.587,0,0,0,380.584,286Z" transform="translate(-378 -286)" fill="#338ec0"/>
        </g>
      </g>
      <g id="Group_202" data-name="Group 202" transform="translate(19.663 21.591)">
        <g id="Group_201" data-name="Group 201">
          <path id="Path_114040" data-name="Path 114040" d="M352.143,380.13a5.179,5.179,0,0,0-9.72-1.234,6.858,6.858,0,0,1,1.535,2.272h7.33A.872.872,0,0,0,352.143,380.13Z" transform="translate(-342.423 -376)" fill="#338ec0"/>
        </g>
      </g>
      <g id="Group_204" data-name="Group 204" transform="translate(2.527 16.423)">
        <g id="Group_203" data-name="Group 203">
          <path id="Path_114041" data-name="Path 114041" d="M46.584,286a2.584,2.584,0,1,0,2.584,2.584A2.587,2.587,0,0,0,46.584,286Z" transform="translate(-44 -286)" fill="#338ec0"/>
        </g>
      </g>
      <g id="Group_206" data-name="Group 206" transform="translate(0 21.591)">
        <g id="Group_205" data-name="Group 205">
          <path id="Path_114042" data-name="Path 114042" d="M5.111,376a5.21,5.21,0,0,0-5.093,4.13.872.872,0,0,0,.855,1.038H8.2A6.854,6.854,0,0,1,9.738,378.9,5.185,5.185,0,0,0,5.111,376Z" transform="translate(0 -376)" fill="#338ec0"/>
        </g>
      </g>
      <g id="Group_208" data-name="Group 208" transform="translate(1.779)">
        <g id="Group_207" data-name="Group 207">
          <path id="Path_114043" data-name="Path 114043" d="M56.783,12.7A13.01,13.01,0,0,0,44.76,1.819V.861a.861.861,0,0,0-1.723,0v.957A13.057,13.057,0,0,0,30.99,12.835a.862.862,0,0,0,1.459.751,4.015,4.015,0,0,1,5.673,0,.863.863,0,0,0,1.087.108c.13-.087.27-.149.4-.228a8.416,8.416,0,0,1,3.425-1.119v5.024a4.3,4.3,0,0,1,1.723,0V12.348a8.417,8.417,0,0,1,3.44,1.127h0c.128.076.263.136.389.219a.861.861,0,0,0,1.087-.108,4.015,4.015,0,0,1,5.673,0A.9.9,0,0,0,56.783,12.7Z" transform="translate(-30.977)" fill="#338ec0"/>
        </g>
      </g>
    </g>
  </g>
</svg>
