<svg xmlns="http://www.w3.org/2000/svg" width="30" height="30" viewBox="0 0 30 30">
  <g id="My_Coverage" transform="translate(-44 -306.408)">
    <rect id="Rectangle_167549" data-name="Rectangle 167549" width="30" height="30" transform="translate(44 306.408)" fill="none"/>
    <g id="user_3_" data-name="user (3)" transform="translate(14.816 306.408)">
      <g id="Group_333" data-name="Group 333" transform="translate(36.273)">
        <g id="Group_332" data-name="Group 332" transform="translate(0)">
          <path id="Path_114096" data-name="Path 114096" d="M128.91,0a7.91,7.91,0,1,0,7.91,7.91A7.919,7.919,0,0,0,128.91,0Z" transform="translate(-121)" fill="#338ec0"/>
        </g>
      </g>
      <g id="Group_335" data-name="Group 335" transform="translate(31 17.578)">
        <g id="Group_334" data-name="Group 334" transform="translate(0)">
          <path id="Path_114097" data-name="Path 114097" d="M54.025,303.41A11.276,11.276,0,0,0,45.941,300H42.426a11.276,11.276,0,0,0-8.084,3.41A11.528,11.528,0,0,0,31,311.543a.879.879,0,0,0,.879.879H56.488a.879.879,0,0,0,.879-.879A11.528,11.528,0,0,0,54.025,303.41Z" transform="translate(-31 -300)" fill="#338ec0"/>
        </g>
      </g>
    </g>
  </g>
</svg>
