<svg xmlns="http://www.w3.org/2000/svg" width="28" height="28.498" viewBox="0 0 28 28.498">
  <g id="claim-status" transform="translate(16765 -6874.752)">
    <rect id="Rectangle_169385" data-name="Rectangle 169385" width="28" height="28" transform="translate(-16765 6875)" fill="none"/>
    <g id="_x33_" transform="translate(-16772.098 6869.002)">
      <g id="Group_158970" data-name="Group 158970" transform="translate(9.654 5.998)">
        <g id="Group_158933" data-name="Group 158933" transform="translate(0 0.002)">
          <g id="Group_158932" data-name="Group 158932">
            <path id="Path_208186" data-name="Path 208186" d="M10.464,34a.811.811,0,0,1-.81-.81V6.811A.812.812,0,0,1,10.464,6H31.73a.812.812,0,0,1,.81.811V33.188a.811.811,0,0,1-.81.81Z" transform="translate(-9.654 -6)" fill="#fff" stroke="#d82a1b" stroke-width="0.5"/>
          </g>
        </g>
        <g id="Group_158941" data-name="Group 158941" transform="translate(2.96 2.692)">
          <g id="Group_158936" data-name="Group 158936">
            <path id="Path_208188" data-name="Path 208188" d="M13.771,11.6a1.734,1.734,0,0,1,1.8-1.851,2.228,2.228,0,0,1,1.176.319.212.212,0,0,1,.057.332.214.214,0,0,1-.242.039,1.861,1.861,0,0,0-.943-.242,1.3,1.3,0,0,0-1.381,1.4A1.3,1.3,0,0,0,15.622,13a1.867,1.867,0,0,0,.943-.242.219.219,0,0,1,.242.036.214.214,0,0,1-.057.335,2.223,2.223,0,0,1-1.176.32,1.734,1.734,0,0,1-1.8-1.851Z" transform="translate(-13.698 -9.678)" fill="#d82a1b"/>
            <path id="Path_208189" data-name="Path 208189" d="M15.549,13.5a1.807,1.807,0,0,1-1.877-1.924,1.807,1.807,0,0,1,1.877-1.924,2.3,2.3,0,0,1,1.212.329.285.285,0,0,1,.074.447.291.291,0,0,1-.329.055,1.786,1.786,0,0,0-.91-.235,1.226,1.226,0,0,0-1.308,1.329A1.222,1.222,0,0,0,15.6,12.9a1.785,1.785,0,0,0,.909-.234.292.292,0,0,1,.329.05.288.288,0,0,1-.073.451,2.3,2.3,0,0,1-1.211.329Zm0-.147a2.15,2.15,0,0,0,1.139-.311.141.141,0,0,0,.042-.219.143.143,0,0,0-.158-.022,1.949,1.949,0,0,1-.976.249,1.367,1.367,0,0,1-1.455-1.475A1.369,1.369,0,0,1,15.6,10.1a1.932,1.932,0,0,1,.978.25.142.142,0,0,0,.155-.024.138.138,0,0,0-.039-.217,2.157,2.157,0,0,0-1.14-.311,1.662,1.662,0,0,0-1.73,1.777,1.663,1.663,0,0,0,1.73,1.777Z" transform="translate(-13.672 -9.652)" fill="#d82a1b"/>
          </g>
          <g id="Group_158937" data-name="Group 158937" transform="translate(3.928 0.029)">
            <path id="Path_208190" data-name="Path 208190" d="M19.1,13.085V10.023a.232.232,0,0,1,.232-.237.236.236,0,0,1,.237.237v2.918h1.685a.237.237,0,0,1,.237.237.232.232,0,0,1-.237.232h-1.83a.324.324,0,0,1-.325-.325Z" transform="translate(-19.029 -9.716)" fill="#d82a1b"/>
            <path id="Path_208191" data-name="Path 208191" d="M21.23,13.458H19.4a.4.4,0,0,1-.4-.4V10a.308.308,0,0,1,.616,0v2.844H21.23a.309.309,0,0,1,.311.311.3.3,0,0,1-.311.305ZM19.308,9.835a.159.159,0,0,0-.158.163V13.06a.251.251,0,0,0,.251.251h1.83a.16.16,0,0,0,.164-.158.165.165,0,0,0-.164-.164H19.472V10A.163.163,0,0,0,19.308,9.835Z" transform="translate(-19.003 -9.691)" fill="#d82a1b"/>
          </g>
          <g id="Group_158938" data-name="Group 158938" transform="translate(6.681 0.026)">
            <path id="Path_208192" data-name="Path 208192" d="M22.9,13.369a.232.232,0,0,1-.039-.268L24.178,10a.4.4,0,0,1,.116-.152.284.284,0,0,1,.183-.059h.052a.284.284,0,0,1,.183.059.4.4,0,0,1,.116.152l1.315,3.1a.278.278,0,0,1,.026.1.224.224,0,0,1-.232.232.241.241,0,0,1-.222-.145l-.335-.8H23.626l-.335.8a.243.243,0,0,1-.222.145.221.221,0,0,1-.168-.067Zm.9-1.31H25.2l-.7-1.675Z" transform="translate(-22.765 -9.713)" fill="#d82a1b"/>
            <path id="Path_208193" data-name="Path 208193" d="M25.91,13.483a.312.312,0,0,1-.289-.188l-.317-.761H23.649l-.315.758a.316.316,0,0,1-.511.1.306.306,0,0,1-.053-.348l1.315-3.1a.474.474,0,0,1,.137-.181.358.358,0,0,1,.229-.075H24.5a.358.358,0,0,1,.229.075.471.471,0,0,1,.137.179l1.315,3.1a.341.341,0,0,1,.032.132.3.3,0,0,1-.305.306Zm-2.359-1.1H25.4l.355.849a.162.162,0,0,0,.062.072.158.158,0,0,0,.25-.132.21.21,0,0,0-.02-.074L24.733,10a.333.333,0,0,0-.094-.123.21.21,0,0,0-.137-.043h-.052a.21.21,0,0,0-.137.043.336.336,0,0,0-.095.124l-1.314,3.1a.159.159,0,0,0,.024.189.168.168,0,0,0,.269-.058Zm1.731-.281H23.671l.806-1.941Zm-1.392-.147h1.171l-.586-1.41Z" transform="translate(-22.739 -9.687)" fill="#d82a1b"/>
          </g>
          <g id="Group_158939" data-name="Group 158939" transform="translate(10.897 0.026)">
            <path id="Path_208194" data-name="Path 208194" d="M28.56,13.2v-3.18a.235.235,0,0,1,.067-.168.22.22,0,0,1,.165-.069.237.237,0,0,1,.237.237V13.2a.232.232,0,0,1-.237.232A.228.228,0,0,1,28.56,13.2Z" transform="translate(-28.487 -9.713)" fill="#d82a1b"/>
            <path id="Path_208195" data-name="Path 208195" d="M28.766,13.483a.3.3,0,0,1-.305-.306V10a.306.306,0,0,1,.525-.219.3.3,0,0,1,.091.219v3.18A.3.3,0,0,1,28.766,13.483Zm0-3.649a.146.146,0,0,0-.112.047.162.162,0,0,0-.047.117v3.18a.155.155,0,0,0,.045.114.163.163,0,0,0,.277-.114V10a.163.163,0,0,0-.164-.163Z" transform="translate(-28.461 -9.687)" fill="#d82a1b"/>
          </g>
          <g id="Group_158940" data-name="Group 158940" transform="translate(12.495 0.026)">
            <path id="Path_208196" data-name="Path 208196" d="M30.8,13.369a.225.225,0,0,1-.067-.165V10.127a.333.333,0,0,1,.1-.24.32.32,0,0,1,.237-.1h.17a.308.308,0,0,1,.188.062.376.376,0,0,1,.127.155l1.17,2.917L33.889,10a.382.382,0,0,1,.127-.155.309.309,0,0,1,.188-.062h.171a.317.317,0,0,1,.237.1.333.333,0,0,1,.1.24V13.2a.229.229,0,0,1-.232.232.234.234,0,0,1-.168-.067.222.222,0,0,1-.069-.165V10.276l-1.191,2.944a.346.346,0,0,1-.132.157.36.36,0,0,1-.4,0,.34.34,0,0,1-.131-.157L31.2,10.276V13.2a.22.22,0,0,1-.07.165.232.232,0,0,1-.168.067A.224.224,0,0,1,30.8,13.369Z" transform="translate(-30.656 -9.713)" fill="#d82a1b"/>
            <path id="Path_208197" data-name="Path 208197" d="M34.45,13.483a.307.307,0,0,1-.219-.087.292.292,0,0,1-.091-.219V10.628L33.091,13.22a.42.42,0,0,1-.16.191.436.436,0,0,1-.478,0,.41.41,0,0,1-.158-.191l-1.05-2.593v2.549a.292.292,0,0,1-.092.219.315.315,0,0,1-.435,0,.3.3,0,0,1-.089-.217V10.1a.407.407,0,0,1,.118-.291.394.394,0,0,1,.291-.122h.17a.378.378,0,0,1,.232.076.451.451,0,0,1,.15.184l1.1,2.749,1.1-2.746a.457.457,0,0,1,.152-.187.381.381,0,0,1,.231-.076h.171a.39.39,0,0,1,.29.122.407.407,0,0,1,.118.291v3.077a.3.3,0,0,1-.305.306Zm-.163-3.612v3.306a.146.146,0,0,0,.047.112.164.164,0,0,0,.23,0,.155.155,0,0,0,.045-.114V10.1a.26.26,0,0,0-.078-.189.244.244,0,0,0-.183-.078h-.171a.233.233,0,0,0-.144.048.307.307,0,0,0-.1.125l-1.237,3.085L31.454,10a.3.3,0,0,0-.1-.122.235.235,0,0,0-.145-.048h-.17a.246.246,0,0,0-.185.078.259.259,0,0,0-.077.189v3.077a.155.155,0,0,0,.045.114.164.164,0,0,0,.23,0,.145.145,0,0,0,.047-.112V9.871l1.333,3.295a.266.266,0,0,0,.1.122.282.282,0,0,0,.317,0,.27.27,0,0,0,.1-.124Z" transform="translate(-30.63 -9.687)" fill="#d82a1b"/>
          </g>
        </g>
        <g id="Group_158945" data-name="Group 158945" transform="translate(2.505 18.713)">
          <g id="Group_158944" data-name="Group 158944">
            <circle id="Ellipse_10101" data-name="Ellipse 10101" cx="3.403" cy="3.403" r="3.403" fill="#ffe5d9"/>
          </g>
        </g>
        <g id="Group_158952" data-name="Group 158952" transform="translate(10.938 19.638)">
          <g id="Group_158947" data-name="Group 158947">
            <g id="Group_158946" data-name="Group 158946">
              <path id="Path_208198" data-name="Path 208198" d="M33.943,33.388H24.868a.368.368,0,0,1,0-.737h9.075a.368.368,0,0,1,0,.737Z" transform="translate(-24.5 -32.652)" fill="#d79484"/>
            </g>
          </g>
          <g id="Group_158949" data-name="Group 158949" transform="translate(0 2.109)">
            <g id="Group_158948" data-name="Group 158948">
              <path id="Path_208199" data-name="Path 208199" d="M33.943,36.251H24.868a.368.368,0,0,1,0-.737h9.075a.368.368,0,0,1,0,.737Z" transform="translate(-24.5 -35.514)" fill="#d79484"/>
            </g>
          </g>
          <g id="Group_158951" data-name="Group 158951" transform="translate(0 4.218)">
            <g id="Group_158950" data-name="Group 158950">
              <path id="Path_208200" data-name="Path 208200" d="M29.228,39.113h-4.36a.368.368,0,0,1,0-.737h4.36a.368.368,0,1,1,0,.737Z" transform="translate(-24.5 -38.376)" fill="#d79484"/>
            </g>
          </g>
        </g>
        <g id="Group_158954" data-name="Group 158954" transform="translate(2.505 9.063)">
          <g id="Group_158953" data-name="Group 158953">
            <circle id="Ellipse_10102" data-name="Ellipse 10102" cx="3.403" cy="3.403" r="3.403" fill="#ffe5d9"/>
          </g>
        </g>
        <g id="Group_158956" data-name="Group 158956" transform="translate(2.853 19.901)">
          <g id="Group_158955" data-name="Group 158955">
            <path id="Path_208201" data-name="Path 208201" d="M19.981,35.225a3.4,3.4,0,0,1-6.454,1.488,3.4,3.4,0,0,0,5.629-3.706A3.391,3.391,0,0,1,19.981,35.225Z" transform="translate(-13.526 -33.008)" fill="none"/>
          </g>
        </g>
        <g id="Group_158958" data-name="Group 158958" transform="translate(2.853 10.249)">
          <g id="Group_158957" data-name="Group 158957">
            <path id="Path_208202" data-name="Path 208202" d="M19.981,22.125a3.4,3.4,0,0,1-6.454,1.488,3.4,3.4,0,0,0,5.629-3.706,3.391,3.391,0,0,1,.825,2.218Z" transform="translate(-13.526 -19.908)" fill="none"/>
          </g>
        </g>
        <g id="Group_158965" data-name="Group 158965" transform="translate(10.938 9.988)">
          <g id="Group_158960" data-name="Group 158960">
            <g id="Group_158959" data-name="Group 158959">
              <path id="Path_208203" data-name="Path 208203" d="M33.943,20.291H24.868a.368.368,0,0,1,0-.737h9.075a.368.368,0,1,1,0,.737Z" transform="translate(-24.5 -19.554)" fill="#d79484"/>
            </g>
          </g>
          <g id="Group_158962" data-name="Group 158962" transform="translate(0 2.109)">
            <g id="Group_158961" data-name="Group 158961">
              <path id="Path_208204" data-name="Path 208204" d="M33.943,23.153H24.868a.368.368,0,0,1,0-.737h9.075a.368.368,0,1,1,0,.737Z" transform="translate(-24.5 -22.416)" fill="#d79484"/>
            </g>
          </g>
          <g id="Group_158964" data-name="Group 158964" transform="translate(0 4.218)">
            <g id="Group_158963" data-name="Group 158963">
              <path id="Path_208205" data-name="Path 208205" d="M29.228,26.015h-4.36a.368.368,0,1,1,0-.737h4.36a.368.368,0,0,1,0,.737Z" transform="translate(-24.5 -25.279)" fill="#d79484"/>
            </g>
          </g>
        </g>
        <g id="Group_158967" data-name="Group 158967" transform="translate(4.403 11.432)">
          <g id="Group_158966" data-name="Group 158966">
            <path id="Path_208206" data-name="Path 208206" d="M16.61,23.582l-.042,0a.37.37,0,0,1-.248-.139l-.612-.781a.368.368,0,0,1,.58-.455l.383.489,1.369-1.1a.368.368,0,0,1,.46.574L16.841,23.5a.364.364,0,0,1-.23.081Z" transform="translate(-15.63 -21.514)" fill="#d82a1b"/>
          </g>
        </g>
        <g id="Group_158969" data-name="Group 158969" transform="translate(4.403 21.082)">
          <g id="Group_158968" data-name="Group 158968">
            <path id="Path_208207" data-name="Path 208207" d="M16.61,36.679l-.042,0a.37.37,0,0,1-.248-.139l-.612-.782a.368.368,0,0,1,.58-.455l.383.489,1.369-1.1a.368.368,0,0,1,.462.574L16.841,36.6A.368.368,0,0,1,16.61,36.679Z" transform="translate(-15.63 -34.61)" fill="#383838"/>
          </g>
        </g>
      </g>
    </g>
  </g>
</svg>
