<svg xmlns="http://www.w3.org/2000/svg" width="28" height="28" viewBox="0 0 28 28">
  <g id="My_Coverage" transform="translate(-1.999 -2)">
    <path id="Path_208226" data-name="Path 208226" d="M14.471,27.019a.458.458,0,0,0,.471-.458,2.64,2.64,0,0,1,1.884-.5,2.858,2.858,0,0,1,1.884.471.468.468,0,0,0,.911.152.094.094,0,0,0,.015-.03,9.489,9.489,0,0,1,3.783-.588V29.36h.942V26.068a9.516,9.516,0,0,1,3.783.588.094.094,0,0,0,.015.03.465.465,0,0,0,.906-.124h0a2.667,2.667,0,0,1,1.889-.5,2.858,2.858,0,0,1,1.884.471.471.471,0,1,0,.942,0c0-4.154-4.436-7.535-9.889-7.535S14,22.38,14,26.535A.48.48,0,0,0,14.471,27.019ZM32.7,25.393a5.308,5.308,0,0,0-1.742-.271,4.992,4.992,0,0,0-1.941.355A8.461,8.461,0,0,0,26.786,20.3C29.826,21.072,32.125,23.014,32.7,25.393Zm-8.806-5.451c2.137,0,3.909,2.477,4.191,5.682a11.607,11.607,0,0,0-3.72-.5v-.006h-.942v.006a11.609,11.609,0,0,0-3.72.5C19.981,22.419,21.751,19.942,23.889,19.942Zm-2.9.362a8.461,8.461,0,0,0-2.226,5.173,4.992,4.992,0,0,0-1.941-.355,5.309,5.309,0,0,0-1.742.271C15.652,23.014,17.952,21.072,20.992,20.3Z" transform="translate(-6.605 -9.109)" fill="#d79484"/>
    <path id="Path_208227" data-name="Path 208227" d="M19.471,8.24a.465.465,0,0,0,.445-.343.147.147,0,0,0,.022-.065,2.256,2.256,0,0,1,1.3-.3,2.255,2.255,0,0,1,1.3.3l.009,0a.464.464,0,0,0,.895.108s0,0,0-.006a7.409,7.409,0,0,1,2.62-.4V9.064h.942V7.542a7.408,7.408,0,0,1,2.621.4s0,0,0,.006a.464.464,0,0,0,.895-.108l.009,0a2.256,2.256,0,0,1,1.3-.3,2.255,2.255,0,0,1,1.3.3.147.147,0,0,0,.022.065.46.46,0,0,0,.9-.043.164.164,0,0,0,.016-.084C34.069,4.59,30.689,2,26.534,2S19,4.59,19,7.769a.165.165,0,0,0,.017.084A.465.465,0,0,0,19.471,8.24Zm13.5-1.5a4.288,4.288,0,0,0-1.141-.148,4.008,4.008,0,0,0-1.355.221,6.646,6.646,0,0,0-1.41-3.5A5.576,5.576,0,0,1,32.973,6.74Zm-6.438-3.8c1.5,0,2.752,1.717,3.01,3.972a11.558,11.558,0,0,0-3.01-.322,11.559,11.559,0,0,0-3.01.322C23.781,4.659,25.032,2.942,26.534,2.942ZM24,3.313a6.646,6.646,0,0,0-1.41,3.5,4.007,4.007,0,0,0-1.354-.221A4.289,4.289,0,0,0,20.1,6.74,5.576,5.576,0,0,1,24,3.313Z" transform="translate(-9.149)" fill="#d82a1b"/>
    <path id="Path_208228" data-name="Path 208228" d="M29.794,38.6a2.2,2.2,0,0,0-2.828-.867l-3.045,1.438a2.565,2.565,0,0,0-3.239-.923l-3.836,1.819a1.361,1.361,0,0,1-1.267-.055l-2.52-1.466a5.921,5.921,0,0,0-6.242.162l-.242-1.405A.471.471,0,0,0,6.383,37a.463.463,0,0,0-.35-.078l-3.649.659a.471.471,0,0,0-.378.544L3.763,48.337a.471.471,0,0,0,.193.306.46.46,0,0,0,.252.085.434.434,0,0,0,.1-.007l3.649-.659a.471.471,0,0,0,.378-.545L8.176,46.6l1.247-.225a3.152,3.152,0,0,1,1.1,0l5.8.848a4.966,4.966,0,0,0,3.476-.692l9.543-5.981a1.432,1.432,0,0,0,.454-1.945ZM4.6,47.709l-1.6-9.28,2.73-.493,1.6,9.28Zm24.243-7.961L19.3,45.728a4.055,4.055,0,0,1-2.837.564l-5.8-.848a4.054,4.054,0,0,0-1.408.007l-1.243.225L6.993,39.722l.327-.213a5,5,0,0,1,5.273-.141l2.52,1.466a2.288,2.288,0,0,0,2.134.09L21.082,39.1a1.647,1.647,0,0,1,2.158.726.479.479,0,0,1-.187.642L17.748,43.4a4.079,4.079,0,0,1-3.038.377l-4.647-1.3-.249.909,4.651,1.3a5.009,5.009,0,0,0,3.731-.459L23.5,41.3a1.415,1.415,0,0,0,.722-1.224l3.142-1.484A1.272,1.272,0,0,1,29,39.1a.487.487,0,0,1-.151.651Z" transform="translate(0 -18.728)" fill="#d82a1b"/>
    <rect id="Rectangle_169384" data-name="Rectangle 169384" width="0.942" height="0.941" transform="translate(4.083 20.549) rotate(-9.849)" fill="#d79484"/>
  </g>
</svg>
