<svg id="My_Order_Details" xmlns="http://www.w3.org/2000/svg" width="20" height="20" viewBox="0 0 20 20">
  <g id="Group_1764" data-name="Group 1764" transform="translate(0.224)">
    <g id="Group_1763" data-name="Group 1763">
      <path id="Path_116603" data-name="Path 116603" d="M200,0h1.172V3.125H200Z" transform="translate(-192.411)" fill="#0075b8"/>
      <path id="Path_116604" data-name="Path 116604" d="M260,3.125h6.417l-1.4-2.8A.586.586,0,0,0,264.492,0H260Z" transform="translate(-250.068)" fill="#0075b8"/>
      <path id="Path_116605" data-name="Path 116605" d="M12.146,0H7.654A.586.586,0,0,0,7.13.324l-1.4,2.8h6.417Z" transform="translate(-5.729)" fill="#0075b8"/>
    </g>
    <path id="Path_116606" data-name="Path 116606" d="M200,110h1.172v2.734H200Z" transform="translate(-192.411 -105.703)" fill="#0075b8"/>
    <path id="Path_116607" data-name="Path 116607" d="M290.4,223.562a1.932,1.932,0,0,1-1.737-1.074l-.082-.165a.586.586,0,0,0-.524-.324H284.93a.586.586,0,0,0-.524.324l-.082.165a1.932,1.932,0,0,1-1.737,1.074.586.586,0,0,0-.586.586v3.344a6.067,6.067,0,0,0,4.324,5.811.585.585,0,0,0,.337,0,6.067,6.067,0,0,0,4.324-5.811v-3.344A.586.586,0,0,0,290.4,223.562Zm-1.835,3.411-2.21,2.21a.586.586,0,0,1-.829,0l-1.1-1.1a.586.586,0,0,1,.829-.829l.691.691,1.8-1.8a.586.586,0,1,1,.829.829Z" transform="translate(-271.208 -213.328)" fill="#0075b8"/>
  </g>
  <path id="Path_116608" data-name="Path 116608" d="M10.156,110v3.32a.586.586,0,0,1-.586.586H7.227a.586.586,0,0,1-.586-.586V110H0v9.57a.586.586,0,0,0,.586.586H9.844v-3.633a1.76,1.76,0,0,1,1.758-1.758.756.756,0,0,0,.689-.426l.082-.165a1.748,1.748,0,0,1,1.572-.972H16.8V110Zm-5.273,8.2H2.539a.586.586,0,0,1,0-1.172H4.883a.586.586,0,1,1,0,1.172Zm0-2.344H2.539a.586.586,0,0,1,0-1.172H4.883a.586.586,0,0,1,0,1.172Z" transform="translate(0 -105.703)" fill="#0075b8"/>
</svg>
