<svg xmlns="http://www.w3.org/2000/svg" width="20" height="20" viewBox="0 0 20 20">
  <g id="My_Package_Details" transform="translate(-0.009 -0.08)">
    <g id="_001---Care-Package" data-name="001---Care-Package" transform="translate(0.009 0.08)">
      <path id="Shape" d="M11.7,28h3.829v2.089H11.7a.7.7,0,0,1-.7-.7v-.7A.7.7,0,0,1,11.7,28Z" transform="translate(-7.219 -18.368)" fill="#0075b8"/>
      <path id="Rectangle-path" d="M26,28h2.089v2.089H26Z" transform="translate(-17.044 -18.368)" fill="#0075b8"/>
      <path id="Shape-2" data-name="Shape" d="M38.525,28.7v.7a.7.7,0,0,1-.7.7H34V28h3.829A.7.7,0,0,1,38.525,28.7Z" transform="translate(-22.307 -18.368)" fill="#0075b8"/>
      <path id="Shape-3" data-name="Shape" d="M13,36v6.962a.691.691,0,0,0,.685.7H23.27a.691.691,0,0,0,.685-.7V36Zm8.216,3.829a.691.691,0,0,1-.685.7H19.5V41.57a.691.691,0,0,1-.685.7h-.685a.691.691,0,0,1-.685-.7V40.525H16.423a.691.691,0,0,1-.685-.7v-.7a.691.691,0,0,1,.685-.7h1.027V37.392a.691.691,0,0,1,.685-.7h.685a.691.691,0,0,1,.685.7v1.044h1.027a.691.691,0,0,1,.685.7Z" transform="translate(-8.478 -23.659)" fill="#0075b8"/>
      <path id="Shape-4" data-name="Shape" d="M25.437,41.044V40h-.7v1.044a.7.7,0,0,1-.7.7H23v.7h1.044a.7.7,0,0,1,.7.7v1.044h.7V43.133a.7.7,0,0,1,.7-.7h1.044v-.7H26.133A.7.7,0,0,1,25.437,41.044Z" transform="translate(-15.089 -26.266)" fill="#0075b8"/>
      <path id="Shape-5" data-name="Shape" d="M6.275,7.367a5.222,5.222,0,0,0-3.189-.957,5.9,5.9,0,0,0-2.559.616.358.358,0,0,1-.491-.46A10.919,10.919,0,0,1,8.789.22c-1.055.94-2.423,2.962-2.513,7.147Z" transform="translate(-0.009 -0.171)" fill="#0075b8"/>
      <path id="Shape-6" data-name="Shape" d="M26.279,7.129a5.791,5.791,0,0,0-3.126-.811,5.824,5.824,0,0,0-3.123.808C20.2,1.744,22.623.324,23.153.08,23.689.327,26.112,1.754,26.279,7.129Z" transform="translate(-13.153 -0.08)" fill="#0075b8"/>
      <path id="Shape-7" data-name="Shape" d="M41.037,7.026a5.9,5.9,0,0,0-2.559-.616,5.222,5.222,0,0,0-3.189.957C35.2,3.182,33.831,1.16,32.78.22a10.925,10.925,0,0,1,8.748,6.346.358.358,0,0,1-.491.46Z" transform="translate(-21.556 -0.171)" fill="#0075b8"/>
      <path id="Shape-8" data-name="Shape" d="M6.721,22.312a1.392,1.392,0,0,0-.682.32L3.72,20.547A5.513,5.513,0,0,1,4.5,20.31Z" transform="translate(-2.428 -13.332)" fill="#0075b8"/>
      <path id="Shape-9" data-name="Shape" d="M19.912,23.621h-.759l-.463-1.044a1.033,1.033,0,0,0,.6-.191.3.3,0,0,1,.056-.035Z" transform="translate(-12.25 -14.664)" fill="#0075b8"/>
      <path id="Shape-10" data-name="Shape" d="M49.142,20.587,46.928,22.8a1.378,1.378,0,0,0-.588-.4l2.05-2.05A6.179,6.179,0,0,1,49.142,20.587Z" transform="translate(-30.396 -13.359)" fill="#0075b8"/>
      <path id="Shape-11" data-name="Shape" d="M37.022,22.576l-.463,1.044H35.8l.564-1.271a.3.3,0,0,1,.056.035A1.033,1.033,0,0,0,37.022,22.576Z" transform="translate(-23.462 -14.664)" fill="#0075b8"/>
    </g>
  </g>
</svg>
