<svg xmlns="http://www.w3.org/2000/svg" width="24" height="24" viewBox="0 0 24 24">
  <g id="Group_320" data-name="Group 320" transform="translate(12692 13923.417)">
    <g id="Group_309" data-name="Group 309" transform="translate(-12692 -13923.417)">
      <rect id="Rectangle_167666" data-name="Rectangle 167666" width="24" height="24" fill="none"/>
      <g id="Group_315" data-name="Group 315" transform="translate(0 0)">
        <rect id="Rectangle_167462" data-name="Rectangle 167462" width="24" height="24" fill="none"/>
        <g id="user" transform="translate(1.225 0.222)">
          <g id="Group_215" data-name="Group 215" transform="translate(0)">
            <g id="Group_214" data-name="Group 214">
              <path id="Path_114063" data-name="Path 114063" d="M116.847,12.111a6.055,6.055,0,1,0-6.055-6.055A6.072,6.072,0,0,0,116.847,12.111Z" transform="translate(-106.407 0)" fill="#c5c5c5"/>
              <path id="Path_114064" data-name="Path 114064" d="M45,252.246a5.645,5.645,0,0,0-.608-1.111,7.527,7.527,0,0,0-5.209-3.279,1.114,1.114,0,0,0-.767.185,6.455,6.455,0,0,1-7.616,0,.992.992,0,0,0-.767-.185,7.472,7.472,0,0,0-5.209,3.279,6.509,6.509,0,0,0-.608,1.111.562.562,0,0,0,.026.5,10.551,10.551,0,0,0,.714,1.058,10.051,10.051,0,0,0,1.216,1.375,15.857,15.857,0,0,0,1.216,1.058,12.059,12.059,0,0,0,14.385,0,11.628,11.628,0,0,0,1.216-1.058,12.214,12.214,0,0,0,1.216-1.375,9.276,9.276,0,0,0,.714-1.058A.451.451,0,0,0,45,252.246Z" transform="translate(-24.165 -235.296)" fill="#c5c5c5"/>
            </g>
          </g>
        </g>
      </g>
    </g>
  </g>
</svg>
