<svg xmlns="http://www.w3.org/2000/svg" width="30" height="30" viewBox="0 0 30 30">
  <g id="Network_hospital" transform="translate(0 0.445)">
    <rect id="Rectangle_167549" data-name="Rectangle 167549" width="30" height="30" transform="translate(0 -0.445)" fill="none"/>
    <g id="Group_193" data-name="Group 193" transform="translate(0 10.724)">
      <path id="Path_114033" data-name="Path 114033" d="M3.878,186.392H.868A.868.868,0,0,0,0,187.26v17.964H3.878Z" transform="translate(0 -186.392)" fill="#338ec0"/>
      <path id="Path_114034" data-name="Path 114034" d="M447.962,186.392h-3.01v18.831h3.878V187.26A.868.868,0,0,0,447.962,186.392Z" transform="translate(-419.219 -186.392)" fill="#338ec0"/>
    </g>
    <g id="Group_194" data-name="Group 194" transform="translate(5.613 -0.056)">
      <path id="Path_114035" data-name="Path 114035" d="M0,0H5.8V3.017H0Z" transform="translate(10.701 23.814) rotate(90)" fill="#338ec0"/>
      <path id="Path_114036" data-name="Path 114036" d="M114.566,3.563h-2.731V.868A.868.868,0,0,0,110.967,0h-9.33a.868.868,0,0,0-.868.868v2.7H97.916a.868.868,0,0,0-.868.868v25.18H103V22.947a.868.868,0,0,1,.868-.868h4.752a.868.868,0,0,1,.868.868v6.664h5.949V4.431a.868.868,0,0,0-.868-.868ZM102.313,19.081h-.934a.868.868,0,1,1,0-1.735h.934a.868.868,0,0,1,0,1.735Zm0-3.47h-.934a.868.868,0,1,1,0-1.735h.934a.868.868,0,0,1,0,1.735Zm0-3.47h-.934a.868.868,0,1,1,0-1.735h.934a.868.868,0,0,1,0,1.735Zm4.4,6.94h-.934a.868.868,0,1,1,0-1.735h.934a.868.868,0,0,1,0,1.735Zm0-3.47h-.934a.868.868,0,1,1,0-1.735h.934a.868.868,0,0,1,0,1.735Zm0-3.47h-.934a.868.868,0,1,1,0-1.735h.934a.868.868,0,0,1,0,1.735Zm1.281-5.188h-.881v.881a.868.868,0,1,1-1.735,0V6.953h-.881a.868.868,0,1,1,0-1.735h.881V4.338a.868.868,0,1,1,1.735,0v.881h.881a.868.868,0,1,1,0,1.735ZM111.1,19.081h-.934a.868.868,0,1,1,0-1.735h.934a.868.868,0,1,1,0,1.735Zm0-3.47h-.934a.868.868,0,1,1,0-1.735h.934a.868.868,0,1,1,0,1.735Zm0-3.47h-.934a.868.868,0,1,1,0-1.735h.934a.868.868,0,1,1,0,1.735Z" transform="translate(-97.048)" fill="#338ec0"/>
    </g>
  </g>
</svg>
