<svg xmlns="http://www.w3.org/2000/svg" width="28" height="28" viewBox="0 0 28 28">
  <g id="Network_hospital" transform="translate(-4.75 -4.75)">
    <path id="Path_208216" data-name="Path 208216" d="M50.166,27.439h1.368v1.368a.416.416,0,0,0,.416.416h2.38a.416.416,0,0,0,.416-.416V27.439h1.368a.416.416,0,0,0,.416-.416v-2.38a.416.416,0,0,0-.416-.416H54.747V22.858a.416.416,0,0,0-.416-.416h-2.38a.416.416,0,0,0-.416.416v1.368H50.166a.416.416,0,0,0-.416.416v2.38a.416.416,0,0,0,.416.416Zm.416-2.38h1.368a.416.416,0,0,0,.416-.416V23.275h1.547v1.368a.416.416,0,0,0,.416.416H55.7v1.547H54.331a.416.416,0,0,0-.416.416v1.368H52.368V27.023a.416.416,0,0,0-.416-.416H50.583Z" transform="translate(-34.391 -13.482)" fill="#d82a1b"/>
    <path id="Path_208217" data-name="Path 208217" d="M48.484,59.212A.416.416,0,0,0,48.9,58.8v-2.38A.416.416,0,0,0,48.484,56H46.1a.416.416,0,0,0-.416.416V58.8a.416.416,0,0,0,.416.416Zm-1.963-2.38h1.547V58.38H46.521Z" transform="translate(-31.274 -39.151)" fill="#d79484"/>
    <path id="Path_208218" data-name="Path 208218" d="M68.813,56.416V58.8a.416.416,0,0,0,.416.416h2.38a.416.416,0,0,0,.416-.416v-2.38A.416.416,0,0,0,71.609,56h-2.38A.416.416,0,0,0,68.813,56.416Zm.833.416h1.547V58.38H69.646Z" transform="translate(-48.94 -39.151)" fill="#d79484"/>
    <path id="Path_208219" data-name="Path 208219" d="M32.336,13.111h-6.38V5.164a.413.413,0,0,0-.413-.414H11.957a.414.414,0,0,0-.414.414v7.948H5.164a.414.414,0,0,0-.414.414V32.336a.414.414,0,0,0,.414.414H32.336a.413.413,0,0,0,.414-.414V13.525a.414.414,0,0,0-.414-.414Zm-26.759.827h5.966V31.923H5.577Zm6.793-.414V5.577H25.13V31.923H22.42V22.93a.414.414,0,0,0-.414-.414H15.494a.414.414,0,0,0-.414.414v8.993H12.37Zm3.537,9.819h2.429v8.579H15.907Zm3.256,8.579V23.344h2.429v8.579Zm12.759,0H25.957V13.938h5.966Z" transform="translate(0 0)" fill="#d82a1b"/>
    <path id="Path_208220" data-name="Path 208220" d="M100.791,59.212h2.38a.416.416,0,0,0,.416-.416v-2.38a.416.416,0,0,0-.416-.416h-2.38a.416.416,0,0,0-.416.416V58.8A.416.416,0,0,0,100.791,59.212Zm.416-2.38h1.547V58.38h-1.547Z" transform="translate(-73.068 -39.151)" fill="#d79484"/>
    <path id="Path_208221" data-name="Path 208221" d="M100.791,80.9h2.38a.416.416,0,0,0,.416-.416v-2.38a.416.416,0,0,0-.416-.416h-2.38a.416.416,0,0,0-.416.416v2.38A.416.416,0,0,0,100.791,80.9Zm.416-2.38h1.547v1.547h-1.547Z" transform="translate(-73.068 -55.722)" fill="#d79484"/>
    <path id="Path_208222" data-name="Path 208222" d="M100.791,102.6h2.38a.416.416,0,0,0,.416-.416V99.8a.416.416,0,0,0-.416-.416h-2.38a.416.416,0,0,0-.416.416v2.38A.416.416,0,0,0,100.791,102.6Zm.416-2.38h1.547v1.547h-1.547Z" transform="translate(-73.068 -72.314)" fill="#d79484"/>
    <path id="Path_208223" data-name="Path 208223" d="M16.921,56h-2.38a.416.416,0,0,0-.416.416V58.8a.416.416,0,0,0,.416.416h2.38a.416.416,0,0,0,.416-.416v-2.38A.416.416,0,0,0,16.921,56ZM16.5,58.38H14.958V56.833H16.5Z" transform="translate(-7.144 -39.151)" fill="#d79484"/>
    <path id="Path_208224" data-name="Path 208224" d="M16.921,77.692h-2.38a.416.416,0,0,0-.416.416v2.38a.416.416,0,0,0,.416.416h2.38a.416.416,0,0,0,.416-.416v-2.38A.416.416,0,0,0,16.921,77.692Zm-.416,2.38H14.958V78.525H16.5Z" transform="translate(-7.144 -55.722)" fill="#d79484"/>
    <path id="Path_208225" data-name="Path 208225" d="M16.921,99.385h-2.38a.416.416,0,0,0-.416.416v2.38a.416.416,0,0,0,.416.416h2.38a.416.416,0,0,0,.416-.416V99.8A.416.416,0,0,0,16.921,99.385Zm-.416,2.38H14.958v-1.547H16.5Z" transform="translate(-7.144 -72.314)" fill="#d79484"/>
  </g>
</svg>
