<svg xmlns="http://www.w3.org/2000/svg" xmlns:xlink="http://www.w3.org/1999/xlink" width="273" height="273" viewBox="0 0 273 273">
  <defs>
    <clipPath id="clip-path">
      <rect id="Rectangle_167271" data-name="Rectangle 167271" width="273" height="273" transform="translate(-0.191)" fill="none"/>
    </clipPath>
  </defs>
  <g id="No_Notification" transform="translate(0.191 -0.222)">
    <g id="Group_128918" data-name="Group 128918" transform="translate(0 0.222)">
      <g id="Group_128917" data-name="Group 128917" clip-path="url(#clip-path)">
        <path id="Path_112674" data-name="Path 112674" d="M621.55,1235.143c-18.631-30.456-25.342-96.936,35.7-107.522,45.629-7.914,69.7,29.146,79.632,29.146,22.269,0,23.742-26.744,51.851-17.138,48.056,16.423,27.78,89.62,11.953,108.451-47.287,56.256-146.984,39.625-179.131-12.935" transform="translate(-575.277 -1065.119)" fill="#eefff7"/>
        <path id="Path_112675" data-name="Path 112675" d="M823.922,1254.29l.021-1.091c.717.013,1.444.02,2.162.02h.557l.005,1.091H826.1c-.723,0-1.456-.007-2.181-.021m5.458-1.118c.9-.026,1.819-.063,2.718-.111l.057,1.09c-.907.047-1.83.083-2.745.111Zm-10.938.887.072-1.09c.9.059,1.814.108,2.714.146l-.046,1.09c-.908-.038-1.83-.087-2.739-.147m16.372-1.174c.9-.07,1.814-.151,2.71-.243l.111,1.086c-.9.092-1.83.175-2.737.25Zm-21.835.69.121-1.081c.895.1,1.8.191,2.7.271l-.1,1.087c-.907-.083-1.826-.172-2.729-.274m27.248-1.248c.9-.115,1.8-.242,2.695-.379l.166,1.081c-.9.139-1.815.267-2.722.384Zm-32.682.509.171-1.081c.89.141,1.794.274,2.688.4l-.146,1.081c-.9-.122-1.815-.256-2.713-.4m38.06-1.338c.892-.161,1.791-.333,2.671-.52l.223,1.069c-.89.186-1.8.363-2.7.526Zm-43.454.352.221-1.069c.882.182,1.779.357,2.667.519l-.2,1.074c-.895-.166-1.8-.339-2.691-.524m48.775-1.463c.88-.209,1.765-.432,2.632-.665l.282,1.055c-.876.234-1.772.46-2.662.671Zm-54.116.227.271-1.057c.87.223,1.757.439,2.638.644l-.25,1.064c-.889-.206-1.786-.424-2.662-.65m59.357-1.629c.867-.26,1.738-.533,2.588-.814l.344,1.036c-.86.285-1.741.562-2.618.824Zm-64.634.141.322-1.043c.857.264,1.734.523,2.6.768l-.3,1.05c-.878-.25-1.763-.509-2.629-.776m69.782-1.847c.85-.31,1.7-.637,2.532-.971l.407,1.013c-.841.338-1.7.666-2.564.983Zm-74.981.1.373-1.026c.844.307,1.706.607,2.563.9l-.347,1.035c-.865-.29-1.736-.594-2.588-.9m-5.1-2,.424-1.005c.825.348,1.671.692,2.513,1.023l-.4,1.016c-.851-.333-1.706-.681-2.539-1.033m85.116-.125c.828-.364,1.656-.749,2.462-1.133l.473.984c-.818.393-1.657.779-2.5,1.149Zm-90.11-2.139.477-.981c.806.391,1.632.779,2.455,1.153l-.451,1c-.832-.378-1.663-.769-2.482-1.164m94.994-.21c.8-.42,1.6-.858,2.382-1.3l.541.948c-.79.451-1.6.9-2.412,1.322Zm-99.86-2.321.531-.954c.783.435,1.586.868,2.389,1.284l-.5.968c-.811-.422-1.624-.858-2.412-1.3m104.564-.367c.769-.477,1.535-.974,2.276-1.475l.611.9c-.754.509-1.531,1.013-2.311,1.5Zm-109.29-2.43.582-.922c.755.479,1.532.956,2.311,1.418l-.557.938c-.788-.467-1.574-.951-2.338-1.435m113.781-.606c.728-.535,1.451-1.09,2.15-1.649l.682.853c-.71.568-1.446,1.131-2.186,1.675Zm-118.323-2.476.642-.883c.724.526,1.471,1.05,2.218,1.558l-.613.9c-.758-.514-1.514-1.045-2.246-1.58m122.553-.907c.68-.592,1.354-1.2,2-1.82l.749.792c-.66.626-1.345,1.248-2.037,1.851Zm-126.882-2.47.7-.837c.687.575,1.4,1.148,2.107,1.7l-.671.861c-.721-.562-1.44-1.143-2.136-1.726m130.8-1.253c.625-.647,1.241-1.316,1.83-1.986l.818.722c-.6.683-1.229,1.362-1.866,2.022Zm-134.89-2.419.758-.785c.645.622,1.311,1.248,1.981,1.846l-.729.812c-.68-.611-1.356-1.241-2.01-1.873m138.461-1.633c.562-.7,1.115-1.42,1.641-2.141l.882.644c-.536.735-1.1,1.469-1.672,2.182Zm-142.27-2.329.814-.727c.6.665,1.217,1.337,1.841,1.985l-.787.757c-.633-.659-1.262-1.337-1.868-2.015m145.453-2.032c.494-.749.977-1.517,1.435-2.286l.938.559c-.467.784-.959,1.568-1.462,2.329Zm-148.956-2.2.867-.665c.545.712,1.113,1.425,1.686,2.118l-.841.7c-.582-.7-1.158-1.427-1.712-2.151m151.708-2.439c.4-.769.793-1.586,1.173-2.431l1,.448c-.388.862-.792,1.7-1.2,2.485Zm-154.879-2.05.915-.6c.491.754,1,1.507,1.52,2.24l-.892.63c-.526-.745-1.046-1.51-1.544-2.275m-2.824-4.717.957-.525c.432.789.886,1.58,1.347,2.35l-.937.561c-.467-.782-.928-1.58-1.367-2.385m159.927,1.844c.324-.815.642-1.668.948-2.537l1.03.363c-.31.882-.635,1.747-.962,2.578Zm-162.39-6.76.993-.452c.373.82.767,1.642,1.164,2.444l-.976.489c-.408-.813-.807-1.649-1.185-2.48m164.193,1.65c.265-.844.526-1.718.773-2.6l1.05.3c-.25.892-.515,1.777-.784,2.632Zm-166.29-6.732,1.023-.38c.314.846.647,1.7.988,2.524l-1.009.416c-.347-.84-.684-1.7-1-2.56m167.761,1.508c.218-.863.429-1.752.63-2.642l1.065.24c-.2.9-.416,1.8-.636,2.669Zm-169.5-6.724,1.047-.309c.256.867.529,1.737.811,2.587l-1.036.344c-.286-.862-.563-1.747-.823-2.622m170.693,1.425c.175-.877.346-1.775.5-2.67l1.075.191c-.161.9-.333,1.81-.509,2.694Zm-172.062-6.736,1.065-.241c.2.887.416,1.773.641,2.637l-1.056.274c-.227-.874-.446-1.772-.649-2.67m173.027,1.391c.138-.887.269-1.792.39-2.691l1.081.146c-.122.906-.255,1.818-.393,2.712Zm-174.087-6.781,1.076-.182c.156.927.316,1.8.487,2.673l-1.071.21c-.173-.881-.333-1.765-.492-2.7m174.808,1.389c.1-.893.2-1.8.282-2.7l1.087.1c-.083.906-.181,1.822-.284,2.723Zm-175.4-5.185c-.09-.612-.166-1.14-.244-1.615l1.081-.171c.077.48.155,1.011.245,1.627q.076.512.161,1.081l-1.081.162q-.083-.57-.161-1.081m175.912-.224c.067-.9.127-1.812.177-2.712l1.09.061c-.05.907-.111,1.83-.178,2.733Zm.3-5.428c.032-.905.057-1.819.071-2.718l1.091.017c-.014.906-.038,1.83-.072,2.74Zm.047-8.151,1.091-.027c.022.9.037,1.83.04,2.745l-1.091.005c0-.907-.018-1.822-.04-2.718m-.255-5.43,1.089-.076c.062.9.116,1.822.159,2.738l-1.09.052c-.042-.908-.1-1.821-.157-2.714m-.507-5.406,1.081-.129c.106.895.2,1.813.289,2.728l-1.087.1c-.083-.906-.181-1.815-.286-2.7m-.787-5.37,1.075-.189c.156.886.3,1.8.436,2.71l-1.081.158c-.132-.9-.277-1.8-.431-2.679m-1.108-5.307,1.06-.259c.213.872.416,1.774.606,2.68l-1.069.222c-.186-.894-.387-1.783-.6-2.644m-1.485-5.206,1.036-.343c.281.852.553,1.737.808,2.631l-1.05.3c-.25-.88-.517-1.747-.794-2.587m-1.5-4.013c-.145-.345-.293-.693-.442-1.033l1-.437c.151.346.3.7.448,1.049.2.488.406.992.6,1.5l-1.019.391c-.19-.5-.388-.989-.588-1.467m-2.8-5.905.964-.512c.428.805.846,1.63,1.243,2.452l-.983.475c-.391-.809-.8-1.622-1.224-2.412m-2.721-4.682.922-.582c.488.771.968,1.562,1.426,2.351l-.944.548c-.451-.776-.924-1.555-1.4-2.316m-3.066-4.465.876-.651c.545.734,1.081,1.486,1.6,2.236l-.9.618c-.508-.74-1.038-1.481-1.574-2.2m-3.388-4.227.826-.713c.6.692,1.189,1.4,1.758,2.114l-.852.683c-.561-.7-1.144-1.4-1.733-2.079m-3.685-3.973.773-.77c.645.649,1.286,1.315,1.9,1.982l-.8.742c-.61-.658-1.242-1.315-1.878-1.954m-3.955-3.708.719-.822c.688.6,1.373,1.223,2.037,1.846l-.749.8c-.655-.614-1.331-1.226-2.01-1.82m-4.2-3.433.665-.867c.726.555,1.452,1.128,2.156,1.7l-.691.845c-.7-.568-1.414-1.135-2.128-1.682m-4.417-3.151.6-.908c.762.507,1.523,1.032,2.263,1.559l-.634.888c-.73-.521-1.481-1.039-2.234-1.539m-4.512-2.819-.1-.057.555-.94.1.057c.622.368,1.376.818,2.251,1.362l-.576.927c-.867-.539-1.614-.985-2.23-1.349m-71.811-.62a15.449,15.449,0,0,1,1.927-2.065l.732.81a14.348,14.348,0,0,0-1.791,1.918ZM864.084,1097l.492-.974c.811.41,1.629.841,2.43,1.279l-.524.957c-.792-.433-1.6-.858-2.4-1.263m-62.838-1.759c.728-.507,1.52-1,2.355-1.476l.537.951c-.806.456-1.569.934-2.268,1.421Zm57.923-.526.427-1c.837.355,1.681.73,2.51,1.116l-.46.99c-.818-.38-1.651-.749-2.477-1.1m-5.058-1.945.356-1.032c.86.3,1.728.614,2.578.942l-.392,1.019c-.841-.324-1.7-.636-2.546-.929m-48.046-.274c.812-.38,1.664-.749,2.541-1.089l.4,1.016c-.852.333-1.685.69-2.476,1.061Zm42.865-1.312.282-1.055c.879.235,1.768.49,2.642.758l-.319,1.044c-.861-.264-1.737-.515-2.6-.749m-37.725-.707c.858-.279,1.747-.544,2.643-.785l.284,1.054c-.877.236-1.747.495-2.589.769Zm32.444-.5.2-1.072c.894.171,1.8.361,2.69.565l-.244,1.064c-.878-.2-1.77-.388-2.651-.556m-27.123-.933c.885-.193,1.795-.369,2.7-.523l.183,1.076c-.892.151-1.786.324-2.655.514Zm21.769.116.125-1.081c.9.1,1.822.226,2.725.364l-.166,1.081c-.891-.136-1.793-.257-2.685-.359m-16.341-1.04c.9-.113,1.822-.209,2.737-.284l.09,1.088c-.9.074-1.806.166-2.692.28Zm10.942.628.042-1.09c.909.034,1.83.083,2.745.156l-.083,1.089c-.9-.069-1.808-.121-2.7-.155m-5.459-1.081c.908-.037,1.83-.057,2.751-.058v1.091c-.9,0-1.812.021-2.706.058Z" transform="translate(-690.931 -1028.316)" fill="#40916c"/>
        <path id="Path_112676" data-name="Path 112676" d="M752.526,1274.066c1.9-2.342,19.5-23.34,48.419-22.7,26.69.595,52.575,19.4,54.721,37.6,1.821,15.449-14.223,24.025-8.538,33.857,5.345,9.25,20.812,3.848,34.584,15.553,9.369,7.961,15.482,21.738,11.644,33.081-5.406,15.98-28.422,20.828-36.672,22.566-29.259,6.162-69.807-1.976-94.457-29.954-21.558-24.469-30.807-63.946-9.7-90" transform="translate(-700.191 -1183.145)" fill="#52b788"/>
        <path id="Path_112677" data-name="Path 112677" d="M3742.861,857.729l-.258,3.894-4.426-.294-.1,1.554,4.425.294-.258,3.894,1.767.117.258-3.894,4.426.294.1-1.554-4.426-.294.258-3.894Z" transform="translate(-3534.048 -811.005)" fill="#91e1bc"/>
        <path id="Path_112678" data-name="Path 112678" d="M4095.068,1141.432a6.755,6.755,0,1,0,1.9,9.361,6.755,6.755,0,0,0-1.9-9.361m-6.12,9.232a4.325,4.325,0,1,1,5.989-1.214,4.325,4.325,0,0,1-5.989,1.214" transform="translate(-3861.645 -1078.162)" fill="#91e1bc"/>
        <path id="Path_112679" data-name="Path 112679" d="M1036.143,3171.9v4.958h-4.436v1.979h4.436v4.958h1.77v-4.958h4.436v-1.979h-4.436V3171.9Z" transform="translate(-975.398 -2998.866)" fill="#91e1bc"/>
        <path id="Path_112680" data-name="Path 112680" d="M834.4,3535.386a2.838,2.838,0,1,1-2.787-2.888,2.838,2.838,0,0,1,2.787,2.888" transform="translate(-783.495 -3339.787)" fill="#52b788"/>
        <path id="Path_112681" data-name="Path 112681" d="M541.625,1501.517a3.2,3.2,0,1,1-4.381-.078,3.2,3.2,0,0,1,4.381.078" transform="translate(-506.923 -1418.807)" fill="#91e1bc"/>
        <path id="Path_112682" data-name="Path 112682" d="M1033.372,1720.506a2.838,2.838,0,1,1-2.787-2.889,2.838,2.838,0,0,1,2.787,2.889" transform="translate(-971.605 -1623.963)" fill="#91e1bc"/>
        <path id="Path_112683" data-name="Path 112683" d="M910.885,1213.946l4.668-.679.679,4.669,1.863-.271-.679-4.669,4.669-.679-.271-1.863-4.668.679-.679-4.669-1.863.271.679,4.668-4.669.679Z" transform="translate(-860.914 -1140.708)" fill="#91e1bc"/>
        <path id="Path_112684" data-name="Path 112684" d="M594.828,3228.153a4.14,4.14,0,1,0,2.255-5.406,4.141,4.141,0,0,0-2.255,5.406m6.281-2.578a2.65,2.65,0,1,1-3.458-1.444,2.65,2.65,0,0,1,3.458,1.444" transform="translate(-562.067 -3046.651)" fill="#91e1bc"/>
        <path id="Path_112685" data-name="Path 112685" d="M2393.332,1597.107a6.123,6.123,0,0,1-6.123-6.071l-.244-29.885a6.123,6.123,0,0,1,6.072-6.174h.052a6.124,6.124,0,0,1,6.122,6.071l.245,29.886a6.124,6.124,0,0,1-6.072,6.174h-.052" transform="translate(-2256.687 -1470.193)" fill="#91e1bc"/>
        <path id="Path_112686" data-name="Path 112686" d="M2389.21,1833.6v7.348l12.247.244v-7.961a6.667,6.667,0,0,1-6,2.939c-4.9-.245-6.246-2.572-6.246-2.572" transform="translate(-2258.807 -1733.262)" fill="#91e1bc"/>
        <path id="Path_112687" data-name="Path 112687" d="M1674.928,1985.377a40.794,40.794,0,0,1-6.441-13.418c-1.342-6.62-2.065-13.843-3.265-24.778h-.012c-2.2-18.207-16.995-27.314-31.79-27.315s-29.589,9.109-31.789,27.315h-.012c-1.2,10.935-1.923,18.159-3.265,24.778a40.766,40.766,0,0,1-6.441,13.418c-5.636,8.23-8.588,9.124-8.588,12.971,0,9.45,26.2,14.056,50.094,14.306,23.892-.25,50.094-4.858,50.094-14.306,0-3.847-2.952-4.741-8.588-12.971" transform="translate(-1496.91 -1815.17)" fill="#95d5b2"/>
        <path id="Path_112688" data-name="Path 112688" d="M1831.613,3224.184c0,4.958-18.342,8.977-40.97,8.977s-40.97-4.019-40.97-8.977,18.343-8.976,40.97-8.976,40.97,4.019,40.97,8.976" transform="translate(-1654.181 -3039.815)" fill="#52b788"/>
        <path id="Path_112689" data-name="Path 112689" d="M2350.568,3226.775a9.125,9.125,0,0,1-18.249,0c0-5.04,18.249-5.04,18.249,0" transform="translate(-2205.021 -3047.175)" fill="#91e1bc"/>
        <path id="Path_112690" data-name="Path 112690" d="M2366.681,3285.964a1.742,1.742,0,0,1-.895.89,6.339,6.339,0,0,1-5.795-.229,8.511,8.511,0,0,1-3.817-5.988,1.8,1.8,0,0,1,1.15-1.95,1.231,1.231,0,0,1,1.626,1.046,5.871,5.871,0,0,0,2.578,4.083,3.861,3.861,0,0,0,3.571.124,1.224,1.224,0,0,1,1.709.892,1.764,1.764,0,0,1-.126,1.135" transform="translate(-2227.555 -3099.764)" fill="#eefff7"/>
        <path id="Path_112691" data-name="Path 112691" d="M2368.7,3296.879a.8.8,0,0,1-.763.494c-1.559-.143-2.723-1.58-3.278-2.423a7.126,7.126,0,0,1-1.3-3.75.872.872,0,0,1,.726-.85.637.637,0,0,1,.681.708c-.041,1.392,1.668,4.592,3.452,4.757a.671.671,0,0,1,.546.842.954.954,0,0,1-.07.222" transform="translate(-2234.375 -3110.853)" fill="#fff"/>
        <path id="Path_112692" data-name="Path 112692" d="M1963.507,2002.443a3.116,3.116,0,0,1-3-1.841c-.845-2.364-.714-10.729,5.37-19.1,6.062-8.342,16.1-10.729,19.039-11.262a3.2,3.2,0,0,1,3.736,1.94c.376,1.377-.689,2.745-2.376,3.049-2.314.42-10.457,2.145-15.013,8.88a24.9,24.9,0,0,0-4.745,15.059c-.048,1.438-.468,2.774-2.129,3.169a3.781,3.781,0,0,1-.878.1" transform="translate(-1853.147 -1862.736)" fill="#eefff7"/>
        <path id="Path_112693" data-name="Path 112693" d="M2095.35,1998.564a1.56,1.56,0,0,1-.71-.166.985.985,0,0,1-.425-1.51c5.925-7.724,15.425-9.781,18.2-10.23a1.357,1.357,0,0,1,1.58.863,1.127,1.127,0,0,1-1.057,1.287c-2.5.4-11.087,2.261-16.44,9.24a1.433,1.433,0,0,1-1.139.514" transform="translate(-1979.721 -1878.303)" fill="#fff"/>
        <path id="Path_112694" data-name="Path 112694" d="M2988.466,2627.057a2.234,2.234,0,0,1-1.786-.888,27.624,27.624,0,0,1-5.315-11.206,76.776,76.776,0,0,1-1.663-13.622,2.237,2.237,0,1,1,4.465-.271,73.054,73.054,0,0,0,1.565,12.927,23.119,23.119,0,0,0,4.517,9.477,2.237,2.237,0,0,1-1.783,3.584" transform="translate(-2817.064 -2457.209)" fill="#eefff7"/>
        <path id="Path_112695" data-name="Path 112695" d="M3014.35,2625.537a.9.9,0,0,1-.882-.748c-.26-1.555-.562-3.139-.723-4.707-.185-1.8-.217-3.625-.273-5.431a.895.895,0,0,1,1.788-.054c.054,1.763.083,3.547.265,5.3.157,1.531.455,3.077.708,4.6a.9.9,0,0,1-.883,1.041" transform="translate(-2848.055 -2471.163)" fill="#fff"/>
        <path id="Path_112696" data-name="Path 112696" d="M2409.41,1578.722a3.552,3.552,0,1,1,3.552,3.552,3.551,3.551,0,0,1-3.552-3.552" transform="translate(-2277.901 -1489.287)" fill="#eefff7"/>
        <path id="Path_112697" data-name="Path 112697" d="M2426.46,1595.558A1.543,1.543,0,1,1,2428,1597.1a1.543,1.543,0,0,1-1.544-1.543" transform="translate(-2294.025 -1507.107)" fill="#fff"/>
        <path id="Path_112698" data-name="Path 112698" d="M2426.46,1595.558A1.543,1.543,0,1,1,2428,1597.1a1.543,1.543,0,0,1-1.544-1.543Z" transform="translate(-2294.025 -1507.107)" fill="none" stroke="#fff" stroke-width="1"/>
        <path id="Path_112702" data-name="Path 112702" d="M524.823,2243.794a14.18,14.18,0,1,1-15.379-12.872,14.18,14.18,0,0,1,15.379,12.872" transform="translate(-469.417 -2109.197)" fill="#91e1bc"/>
        <path id="Path_112703" data-name="Path 112703" d="M578.4,2153.381a1.907,1.907,0,0,1-1.042-.691,30.451,30.451,0,0,0-9.6-8.214,1.313,1.313,0,0,1-.53-1.786,1.331,1.331,0,0,1,1.8-.516,33.13,33.13,0,0,1,9.336,7.569,47.459,47.459,0,0,1,11.456-24.091,1.336,1.336,0,0,1,1.874-.113,1.307,1.307,0,0,1,.124,1.856,44.859,44.859,0,0,0-11.062,24.4,1.869,1.869,0,0,1-1.39,1.58,1.912,1.912,0,0,1-.966,0" transform="translate(-536.115 -2009.308)" fill="#52b788"/>
        <path id="Path_112704" data-name="Path 112704" d="M589.372,2147.862a1.879,1.879,0,0,1-1.03-.687,30,30,0,0,0-9.48-8.188,1.314,1.314,0,0,1,1.264-2.3,32.62,32.62,0,0,1,9.219,7.538,47.926,47.926,0,0,1,11.4-24.1,1.314,1.314,0,1,1,1.972,1.737,45.308,45.308,0,0,0-11.012,24.412,1.884,1.884,0,0,1-2.336,1.591" transform="translate(-546.624 -2004.072)" fill="#fff"/>
        <path id="Path_112705" data-name="Path 112705" d="M3399.709,1186.482a13.348,13.348,0,1,0-6.394-7.969,13.348,13.348,0,0,0,6.394,7.969" transform="translate(-3207.599 -1098.127)" fill="#fff"/>
        <path id="Path_112706" data-name="Path 112706" d="M3398.154,1149.788a12.494,12.494,0,1,1-4.751-1.485,12.493,12.493,0,0,1,4.751,1.485m.782-1.424a14.161,14.161,0,1,0,5.6,19.228,14.161,14.161,0,0,0-5.6-19.228" transform="translate(-3193.591 -1084.12)" fill="#91e1bc"/>
        <path id="Path_112707" data-name="Path 112707" d="M3686.128,1577.957l.5,1.719a.167.167,0,1,0,.32-.093l-.5-1.72a.167.167,0,1,0-.32.093" transform="translate(-3484.933 -1491.718)" fill="#91e1bc"/>
        <path id="Path_112708" data-name="Path 112708" d="M3574.329,1194.037l.5,1.719a.167.167,0,0,0,.321-.093l-.5-1.72a.167.167,0,1,0-.32.093" transform="translate(-3379.232 -1128.759)" fill="#91e1bc"/>
        <path id="Path_112709" data-name="Path 112709" d="M3429.029,1453.174l-1.719.5a.167.167,0,1,1-.093-.32l1.72-.5a.167.167,0,1,1,.093.32" transform="translate(-3240.048 -1373.644)" fill="#91e1bc"/>
        <path id="Path_112710" data-name="Path 112710" d="M3812.939,1341.374l-1.72.5a.167.167,0,1,1-.093-.32l1.719-.5a.167.167,0,1,1,.093.32" transform="translate(-3603.004 -1267.943)" fill="#91e1bc"/>
        <path id="Path_112711" data-name="Path 112711" d="M3639.123,1312.966a.166.166,0,0,0,.214-.25l-5.043-6.709,2.974-5.419a.167.167,0,0,0-.292-.161l-3.077,5.608,5.172,6.881a.168.168,0,0,0,.053.046" transform="translate(-3435.563 -1229.461)" fill="#91e1bc"/>
        <path id="Path_112712" data-name="Path 112712" d="M3713.651,1215.9a.756.756,0,1,0,1.026-.3.756.756,0,0,0-1.026.3" transform="translate(-3510.869 -1149.256)" fill="#91e1bc"/>
        <path id="Path_112713" data-name="Path 112713" d="M3625.991,1389.251a.756.756,0,1,0,1.026-.3.756.756,0,0,0-1.026.3" transform="translate(-3427.999 -1313.149)" fill="#91e1bc"/>
        <path id="Path_112714" data-name="Path 112714" d="M3534.551,1566.361a.756.756,0,1,0,1.026-.3.756.756,0,0,0-1.026.3" transform="translate(-3341.549 -1480.587)" fill="#91e1bc"/>
        <path id="Path_112715" data-name="Path 112715" d="M3800.354,1480.381a.756.756,0,1,0,.3,1.026.756.756,0,0,0-.3-1.026" transform="translate(-3591.874 -1399.581)" fill="#91e1bc"/>
        <path id="Path_112716" data-name="Path 112716" d="M3449.894,1301.281a.756.756,0,1,0,.362.451.756.756,0,0,0-.362-.451" transform="translate(-3260.543 -1230.261)" fill="#91e1bc"/>
      </g>
    </g>
  </g>
</svg>
