<svg xmlns="http://www.w3.org/2000/svg" width="30" height="30.828" viewBox="0 0 30 30.828">
  <g id="Nutrition" transform="translate(-44 -305.506)">
    <rect id="Rectangle_167549" data-name="Rectangle 167549" width="30" height="30" transform="translate(44 305.89)" fill="none"/>
    <g id="Nutrition-2" data-name="Nutrition" transform="translate(44.032 306.006)">
      <rect id="Rectangle_167549-2" data-name="Rectangle 167549" width="29.828" height="29.828" fill="none"/>
      <g id="vinegar" transform="translate(3.22 0)">
        <path id="Path_114166" data-name="Path 114166" d="M302.678,3.129V.93a.93.93,0,0,0-.93-.93h-5.573a.93.93,0,0,0-.93.93v2.2a.757.757,0,0,0,.757.757h5.92a.757.757,0,0,0,.757-.757Z" transform="translate(-281.299 0)" fill="#fff" stroke="#25d18e" stroke-width="1"/>
        <path id="Path_114167" data-name="Path 114167" d="M293.97,105.738a7.144,7.144,0,0,1-.87-2.833V99.586a.757.757,0,0,0-.757-.757h-5.928a.757.757,0,0,0-.757.753v.277a1.016,1.016,0,0,0,.538.9,9.824,9.824,0,0,1-1.119,4.35,7.541,7.541,0,0,1,6.167,7.621,13.369,13.369,0,0,1-4.281,9.637,6.16,6.16,0,0,1-.634.5,3.2,3.2,0,0,0,.518.042h5.076a3.187,3.187,0,0,0,3.187-3.187V111.6A15.6,15.6,0,0,0,293.97,105.738Z" transform="translate(-271.721 -93.083)" fill="#fff" stroke="#25d18e" stroke-width="1"/>
        <path id="Path_114168" data-name="Path 114168" d="M71.784,151c-1.649-2.015-4.06-2.478-6.639-1.891a5.641,5.641,0,0,0-.783-2.614,3.1,3.1,0,0,0,3.482-2.661,3.1,3.1,0,0,0-4.335,1.561,8.7,8.7,0,0,0-2.689-1.8.93.93,0,0,0-.761,1.7c2.067.927,3.094,2.146,3.223,3.828-2.208-.474-4.29-.307-5.981,1.19a5.666,5.666,0,0,0-1.888,4.918,11.4,11.4,0,0,0,2.656,6.744,8.155,8.155,0,0,0,1.1,1.141c2.387,1.892,4.448.367,5.208.519,1.084.26,3.13,1.07,5-.6a11.506,11.506,0,0,0,3.673-8.3A5.626,5.626,0,0,0,71.784,151Z" transform="translate(-55.388 -135.126)" fill="#fff" stroke="#ffb125" stroke-width="1"/>
      </g>
    </g>
  </g>
</svg>
