<svg xmlns="http://www.w3.org/2000/svg" width="30" height="30.935" viewBox="0 0 30 30.935">
  <g id="Nutrition" transform="translate(-44 -305.506)">
    <rect id="Rectangle_167549" data-name="Rectangle 167549" width="30" height="30" transform="translate(44 305.996)" fill="none"/>
    <g id="Nutrition-2" data-name="Nutrition" transform="translate(44.033 306.006)">
      <rect id="Rectangle_167549-2" data-name="Rectangle 167549" width="29.935" height="29.935" fill="none"/>
      <g id="vinegar" transform="translate(3.231 0)">
        <path id="Path_114166" data-name="Path 114166" d="M302.7,3.14V.934A.934.934,0,0,0,301.771,0h-5.593a.934.934,0,0,0-.934.934V3.14A.759.759,0,0,0,296,3.9h5.941a.759.759,0,0,0,.759-.759Z" transform="translate(-281.249)" fill="#fff" stroke="#25d18e" stroke-width="1"/>
        <path id="Path_114167" data-name="Path 114167" d="M294,105.762c-.632-1.567-.873-1.986-.873-2.843V99.588a.759.759,0,0,0-.759-.759h-5.95a.759.759,0,0,0-.759.756v.278a1.02,1.02,0,0,0,.54.9,9.859,9.859,0,0,1-1.123,4.366,7.568,7.568,0,0,1,6.189,7.648,13.417,13.417,0,0,1-4.3,9.672,6.181,6.181,0,0,1-.637.5,3.215,3.215,0,0,0,.519.043h5.094a3.2,3.2,0,0,0,3.2-3.2v-8.152A15.653,15.653,0,0,0,294,105.762Z" transform="translate(-271.673 -93.062)" fill="#fff" stroke="#25d18e" stroke-width="1"/>
        <path id="Path_114168" data-name="Path 114168" d="M71.843,151.029c-1.654-2.022-4.074-2.487-6.663-1.9a5.662,5.662,0,0,0-.786-2.623,3.115,3.115,0,0,0,3.494-2.67,3.113,3.113,0,0,0-4.351,1.567,8.728,8.728,0,0,0-2.7-1.8.934.934,0,0,0-.764,1.7c2.074.93,3.1,2.153,3.234,3.841-2.216-.476-4.3-.308-6,1.194a5.686,5.686,0,0,0-1.9,4.935,11.439,11.439,0,0,0,2.666,6.768,8.184,8.184,0,0,0,1.1,1.145c2.4,1.9,4.464.368,5.227.521,1.087.261,3.141,1.074,5.019-.6a11.547,11.547,0,0,0,3.686-8.33A5.646,5.646,0,0,0,71.843,151.029Z" transform="translate(-55.388 -135.096)" fill="#fff" stroke="#ffb125" stroke-width="1"/>
      </g>
    </g>
  </g>
</svg>
