<svg xmlns="http://www.w3.org/2000/svg" width="58.801" height="17.793" viewBox="0 0 58.801 17.793">
  <g id="Odin_Logo" data-name="Odin Logo" transform="translate(-28.35 -21.038)">
    <path id="Path_114512" data-name="Path 114512" d="M31.148,33.654a1.906,1.906,0,0,0,.519,1.532c1.241,1.231,3.239,1.186,5.044,1.186a26.224,26.224,0,0,0,8.042-1.632l2.057-.854c.221-.107,1.131-.487,1.207-.719.4-.985-.194-3.374-.4-4.121a9.426,9.426,0,0,0-.806-1.86,5.323,5.323,0,0,0-.4-.539,13.812,13.812,0,0,0-2.565.9l-.806.363a24.47,24.47,0,0,0-3.727,2.178,16.325,16.325,0,0,0-1.964,1.583A8.158,8.158,0,0,0,36.2,32.911a2.973,2.973,0,0,0-.685,2,4.1,4.1,0,0,0,.083.5,1.663,1.663,0,0,1-.429-2.178,3.354,3.354,0,0,1,.27-.487c.107-.166.214-.322.328-.467a14.172,14.172,0,0,1,1.573-1.583,21.043,21.043,0,0,1,1.784-1.338c1.03-.678,1.85-1.186,2.932-1.794.083-.048.166-.08.249-.128l.764-.415c.75-.366,2.524-1.238,3.246-1.532a16.359,16.359,0,0,0,2.147-1.016,8.033,8.033,0,0,0-1.272.249,26,26,0,0,0-3.564,1.048,27.649,27.649,0,0,0-6.932,3.744l-.64.5c-.1.086-.142.1-.232.19s-.266.218-.4.353a4.974,4.974,0,0,0-1.9,3.644,8.351,8.351,0,0,0,.169.961,2.176,2.176,0,0,1-.978-1.67,4.312,4.312,0,0,1,1.476-2.641,17.164,17.164,0,0,1,2.223-1.9,34.026,34.026,0,0,1,3.775-2.427l4.239-2.05a9.046,9.046,0,0,1,.978-.418c-.487-.657-4.857,1.324-5.815,1.794-.335.162-.664.3-1.006.474l-1.908,1.041c-.6.353-1.659,1.037-2.223,1.452l-.806.66a4.574,4.574,0,0,0-.4.373,10.831,10.831,0,0,0-1.307,1.639c-.09.145-.18.277-.27.446A4.465,4.465,0,0,0,31.148,33.654Z" transform="translate(-1.823 -1.884)" fill="#0676b8" fill-rule="evenodd"/>
    <path id="Path_114513" data-name="Path 114513" d="M28.35,30.394c.173-.048.373-.446.55-.712a15.312,15.312,0,0,1,1.753-2.116l.636-.629A22.865,22.865,0,0,1,35,24.168l2.074-1.186c.156-.09.249-.138.4-.221.691-.335,1.507-.75,2.213-1.041a2.077,2.077,0,0,0,.242-.1c.149-.076.124-.021.166-.169a9.559,9.559,0,0,0-2.9-.415,9.065,9.065,0,0,0-5.158,1.7,12.267,12.267,0,0,0-1.214,1.065,11.021,11.021,0,0,0-1.01,1.258A8.881,8.881,0,0,0,28.35,30.394Z" transform="translate(0 0)" fill="#0676b8" fill-rule="evenodd"/>
    <path id="Path_114514" data-name="Path 114514" d="M36.968,57.473a11.058,11.058,0,0,1-3.869-.581,4.6,4.6,0,0,0-.46-.169c.169.318.747,1.158,1.113,1.283a15.493,15.493,0,0,0,4.273.515A24.867,24.867,0,0,0,45.553,56.9c.2-.076,2.468-.965,2.6-1.072a4.081,4.081,0,0,0,.526-1.321,5.626,5.626,0,0,1-.633.256C44.654,56.1,40.775,57.473,36.968,57.473Z" transform="translate(-2.807 -21.9)" fill="#0676b8" fill-rule="evenodd"/>
    <path id="Path_114515" data-name="Path 114515" d="M42.584,64.77c-1.207,0-2.012-.028-3.184-.128.076.284,1.317.74,1.583.868a10.072,10.072,0,0,0,1.832.633,8.4,8.4,0,0,0,7.364-1.877,8.239,8.239,0,0,0,1.082-1,1.494,1.494,0,0,0,.156-.176l-2.033.588c-.667.194-1.376.36-2.1.519A22.419,22.419,0,0,1,42.584,64.77Z" transform="translate(-7.23 -27.513)" fill="#0676b8" fill-rule="evenodd"/>
    <path id="Path_114516" data-name="Path 114516" d="M97.547,35.788v-.031a3.357,3.357,0,0,0-3.271-3.447c-.038,0-.073,0-.111,0a3.315,3.315,0,0,0-3.354,3.267c0,.048,0,.1,0,.149v.031a3.357,3.357,0,0,0,3.26,3.457c.041,0,.083,0,.124,0a3.315,3.315,0,0,0,3.354-3.267C97.55,35.9,97.547,35.843,97.547,35.788Zm-9.3,0v-.031a5.937,5.937,0,0,1,11.862-.031v.031a5.937,5.937,0,0,1-11.862.031Z" transform="translate(-39.191 -5.916)" fill="#0676b8"/>
    <path id="Path_114517" data-name="Path 114517" d="M129.635,39.477a3.132,3.132,0,0,0,3.347-3.26v-.028a3.159,3.159,0,0,0-3.046-3.271c-.1,0-.2,0-.3,0h-1.888v6.558ZM125.31,30.73h4.325c3.485,0,5.895,2.354,5.895,5.428v.031c0,3.07-2.413,5.456-5.895,5.456H125.31V30.73Z" transform="translate(-63.438 -6.341)" fill="#0676b8"/>
    <rect id="Rectangle_167949" data-name="Rectangle 167949" width="2.441" height="10.915" transform="translate(73.225 24.389)" fill="#0676b8"/>
    <path id="Path_114518" data-name="Path 114518" d="M169.893,30.73h2.254l5.2,6.724V30.73h2.413V41.645h-2.078L172.3,34.706v6.939H169.89Z" transform="translate(-92.606 -6.341)" fill="#0676b8"/>
  </g>
</svg>
