<svg xmlns="http://www.w3.org/2000/svg" width="203.162" height="39" viewBox="0 0 203.162 39">
  <g id="Odin_Logo" data-name="Odin Logo" transform="translate(-80.838 -56)">
    <g id="Group_71255" data-name="Group 71255">
      <g id="Odin_Logo-2" data-name="Odin Logo" transform="translate(52.488 37.933)">
        <path id="Path_114512" data-name="Path 114512" d="M31.158,41.826a3.506,3.506,0,0,0,.954,2.817c2.283,2.264,5.958,2.181,9.278,2.181a48.233,48.233,0,0,0,14.791-3l3.784-1.571c.407-.2,2.079-.9,2.219-1.323.738-1.812-.356-6.206-.738-7.58a17.338,17.338,0,0,0-1.482-3.421,9.791,9.791,0,0,0-.738-.992,25.4,25.4,0,0,0-4.718,1.647l-1.482.668a45.007,45.007,0,0,0-6.855,4.006,30.026,30.026,0,0,0-3.612,2.912,15,15,0,0,0-2.111,2.289,5.469,5.469,0,0,0-1.259,3.675,7.537,7.537,0,0,0,.153.922c-1.482-.967-1.354-2.658-.789-4.006a6.17,6.17,0,0,1,.5-.9c.2-.305.394-.591.6-.858a26.067,26.067,0,0,1,2.893-2.912,38.7,38.7,0,0,1,3.281-2.461c1.895-1.246,3.4-2.181,5.392-3.3.153-.089.305-.146.458-.235l1.405-.763c1.38-.674,4.642-2.277,5.971-2.817A30.09,30.09,0,0,0,63,24.937a14.776,14.776,0,0,0-2.34.458,47.829,47.829,0,0,0-6.556,1.927,50.856,50.856,0,0,0-12.75,6.887l-1.176.916c-.178.159-.261.191-.426.35s-.49.4-.738.649c-1.876,1.87-3.491,3.72-3.491,6.7a15.36,15.36,0,0,0,.312,1.768,4,4,0,0,1-1.8-3.071c0-1.819,1.552-3.714,2.715-4.858a31.571,31.571,0,0,1,4.089-3.5A62.584,62.584,0,0,1,47.786,28.7l7.8-3.771a16.639,16.639,0,0,1,1.8-.769c-.9-1.208-8.934,2.435-10.7,3.3-.617.3-1.221.56-1.85.871l-3.51,1.914c-1.106.649-3.052,1.908-4.089,2.671l-1.482,1.215a8.414,8.414,0,0,0-.738.687,19.922,19.922,0,0,0-2.4,3.014c-.165.267-.331.509-.5.82A8.213,8.213,0,0,0,31.158,41.826Z" transform="translate(-1.014 -1.048)" fill="#0676b8" fill-rule="evenodd"/>
        <path id="Path_114513" data-name="Path 114513" d="M28.35,38.247c.318-.089.687-.82,1.011-1.31a28.164,28.164,0,0,1,3.224-3.892l1.17-1.157a42.056,42.056,0,0,1,6.823-5.094l3.815-2.181c.286-.165.458-.254.738-.407,1.272-.617,2.773-1.38,4.07-1.914a3.821,3.821,0,0,0,.445-.178c.273-.14.229-.038.305-.312a17.582,17.582,0,0,0-5.335-.763,16.673,16.673,0,0,0-9.488,3.135A22.563,22.563,0,0,0,32.9,26.133a20.27,20.27,0,0,0-1.857,2.315A16.335,16.335,0,0,0,28.35,38.247Z" transform="translate(0 0)" fill="#0676b8" fill-rule="evenodd"/>
        <path id="Path_114514" data-name="Path 114514" d="M40.6,59.96a20.339,20.339,0,0,1-7.116-1.068,8.462,8.462,0,0,0-.846-.312c.312.585,1.374,2.13,2.048,2.359a28.5,28.5,0,0,0,7.86.947c3.955,0,10.079-1.513,13.843-2.976.362-.14,4.54-1.774,4.788-1.971a7.506,7.506,0,0,0,.967-2.429,10.346,10.346,0,0,1-1.164.471C54.737,57.435,47.6,59.96,40.6,59.96Z" transform="translate(-1.562 -12.187)" fill="#0676b8" fill-rule="evenodd"/>
        <path id="Path_114515" data-name="Path 114515" d="M45.257,66.18c-2.219,0-3.7-.051-5.857-.235.14.521,2.423,1.361,2.912,1.6a18.524,18.524,0,0,0,3.37,1.164,15.447,15.447,0,0,0,13.545-3.453,15.154,15.154,0,0,0,1.99-1.838,2.749,2.749,0,0,0,.286-.324l-3.739,1.081c-1.227.356-2.531.661-3.866.954A41.235,41.235,0,0,1,45.257,66.18Z" transform="translate(-4.023 -15.311)" fill="#0676b8" fill-rule="evenodd"/>
        <path id="Path_114516" data-name="Path 114516" d="M105.349,40.579v-.057a6.174,6.174,0,0,0-6.016-6.34c-.07,0-.134-.006-.2-.006a6.1,6.1,0,0,0-6.168,6.009c0,.089,0,.184.006.273v.057a6.174,6.174,0,0,0,6,6.359c.076,0,.153.006.229.006a6.1,6.1,0,0,0,6.168-6.009C105.356,40.776,105.349,40.68,105.349,40.579Zm-17.1,0v-.057c0-5.742,4.61-10.441,10.937-10.441s10.88,4.642,10.88,10.384v.057c0,5.742-4.61,10.441-10.937,10.441S88.25,46.321,88.25,40.579Z" transform="translate(-21.81 -3.292)" fill="#0676b8"/>
        <path id="Path_114517" data-name="Path 114517" d="M133.265,46.818a5.761,5.761,0,0,0,6.155-6v-.051a5.81,5.81,0,0,0-5.6-6.016c-.184-.006-.362-.006-.547,0H129.8V46.818ZM125.31,30.73h7.955c6.41,0,10.842,4.33,10.842,9.984v.057c0,5.647-4.439,10.034-10.842,10.034H125.31V30.73Z" transform="translate(-35.303 -3.529)" fill="#0676b8"/>
        <rect id="Rectangle_167949" data-name="Rectangle 167949" width="4.489" height="20.075" transform="translate(110.889 27.201)" fill="#0676b8"/>
        <path id="Path_114518" data-name="Path 114518" d="M169.9,30.73h4.146L183.6,43.1V30.73h4.439V50.805h-3.822l-9.888-12.762V50.805H169.89Z" transform="translate(-51.535 -3.529)" fill="#0676b8"/>
      </g>
      <text id="Assure" transform="translate(237 85)" fill="#0676b8" font-size="28" font-family="Poppins-Italic, Poppins" font-style="italic"><tspan x="-46" y="0">Assure</tspan></text>
    </g>
  </g>
</svg>
