<svg xmlns="http://www.w3.org/2000/svg" width="30" height="30.48" viewBox="0 0 30 30.48">
  <g id="OPD" transform="translate(-44 -305.884)">
    <rect id="Rectangle_167549" data-name="Rectangle 167549" width="30" height="30" transform="translate(44 305.957)" fill="none"/>
    <g id="doctor" transform="translate(47.295 306.384)">
      <path id="Path_114053" data-name="Path 114053" d="M19.979,0a6.4,6.4,0,1,0,6.4,6.4A6.408,6.408,0,0,0,19.979,0Z" transform="translate(-8.489)" fill="#fff" stroke="#ffb125" stroke-width="1"/>
      <path id="Path_114054" data-name="Path 114054" d="M21.728,23.264a14.089,14.089,0,0,1,.468,3.817c.942.835,3.412,3.3,2.874,5.723a2.843,2.843,0,0,1-1.99,2.018.614.614,0,0,1-.4-1.163,1.659,1.659,0,0,0,1.183-1.09c.367-1.665-1.475-3.686-2.5-4.585-1.226.6-3.544,2.055-3.633,3.727a1.647,1.647,0,0,0,.844,1.395.615.615,0,1,1-.691,1.016,2.838,2.838,0,0,1-1.379-2.508c.139-2.595,3.531-4.363,4.477-4.808a16.737,16.737,0,0,0-.608-3.9.684.684,0,0,1-.006-.1,10.643,10.643,0,0,0-2.8-.384H15.993a10.664,10.664,0,0,0-3.126.469.561.561,0,0,1-.034.131,26.716,26.716,0,0,0-1.979,7.009A2.516,2.516,0,1,1,9.617,30a29.953,29.953,0,0,1,1.666-6.474,10.707,10.707,0,0,0-5.992,9.6v4.389a.614.614,0,0,0,.614.614H27.66a.621.621,0,0,0,.614-.623V33.128a10.723,10.723,0,0,0-6.547-9.864Z" transform="translate(-5.291 -8.651)" fill="#fff" stroke="#25d18e" stroke-width="1"/>
    </g>
  </g>
</svg>
