<svg xmlns="http://www.w3.org/2000/svg" width="23.954" height="20" viewBox="0 0 23.954 20">
  <g id="Other-members" transform="translate(0 -38.071)">
    <g id="Group_157604" data-name="Group 157604" transform="translate(0 38.071)">
      <g id="Group_157598" data-name="Group 157598" transform="translate(4.554 1.064)">
        <g id="XMLID_29_">
          <g id="Group_157597" data-name="Group 157597">
            <path id="Path_204938" data-name="Path 204938" d="M102.563,245.443v.006a11.064,11.064,0,0,1-14.858,0v-.006a7.429,7.429,0,0,1,4.24-6.711,4.241,4.241,0,0,0,6.38,0A7.428,7.428,0,0,1,102.563,245.443Z" transform="translate(-87.705 -229.378)" fill="#04beea"/>
            <path id="Path_204939" data-name="Path 204939" d="M155.758,58.571a4.109,4.109,0,0,1,4.109,4.109c0,2.27-1.84,5.374-4.109,5.374s-4.109-3.1-4.109-5.374A4.109,4.109,0,0,1,155.758,58.571Z" transform="translate(-148.329 -58.571)" fill="#fcd09f"/>
          </g>
        </g>
      </g>
      <g id="Group_157603" data-name="Group 157603" transform="translate(0 0)">
        <g id="Group_157600" data-name="Group 157600">
          <g id="XMLID_27_">
            <g id="Group_157599" data-name="Group 157599">
              <path id="Path_204940" data-name="Path 204940" d="M8.52,196.007q.189.269.391.506l-.41.195a8.11,8.11,0,0,0-4.571,6.358A9.615,9.615,0,0,1,0,200.908V200.9a6.474,6.474,0,0,1,3.694-5.848,3.938,3.938,0,0,0,2.779,1.26,3.6,3.6,0,0,0,1.884-.55C8.41,195.847,8.464,195.928,8.52,196.007Z" transform="translate(0 -186.905)" fill="#f84c32"/>
              <path id="Path_204941" data-name="Path 204941" d="M60.019,43.244a6.7,6.7,0,0,0,.617,2.674,2.49,2.49,0,0,1-1.336.416c-1.978,0-3.581-2.7-3.581-4.683a3.581,3.581,0,0,1,6.316-2.31A4.789,4.789,0,0,0,60.019,43.244Z" transform="translate(-52.826 -38.071)" fill="#efc59c"/>
            </g>
          </g>
        </g>
        <g id="Group_157602" data-name="Group 157602" transform="translate(14.745)">
          <g id="XMLID_22_">
            <g id="Group_157601" data-name="Group 157601">
              <path id="Path_204942" data-name="Path 204942" d="M290.132,196.007q-.189.269-.391.506l.41.195a8.11,8.11,0,0,1,4.571,6.358,9.615,9.615,0,0,0,3.93-2.157V200.9a6.474,6.474,0,0,0-3.694-5.848,3.938,3.938,0,0,1-2.779,1.26,3.6,3.6,0,0,1-1.884-.55C290.242,195.847,290.188,195.928,290.132,196.007Z" transform="translate(-289.443 -186.905)" fill="#f84c32"/>
              <path id="Path_204943" data-name="Path 204943" d="M286.015,43.244a6.7,6.7,0,0,1-.617,2.674,2.49,2.49,0,0,0,1.336.416c1.978,0,3.581-2.7,3.581-4.683A3.581,3.581,0,0,0,284,39.341,4.789,4.789,0,0,1,286.015,43.244Z" transform="translate(-283.999 -38.071)" fill="#efc59c"/>
            </g>
          </g>
        </g>
      </g>
    </g>
  </g>
</svg>
