<svg xmlns="http://www.w3.org/2000/svg" width="28.736" height="24.921" viewBox="0 0 28.736 24.921">
  <g id="parents" transform="translate(0 -33.989)">
    <g id="Group_157594" data-name="Group 157594" transform="translate(0 33.989)">
      <path id="Path_204905" data-name="Path 204905" d="M14.368,292.736l-7.205.505L0,292.736v-4.371a5.54,5.54,0,0,1,5.54-5.54H8.828a5.54,5.54,0,0,1,5.54,5.54l.505,2.144Z" transform="translate(0 -268.859)" fill="#dc4955"/>
      <path id="Path_204906" data-name="Path 204906" d="M.29,460.457H2.4l.435-.505.435.505H11.1l.435-.505.435.505h2.4l.505-.522-.505-.522H0v.754A.29.29,0,0,0,.29,460.457Z" transform="translate(0 -435.536)" fill="#d82f3c"/>
      <path id="Path_204907" data-name="Path 204907" d="M96.935,285.027c1.895,0,1.849-2.119,1.847-2.2-.065,0-.13,0-.2,0H95.3c-.07,0-.14,0-.21,0C95.086,282.919,95.045,285.027,96.935,285.027Z" transform="translate(-89.751 -268.858)" fill="#e2ae84"/>
      <g id="Group_157590" data-name="Group 157590" transform="translate(2.403 19.756)">
        <path id="Path_204908" data-name="Path 204908" d="M43.686,386.423v3.686l-.435.505-.435-.505v-3.686a.435.435,0,0,1,.87,0Z" transform="translate(-42.816 -385.988)" fill="#c42d41"/>
        <path id="Path_204909" data-name="Path 204909" d="M198.552,386.423v3.686l-.435.505-.435-.505v-3.686a.435.435,0,0,1,.87,0Z" transform="translate(-188.99 -385.988)" fill="#c42d41"/>
      </g>
      <g id="Group_157591" data-name="Group 157591" transform="translate(2.403 23.877)">
        <path id="Path_204910" data-name="Path 204910" d="M42.817,459.411h.87v1.044h-.87Z" transform="translate(-42.817 -459.411)" fill="#b72d47"/>
        <path id="Path_204911" data-name="Path 204911" d="M197.682,459.411h.87v1.044h-.87Z" transform="translate(-188.99 -459.411)" fill="#b72d47"/>
      </g>
      <path id="Path_204912" data-name="Path 204912" d="M5.4,41.861C4,38.68,3.741,35.648,6.846,34.712c7.121-2.148,7.486,1.176,7.486,1.176s5.044.223,3.135,6.453Z" transform="translate(-4.158 -33.989)" fill="#26457d"/>
      <path id="Path_204913" data-name="Path 204913" d="M23.41,161.156a1.5,1.5,0,0,0-1.291.735c.091.2.212.47.312.676l1.134.036v-1.439A1.522,1.522,0,0,0,23.41,161.156Z" transform="translate(-20.878 -154.019)" fill="#21386b"/>
      <path id="Path_204914" data-name="Path 204914" d="M209.561,162.931c.068-.192.129-.378.185-.56a1.5,1.5,0,0,0-1.473-1.215,1.521,1.521,0,0,0-.155.008v1.722Z" transform="translate(-196.437 -154.019)" fill="#21386b"/>
      <path id="Path_204915" data-name="Path 204915" d="M21.32,182.142l.316-.441.414-.266-.417-1.673a1.518,1.518,0,0,0-.155-.008,1.5,1.5,0,0,0-1.406.977C20.073,181.3,20.675,182.142,21.32,182.142Z" transform="translate(-18.946 -171.574)" fill="#e2ae84"/>
      <path id="Path_204916" data-name="Path 204916" d="M19.906,198.147a1.5,1.5,0,0,1-1.406-.977,1.5,1.5,0,0,0,1.711,1.99l.266-.633-.414-.388A1.5,1.5,0,0,1,19.906,198.147Z" transform="translate(-17.374 -188.011)" fill="#d7a379"/>
      <path id="Path_204917" data-name="Path 204917" d="M201.424,182.142l-.316-.441-.414-.266.417-1.673a1.517,1.517,0,0,1,.155-.008,1.5,1.5,0,0,1,1.406.977C202.671,181.3,202.068,182.142,201.424,182.142Z" transform="translate(-189.429 -171.574)" fill="#e2ae84"/>
      <path id="Path_204918" data-name="Path 204918" d="M201.266,198.147a1.5,1.5,0,0,0,1.406-.977,1.5,1.5,0,0,1-1.712,1.99l-.266-.633.414-.388A1.5,1.5,0,0,0,201.266,198.147Z" transform="translate(-189.43 -188.011)" fill="#d7a379"/>
      <path id="Path_204919" data-name="Path 204919" d="M52.381,115.961c3.308,0,4.5-2.518,4.5-5v-1.775a.29.29,0,0,0-.147-.252,6.438,6.438,0,0,1-2.168-2.71.289.289,0,0,0-.439-.105,9.874,9.874,0,0,1-5.949,2.266.289.289,0,0,0-.29.29v2.286C47.884,113.442,49.262,115.961,52.381,115.961Z" transform="translate(-45.196 -102.011)" fill="#f0c69e"/>
      <path id="Path_204920" data-name="Path 204920" d="M52.38,197.9a4.5,4.5,0,0,1-4.5-4.5v1.044a4.5,4.5,0,0,0,8.993,0v-1.044A4.5,4.5,0,0,1,52.38,197.9Z" transform="translate(-45.196 -184.461)" fill="#e6ba94"/>
      <path id="Path_204921" data-name="Path 204921" d="M93.148,218.92a1.633,1.633,0,0,0,1.81.713.288.288,0,0,0,.239-.3c-.033-.525-.3-1.7-2.049-1.7s-2.016,1.17-2.049,1.7a.288.288,0,0,0,.239.3,1.633,1.633,0,0,0,1.81-.713Z" transform="translate(-85.986 -207.328)" fill="#26457d"/>
      <path id="Path_204922" data-name="Path 204922" d="M270.729,52.268a1.688,1.688,0,0,1-.836-1.893c1.482-8.6-2.247-11.788-6.166-11.788s-7.648,3.188-6.166,11.788a1.688,1.688,0,0,1-.836,1.893.29.29,0,0,0-.142.321,2.706,2.706,0,0,0,.542,1.1h13.2a2.706,2.706,0,0,0,.542-1.1A.291.291,0,0,0,270.729,52.268Z" transform="translate(-242.175 -38.328)" fill="#26457d"/>
      <path id="Path_204923" data-name="Path 204923" d="M275.223,273.525h-4.5a5.887,5.887,0,0,0-4.35,1.913,2.839,2.839,0,0,0,1,.767h11.208a2.84,2.84,0,0,0,1-.767A5.887,5.887,0,0,0,275.223,273.525Z" transform="translate(-251.419 -260.081)" fill="#21386b"/>
      <path id="Path_204924" data-name="Path 204924" d="M270.368,292.736l-7.191.505L256,292.736v-4.371a5.54,5.54,0,0,1,5.54-5.54h3.288a5.54,5.54,0,0,1,5.54,5.54v4.371Z" transform="translate(-241.632 -268.859)" fill="#b3e59f"/>
      <path id="Path_204925" data-name="Path 204925" d="M256,460.457h2.4l.435-.505.435.505H267.1l.435-.505.435.505h2.113a.29.29,0,0,0,.29-.29v-.754H256Z" transform="translate(-241.632 -435.536)" fill="#95d6a4"/>
      <path id="Path_204926" data-name="Path 204926" d="M352.807,285.027c1.895,0,1.849-2.119,1.847-2.2-.065,0-.13,0-.2,0h-3.288c-.07,0-.14,0-.21,0C350.958,282.919,350.918,285.027,352.807,285.027Z" transform="translate(-331.262 -268.858)" fill="#e2ae84"/>
      <g id="Group_157592" data-name="Group 157592" transform="translate(16.771 19.756)">
        <path id="Path_204927" data-name="Path 204927" d="M299.689,386.423v3.686l-.435.505-.435-.505v-3.686a.435.435,0,0,1,.87,0Z" transform="translate(-298.819 -385.988)" fill="#78c2a4"/>
        <path id="Path_204928" data-name="Path 204928" d="M454.554,386.423v3.686l-.435.505-.435-.505v-3.686a.435.435,0,0,1,.87,0Z" transform="translate(-444.992 -385.988)" fill="#78c2a4"/>
      </g>
      <g id="Group_157593" data-name="Group 157593" transform="translate(16.771 23.877)">
        <path id="Path_204929" data-name="Path 204929" d="M298.819,459.411h.87v1.044h-.87Z" transform="translate(-298.819 -459.411)" fill="#66b394"/>
        <path id="Path_204930" data-name="Path 204930" d="M453.684,459.411h.87v1.044h-.87Z" transform="translate(-444.992 -459.411)" fill="#66b394"/>
      </g>
      <path id="Path_204931" data-name="Path 204931" d="M308.38,123.906c3.447,0,4.5-2.518,4.5-5v-1.1a.29.29,0,0,0-.161-.259,6.365,6.365,0,0,1-2.546-2.91.29.29,0,0,0-.491-.052,9.638,9.638,0,0,1-5.561,3.087.289.289,0,0,0-.235.285v.945C303.883,121.387,304.914,123.906,308.38,123.906Z" transform="translate(-286.827 -109.956)" fill="#f0c69e"/>
      <path id="Path_204932" data-name="Path 204932" d="M308.38,197.9a4.5,4.5,0,0,1-4.5-4.5v1.044a4.5,4.5,0,0,0,8.993,0v-1.044A4.5,4.5,0,0,1,308.38,197.9Z" transform="translate(-286.827 -184.461)" fill="#e6ba94"/>
    </g>
    <g id="Group_157596" data-name="Group 157596" transform="translate(4.542 42.152)">
      <g id="Group_157595" data-name="Group 157595">
        <path id="Path_204933" data-name="Path 204933" d="M81.357,181.307a.436.436,0,0,0,.436-.436V179.86a.436.436,0,1,0-.872,0v1.011A.436.436,0,0,0,81.357,181.307Z" transform="translate(-80.921 -179.424)" fill="#5e6b75"/>
        <path id="Path_204934" data-name="Path 204934" d="M159.226,181.307a.436.436,0,0,0,.436-.436V179.86a.436.436,0,1,0-.872,0v1.011A.436.436,0,0,0,159.226,181.307Z" transform="translate(-154.42 -179.424)" fill="#5e6b75"/>
        <path id="Path_204935" data-name="Path 204935" d="M338.1,179.424a.436.436,0,0,0-.436.436v1.011a.436.436,0,0,0,.872,0V179.86A.436.436,0,0,0,338.1,179.424Z" transform="translate(-323.255 -179.424)" fill="#5e6b75"/>
        <path id="Path_204936" data-name="Path 204936" d="M415.97,181.307a.436.436,0,0,0,.436-.436V179.86a.436.436,0,1,0-.872,0v1.011A.436.436,0,0,0,415.97,181.307Z" transform="translate(-396.754 -179.424)" fill="#5e6b75"/>
      </g>
      <path id="Path_204937" data-name="Path 204937" d="M361.769,229.941a.437.437,0,1,0-.79-.372c-.013.027-.144.266-.589.266s-.575-.239-.589-.266a.437.437,0,1,0-.79.372,1.622,1.622,0,0,0,2.758,0Z" transform="translate(-343.358 -226.51)" fill="#dc4955"/>
    </g>
  </g>
</svg>
