<svg xmlns="http://www.w3.org/2000/svg" width="22" height="28" viewBox="0 0 22 28">
  <g id="pdf-file" transform="translate(-4 -2)">
    <path id="Path_114100" data-name="Path 114100" d="M8.425,14.68a2.135,2.135,0,0,0-.53.051v1.679a1.942,1.942,0,0,0,.43.033c.683,0,1.1-.345,1.1-.928,0-.522-.362-.835-1-.835Zm4.97.017a2.63,2.63,0,0,0-.58.051v3.72a2.327,2.327,0,0,0,.446.026,1.762,1.762,0,0,0,1.923-1.99A1.631,1.631,0,0,0,13.4,14.7Z" transform="translate(1.369 5.023)" fill="#fa5656"/>
    <path id="Path_114101" data-name="Path 114101" d="M17.75,2h-11a2.725,2.725,0,0,0-1.945.82A2.826,2.826,0,0,0,4,4.8V27.2a2.826,2.826,0,0,0,.805,1.98A2.725,2.725,0,0,0,6.75,30h16.5a2.725,2.725,0,0,0,1.945-.82A2.826,2.826,0,0,0,26,27.2V10.4ZM11.56,21.866a2.52,2.52,0,0,1-1.782.588,3.017,3.017,0,0,1-.423-.025v2H8.125v-5.51A10.209,10.209,0,0,1,9.8,18.8a2.6,2.6,0,0,1,1.678.447,1.649,1.649,0,0,1,.586,1.292,1.812,1.812,0,0,1-.5,1.327Zm5.235,1.9a3.886,3.886,0,0,1-2.53.721,10.407,10.407,0,0,1-1.408-.084V18.916a10.729,10.729,0,0,1,1.676-.116,3.48,3.48,0,0,1,2.245.6,2.488,2.488,0,0,1,.928,2.106A2.858,2.858,0,0,1,16.794,23.763Zm5.081-3.885H19.768v1.275h1.969v1.028H19.768v2.246H18.523V18.842h3.352ZM17.75,11.8H16.375v-7l6.875,7Z" fill="#fa5656"/>
  </g>
</svg>
