<svg xmlns="http://www.w3.org/2000/svg" width="30" height="30.002" viewBox="0 0 30 30.002">
  <g id="home" transform="translate(-1205 4898)">
    <rect id="Rectangle_169176" data-name="Rectangle 169176" width="30" height="30" transform="translate(1205 -4898)" fill="none"/>
    <g id="home-insurance_1_" data-name="home-insurance (1)" transform="translate(1204.996 -4898)">
      <path id="Path_207005" data-name="Path 207005" d="M1.5,11.5v10A1.5,1.5,0,0,0,3,23H16.247a9.5,9.5,0,0,0,5.468,6.576l.69.3a1.5,1.5,0,0,0,1.2,0l.69-.3A9.5,9.5,0,0,0,30,20.865V15.209a1.5,1.5,0,0,0-1.3-1.487A24.929,24.929,0,0,1,23.56,12.61a1.47,1.47,0,0,0-1.113,0,9.536,9.536,0,0,1-.944.313V11.5a1.5,1.5,0,0,0,1.306-2.236l-3.375-6A1.5,1.5,0,0,0,18.127,2.5H9V1A1,1,0,0,0,8,0H6A1,1,0,0,0,5,1V2.5H4.878a1.5,1.5,0,0,0-1.308.765L.2,9.265A1.5,1.5,0,0,0,1.5,11.5ZM5,22V15.5a.5.5,0,0,1,.5-.5h3a.5.5,0,0,1,.5.5V22Zm11-4H13a.5.5,0,0,1-.5-.5v-2A.5.5,0,0,1,13,15h3.02a1.437,1.437,0,0,0-.02.209Zm6.821-4.465a.5.5,0,0,1,.36,0,25.857,25.857,0,0,0,5.388,1.178.5.5,0,0,1,.432.5v5.656a8.5,8.5,0,0,1-5.112,7.8l-.69.3a.5.5,0,0,1-.4,0l-.691-.3A8.5,8.5,0,0,1,17,20.865V15.209a.5.5,0,0,1,.432-.5A25.839,25.839,0,0,0,22.824,13.536Zm-5.518.186a1.483,1.483,0,0,0-.684.279H13a1.5,1.5,0,0,0-1.5,1.5v2A1.5,1.5,0,0,0,13,19h3v1.864A9.506,9.506,0,0,0,16.077,22H10V15.5A1.5,1.5,0,0,0,8.5,14h-3A1.5,1.5,0,0,0,4,15.5V22H3a.5.5,0,0,1-.5-.5v-10h18v1.676c-1.154.258-2.385.44-3.2.546ZM6,1H8V2.5H6ZM1.068,9.756l3.374-6A.5.5,0,0,1,4.878,3.5H18.129a.5.5,0,0,1,.436.255l3.375,6a.5.5,0,0,1-.437.745H1.5a.5.5,0,0,1-.436-.745Z" fill="#d79484"/>
      <path id="Path_207006" data-name="Path 207006" d="M40.575,42.552l.005,0a1.245,1.245,0,0,0,.987,0,7.61,7.61,0,0,0,4.583-6.984V31.339a1.23,1.23,0,0,0-1.036-1.221,24.277,24.277,0,0,1-3.655-.832,1.229,1.229,0,0,0-.774,0,24.3,24.3,0,0,1-3.655.832A1.231,1.231,0,0,0,36,31.336v4.227A7.619,7.619,0,0,0,40.575,42.552ZM37.013,31.339a.219.219,0,0,1,.183-.219,25.275,25.275,0,0,0,3.811-.871.2.2,0,0,1,.066-.011.207.207,0,0,1,.066.011,25.309,25.309,0,0,0,3.812.871.219.219,0,0,1,.182.219v4.232a6.6,6.6,0,0,1-3.972,6.053.227.227,0,0,1-.152.012l-.005,0-.024-.012a6.6,6.6,0,0,1-3.967-6.056Z" transform="translate(-18.177 -14.844)" fill="#d82a1b"/>
      <path id="Path_207007" data-name="Path 207007" d="M11.508,11.015H22.675a.508.508,0,0,0,0-1.015H11.508a.508.508,0,1,0,0,1.015Z" transform="translate(-5.553 -4.924)" fill="#d82a1b"/>
      <path id="Path_207008" data-name="Path 207008" d="M9.508,17.015h13.2a.508.508,0,0,0,0-1.015H9.508a.508.508,0,0,0,0,1.015Z" transform="translate(-4.43 -8.004)" fill="#d82a1b"/>
      <path id="Path_207009" data-name="Path 207009" d="M42.685,41.912a.5.5,0,0,0,.358.149h.023a.511.511,0,0,0,.368-.182l2.538-3.046a.508.508,0,0,0-.781-.651L43.009,40.8l-.114-.114a.508.508,0,0,0-.714.718Z" transform="translate(-21.074 -19.043)" fill="#d82a1b"/>
    </g>
  </g>
</svg>
