<svg xmlns="http://www.w3.org/2000/svg" width="28" height="28" viewBox="0 0 28 28">
  <g id="Policy-details" transform="translate(1252 -4888)">
    <g id="Group_158904" data-name="Group 158904">
      <rect id="Rectangle_169377" data-name="Rectangle 169377" width="28" height="28" transform="translate(-1252 4888)" fill="none"/>
      <g id="insurance_25_" data-name="insurance (25)" transform="translate(-1301.164 4888)">
        <path id="Path_208167" data-name="Path 208167" d="M72.665,0H53.543a1.4,1.4,0,0,0-1.4,1.4V26.6a1.4,1.4,0,0,0,1.4,1.4H68.584a.466.466,0,0,0,.466-.466V23.683a.7.7,0,0,1,.7-.7h.878a.466.466,0,1,0,0-.933h-.878a1.631,1.631,0,0,0-1.629,1.629v3.385H53.543a.467.467,0,0,1-.466-.466V1.4a.467.467,0,0,1,.466-.466H72.665a.467.467,0,0,1,.466.466V22.327l-2.757,2.757a.466.466,0,1,0,.66.66l2.893-2.893a.466.466,0,0,0,.137-.33V1.4a1.4,1.4,0,0,0-1.4-1.4Z" transform="translate(0 0)" fill="#d82a1b"/>
        <path id="Path_208168" data-name="Path 208168" d="M188.584,175h-.466a1.4,1.4,0,0,0-1.4,1.4v.175h-.175a1.4,1.4,0,0,0-1.4,1.4v.466a1.4,1.4,0,0,0,1.4,1.4h.175v.175a1.4,1.4,0,0,0,1.4,1.4h.466a1.4,1.4,0,0,0,1.4-1.4v-.175h.175a1.4,1.4,0,0,0,1.4-1.4v-.466a1.4,1.4,0,0,0-1.4-1.4h-.175V176.4A1.4,1.4,0,0,0,188.584,175Zm1.574,2.507a.467.467,0,0,1,.466.466v.466a.467.467,0,0,1-.466.466h-.641a.466.466,0,0,0-.466.466v.641a.467.467,0,0,1-.466.466h-.466a.467.467,0,0,1-.466-.466v-.641a.466.466,0,0,0-.466-.466h-.641a.467.467,0,0,1-.466-.466v-.466a.467.467,0,0,1,.466-.466h.641a.466.466,0,0,0,.466-.466V176.4a.467.467,0,0,1,.466-.466h.466a.467.467,0,0,1,.466.466v.641a.466.466,0,0,0,.466.466Z" transform="translate(-125.246 -164.798)" fill="#d82a1b"/>
        <path id="Path_208169" data-name="Path 208169" d="M151.786,130.472a1.4,1.4,0,0,0-1.394-1.4,7.239,7.239,0,0,1-3.736-.986,1.385,1.385,0,0,0-1.4,0,7.257,7.257,0,0,1-3.724.986,1.4,1.4,0,0,0-1.406,1.4c0,1.864-.01,2.034.032,2.528a.466.466,0,0,0,.929-.079c-.041-.478-.028-.726-.028-2.449a.464.464,0,0,1,.461-.466,8.2,8.2,0,0,0,4.208-1.114.451.451,0,0,1,.456,0,8.171,8.171,0,0,0,4.208,1.114.464.464,0,0,1,.461.466v1.779a7.883,7.883,0,0,1-3.888,6.781,2,2,0,0,1-2.018,0,7.852,7.852,0,0,1-2.968-3.091.466.466,0,0,0-.823.438,8.784,8.784,0,0,0,3.32,3.458,2.935,2.935,0,0,0,2.96,0,8.819,8.819,0,0,0,4.35-7.586v-1.779Z" transform="translate(-82.852 -120.441)" fill="#d82a1b"/>
        <path id="Path_208170" data-name="Path 208170" d="M116,47.5a.466.466,0,0,0,.466-.466V44.466A.466.466,0,0,0,116,44H100.61a.466.466,0,0,0-.466.466v2.565a.466.466,0,0,0,.466.466h12.839a.466.466,0,0,0,0-.933H101.077V44.933h14.458v2.1A.466.466,0,0,0,116,47.5Z" transform="translate(-45.202 -41.435)" fill="#d82a1b"/>
        <path id="Path_208171" data-name="Path 208171" d="M148.23,368.466a.466.466,0,0,0-.466-.466H138.61a.466.466,0,1,0,0,.933h9.153A.466.466,0,0,0,148.23,368.466Z" transform="translate(-80.986 -346.546)" fill="#d82a1b"/>
        <path id="Path_208172" data-name="Path 208172" d="M138.61,418a.466.466,0,0,0,0,.933h6.646a.466.466,0,0,0,0-.933Z" transform="translate(-80.986 -393.631)" fill="#d82a1b"/>
      </g>
    </g>
  </g>
</svg>
