<svg xmlns="http://www.w3.org/2000/svg" width="20" height="20" viewBox="0 0 20 20">
  <g id="Privacy_Policy" data-name="Privacy Policy" transform="translate(12692 13923.417)">
    <g id="Group_309" data-name="Group 309" transform="translate(-12692 -13923.417)">
      <rect id="Rectangle_167666" data-name="Rectangle 167666" width="20" height="20" fill="none"/>
      <g id="Group_315" data-name="Group 315" transform="translate(0 0)">
        <rect id="Rectangle_167462" data-name="Rectangle 167462" width="20" height="20" fill="none"/>
        <g id="policy" transform="translate(0 1.127)">
          <path id="Path_114252" data-name="Path 114252" d="M11.034,332.375V331H0v1.38a2.278,2.278,0,0,0,2.261,2.283h9.886c-.095-.086-.186-.162-.273-.248a2.877,2.877,0,0,1-.84-2.04Zm0,0" transform="translate(0 -316.732)" fill="#338ec0"/>
          <path id="Path_114253" data-name="Path 114253" d="M163.787,59.334l1.6,1.1,1.607-1.1a2.036,2.036,0,0,0,.789-1.509V55.554l-2.392-1.183L163,55.551v2.275a2.034,2.034,0,0,0,.787,1.509Zm.36-2.147a.3.3,0,0,1,.427,0l.481.486,1.157-1.157a.3.3,0,0,1,.427.427l-1.372,1.372a.3.3,0,0,1-.213.089h0a.3.3,0,0,1-.214-.091l-.694-.7A.3.3,0,0,1,164.148,57.187Zm0,0" transform="translate(-155.974 -52.027)" fill="#338ec0"/>
          <path id="Path_114254" data-name="Path 114254" d="M390.634,0h-.01A1.64,1.64,0,0,0,389,1.628V4.4h3.233V1.622A1.615,1.615,0,0,0,390.634,0Zm0,0" transform="translate(-372.233)" fill="#338ec0"/>
          <path id="Path_114255" data-name="Path 114255" d="M71.735,0a1.512,1.512,0,0,0-1.521,1.5l-.089,12.165h8.314a.314.314,0,0,1,.3.316v1.663a2.283,2.283,0,0,0,2.267,2.289h.008a2.268,2.268,0,0,0,2.251-2.284V1.628A2.31,2.31,0,0,1,83.981,0Zm1.79,3.335a.293.293,0,0,1,.159-.271l2.7-1.328a.3.3,0,0,1,.263,0l2.707,1.332a.294.294,0,0,1,.16.271V5.8a2.63,2.63,0,0,1-1.052,2.007L76.692,9.021a.3.3,0,0,1-.169.053.294.294,0,0,1-.168-.053L74.577,7.806A2.632,2.632,0,0,1,73.525,5.8Zm7.284,8.949H72.534a.3.3,0,0,1,0-.6H80.81a.3.3,0,0,1,0,.6Zm0-1.595H72.534a.3.3,0,0,1,0-.6H80.81a.3.3,0,0,1,0,.6Zm0,0" transform="translate(-67.103)" fill="#338ec0"/>
        </g>
      </g>
    </g>
  </g>
</svg>
