<svg xmlns="http://www.w3.org/2000/svg" width="20" height="20" viewBox="0 0 20 20">
  <g id="Rate_Us" transform="translate(9982 -9707)">
    <rect id="Rectangle_168135" data-name="Rectangle 168135" width="20" height="20" transform="translate(-9982 9707)" fill="none"/>
    <g id="star_1_" data-name="star (1)" transform="translate(-9982.999 9706.89)">
      <path id="Path_116600" data-name="Path 116600" d="M14.606,9.3l-.4-2.456L15.9,5.112a.682.682,0,0,0-.385-1.15L13.2,3.609l-1.04-2.214a.71.71,0,0,0-1.234,0L9.889,3.609l-2.31.354a.681.681,0,0,0-.385,1.15L8.885,6.846,8.485,9.3a.682.682,0,0,0,1,.706l2.057-1.137L13.6,10.008A.682.682,0,0,0,14.606,9.3Z" transform="translate(-0.546)" fill="#4bc4f9"/>
      <path id="Path_116601" data-name="Path 116601" d="M9.511,13.962,7.2,13.609l-1.04-2.214a.71.71,0,0,0-1.234,0l-1.04,2.214-2.31.354a.681.681,0,0,0-.385,1.15l1.691,1.734-.4,2.456a.682.682,0,0,0,1,.706l2.058-1.137L7.6,20.008a.682.682,0,0,0,1-.706l-.4-2.456L9.9,15.112A.682.682,0,0,0,9.511,13.962Z" transform="translate(0 -0.91)" fill="#021b8d"/>
      <path id="Path_116602" data-name="Path 116602" d="M21.511,13.962l-2.31-.354-1.04-2.214a.71.71,0,0,0-1.234,0l-1.04,2.214-2.31.354a.681.681,0,0,0-.385,1.15l1.691,1.734-.4,2.456a.682.682,0,0,0,1,.706l2.058-1.137L19.6,20.008a.682.682,0,0,0,1-.706l-.4-2.456L21.9,15.112A.682.682,0,0,0,21.511,13.962Z" transform="translate(-1.091 -0.91)" fill="#021b8d"/>
    </g>
  </g>
</svg>
