<svg xmlns="http://www.w3.org/2000/svg" width="16" height="16" viewBox="0 0 16 16">
  <g id="share" transform="translate(8036.001 7361.063)">
    <g id="Group_474" data-name="Group 474" transform="translate(-8036 -7361.202)">
      <rect id="Rectangle_167742" data-name="Rectangle 167742" width="16" height="16" transform="translate(-0.001 0.139)" fill="none"/>
      <g id="share-2" data-name="share" transform="translate(0.499 0.181)">
        <g id="Group_472" data-name="Group 472" transform="translate(0)">
          <path id="Path_114243" data-name="Path 114243" d="M28.155,10.347a2.8,2.8,0,0,0-2.249,1.146L21.485,9.229A2.646,2.646,0,0,0,21.4,7.4l4.627-2.784A2.79,2.79,0,1,0,25.35,2.8a2.779,2.779,0,0,0,.2,1.008L20.9,6.606a2.8,2.8,0,1,0,.176,3.467l4.406,2.256a2.767,2.767,0,0,0-.137.823,2.8,2.8,0,1,0,2.8-2.8Z" transform="translate(-16)" fill="#fcfcfc"/>
        </g>
      </g>
    </g>
  </g>
</svg>
