<svg xmlns="http://www.w3.org/2000/svg" xmlns:xlink="http://www.w3.org/1999/xlink" width="279.623" height="237.878" viewBox="0 0 279.623 237.878">
  <defs>
    <clipPath id="clip-path">
      <rect id="Rectangle_167984" data-name="Rectangle 167984" width="29.044" height="18.085" fill="none"/>
    </clipPath>
  </defs>
  <g id="Support_img" data-name="Support img" transform="translate(-42.357 -73.356)">
    <g id="Group_870" data-name="Group 870" transform="translate(52.856 103.975)">
      <g id="Group_869" data-name="Group 869">
        <path id="Path_114553" data-name="Path 114553" d="M306.576,315.186H63.105l-.2-.234c-.112-.134-11.057-13.471-.038-29.34C73.857,269.793,76,263.5,70.187,249.343c-1.013-2.463-2.3-5.129-3.663-7.951-6.854-14.2-15.386-31.87.262-45.485q1.87-1.627,3.645-3.162c15.972-13.834,26.524-22.971,30.564-39.282,1.654-6.677,5.262-16.233,13.059-23.836,7.348-7.165,16.562-10.8,27.386-10.8,8.425,0,17.76,2.26,27.744,6.716,29.482,13.159,39.9,16.985,52.108,16.985,4.062,0,8.388-.4,14.056-.968,2.27-.227,4.6-.342,6.913-.342,14.843,0,27.72,4.555,35.328,12.5,6.026,6.29,8.864,14.562,8.434,24.589-.258,6.033-.669,11.146-1.031,15.658-1.469,18.325-2.019,25.181,11.661,36.995,19.831,17.128,32.9,48.168,10.117,83.922ZM63.734,313.867H305.852c22.064-34.915,9.3-65.19-10.06-81.908-14.186-12.251-13.58-19.819-12.115-38.1.361-4.5.77-9.6,1.028-15.61.414-9.652-2.3-17.6-8.068-23.619-7.362-7.684-19.891-12.09-34.375-12.09-2.273,0-4.555.113-6.782.335-5.706.571-10.064.974-14.187.974-12.454,0-22.964-3.851-52.646-17.1-9.815-4.381-18.968-6.6-27.206-6.6-7.234,0-31.436,2.425-39.165,33.63-4.14,16.717-14.818,25.965-30.98,39.963q-1.776,1.537-3.643,3.161c-14.887,12.953-6.6,30.121.061,43.915,1.371,2.84,2.666,5.523,3.695,8.024,6.352,15.451,3.194,22.193-7.452,37.522C54.291,300.282,62.379,312.073,63.734,313.867Z" transform="translate(-57.949 -118.83)" fill="#e3edfc"/>
      </g>
      <path id="Path_114554" data-name="Path 114554" d="M70.886,318.454s-10.444-12.409,0-27.45,12.952-21.263,7.1-35.488S56.9,220.19,74.547,204.836s28.884-24.113,33.1-41.152c5.51-22.248,25.4-43.973,64.716-26.426s43.075,17.547,63.964,15.458,49.3,5.446,48.046,34.684-6.267,36.721,10.445,51.155,32.588,43.844,9.609,79.9Z" transform="translate(-60.659 -122.757)" fill="#e3edfc"/>
    </g>
    <g id="Group_909" data-name="Group 909" transform="translate(123.322 129.149)">
      <g id="Group_874" data-name="Group 874" transform="translate(29.906 39.742)">
        <path id="Path_114555" data-name="Path 114555" d="M208.206,217.66s-10.059,62.1,28.369,62.1,29.442-64.521,29.442-64.521l-56.63,2.419" transform="translate(-207.018 -215.241)" fill="#814c4a"/>
        <g id="Group_873" data-name="Group 873" transform="translate(4.138 11.168)" opacity="0.2">
          <g id="Group_871" data-name="Group 871">
            <path id="Path_114556" data-name="Path 114556" d="M213.913,231.828s-.005.675-.015,1.857.03,2.864.093,4.879.2,4.361.43,6.862c.1,1.252.269,2.539.426,3.845.175,1.3.367,2.627.621,3.937.224,1.315.51,2.619.821,3.893.15.638.339,1.26.494,1.883.172.621.366,1.224.544,1.821q.307.885.6,1.736c.217.558.419,1.112.638,1.639s.458,1.031.676,1.524c.238.481.469.949.689,1.4.49.869.929,1.677,1.382,2.355.416.7.878,1.248,1.214,1.731.736.913,1.172,1.436,1.172,1.436l-.36-.326c-.229-.219-.6-.512-1.006-.941-.389-.446-.92-.948-1.418-1.612-.252-.328-.549-.661-.813-1.045l-.826-1.219c-.262-.438-.536-.9-.819-1.374-.267-.483-.516-1-.788-1.519-.254-.53-.494-1.084-.751-1.645-.24-.569-.456-1.16-.689-1.757-.419-1.21-.845-2.466-1.173-3.77s-.642-2.63-.883-3.97-.426-2.692-.588-4.02-.248-2.644-.318-3.915-.095-2.5-.1-3.668.026-2.266.071-3.282c.087-2.031.277-3.716.407-4.892S213.913,231.828,213.913,231.828Z" transform="translate(-213.163 -231.828)" fill="#b76a6a"/>
            <path id="Path_114557" data-name="Path 114557" d="M221.175,231.828s.041.628.112,1.727c.038.547.086,1.213.141,1.976s.129,1.62.2,2.557.184,1.949.285,3.019.229,2.2.37,3.359c.118,1.166.308,2.361.467,3.578.141,1.221.386,2.445.576,3.677.206,1.229.456,2.449.682,3.654.295,1.19.516,2.377.806,3.508.325,1.118.574,2.221.891,3.243s.64,1.982.926,2.871c.338.872.646,1.672.92,2.381.068.179.135.351.2.516l.22.464.384.82.72,1.576-.95-1.449-.494-.772-.279-.44-.255-.5c-.351-.683-.749-1.46-1.168-2.314-.378-.871-.758-1.827-1.159-2.841-.384-1.02-.715-2.12-1.077-3.252-.327-1.14-.63-2.33-.929-3.54-.245-1.22-.516-2.458-.737-3.7-.177-1.252-.41-2.5-.538-3.733-.157-1.234-.273-2.452-.359-3.633-.11-1.178-.151-2.322-.2-3.405-.06-1.082-.045-2.108-.06-3.053A59.532,59.532,0,0,1,221.175,231.828Z" transform="translate(-215.684 -231.828)" fill="#b76a6a"/>
            <path id="Path_114558" data-name="Path 114558" d="M231.835,234.359l.333,5.84c.1,1.747.219,3.785.345,5.968.072,1.089.147,2.214.224,3.359s.165,2.3.274,3.462c.091,1.159.2,2.317.322,3.453s.243,2.255.39,3.332.3,2.117.462,3.1.351,1.9.533,2.755c.2.845.389,1.617.584,2.3.212.672.386,1.267.58,1.735.174.48.337.846.453,1.094s.174.384.174.384-.083-.121-.237-.348a8.906,8.906,0,0,1-.628-1.019,16.709,16.709,0,0,1-.817-1.677l-.428-1.065q-.2-.574-.413-1.2-.192-.637-.4-1.324c-.118-.463-.241-.941-.367-1.431-.23-.988-.461-2.031-.644-3.12s-.377-2.214-.508-3.364-.266-2.318-.37-3.488-.166-2.343-.23-3.5-.086-2.291-.112-3.39c-.039-2.2-.009-4.251.06-6.007C231.54,236.691,231.835,234.359,231.835,234.359Z" transform="translate(-219.1 -232.655)" fill="#b76a6a"/>
          </g>
          <g id="Group_872" data-name="Group 872" transform="translate(33.427)">
            <path id="Path_114559" data-name="Path 114559" d="M282.8,231.828s.005.675.015,1.857-.03,2.864-.092,4.879-.2,4.361-.43,6.862c-.1,1.252-.269,2.539-.426,3.845-.176,1.3-.368,2.627-.623,3.937-.224,1.315-.509,2.619-.821,3.893-.15.638-.337,1.26-.493,1.883-.173.621-.366,1.224-.545,1.821q-.306.885-.6,1.736c-.217.558-.42,1.112-.638,1.639s-.459,1.031-.677,1.524c-.238.481-.468.949-.688,1.4-.491.869-.93,1.677-1.382,2.355-.417.7-.879,1.248-1.214,1.731-.736.913-1.172,1.436-1.172,1.436l.361-.326c.228-.219.6-.512,1.005-.941.388-.446.919-.948,1.417-1.612.253-.328.55-.661.813-1.045s.539-.794.827-1.219l.819-1.374c.266-.483.516-1,.787-1.519.255-.53.494-1.084.752-1.645.239-.569.456-1.16.689-1.757.419-1.21.846-2.466,1.172-3.77s.643-2.63.884-3.97.426-2.692.587-4.02.248-2.644.32-3.915.094-2.5.1-3.668-.026-2.266-.071-3.282c-.086-2.031-.277-3.716-.406-4.892C282.927,232.493,282.8,231.828,282.8,231.828Z" transform="translate(-266.142 -231.828)" fill="#b76a6a"/>
            <path id="Path_114560" data-name="Path 114560" d="M276.672,231.828s-.042.628-.112,1.727c-.039.547-.086,1.213-.14,1.976s-.131,1.62-.205,2.557-.183,1.949-.285,3.019-.229,2.2-.369,3.359c-.118,1.166-.307,2.361-.467,3.578-.141,1.221-.385,2.445-.576,3.677-.207,1.229-.455,2.449-.683,3.654-.294,1.19-.516,2.377-.805,3.508-.325,1.118-.575,2.221-.891,3.243s-.64,1.982-.927,2.871c-.337.872-.647,1.672-.92,2.381-.069.179-.134.351-.2.516l-.22.464-.384.82-.719,1.576s.345-.527.949-1.449c.149-.233.315-.491.494-.772.09-.141.183-.288.279-.44l.254-.5c.352-.683.749-1.46,1.168-2.314.379-.871.757-1.827,1.159-2.841.384-1.02.716-2.12,1.078-3.252.327-1.14.629-2.33.929-3.54.245-1.22.515-2.458.737-3.7.178-1.252.411-2.5.539-3.733.156-1.234.273-2.452.358-3.633.111-1.178.151-2.322.2-3.405s.046-2.108.059-3.053A59.45,59.45,0,0,0,276.672,231.828Z" transform="translate(-264.755 -231.828)" fill="#b76a6a"/>
            <path id="Path_114561" data-name="Path 114561" d="M267.482,234.359s-.135,2.336-.334,5.84c-.1,1.747-.219,3.785-.345,5.968-.072,1.089-.148,2.214-.224,3.359s-.166,2.3-.275,3.462c-.09,1.159-.2,2.317-.321,3.453s-.243,2.255-.39,3.332-.3,2.117-.462,3.1-.351,1.9-.533,2.755c-.2.845-.389,1.617-.584,2.3-.213.672-.387,1.267-.579,1.735-.175.48-.338.846-.454,1.094l-.174.384s.083-.121.236-.348a9.088,9.088,0,0,0,.629-1.019,16.992,16.992,0,0,0,.817-1.677q.2-.5.428-1.065l.413-1.2q.191-.637.4-1.324c.117-.463.24-.941.366-1.431.231-.988.461-2.031.646-3.12s.376-2.214.507-3.364.267-2.318.37-3.488.166-2.343.231-3.5.086-2.291.11-3.39c.04-2.2.011-4.251-.059-6.007C267.775,236.691,267.481,234.359,267.482,234.359Z" transform="translate(-262.808 -232.655)" fill="#b76a6a"/>
          </g>
        </g>
      </g>
      <g id="Group_897" data-name="Group 897" transform="translate(0 2.53)">
        <g id="Group_894" data-name="Group 894" transform="translate(0 3.717)">
          <g id="Group_893" data-name="Group 893">
            <g id="Group_891" data-name="Group 891" transform="translate(25.962)">
              <g id="Group_876" data-name="Group 876" transform="translate(21.155 57.795)">
                <g id="Group_875" data-name="Group 875" transform="translate(0 0)">
                  <path id="Path_114562" data-name="Path 114562" d="M251.578,251.33H238.265l-5.687,23.1,12.346,17.12,12.344-18.535Z" transform="translate(-232.578 -251.33)" fill="#ffae8a"/>
                </g>
                <path id="Path_114563" data-name="Path 114563" d="M253.664,251.33H240.351l-1.386,5.63c3.936,3.96,12.115,6.582,17.158,3.743Z" transform="translate(-234.665 -251.33)" fill="#f79b77"/>
              </g>
              <g id="Group_880" data-name="Group 880" transform="translate(2.739)">
                <g id="Group_879" data-name="Group 879">
                  <g id="Group_877" data-name="Group 877" transform="translate(0 30.832)">
                    <path id="Path_114564" data-name="Path 114564" d="M212.376,215.495s-4.008-6.448-6.413-3.383,1.469,10.455,6.413,9.195Z" transform="translate(-205.229 -211.286)" fill="#ffae8a"/>
                    <path id="Path_114565" data-name="Path 114565" d="M285.987,215.495s4-6.448,6.407-3.383-1.469,10.455-6.407,9.195Z" transform="translate(-231.61 -211.286)" fill="#ffae8a"/>
                  </g>
                  <g id="Group_878" data-name="Group 878" transform="translate(5.996)">
                    <path id="Path_114566" data-name="Path 114566" d="M238.98,165.495c-27.254,0-25.114,34.82-24.582,43.308s5.743,11.407,12.558,16.753,12.024,4.779,12.024,4.779,5.212.563,12.025-4.779,12.022-8.264,12.552-16.753S266.237,165.495,238.98,165.495Z" transform="translate(-214.133 -165.495)" fill="#ffae8a"/>
                    <path id="Path_114567" data-name="Path 114567" d="M263.719,211.312a103.271,103.271,0,0,1-.21,10.611c-.531,8.49-5.74,11.407-12.552,16.752s-12.026,4.781-12.026,4.781-5.212.562-12.024-4.781-12.022-8.262-12.557-16.752c-.028-.433-.059-.937-.09-1.5.055,1.344.125,2.483.18,3.346.534,8.489,5.743,11.407,12.558,16.753s12.024,4.779,12.024,4.779,5.212.563,12.025-4.779,12.022-8.264,12.552-16.753A99.161,99.161,0,0,0,263.719,211.312Z" transform="translate(-214.175 -180.462)" fill="#ffbca1" opacity="0.5"/>
                  </g>
                </g>
              </g>
              <g id="Group_881" data-name="Group 881" transform="translate(0 70.198)">
                <path id="Path_114568" data-name="Path 114568" d="M269.179,275.444l-24.611-5.694c0,7.708-8.674,7.685-9.374,7.545v-.01l-.025,0-.025,0v.01c-.7.141-10.2.163-10.2-7.545l-23.789,5.694,5.074,23.48s-6.535,14.312,4.851,24.433l2.09,34.9h44.707l1.37-34.9c11.385-10.121,4.853-24.433,4.853-24.433Z" transform="translate(-201.16 -269.75)" fill="#fac849"/>
                <path id="Path_114569" data-name="Path 114569" d="M245.38,279.671v-.012l.032.007.032-.007v.012c.877.177,11.7.2,11.83-9.352l-2.462-.57c0,7.708-8.674,7.685-9.374,7.545v-.01l-.025,0-.025,0v.01c-.7.141-10.2.163-10.2-7.545l-2.675.64C232.72,279.873,244.5,279.849,245.38,279.671Z" transform="translate(-211.403 -269.75)" fill="#f9b212"/>
              </g>
              <g id="Group_889" data-name="Group 889" transform="translate(14.215 28.735)">
                <g id="Group_884" data-name="Group 884">
                  <g id="Group_882" data-name="Group 882">
                    <path id="Path_114570" data-name="Path 114570" d="M261.236,210.906s-.169-1.969.506-2.361,6.669-.593,8.864,0,3.122,3.319,3.122,3.319-.793-1.135-4.173-1.487C267.075,210.121,262.079,211.3,261.236,210.906Z" transform="translate(-234.994 -208.171)" fill="#aa6868"/>
                    <path id="Path_114571" data-name="Path 114571" d="M234.765,210.906s.169-1.969-.506-2.361-6.667-.593-8.861,0-3.126,3.319-3.126,3.319.8-1.135,4.173-1.487C228.927,210.121,233.922,211.3,234.765,210.906Z" transform="translate(-222.271 -208.171)" fill="#aa6868"/>
                  </g>
                  <g id="Group_883" data-name="Group 883" transform="translate(5 6.795)">
                    <path id="Path_114572" data-name="Path 114572" d="M271.212,220.887c0,1.45-.8,2.627-1.78,2.627s-1.78-1.177-1.78-2.627.8-2.625,1.78-2.625S271.212,219.437,271.212,220.887Z" transform="translate(-242.096 -218.262)" fill="#111b24"/>
                    <path id="Path_114573" data-name="Path 114573" d="M233.256,220.887c0,1.45-.8,2.627-1.78,2.627s-1.779-1.177-1.779-2.627.8-2.625,1.779-2.625S233.256,219.437,233.256,220.887Z" transform="translate(-229.697 -218.262)" fill="#111b24"/>
                  </g>
                </g>
                <g id="Group_888" data-name="Group 888" transform="translate(10.157 22.191)">
                  <path id="Path_114574" data-name="Path 114574" d="M239.345,242.23s2.322,5.5,7.87,5.5,7.856-5.5,7.856-5.5S248.591,245.129,239.345,242.23Z" transform="translate(-238.005 -241.488)" fill="#f4472a"/>
                  <path id="Path_114575" data-name="Path 114575" d="M239.371,242.286s3.821,3.153,7.955,3.153,7.664-3.153,7.664-3.153S248.505,245.937,239.371,242.286Z" transform="translate(-238.014 -241.506)" fill="#fff"/>
                  <g id="Group_887" data-name="Group 887">
                    <g id="Group_885" data-name="Group 885" transform="translate(1.34 0.445)">
                      <path id="Path_114576" data-name="Path 114576" d="M255.291,241.937s-5.469-.335-6.524,0a4.172,4.172,0,0,1-1.448.36,4.069,4.069,0,0,1-1.448-.36c-1.058-.335-6.527,0-6.527,0C245.781,245.148,254.1,243.143,255.291,241.937Z" transform="translate(-239.345 -241.788)" fill="#f4472a"/>
                    </g>
                    <g id="Group_886" data-name="Group 886">
                      <path id="Path_114577" data-name="Path 114577" d="M237.41,241.3c5.46,2.819,12.91,3.01,18.314,0,.121-.067,0-.225-.123-.156-5.336,2.973-12.676,2.785-18.071,0-.128-.067-.248.091-.121.156Z" transform="translate(-237.355 -241.127)" fill="#f4472a"/>
                    </g>
                  </g>
                </g>
                <path id="Path_114578" data-name="Path 114578" d="M246.808,234.359l.992.338c.285.083.6.187.92.257.16.038.325.062.486.092a3.479,3.479,0,0,0,.485.036,2.546,2.546,0,0,0,.475-.013,4.435,4.435,0,0,0,.469-.068c.156-.025.3-.088.455-.121a4.2,4.2,0,0,0,.428-.146c.133-.054.273-.087.382-.145s.217-.093.3-.128c.178-.068.294-.1.294-.1a2.666,2.666,0,0,1-.108.288,2.361,2.361,0,0,1-.42.7,2.246,2.246,0,0,1-.39.4,3.31,3.31,0,0,1-.535.352,2.8,2.8,0,0,1-.665.235,2.665,2.665,0,0,1-.732.069,3.026,3.026,0,0,1-.719-.107,3.3,3.3,0,0,1-.636-.254,3.206,3.206,0,0,1-.918-.719A2.5,2.5,0,0,1,246.808,234.359Z" transform="translate(-230.287 -216.726)" fill="#f89675"/>
              </g>
              <g id="Group_890" data-name="Group 890" transform="translate(11.787 40.996)" opacity="0.1">
                <path id="Path_114579" data-name="Path 114579" d="M228.581,230.744c0,2.41-2.219,4.362-4.958,4.362s-4.958-1.953-4.958-4.362,2.219-4.363,4.958-4.363S228.581,228.335,228.581,230.744Z" transform="translate(-218.666 -226.381)" fill="#f4472a"/>
                <path id="Path_114580" data-name="Path 114580" d="M279.535,230.744c0,2.41-2.22,4.362-4.958,4.362s-4.957-1.953-4.957-4.362,2.219-4.363,4.957-4.363S279.535,228.335,279.535,230.744Z" transform="translate(-235.311 -226.381)" fill="#f4472a"/>
              </g>
            </g>
            <path id="Path_114581" data-name="Path 114581" d="M294.187,278.206A24.052,24.052,0,0,1,307.2,291.252c4.217,10.027,14.53,40.247,12.851,46.964-1.8,7.215-36.7,21.108-36.7,21.108l-5.278-9.114s21.588-15.112,25.184-17.989L289.23,301.686Z" transform="translate(-200.324 -202.315)" fill="#f4b425"/>
            <path id="Path_114582" data-name="Path 114582" d="M188.649,278.206a24.05,24.05,0,0,0-13.011,13.046c-4.217,10.027-14.531,40.247-12.852,46.964,1.8,7.215,36.7,21.108,36.7,21.108l5.278-9.114S183.174,335.1,179.576,332.22l14.062-30.534Z" transform="translate(-162.602 -202.315)" fill="#f4b425"/>
            <path id="Path_114583" data-name="Path 114583" d="M253.718,347.353c-4.764-1.476-9.269-2.723-11.723-2.723v0c-2.456,0-6.96,1.247-11.724,2.723a17.023,17.023,0,0,1-8.169.683c3.383,2.1,8.063,2.388,12.706.68a22.237,22.237,0,0,1,7.186-1.474h0a27.071,27.071,0,0,1,7.185,1.474c4.73,1.594,9.323,1.415,12.705-.68A17.015,17.015,0,0,1,253.718,347.353Z" transform="translate(-182.039 -224.013)" fill="#f4b425"/>
            <g id="Group_892" data-name="Group 892" transform="translate(29.826 32.271)">
              <path id="Path_114584" data-name="Path 114584" d="M293.124,214.089c-1.016-.887-1.854-.806-2.532-.234a.417.417,0,0,0-.183.17c-1.186,1.2-1.836,3.907-2.042,5.173-.084.52.711.744.8.22.141-.871.648-3.429,1.574-4.57a3.119,3.119,0,0,1-.019,3.174c-.277.454.436.869.713.415a3.947,3.947,0,0,0-.037-4.094,1.128,1.128,0,0,1,1.147.33C292.939,215.02,293.525,214.439,293.124,214.089Z" transform="translate(-233.51 -213.423)" fill="#f4885d"/>
              <path id="Path_114585" data-name="Path 114585" d="M207.034,214.089c1.015-.887,1.854-.806,2.532-.234a.415.415,0,0,1,.184.17c1.186,1.2,1.836,3.907,2.042,5.173.085.52-.71.744-.8.22-.141-.871-.648-3.429-1.574-4.57a3.117,3.117,0,0,0,.019,3.174c.277.454-.436.869-.713.415a3.946,3.946,0,0,1,.037-4.094,1.129,1.129,0,0,0-1.148.33C207.218,215.02,206.632,214.439,207.034,214.089Z" transform="translate(-206.899 -213.423)" fill="#f4885d"/>
            </g>
          </g>
          <path id="Path_114586" data-name="Path 114586" d="M273.517,388.276s-7.583-.114-8.792.986-4.839,7.808-4.288,8.468,9.127-.88,11.325-1.759,5.111-1.9,5.111-1.9Z" transform="translate(-194.544 -238.27)" fill="#ffae8a"/>
          <path id="Path_114587" data-name="Path 114587" d="M221.319,388.276s7.582-.114,8.792.986,4.839,7.808,4.288,8.468-9.127-.88-11.326-1.759-5.109-1.9-5.109-1.9Z" transform="translate(-180.687 -238.27)" fill="#ffae8a"/>
        </g>
        <g id="Group_896" data-name="Group 896" transform="translate(31.094)">
          <path id="Path_114588" data-name="Path 114588" d="M212.418,197.187s13.1-6.754,16.687-19.62c0,0,10.72,18.129,32.94,19.62,0,0,2.134-2.962,4.535-2.384,0,0,1.524-34.828-29.43-34.828s-28.311,34.561-28.311,34.561A8.486,8.486,0,0,1,212.418,197.187Z" transform="translate(-208.782 -159.975)" fill="#814c4a"/>
          <g id="Group_895" data-name="Group 895" transform="translate(3.901 3.848)" opacity="0.2">
            <path id="Path_114589" data-name="Path 114589" d="M244.95,177.775s.306.389.871,1.04,1.377,1.569,2.4,2.621c.5.535,1.077,1.082,1.67,1.673s1.264,1.168,1.928,1.791c.7.586,1.391,1.225,2.149,1.809q.558.449,1.125.9c.38.3.784.568,1.175.854s.772.588,1.175.854l1.207.788c.789.539,1.607,1,2.392,1.461.775.481,1.569.858,2.309,1.248l1.085.558,1.041.461c.673.286,1.277.593,1.831.812l1.449.547,1.264.5s-.485-.083-1.336-.251l-1.535-.32c-.588-.141-1.234-.362-1.947-.584l-1.111-.355c-.376-.142-.755-.312-1.151-.477a23.111,23.111,0,0,1-2.452-1.12,27.655,27.655,0,0,1-2.518-1.407l-1.256-.793c-.418-.269-.815-.574-1.223-.862s-.809-.586-1.2-.9l-1.142-.945a13.664,13.664,0,0,1-1.093-.966l-1.034-.977c-.661-.661-1.283-1.314-1.846-1.958s-1.085-1.26-1.533-1.858c-.467-.579-.849-1.147-1.2-1.642s-.62-.946-.843-1.319C245.163,178.223,244.95,177.775,244.95,177.775Z" transform="translate(-224.498 -169.638)" fill="#b76a6a"/>
            <path id="Path_114590" data-name="Path 114590" d="M249.685,170.916s1.294,1.163,3.271,2.82l1.6,1.326,1.808,1.45c1.277.974,2.621,2.033,4.029,3l1.038.75,1.055.7c.7.472,1.386.929,2.068,1.351s1.335.839,1.97,1.213,1.227.742,1.8,1.044l1.535.865,1.209.624c.669.355,1.05.571,1.05.571s-.418-.111-1.148-.328l-1.314-.406c-.5-.18-1.056-.4-1.662-.644-.3-.125-.624-.244-.945-.387l-.985-.471c-.677-.322-1.392-.663-2.1-1.081-.712-.4-1.459-.8-2.171-1.285l-1.091-.7-1.073-.747c-.714-.5-1.4-1.043-2.077-1.569s-1.3-1.1-1.93-1.619c-1.215-1.093-2.31-2.153-3.188-3.12-.893-.951-1.578-1.8-2.046-2.4S249.685,170.916,249.685,170.916Z" transform="translate(-226.045 -167.397)" fill="#b76a6a"/>
            <path id="Path_114591" data-name="Path 114591" d="M252.626,165.69a22.275,22.275,0,0,1,4.24.648c.625.164,1.309.317,2.01.56l1.086.351,1.113.429c.761.281,1.514.654,2.286,1.015.754.4,1.518.816,2.263,1.263l1.079.73.537.364.506.4a17.621,17.621,0,0,1,1.894,1.658c.287.291.578.569.848.853a11.011,11.011,0,0,1,.736.889,12.537,12.537,0,0,1,1.229,1.7c.339.558.634,1.075.893,1.53.219.481.38.913.521,1.261.276.7.421,1.1.421,1.1s-.247-.357-.654-.98c-.2-.311-.443-.688-.72-1.12-.327-.4-.692-.851-1.073-1.346a17.435,17.435,0,0,0-1.355-1.5,18.675,18.675,0,0,0-1.634-1.539,23.378,23.378,0,0,0-1.875-1.5l-.487-.375-.521-.338-1.043-.679c-.706-.442-1.432-.854-2.151-1.252-.742-.352-1.436-.78-2.161-1.083-.358-.164-.708-.327-1.051-.486l-1.023-.435c-.664-.288-1.307-.522-1.895-.76-1.188-.439-2.189-.793-2.9-1.017S252.626,165.69,252.626,165.69Z" transform="translate(-227.006 -165.69)" fill="#b76a6a"/>
            <path id="Path_114592" data-name="Path 114592" d="M229.42,177.775s-.072.39-.26,1.057a25.339,25.339,0,0,1-.937,2.712,33.518,33.518,0,0,1-1.744,3.67c-.384.637-.73,1.329-1.176,1.972-.428.656-.864,1.32-1.342,1.958-.24.317-.475.638-.72.949s-.507.608-.757.909c-.483.619-1.039,1.158-1.551,1.7a19.808,19.808,0,0,1-1.56,1.479l-.743.661c-.256.194-.5.383-.741.564-.475.36-.908.689-1.308.959-.413.253-.771.474-1.067.657-.595.354-.938.545-.938.545s.281-.283.78-.757l.906-.838,1.124-1.135.642-.643.656-.718c.451-.49.931-1,1.392-1.561s.955-1.121,1.423-1.722l.717-.9.683-.935c.476-.609.914-1.247,1.342-1.877s.837-1.258,1.242-1.862c.374-.623.767-1.207,1.106-1.783s.67-1.114.955-1.624C228.709,179.19,229.42,177.775,229.42,177.775Z" transform="translate(-214.576 -169.638)" fill="#b76a6a"/>
            <path id="Path_114593" data-name="Path 114593" d="M233.04,167.487s-.1.024-.275.085-.434.161-.76.276c-.319.139-.712.284-1.143.5-.438.2-.91.459-1.425.737-.262.129-.51.312-.78.475s-.551.324-.817.529l-.834.6-.832.672c-.585.431-1.083,1-1.652,1.5-.53.544-1.046,1.122-1.545,1.71-.461.621-.98,1.2-1.392,1.845-.393.654-.866,1.248-1.215,1.891s-.7,1.258-1.035,1.844l-.815,1.721-.371.766c-.111.247-.2.488-.291.711-.185.448-.347.839-.48,1.159-.274.644-.444,1.011-.444,1.011s.062-.394.193-1.084c.069-.345.154-.764.251-1.245.055-.239.1-.5.17-.766.085-.261.173-.537.265-.825.187-.575.384-1.2.626-1.857.284-.634.582-1.309.912-2a10.087,10.087,0,0,1,.56-1.019c.2-.34.4-.682.615-1.022.421-.685.955-1.312,1.434-1.975.541-.615,1.1-1.217,1.674-1.784a18.814,18.814,0,0,1,1.828-1.507c.315-.219.611-.455.927-.647l.937-.543a15.4,15.4,0,0,1,1.783-.848,13.257,13.257,0,0,1,1.578-.528,11.3,11.3,0,0,1,1.247-.279A7.838,7.838,0,0,1,233.04,167.487Z" transform="translate(-215.347 -166.277)" fill="#b76a6a"/>
          </g>
        </g>
      </g>
      <g id="Group_899" data-name="Group 899" transform="translate(29.235)">
        <g id="Group_898" data-name="Group 898">
          <path id="Path_114594" data-name="Path 114594" d="M209.979,188.772l-3.958-.017c0-.326.5-32.537,30.764-32.537,30.181,0,30.531,32.221,30.531,32.546h-3.958c0-1.165-.37-28.587-26.572-28.587-11.049,0-18.9,4.76-23.346,14.15A38.43,38.43,0,0,0,209.979,188.772Z" transform="translate(-206.021 -156.218)" fill="#5d93f4"/>
        </g>
        <path id="Path_114595" data-name="Path 114595" d="M210.893,190a38.43,38.43,0,0,1,3.46-14.445c4.442-9.39,12.3-14.15,23.346-14.15,26.2,0,26.569,27.422,26.572,28.587h2.078c-.19-4.121-2.434-30.016-28.658-30.016-26.316,0-28.668,25.923-28.874,30.016Z" transform="translate(-206.934 -157.445)" fill="#1a65d3" opacity="0.5"/>
      </g>
      <g id="Group_908" data-name="Group 908" transform="translate(25.936 30.46)">
        <g id="Group_902" data-name="Group 902" transform="translate(46.951 17.42)">
          <g id="Group_900" data-name="Group 900" transform="translate(2.017)">
            <path id="Path_114596" data-name="Path 114596" d="M285.015,227.543q-5.425,4.64-10.848,9.279c-.877.75.233,2.163,1.115,1.408l10.847-9.28c.877-.749-.232-2.163-1.114-1.407Z" transform="translate(-273.847 -227.328)" fill="#5d93f4"/>
          </g>
          <g id="Group_901" data-name="Group 901" transform="translate(0 6.676)">
            <path id="Path_114597" data-name="Path 114597" d="M277.33,237.975a1.94,1.94,0,0,1-.312,2.725L274,243.1a1.938,1.938,0,0,1-2.724-.311h0a1.939,1.939,0,0,1,.311-2.724l3.022-2.4a1.939,1.939,0,0,1,2.724.31Z" transform="translate(-270.851 -237.243)" fill="#1a65d3"/>
            <path id="Path_114598" data-name="Path 114598" d="M277.677,237.979a1.935,1.935,0,0,0-1.841-.7,1.987,1.987,0,0,1,.293.294,1.938,1.938,0,0,1-.311,2.724l-3.022,2.4a1.924,1.924,0,0,1-.883.385,1.937,1.937,0,0,0,2.43.017l3.022-2.4A1.94,1.94,0,0,0,277.677,237.979Z" transform="translate(-271.198 -237.247)" fill="#0952aa" opacity="0.5"/>
          </g>
        </g>
        <g id="Group_907" data-name="Group 907">
          <g id="Group_904" data-name="Group 904">
            <g id="Group_903" data-name="Group 903">
              <path id="Path_114599" data-name="Path 114599" d="M209.189,201.456H207.7v.767c-1.522,1.609-2.6,5.6-2.6,10.275s1.08,8.665,2.6,10.274v.766h1.49c2.26,0,4.091-4.944,4.091-11.041S211.448,201.456,209.189,201.456Z" transform="translate(-202.42 -201.456)" fill="#1a65d3"/>
              <path id="Path_114600" data-name="Path 114600" d="M206.4,201.456a1.811,1.811,0,0,0-1.06.388c-1.541.813-4.219,3.285-4.219,10.654,0,6.629,2.167,9.21,3.724,10.211a2.142,2.142,0,0,0,1.555.83c2.26,0,4.092-4.944,4.092-11.041S208.66,201.456,206.4,201.456Z" transform="translate(-201.121 -201.456)" fill="#5d93f4"/>
              <path id="Path_114601" data-name="Path 114601" d="M208.365,202.152a20.753,20.753,0,0,1,1.715,8.976c0,6.1-1.831,11.041-4.091,11.041a2.139,2.139,0,0,1-1.554-.83,5.653,5.653,0,0,1-.9-.722,6.482,6.482,0,0,0,2.1,2.318,2.142,2.142,0,0,0,1.555.83c2.26,0,4.092-4.944,4.092-11.041C211.281,207.73,210.052,203.515,208.365,202.152Z" transform="translate(-201.911 -201.683)" fill="#814c4a" opacity="0.2"/>
            </g>
            <path id="Path_114602" data-name="Path 114602" d="M205.613,205.862l-.126.551c-.073.348-.173.829-.277,1.4-.046.288-.109.585-.156.91s-.107.654-.154,1-.088.708-.144,1.067c-.041.364-.081.735-.123,1.1s-.067.746-.1,1.114c-.017.37-.06.735-.084,1.091s-.042.7-.072,1.037-.04.654-.058.947c-.063.6-.075,1.1-.121,1.462s-.074.578-.074.578-.09-.178-.218-.506a9.52,9.52,0,0,1-.446-1.4c-.068-.3-.145-.627-.2-.98s-.094-.73-.13-1.122-.034-.8-.037-1.219.042-.838.067-1.261c.054-.419.108-.84.187-1.245a11.805,11.805,0,0,1,.294-1.169,8.966,8.966,0,0,1,.376-1.041,8.76,8.76,0,0,1,.424-.867,6.158,6.158,0,0,1,.807-1.117A2.437,2.437,0,0,1,205.613,205.862Z" transform="translate(-201.764 -202.895)" fill="#fff" opacity="0.2"/>
          </g>
          <g id="Group_906" data-name="Group 906" transform="translate(56.44)">
            <g id="Group_905" data-name="Group 905">
              <path id="Path_114603" data-name="Path 114603" d="M289.034,201.456h1.491v.767c1.522,1.609,2.6,5.6,2.6,10.275s-1.08,8.665-2.6,10.274v.766h-1.491c-2.26,0-4.091-4.944-4.091-11.041S286.774,201.456,289.034,201.456Z" transform="translate(-284.943 -201.456)" fill="#1a65d3"/>
              <path id="Path_114604" data-name="Path 114604" d="M291.248,201.456a1.812,1.812,0,0,1,1.06.388c1.541.813,4.218,3.285,4.218,10.654,0,6.629-2.167,9.21-3.724,10.211a2.141,2.141,0,0,1-1.555.83c-2.26,0-4.092-4.944-4.092-11.041S288.988,201.456,291.248,201.456Z" transform="translate(-285.666 -201.456)" fill="#5d93f4"/>
              <path id="Path_114605" data-name="Path 114605" d="M290.072,202.152a20.754,20.754,0,0,0-1.715,8.976c0,6.1,1.832,11.041,4.092,11.041a2.141,2.141,0,0,0,1.554-.83,5.653,5.653,0,0,0,.9-.722,6.481,6.481,0,0,1-2.1,2.318,2.141,2.141,0,0,1-1.555.83c-2.26,0-4.092-4.944-4.092-11.041C287.156,207.73,288.385,203.515,290.072,202.152Z" transform="translate(-285.666 -201.683)" fill="#814c4a" opacity="0.2"/>
            </g>
            <path id="Path_114606" data-name="Path 114606" d="M295.356,205.862s.046.2.127.551.174.829.276,1.4c.046.288.11.585.156.91s.107.654.155,1,.088.708.144,1.067c.04.364.082.735.121,1.1s.069.746.1,1.114c.017.37.059.735.084,1.091s.042.7.072,1.037.041.654.059.947c.061.6.075,1.1.121,1.462s.073.578.073.578.09-.178.218-.506a9.416,9.416,0,0,0,.447-1.4c.067-.3.144-.627.2-.98s.093-.73.13-1.122.035-.8.037-1.219-.042-.838-.068-1.261c-.054-.419-.107-.84-.186-1.245a11.808,11.808,0,0,0-.294-1.169,9.23,9.23,0,0,0-.376-1.041,8.614,8.614,0,0,0-.424-.867,6.194,6.194,0,0,0-.807-1.117A2.417,2.417,0,0,0,295.356,205.862Z" transform="translate(-288.345 -202.895)" fill="#fff" opacity="0.2"/>
          </g>
        </g>
      </g>
    </g>
    <g id="Group_910" data-name="Group 910" transform="translate(54.795 299.671)">
      <rect id="Rectangle_167981" data-name="Rectangle 167981" width="235.517" height="11.563" transform="translate(10.723)" fill="#5d93f4"/>
      <path id="Path_114607" data-name="Path 114607" d="M317.792,412.616a3.233,3.233,0,0,1-3.3,3.145H64.127a3.149,3.149,0,1,1,0-6.29H314.494A3.233,3.233,0,0,1,317.792,412.616Z" transform="translate(-60.829 -409.471)" fill="#2d80e2"/>
    </g>
    <path id="Path_114608" data-name="Path 114608" d="M281.649,403.986a2.785,2.785,0,0,1-2.786,2.784H167.878a2.784,2.784,0,0,1-2.784-2.784h0a2.785,2.785,0,0,1,2.784-2.786H278.863a2.787,2.787,0,0,1,2.786,2.786Z" transform="translate(-40.095 -107.098)" fill="#184a7c"/>
    <g id="Group_912" data-name="Group 912" transform="translate(133.796 236.028)">
      <g id="Group_911" data-name="Group 911" transform="translate(0 0)">
        <path id="Rectangle_167982" data-name="Rectangle 167982" d="M7.84,0H91.122a7.839,7.839,0,0,1,7.839,7.839V51.15a7.838,7.838,0,0,1-7.838,7.838H7.839A7.839,7.839,0,0,1,0,51.149V7.84A7.84,7.84,0,0,1,7.84,0Z" fill="#1d5393"/>
        <path id="Path_114609" data-name="Path 114609" d="M253.655,356.25a3.9,3.9,0,1,1-3.9-3.9A3.9,3.9,0,0,1,253.655,356.25Z" transform="translate(-200.27 -327.167)" fill="#5d93f4"/>
      </g>
      <path id="Path_114610" data-name="Path 114610" d="M273.3,314.95h-19.04c-1.114,35.838-49.89,52.715-71.627,58.467a5.223,5.223,0,0,0,2.262.521H273.3a5.3,5.3,0,0,0,5.278-5.279V320.228A5.294,5.294,0,0,0,273.3,314.95Z" transform="translate(-179.621 -314.95)" fill="#114068" opacity="0.6"/>
    </g>
    <g id="Group_949" data-name="Group 949" transform="translate(74.32 76.963)">
      <g id="Group_914" data-name="Group 914" transform="translate(0 48.961)">
        <path id="Path_114611" data-name="Path 114611" d="M125.855,151.429H96.31a6.483,6.483,0,0,0-6.483,6.483v20.922a6.482,6.482,0,0,0,6.483,6.483h14.422l8.26,6.049v-6.049h6.863a6.483,6.483,0,0,0,6.483-6.483V157.912A6.483,6.483,0,0,0,125.855,151.429Z" transform="translate(-89.827 -151.429)" fill="#5d93f4"/>
        <g id="Group_913" data-name="Group 913" transform="translate(5.213 7.271)">
          <path id="Path_114612" data-name="Path 114612" d="M114.677,163.218a.99.99,0,0,1-.99.99H98.559a.99.99,0,0,1-.99-.99h0a.99.99,0,0,1,.99-.99h15.127a.99.99,0,0,1,.99.99Z" transform="translate(-97.569 -162.228)" fill="#a9d0ff"/>
          <path id="Path_114613" data-name="Path 114613" d="M130.885,171.242a.99.99,0,0,1-.99.99H98.559a.99.99,0,0,1-.99-.99h0a.99.99,0,0,1,.99-.99h31.335a.99.99,0,0,1,.99.99Z" transform="translate(-97.569 -164.849)" fill="#a9d0ff"/>
          <path id="Path_114614" data-name="Path 114614" d="M130.885,179.265a.989.989,0,0,1-.99.99H98.559a.989.989,0,0,1-.99-.99h0a.99.99,0,0,1,.99-.99h31.335a.99.99,0,0,1,.99.99Z" transform="translate(-97.569 -167.47)" fill="#a9d0ff"/>
          <path id="Path_114615" data-name="Path 114615" d="M125.482,187.289a.99.99,0,0,1-.99.99H98.559a.99.99,0,0,1-.99-.99h0a.99.99,0,0,1,.99-.99h25.933a.99.99,0,0,1,.99.99Z" transform="translate(-97.569 -170.091)" fill="#a9d0ff"/>
        </g>
        <path id="Path_114616" data-name="Path 114616" d="M131.506,151.429h-.53c.271,17.488-13.395,28.239-23.851,33.889h9.258l8.26,5.389v-5.389h6.863a6.483,6.483,0,0,0,6.483-6.483V157.912A6.483,6.483,0,0,0,131.506,151.429Z" transform="translate(-95.478 -151.429)" fill="#114068" opacity="0.1"/>
      </g>
      <g id="Group_921" data-name="Group 921" transform="translate(0.739 132.189)">
        <g id="Group_920" data-name="Group 920" transform="translate(0 0)">
          <rect id="Rectangle_167983" data-name="Rectangle 167983" width="29.044" height="18.085" fill="#fac849"/>
          <path id="Path_114617" data-name="Path 114617" d="M90.924,275.035h29.044L105.447,287.68Z" transform="translate(-90.924 -275.035)" fill="#f4b425"/>
          <g id="Group_919" data-name="Group 919">
            <g id="Group_918" data-name="Group 918" clip-path="url(#clip-path)">
              <g id="Group_917" data-name="Group 917" transform="translate(-0.666 4.153)">
                <g id="Group_915" data-name="Group 915">
                  <path id="Path_114618" data-name="Path 114618" d="M91.083,295.72l9.836-13.087c.591-.785-.369-1.959-.962-1.169L90.12,294.549c-.591.786.369,1.959.963,1.171Z" transform="translate(-89.935 -281.202)" fill="#f4b425"/>
                </g>
                <g id="Group_916" data-name="Group 916" transform="translate(18.986)">
                  <path id="Path_114619" data-name="Path 114619" d="M129.117,294.549q-4.92-6.542-9.837-13.085c-.594-.79-1.555.384-.964,1.169q4.92,6.543,9.838,13.087c.593.79,1.553-.384.962-1.171Z" transform="translate(-118.132 -281.202)" fill="#f4b425"/>
                </g>
              </g>
            </g>
          </g>
        </g>
        <path id="Path_114620" data-name="Path 114620" d="M105.964,293.121h18.918V275.035H116.3C117.971,284.035,112.1,289.718,105.964,293.121Z" transform="translate(-95.837 -275.035)" fill="#114068" opacity="0.1"/>
      </g>
      <g id="Group_924" data-name="Group 924" transform="translate(158.132 102.251)">
        <g id="Group_923" data-name="Group 923" transform="translate(0)">
          <path id="Path_114621" data-name="Path 114621" d="M353.887,230.572H327.809a3.131,3.131,0,0,0-3.13,3.132v10.1a3.131,3.131,0,0,0,3.13,3.132h12.869l3.989,4.832v-4.832h9.219a3.131,3.131,0,0,0,3.131-3.132V233.7A3.131,3.131,0,0,0,353.887,230.572Z" transform="translate(-324.679 -230.572)" fill="#fac849"/>
          <g id="Group_922" data-name="Group 922" transform="translate(6.115 6.1)">
            <path id="Path_114622" data-name="Path 114622" d="M337.34,241.422a1.79,1.79,0,1,1-1.79-1.791A1.79,1.79,0,0,1,337.34,241.422Z" transform="translate(-333.76 -239.631)" fill="#fff"/>
            <path id="Path_114623" data-name="Path 114623" d="M349.615,241.422a1.79,1.79,0,1,1-1.79-1.791A1.791,1.791,0,0,1,349.615,241.422Z" transform="translate(-337.77 -239.631)" fill="#fff"/>
            <path id="Path_114624" data-name="Path 114624" d="M361.888,241.422a1.79,1.79,0,1,1-1.79-1.791A1.79,1.79,0,0,1,361.888,241.422Z" transform="translate(-341.779 -239.631)" fill="#fff"/>
          </g>
        </g>
        <path id="Path_114625" data-name="Path 114625" d="M358.359,230.572h-3.831c.568,9.21-8.477,13.984-16.159,16.369h6.781l3.989,4.832v-4.832h9.219a3.131,3.131,0,0,0,3.131-3.132V233.7A3.131,3.131,0,0,0,358.359,230.572Z" transform="translate(-329.151 -230.572)" fill="#114068" opacity="0.1"/>
      </g>
      <g id="Group_927" data-name="Group 927" transform="translate(145.241 33.042)">
        <g id="Group_926" data-name="Group 926">
          <path id="Path_114626" data-name="Path 114626" d="M345.113,143.346c-.632-.314-1.879-.037-3.03.347a16.523,16.523,0,0,0-1.4-3.373c1.082-.543,2.155-1.226,2.394-1.889.57-1.6-2.452-4.621-2.452-4.621s-3-3-4.621-2.45c-.669.224-1.353,1.3-1.9,2.386a16.558,16.558,0,0,0-3.373-1.4,5.032,5.032,0,0,0,.356-3.029c-.727-1.535-5-1.535-5-1.535s-4.239,0-5,1.535c-.313.632-.036,1.878.347,3.029a16.506,16.506,0,0,0-3.373,1.4c-.543-1.081-1.226-2.155-1.889-2.393-1.6-.571-4.621,2.452-4.621,2.452s-3,3-2.45,4.62c.224.669,1.3,1.353,2.386,1.9a16.5,16.5,0,0,0-1.4,3.374,5.032,5.032,0,0,0-3.031-.357c-1.534.727-1.534,5-1.534,5s0,4.239,1.534,5c.633.314,1.879.037,3.031-.348a16.5,16.5,0,0,0,1.4,3.374c-1.08.543-2.155,1.225-2.392,1.89-.57,1.6,2.452,4.62,2.452,4.62s3,3,4.621,2.452c.669-.226,1.353-1.3,1.9-2.387a16.578,16.578,0,0,0,3.373,1.4,5.03,5.03,0,0,0-.356,3.029c.726,1.535,5,1.535,5,1.535s4.239,0,5-1.535c.314-.633.036-1.878-.347-3.029a16.589,16.589,0,0,0,3.373-1.4c.543,1.081,1.225,2.155,1.89,2.392,1.6.571,4.62-2.452,4.62-2.452s3-3,2.451-4.621c-.224-.669-1.3-1.353-2.387-1.9a16.513,16.513,0,0,0,1.4-3.374,5.041,5.041,0,0,0,3.03.357c1.534-.727,1.534-5,1.534-5S346.647,144.107,345.113,143.346Zm-19.022,12.707a7.711,7.711,0,1,1,7.711-7.711A7.711,7.711,0,0,1,326.091,156.053Z" transform="translate(-305.534 -127.786)" fill="#5d93f4"/>
          <g id="Group_925" data-name="Group 925" transform="translate(8.736 8.736)" opacity="0.5">
            <path id="Path_114627" data-name="Path 114627" d="M330.329,164.4A11.821,11.821,0,1,1,342.15,152.58,11.834,11.834,0,0,1,330.329,164.4Zm0-21.293a9.472,9.472,0,1,0,9.472,9.472A9.483,9.483,0,0,0,330.329,143.109Z" transform="translate(-318.509 -140.76)" fill="#1a65d3"/>
          </g>
        </g>
        <path id="Path_114628" data-name="Path 114628" d="M318.7,167.9c.669-.226,1.353-1.3,1.9-2.387a16.58,16.58,0,0,0,3.373,1.4,5.03,5.03,0,0,0-.356,3.029c.726,1.535,5,1.535,5,1.535s4.239,0,5-1.535c.314-.633.036-1.878-.347-3.029a16.588,16.588,0,0,0,3.373-1.4c.543,1.081,1.225,2.155,1.89,2.392,1.6.571,4.62-2.452,4.62-2.452s3-3,2.451-4.621c-.224-.669-1.3-1.353-2.387-1.9a16.508,16.508,0,0,0,1.4-3.374,5.041,5.041,0,0,0,3.03.357c1.534-.727,1.534-5,1.534-5s0-4.24-1.534-5c-.632-.314-1.879-.037-3.03.347a16.518,16.518,0,0,0-1.4-3.373c1.082-.543,2.155-1.226,2.394-1.889.57-1.6-2.452-4.621-2.452-4.621s-.318-.316-.8-.725a35.026,35.026,0,0,1-6.5,12.618,7.7,7.7,0,0,1-10.492,9.623,71.361,71.361,0,0,1-12.1,6.644c.45.539.813.9.813.9S317.075,168.444,318.7,167.9Z" transform="translate(-308.06 -130.357)" fill="#114068" opacity="0.1"/>
      </g>
      <g id="Group_930" data-name="Group 930" transform="translate(29.827 16.604)">
        <g id="Group_929" data-name="Group 929">
          <path id="Path_114629" data-name="Path 114629" d="M154.164,111.25a2.491,2.491,0,0,0-1.535.176,8.307,8.307,0,0,0-.706-1.708c.548-.275,1.091-.621,1.211-.957.29-.809-1.24-2.34-1.24-2.34s-1.518-1.518-2.34-1.241c-.338.114-.685.659-.959,1.209a8.384,8.384,0,0,0-1.708-.706,2.556,2.556,0,0,0,.18-1.535c-.368-.776-2.531-.776-2.531-.776s-2.147,0-2.532.776a2.486,2.486,0,0,0,.176,1.535,8.375,8.375,0,0,0-1.708.707c-.275-.548-.621-1.092-.957-1.212-.81-.289-2.34,1.241-2.34,1.241s-1.517,1.518-1.24,2.339c.113.339.658.685,1.208.96a8.306,8.306,0,0,0-.706,1.708,2.551,2.551,0,0,0-1.535-.18c-.777.368-.777,2.532-.777,2.532s0,2.146.777,2.532a2.486,2.486,0,0,0,1.535-.176,8.328,8.328,0,0,0,.706,1.708c-.547.275-1.091.621-1.211.957-.29.809,1.24,2.339,1.24,2.339s1.518,1.518,2.34,1.242c.339-.114.686-.659.96-1.209a8.383,8.383,0,0,0,1.708.706,2.555,2.555,0,0,0-.18,1.534c.368.776,2.532.776,2.532.776s2.146,0,2.53-.776a2.472,2.472,0,0,0-.175-1.534,8.383,8.383,0,0,0,1.708-.706c.275.547.621,1.091.957,1.211.81.288,2.339-1.241,2.339-1.241s1.518-1.518,1.241-2.34c-.114-.339-.659-.685-1.208-.959a8.328,8.328,0,0,0,.706-1.708,2.552,2.552,0,0,0,1.535.18c.776-.368.776-2.532.776-2.532S154.94,111.636,154.164,111.25Zm-9.631,6.434a3.9,3.9,0,1,1,3.9-3.9A3.9,3.9,0,0,1,144.533,117.684Z" transform="translate(-134.125 -103.373)" fill="#fac849"/>
          <g id="Group_928" data-name="Group 928" transform="translate(4.423 4.423)" opacity="0.5">
            <path id="Path_114630" data-name="Path 114630" d="M146.679,121.911a5.985,5.985,0,1,1,5.985-5.985A5.992,5.992,0,0,1,146.679,121.911Zm0-10.78a4.8,4.8,0,1,0,4.8,4.8A4.8,4.8,0,0,0,146.679,111.131Z" transform="translate(-140.694 -109.942)" fill="#f4b425"/>
          </g>
        </g>
        <path id="Path_114631" data-name="Path 114631" d="M140.775,123.776c.339-.114.686-.659.96-1.209a8.382,8.382,0,0,0,1.708.706,2.556,2.556,0,0,0-.18,1.534c.368.776,2.532.776,2.532.776s2.146,0,2.53-.776a2.472,2.472,0,0,0-.175-1.534,8.382,8.382,0,0,0,1.708-.706c.275.547.621,1.091.957,1.211.81.288,2.339-1.241,2.339-1.241s1.518-1.518,1.241-2.34c-.114-.339-.659-.685-1.208-.959a8.327,8.327,0,0,0,.706-1.708,2.552,2.552,0,0,0,1.535.18c.776-.368.776-2.532.776-2.532s0-2.147-.776-2.532a2.491,2.491,0,0,0-1.535.176,8.306,8.306,0,0,0-.706-1.708c.548-.275,1.091-.621,1.211-.957.29-.809-1.24-2.34-1.24-2.34s-.069-.069-.182-.172a24.687,24.687,0,0,1-3.694,5.778,3.9,3.9,0,0,1-5.519,5.079,42.99,42.99,0,0,1-5.769,3.535c.242.295.443.5.443.5S139.953,124.052,140.775,123.776Z" transform="translate(-135.388 -104.769)" fill="#114068" opacity="0.1"/>
      </g>
      <g id="Group_933" data-name="Group 933" transform="translate(32.013 98.248)">
        <g id="Group_932" data-name="Group 932">
          <path id="Path_114632" data-name="Path 114632" d="M140.141,224.627H163.2a2.77,2.77,0,0,1,2.769,2.769v8.935A2.769,2.769,0,0,1,163.2,239.1H151.819l-3.528,4.272V239.1h-8.151a2.768,2.768,0,0,1-2.769-2.769V227.4A2.769,2.769,0,0,1,140.141,224.627Z" transform="translate(-137.372 -224.627)" fill="#fc8b3f"/>
          <g id="Group_931" data-name="Group 931" transform="translate(6.855 2.938)">
            <path id="Path_114633" data-name="Path 114633" d="M154.574,230.908c-.846-.491-2.1.022-3.1,1.151-1.007-1.13-2.258-1.642-3.105-1.151-1.069.621-1.084,2.592-.033,4.4a3.28,3.28,0,0,0,6.276,0C155.659,233.5,155.644,231.529,154.574,230.908Z" transform="translate(-147.552 -229.556)" fill="#fff"/>
            <text id="_1" data-name="1" transform="translate(10.577 2)" fill="#fff" font-size="2" font-family="Montserrat-ExtraBold, Montserrat" font-weight="800"><tspan x="0" y="0">1</tspan></text>
          </g>
          <path id="Path_114634" data-name="Path 114634" d="M169.48,227.4a2.77,2.77,0,0,0-2.769-2.769h-4.736c.353,8.1-7.2,12.329-13.848,14.473H151.8v4.272l3.528-4.272h11.379a2.769,2.769,0,0,0,2.769-2.769Z" transform="translate(-140.885 -224.627)" fill="#114068" opacity="0.1"/>
        </g>
      </g>
      <g id="Group_936" data-name="Group 936" transform="translate(56.902 30.906)">
        <g id="Group_935" data-name="Group 935">
          <path id="Path_114635" data-name="Path 114635" d="M177.105,124.614h23.056a2.77,2.77,0,0,1,2.77,2.769v8.936a2.77,2.77,0,0,1-2.77,2.769H188.783l-3.528,4.273v-4.273h-8.151a2.77,2.77,0,0,1-2.77-2.769v-8.936A2.769,2.769,0,0,1,177.105,124.614Z" transform="translate(-174.335 -124.614)" fill="#fc8b3f"/>
          <g id="Group_934" data-name="Group 934" transform="translate(7.557 2.672)">
            <text id="_1-2" data-name="1" transform="translate(9.876 2)" fill="#fff" font-size="2" font-family="Montserrat-ExtraBold, Montserrat" font-weight="800"><tspan x="0" y="0">1</tspan></text>
            <path id="Path_114636" data-name="Path 114636" d="M191.285,131.837h-4.7a1.031,1.031,0,0,0-1.031,1.031v3.326a1.031,1.031,0,0,0,1.031,1.031h2.293l1.312,1.59v-1.59h1.091a1.031,1.031,0,0,0,1.032-1.031v-3.326A1.031,1.031,0,0,0,191.285,131.837Z" transform="translate(-185.558 -129.646)" fill="#fff"/>
          </g>
          <path id="Path_114637" data-name="Path 114637" d="M206.445,127.383a2.77,2.77,0,0,0-2.77-2.769H198.94c.353,8.1-7.2,12.329-13.848,14.473h3.678v4.273l3.528-4.273h11.378a2.77,2.77,0,0,0,2.77-2.769Z" transform="translate(-177.849 -124.614)" fill="#114068" opacity="0.1"/>
        </g>
      </g>
      <g id="Group_947" data-name="Group 947" transform="translate(195.474 61.597)">
        <circle id="Ellipse_97" data-name="Ellipse 97" cx="16.977" cy="16.977" r="16.977" transform="translate(0 33.943) rotate(-88.567)" fill="#fc8b3f"/>
        <path id="Path_114638" data-name="Path 114638" d="M410.207,185.113l-9.477,8.543q-3.018-1.512-6.034-3.024c-1.229-.615-2.311,1.228-1.079,1.845q3.373,1.691,6.748,3.379a1.1,1.1,0,0,0,1.294-.166q5.031-4.532,10.06-9.067C412.744,185.7,411.228,184.193,410.207,185.113Z" transform="translate(-384.364 -174.975)" fill="#fff"/>
        <g id="Group_946" data-name="Group 946" transform="translate(2.298 2.392)">
          <g id="Group_939" data-name="Group 939">
            <g id="Group_937" data-name="Group 937" transform="translate(14.217)">
              <circle id="Ellipse_98" data-name="Ellipse 98" cx="0.881" cy="0.881" r="0.881" fill="#f46c0f"/>
              <path id="Path_114639" data-name="Path 114639" d="M406.427,216.859a.881.881,0,1,1-.881-.88A.882.882,0,0,1,406.427,216.859Z" transform="translate(-404.665 -187.544)" fill="#f46c0f"/>
            </g>
            <g id="Group_938" data-name="Group 938" transform="translate(0 14.217)">
              <path id="Path_114640" data-name="Path 114640" d="M426.661,196.626a.881.881,0,1,1,.881-.882A.881.881,0,0,1,426.661,196.626Z" transform="translate(-397.346 -194.863)" fill="#f46c0f"/>
              <path id="Path_114641" data-name="Path 114641" d="M384.431,196.626a.881.881,0,1,1,.88-.882A.881.881,0,0,1,384.431,196.626Z" transform="translate(-383.551 -194.863)" fill="#f46c0f"/>
            </g>
          </g>
          <g id="Group_942" data-name="Group 942" transform="translate(1.944 1.945)">
            <g id="Group_940" data-name="Group 940" transform="translate(5.095)">
              <path id="Path_114642" data-name="Path 114642" d="M416.967,177.963a.881.881,0,1,1-.316-1.206A.88.88,0,0,1,416.967,177.963Z" transform="translate(-400.969 -176.637)" fill="#f46c0f"/>
              <path id="Path_114643" data-name="Path 114643" d="M395.646,214.416a.881.881,0,1,1-.315-1.206A.881.881,0,0,1,395.646,214.416Z" transform="translate(-394.005 -188.545)" fill="#f46c0f"/>
            </g>
            <g id="Group_941" data-name="Group 941" transform="translate(0 5.094)">
              <path id="Path_114644" data-name="Path 114644" d="M423.325,207.164a.881.881,0,1,1,1.207-.316A.881.881,0,0,1,423.325,207.164Z" transform="translate(-398.345 -191.167)" fill="#f46c0f"/>
              <path id="Path_114645" data-name="Path 114645" d="M386.875,185.845a.881.881,0,1,1,1.2-.317A.882.882,0,0,1,386.875,185.845Z" transform="translate(-386.437 -184.203)" fill="#f46c0f"/>
            </g>
          </g>
          <g id="Group_945" data-name="Group 945" transform="translate(1.944 1.945)">
            <g id="Group_943" data-name="Group 943" transform="translate(5.095)">
              <path id="Path_114646" data-name="Path 114646" d="M394.125,177.963a.881.881,0,1,0,.315-1.206A.88.88,0,0,0,394.125,177.963Z" transform="translate(-394.005 -176.637)" fill="#f46c0f"/>
              <path id="Path_114647" data-name="Path 114647" d="M415.446,214.416a.881.881,0,1,0,.315-1.206A.88.88,0,0,0,415.446,214.416Z" transform="translate(-400.969 -188.545)" fill="#f46c0f"/>
            </g>
            <g id="Group_944" data-name="Group 944" transform="translate(0 5.094)">
              <path id="Path_114648" data-name="Path 114648" d="M387.765,207.164a.881.881,0,1,0-1.207-.316A.881.881,0,0,0,387.765,207.164Z" transform="translate(-386.438 -191.167)" fill="#f46c0f"/>
              <path id="Path_114649" data-name="Path 114649" d="M424.217,185.845a.882.882,0,1,0-1.207-.317A.883.883,0,0,0,424.217,185.845Z" transform="translate(-398.346 -184.203)" fill="#f46c0f"/>
            </g>
          </g>
        </g>
      </g>
      <g id="Group_948" data-name="Group 948" transform="translate(93.949 0)">
        <text id="_24_7" data-name="24/7" transform="translate(15.252 22.101)" fill="#b6cdef" font-size="7" font-family="Montserrat-ExtraBold, Montserrat" font-weight="800"><tspan x="-8" y="0">24/7</tspan></text>
        <path id="Path_114650" data-name="Path 114650" d="M260.713,98.943a15.321,15.321,0,0,1-10.526,14.371c-6.284,2.122-13.2-.572-16.965-5.844A15.2,15.2,0,0,1,233.9,89.5c4.35-5.587,12.166-6.993,18.434-4.057l-4.966,1.772c-.764.273-.435,1.5.338,1.224l6.09-2.175a.648.648,0,0,0,.443-.78q-.785-3.159-1.569-6.319a.635.635,0,0,0-1.223.337q.58,2.339,1.161,4.677A16.583,16.583,0,0,0,233,88.6c-4.663,5.505-4.746,13.588-.88,19.508,3.942,6.035,11.626,8.394,18.4,6.426,6.868-2,11.305-8.622,11.457-15.594A.635.635,0,0,0,260.713,98.943Z" transform="translate(-229.356 -78.713)" fill="#b6cdef"/>
      </g>
    </g>
    <g id="Group_959" data-name="Group 959" transform="translate(77.586 208.72)">
      <g id="Group_953" data-name="Group 953" transform="translate(157.592)">
        <g id="Group_950" data-name="Group 950">
          <path id="Path_114651" data-name="Path 114651" d="M368.658,326.245c-3.324-2.818-8.25,4.827-9.239,8.756a80.326,80.326,0,0,0-2.157-9.371c1.859.094,8.476-7.635,4.962-9.549-2.835-1.545-5.272,4.5-5.538,7.691a62.656,62.656,0,0,0-2.985-7.526c2.5-.689,8.328-13.075,3.053-14.324-4-.948-5.17,6.711-4.656,11.217a44.542,44.542,0,0,0-4.046-6.042c2.015-1.564,4.748-12.265.223-12.517-3.522-.2-3.38,6.393-2.281,10.163a34.71,34.71,0,0,0-2.755-2.617c.831-2.613-10.4-14.529-13.973-9.3-3.4,4.977,10.21,10.77,13.359,9.823a33.985,33.985,0,0,1,3.363,3.266c-3.4-1.45-10.556-2.268-10.577,1.357-.024,4.416,10.621,2.359,12.145.492a44.315,44.315,0,0,1,4.294,6.621c-3.575-2.348-11.581-4.743-12.342-.613-.909,4.934,11.146,4.856,13.611,3.138a61.4,61.4,0,0,1,2.522,6.323c-2.369-2.213-6.709-4.591-7.911-2.09-1.542,3.2,6.4,5.433,8.8,4.911.738,2.523,1.337,5.082,1.813,7.63-2.441-3.47-7.386-7.694-9.6-4.8-2.9,3.8,7.281,8.933,10.22,8.615a87.894,87.894,0,0,1,.825,9.552c.016.531.842.533.826,0a89.115,89.115,0,0,0-.867-9.886C362.09,337.8,372.656,329.636,368.658,326.245Z" transform="translate(-328.726 -279.986)" fill="#b6cdef"/>
          <path id="Path_114652" data-name="Path 114652" d="M407.9,292.916c1.087-1.756,2.238-3.492,3.452-5.18,3.1.453,15.442-8.38,10.973-12.531-4.566-4.238-12.7,9.373-11.623,12.05-.836,1.172-1.637,2.369-2.415,3.575.629-3.738.215-9.054-2.893-8.724-4.349.459-1.232,10.612.795,12.083q-.72,1.2-1.413,2.392c-.978,1.685-1.9,3.4-2.782,5.132.525-4.156-.523-11.421-4.276-10.54-4.971,1.166.656,13.018,2.912,13.317q-2.184,4.6-3.94,9.373c.066-5.13-2.39-14.213-6.926-12.5-5.94,2.24,3.012,16.019,5.756,15.825q-1.578,4.71-2.761,9.54c-.7-3.446-3.1-8.371-5.751-6.882-3.5,1.965,2.765,9.356,5.044,9.924a130.193,130.193,0,0,0-2.695,18.666c-.037.527.776.666.815.135a128.159,128.159,0,0,1,2.72-18.694c2.144.918,12-1.777,10.133-5.519-1.541-3.095-7.339.632-9.618,3.3q1.238-5.131,2.918-10.137c3.319,1.665,17.817-.128,15.955-5.937-1.559-4.855-10.791-.774-14.784,2.615q1.743-4.724,3.9-9.3c2.685,1.626,14.208,1.65,13.335-3.148-.733-4.018-8.408-1.811-12.026.462.79-1.57,1.606-3.127,2.472-4.664.555-.985,1.135-1.976,1.724-2.966,1.563,1.861,12.785,3.488,12.533-1.093C419.211,289.534,411.018,291.111,407.9,292.916Z" transform="translate(-347.426 -274.394)" fill="#b6cdef"/>
        </g>
        <g id="Group_952" data-name="Group 952" transform="translate(15.566 57.852)">
          <g id="Group_951" data-name="Group 951" transform="translate(3.724 1.215)">
            <path id="Path_114653" data-name="Path 114653" d="M391.087,391.177A3.359,3.359,0,0,1,387.86,394H363.488a3.269,3.269,0,0,1-3.165-2.831l-2.929-26.221a2.5,2.5,0,0,1,2.533-2.831h32.207a2.433,2.433,0,0,1,2.471,2.825Z" transform="translate(-357.376 -362.118)" fill="#fc8b3f"/>
            <path id="Path_114654" data-name="Path 114654" d="M398.049,362.118H392.2c.88,9.122-1,22.738-16.713,31.884h18.291A3.359,3.359,0,0,0,397,391.177l3.517-26.234A2.433,2.433,0,0,0,398.049,362.118Z" transform="translate(-363.291 -362.118)" fill="#114068" opacity="0.1"/>
          </g>
          <path id="Path_114655" data-name="Path 114655" d="M396.547,364.024a3.71,3.71,0,0,1-3.709,3.711H355.555a3.71,3.71,0,0,1-3.71-3.711h0a3.71,3.71,0,0,1,3.71-3.71h37.282a3.709,3.709,0,0,1,3.709,3.71Z" transform="translate(-351.845 -360.314)" fill="#f46c0f"/>
        </g>
      </g>
      <g id="Group_958" data-name="Group 958" transform="translate(0 39.062)">
        <g id="Group_956" data-name="Group 956" transform="translate(0 24.038)">
          <g id="Group_954" data-name="Group 954" transform="translate(16.818 2.784)">
            <path id="Path_114656" data-name="Path 114656" d="M128.4,396.1a7.632,7.632,0,0,1-1.417-.132c-5.123-.968-8.292-7.046-7.065-13.551,1.114-5.895,5.362-10.174,10.1-10.174a7.616,7.616,0,0,1,1.416.133c5.125.968,8.293,7.046,7.065,13.551C137.39,391.819,133.141,396.1,128.4,396.1Zm1.621-20.558c-3.106,0-6.056,3.22-6.862,7.489-.89,4.716,1.1,9.065,4.436,9.7a4.293,4.293,0,0,0,.8.075c3.105,0,6.055-3.218,6.861-7.487.891-4.718-1.1-9.066-4.435-9.7A4.3,4.3,0,0,0,130.022,375.54Z" transform="translate(-119.655 -372.241)" fill="#fc8b3f"/>
          </g>
          <g id="Group_955" data-name="Group 955">
            <path id="Path_114657" data-name="Path 114657" d="M119.967,368.107H95.212s-3.3,19.417,6.487,27.852H113.48C123.266,387.524,119.967,368.107,119.967,368.107Z" transform="translate(-94.677 -368.107)" fill="#fc8b3f"/>
            <path id="Path_114658" data-name="Path 114658" d="M109.913,395.959h5.293c9.786-8.434,6.487-27.852,6.487-27.852h-6.585c-1.928,7.188-6.23,18.277-15.147,23.595a16.4,16.4,0,0,0,3.464,4.257h6.487Z" transform="translate(-96.403 -368.107)" fill="#114068" opacity="0.1"/>
          </g>
        </g>
        <g id="Group_957" data-name="Group 957" transform="translate(6.375)">
          <path id="Path_114659" data-name="Path 114659" d="M106.836,356.478s-3.383-2.258-2.563-5.332,4.8-8.65,1.218-12.407c0,0,5.755,3.076,3.909,7.485S105.3,352.48,106.836,356.478Z" transform="translate(-104.145 -334.475)" fill="#ceddf4"/>
          <path id="Path_114660" data-name="Path 114660" d="M119.877,350.146s-3.383-2.258-2.564-5.332,4.8-8.65,1.219-12.407c0,0,5.754,3.077,3.909,7.486S118.338,346.148,119.877,350.146Z" transform="translate(-108.405 -332.407)" fill="#ceddf4"/>
        </g>
      </g>
    </g>
    <g id="Group_960" data-name="Group 960" transform="translate(77.949 269.373)">
      <path id="Path_114661" data-name="Path 114661" d="M120.143,366.919c0,1.352-5.581,2.448-12.463,2.448s-12.463-1.1-12.463-2.448,5.581-2.446,12.463-2.446S120.143,365.569,120.143,366.919Z" transform="translate(-95.216 -364.473)" fill="#f46c0f"/>
      <path id="Path_114662" data-name="Path 114662" d="M97.713,369.33a38.332,38.332,0,0,0,10.782,1.223,38.325,38.325,0,0,0,10.782-1.223,38.33,38.33,0,0,0-10.782-1.223A38.337,38.337,0,0,0,97.713,369.33Z" transform="translate(-96.032 -365.66)" fill="#af622e"/>
    </g>
    <g id="Group_961" data-name="Group 961" transform="translate(42.357 73.356)">
      <path id="Path_114663" data-name="Path 114663" d="M302.966,94.289l-2.042-6.914-2.044,6.914-6.318,2.173,6.318,2.174,2.044,6.913,2.042-6.913,6.32-2.174Z" transform="translate(-124.092 -77.936)" fill="#e3edfc"/>
      <path id="Path_114664" data-name="Path 114664" d="M319.548,208.626l-1.385-4.688-1.386,4.688-4.285,1.474,4.285,1.474,1.386,4.687,1.385-4.687,4.285-1.474Z" transform="translate(-130.603 -116.014)" fill="#fff"/>
      <path id="Path_114665" data-name="Path 114665" d="M352.906,199.823l-.722-2.446-.723,2.446-2.236.768,2.236.769.723,2.447.722-2.447,2.236-.769Z" transform="translate(-142.603 -113.87)" fill="#fff"/>
      <path id="Path_114666" data-name="Path 114666" d="M416.839,248.115l-1.417-4.794L414,248.115l-4.382,1.507L414,251.128l1.417,4.795,1.417-4.795,4.381-1.506Z" transform="translate(-162.333 -128.879)" fill="#e3edfc"/>
      <path id="Path_114667" data-name="Path 114667" d="M372.217,277.185l-1.6-5.425-1.6,5.425-4.957,1.7,4.957,1.706,1.6,5.422,1.6-5.422,4.956-1.706Z" transform="translate(-147.447 -138.169)" fill="#fff"/>
      <path id="Path_114668" data-name="Path 114668" d="M320.2,272.064l-.723-2.446-.723,2.446-2.236.769,2.236.769.723,2.446.723-2.446,2.236-.769Z" transform="translate(-131.919 -137.47)" fill="#fff"/>
      <path id="Path_114669" data-name="Path 114669" d="M394.514,148.817l-.811-2.745-.811,2.745-2.508.863,2.508.862.811,2.745.811-2.745,2.508-.862Z" transform="translate(-156.048 -97.111)" fill="#e3edfc"/>
      <path id="Path_114670" data-name="Path 114670" d="M163.184,76.1l-.81-2.745-.812,2.745-2.509.863,2.509.862.812,2.745.81-2.745,2.509-.862Z" transform="translate(-80.479 -73.356)" fill="#e3edfc"/>
      <path id="Path_114671" data-name="Path 114671" d="M356.1,81.466l-1.416-4.794-1.417,4.794-4.383,1.507,4.383,1.507,1.417,4.794L356.1,84.48l4.382-1.507Z" transform="translate(-142.492 -74.439)" fill="#e3edfc"/>
      <path id="Path_114672" data-name="Path 114672" d="M201.693,96.02l-1.416-4.794-1.417,4.794-4.382,1.507,4.382,1.507,1.417,4.794,1.416-4.794,4.382-1.507Z" transform="translate(-92.051 -79.194)" fill="#e3edfc"/>
      <path id="Path_114673" data-name="Path 114673" d="M106.326,107.329l-.811-2.745-.811,2.745-2.508.863,2.508.862.811,2.745.811-2.745,2.508-.862Z" transform="translate(-61.905 -83.558)" fill="#e3edfc"/>
      <path id="Path_114674" data-name="Path 114674" d="M64.23,186.537l-2.042-6.914-2.044,6.914-6.32,2.173,6.32,2.173,2.044,6.913,2.042-6.913,6.319-2.173Z" transform="translate(-46.103 -108.071)" fill="#e3edfc"/>
      <path id="Path_114675" data-name="Path 114675" d="M180.44,171.093l-2.229-7.545-2.232,7.545-6.9,2.371,6.9,2.373,2.232,7.543,2.229-7.543,6.895-2.373Z" transform="translate(-83.756 -102.819)" fill="#fff"/>
      <path id="Path_114676" data-name="Path 114676" d="M93.851,238.416l-1.385-4.688-1.387,4.688-4.284,1.474,4.284,1.474,1.387,4.687,1.385-4.687,4.285-1.474Z" transform="translate(-56.874 -125.745)" fill="#fff"/>
      <path id="Path_114677" data-name="Path 114677" d="M173.623,272.064l-.723-2.446-.723,2.446-2.236.769,2.236.769.723,2.446.723-2.446,2.236-.769Z" transform="translate(-84.036 -137.47)" fill="#fff"/>
      <path id="Path_114678" data-name="Path 114678" d="M145.683,319.638,144.3,314.95l-1.386,4.688-4.285,1.472,4.285,1.475,1.386,4.687,1.385-4.687,4.284-1.475Z" transform="translate(-73.806 -152.278)" fill="#fff"/>
      <path id="Path_114679" data-name="Path 114679" d="M49.574,306.5l-1.416-4.8-1.417,4.8-4.383,1.508,4.383,1.506,1.417,4.794,1.416-4.794,4.381-1.506Z" transform="translate(-42.357 -147.952)" fill="#e3edfc"/>
      <path id="Path_114680" data-name="Path 114680" d="M58.825,338.892l-.811-2.746-.811,2.746-2.508.862,2.508.862.811,2.745.811-2.745,2.508-.862Z" transform="translate(-46.388 -159.203)" fill="#e3edfc"/>
      <path id="Path_114681" data-name="Path 114681" d="M447.635,328.686l-1.416-4.793-1.417,4.793-4.383,1.508L444.8,331.7l1.417,4.8,1.416-4.8,4.381-1.506Z" transform="translate(-172.393 -155.2)" fill="#e3edfc"/>
    </g>
  </g>
</svg>
