<svg id="call" xmlns="http://www.w3.org/2000/svg" width="20" height="20" viewBox="0 0 20 20">
  <g id="Group_59" data-name="Group 59">
    <path id="Path_101" data-name="Path 101" d="M18.4,13.128a11.355,11.355,0,0,1-3.566-.568,1.63,1.63,0,0,0-1.585.334l-2.249,1.7A12.428,12.428,0,0,1,5.407,9.005l1.648-2.19a1.617,1.617,0,0,0,.4-1.638A11.373,11.373,0,0,1,6.883,1.6,1.607,1.607,0,0,0,5.278,0H1.6A1.607,1.607,0,0,0,0,1.6,18.416,18.416,0,0,0,18.4,20,1.607,1.607,0,0,0,20,18.4V14.732A1.607,1.607,0,0,0,18.4,13.128Z" fill="#0075b8"/>
  </g>
</svg>
