<svg xmlns="http://www.w3.org/2000/svg" width="30" height="30.164" viewBox="0 0 30 30.164">
  <g id="Teleconsult" transform="translate(-150 -416.002)">
    <rect id="Rectangle_168464" data-name="Rectangle 168464" width="30" height="30" transform="translate(150 416.002)" fill="none"/>
    <g id="Teleconsultation" transform="translate(150.336 416.336)">
      <rect id="Rectangle_167549" data-name="Rectangle 167549" width="29.329" height="29.286" transform="translate(0 0.044)" fill="none"/>
      <g id="Teleconsult-2" data-name="Teleconsult" transform="translate(0 0)">
        <g id="Group_309" data-name="Group 309" transform="translate(0 0)">
          <rect id="Rectangle_167666" data-name="Rectangle 167666" width="29.286" height="29.286" transform="translate(0 0.043)" fill="none"/>
          <g id="Group_314" data-name="Group 314">
            <g id="Group_309-2" data-name="Group 309">
              <rect id="Rectangle_167666-2" data-name="Rectangle 167666" width="29.286" height="29.286" transform="translate(0 0.043)" fill="none"/>
              <g id="medical-service" transform="translate(3.263)">
                <path id="Path_114087" data-name="Path 114087" d="M33.631,60.658a5.692,5.692,0,0,1,.415,2.033,1.839,1.839,0,1,1-.848.007,3.493,3.493,0,0,0-.991-2.569A7.5,7.5,0,0,0,31,59.916c-.03,1.376-4.576,4.77-4.576,4.77s-4.547-3.394-4.578-4.77a7.574,7.574,0,0,0-1.338.247,3.069,3.069,0,0,0-.865,2.473.929.929,0,0,1,.379.422A3.514,3.514,0,0,1,21.565,64.8a.606.606,0,0,1,.027.455,5.477,5.477,0,0,1,.385,1.9c0,.811,0,1.577-.884,1.774a.528.528,0,0,1-.341.124h-.59a.538.538,0,0,1-.537-.537v-.021a.541.541,0,0,1,.537-.516h.59a.506.506,0,0,1,.177.031.149.149,0,0,0,.047-.019,3.121,3.121,0,0,0,.066-.835,4.5,4.5,0,0,0-.323-1.565.6.6,0,0,1-.246-.264c-.358-.75-.845-1.233-1.24-1.233s-.916.523-1.272,1.3a.608.608,0,0,1-.286.292,4.4,4.4,0,0,0-.289,1.468,2.906,2.906,0,0,0,.075.837.305.305,0,0,0,.065.021.548.548,0,0,1,.193-.035h.591a.538.538,0,0,1,.534.483l0,.034a.543.543,0,0,1-.537.558h-.591a.534.534,0,0,1-.324-.111,1.02,1.02,0,0,1-.727-.455,2.516,2.516,0,0,1-.216-1.332,5.392,5.392,0,0,1,.372-1.863.6.6,0,0,1,.036-.4,4.474,4.474,0,0,1,.92-1.354,2.546,2.546,0,0,1,.619-.446.938.938,0,0,1,.4-.445,5.414,5.414,0,0,1,.339-1.94A7.539,7.539,0,0,0,15,67.428c0,3.756,2.744,3.939,6.337,3.939l1.2,0H30.3l1.2,0c3.593,0,6.338-.184,6.338-3.94A7.54,7.54,0,0,0,33.631,60.658Z" transform="translate(-14.996 -42.037)" fill="#fff" stroke="#25d18e" stroke-width="1"/>
                <path id="Path_114088" data-name="Path 114088" d="M37.028,17.033a6.287,6.287,0,0,0-6.287,6.287c0,3.473,2.815,8.7,6.287,8.7a4.432,4.432,0,0,0,2.859-1.2c-.037,0-.072.011-.11.011H38.527a1.742,1.742,0,1,1,0-3.483h1.251a1.735,1.735,0,0,1,1.1.392,8.021,8.021,0,0,0,1.45-.326,10.3,10.3,0,0,0,.989-4.091A6.288,6.288,0,0,0,37.028,17.033Z" transform="translate(-25.603 -13.106)" fill="#fff" stroke="#ffb125" stroke-width="1"/>
                <circle id="Ellipse_29" data-name="Ellipse 29" cx="0.848" cy="0.848" r="0.848" transform="translate(17.791 21.605)" fill="#4cb74d"/>
                <path id="Path_114089" data-name="Path 114089" d="M32.069,20.469a.944.944,0,0,0-.79-.43H30.028a.942.942,0,1,0,0,1.883h1.251a.939.939,0,0,0,.832-.509,8.465,8.465,0,0,0,4.323-1.456,1.554,1.554,0,0,0,.845.25h.078a1.571,1.571,0,0,0,1.571-1.573V15.494a1.567,1.567,0,0,0-.9-1.416,9.515,9.515,0,0,0-19.01,0,1.567,1.567,0,0,0-.9,1.416v3.141A1.572,1.572,0,0,0,19.7,20.208h.079a1.572,1.572,0,0,0,1.571-1.574V15.493a1.568,1.568,0,0,0-.874-1.406,8.066,8.066,0,0,1,16.109,0,1.57,1.57,0,0,0-.873,1.406v3.141a1.571,1.571,0,0,0,.112.584,7.687,7.687,0,0,1-3.75,1.251Z" transform="translate(-17.104 -5)" fill="#ffb125"/>
              </g>
            </g>
          </g>
        </g>
      </g>
    </g>
  </g>
</svg>
