<svg xmlns="http://www.w3.org/2000/svg" width="30" height="30.545" viewBox="0 0 30 30.545">
  <g id="Teleconsultation" transform="translate(-44 -305.957)">
    <rect id="Rectangle_167549" data-name="Rectangle 167549" width="30" height="30" transform="translate(44 306.002)" fill="none"/>
    <g id="Teleconsult" transform="translate(44 305.957)">
      <g id="Group_309" data-name="Group 309" transform="translate(0 0)">
        <rect id="Rectangle_167666" data-name="Rectangle 167666" width="30" height="30" transform="translate(0 0.044)" fill="none"/>
        <g id="Group_314" data-name="Group 314">
          <g id="Group_309-2" data-name="Group 309">
            <rect id="Rectangle_167666-2" data-name="Rectangle 167666" width="30" height="30" transform="translate(0 0.044)" fill="none"/>
            <g id="medical-service" transform="translate(3.337)">
              <path id="Path_114087" data-name="Path 114087" d="M34.057,60.675a5.823,5.823,0,0,1,.424,2.079,1.881,1.881,0,1,1-.867.007A3.573,3.573,0,0,0,32.6,60.133a7.671,7.671,0,0,0-1.237-.217c-.031,1.407-4.681,4.879-4.681,4.879S22.031,61.323,22,59.916a7.747,7.747,0,0,0-1.369.252,3.14,3.14,0,0,0-.885,2.53.951.951,0,0,1,.388.431,3.594,3.594,0,0,1,1.582,1.779.62.62,0,0,1,.028.465,5.6,5.6,0,0,1,.394,1.941c0,.829,0,1.613-.9,1.815a.54.54,0,0,1-.349.127h-.6a.55.55,0,0,1-.549-.549v-.021a.553.553,0,0,1,.549-.527h.6a.518.518,0,0,1,.181.031.152.152,0,0,0,.048-.02,3.192,3.192,0,0,0,.067-.854,4.608,4.608,0,0,0-.331-1.6.615.615,0,0,1-.252-.27c-.367-.767-.864-1.261-1.268-1.261s-.937.535-1.3,1.331a.622.622,0,0,1-.292.3,4.5,4.5,0,0,0-.3,1.5,2.972,2.972,0,0,0,.076.856.312.312,0,0,0,.066.022.561.561,0,0,1,.2-.036h.6a.551.551,0,0,1,.546.494l0,.035a.555.555,0,0,1-.549.571h-.6a.546.546,0,0,1-.332-.114,1.043,1.043,0,0,1-.743-.466,2.574,2.574,0,0,1-.221-1.362,5.515,5.515,0,0,1,.381-1.905A.609.609,0,0,1,16.9,65a4.576,4.576,0,0,1,.941-1.385,2.6,2.6,0,0,1,.633-.456.96.96,0,0,1,.4-.455,5.538,5.538,0,0,1,.347-1.985A7.712,7.712,0,0,0,15,67.6c0,3.842,2.807,4.029,6.482,4.029l1.231,0h7.942l1.231,0c3.675,0,6.483-.188,6.483-4.03A7.712,7.712,0,0,0,34.057,60.675Z" transform="translate(-14.996 -41.584)" fill="#fff" stroke="#25d18e" stroke-width="1"/>
              <path id="Path_114088" data-name="Path 114088" d="M37.172,17.033a6.431,6.431,0,0,0-6.431,6.431c0,3.553,2.879,8.894,6.431,8.894A4.534,4.534,0,0,0,40.1,31.133c-.038,0-.074.011-.112.011H38.7a1.781,1.781,0,1,1,0-3.563h1.279a1.774,1.774,0,0,1,1.126.4,8.2,8.2,0,0,0,1.483-.334A10.54,10.54,0,0,0,43.6,23.464,6.432,6.432,0,0,0,37.172,17.033Z" transform="translate(-25.485 -13.016)" fill="#fff" stroke="#ffb125" stroke-width="1"/>
              <circle id="Ellipse_29" data-name="Ellipse 29" cx="0.868" cy="0.868" r="0.868" transform="translate(18.198 22.134)" fill="#4cb74d"/>
              <path id="Path_114089" data-name="Path 114089" d="M32.388,20.823a.965.965,0,0,0-.809-.44H30.3a.963.963,0,1,0,0,1.926H31.58a.96.96,0,0,0,.851-.52A8.658,8.658,0,0,0,36.852,20.3a1.59,1.59,0,0,0,.865.255H37.8A1.607,1.607,0,0,0,39.4,18.947V15.734a1.6,1.6,0,0,0-.916-1.448,9.733,9.733,0,0,0-19.445,0,1.6,1.6,0,0,0-.918,1.448v3.213a1.608,1.608,0,0,0,1.607,1.61h.081a1.608,1.608,0,0,0,1.607-1.61V15.733a1.6,1.6,0,0,0-.894-1.438A8.25,8.25,0,0,1,37,14.3a1.606,1.606,0,0,0-.893,1.438v3.213a1.607,1.607,0,0,0,.115.6,7.862,7.862,0,0,1-3.836,1.28Z" transform="translate(-17.08 -5)" fill="#ffb125"/>
            </g>
          </g>
        </g>
      </g>
    </g>
  </g>
</svg>
