<svg xmlns="http://www.w3.org/2000/svg" width="30" height="30" viewBox="0 0 30 30">
  <g id="Top-up-Policies" transform="translate(-1.986)">
    <g id="insurance_23_" data-name="insurance (23)" transform="translate(1.986)">
      <path id="Path_116979" data-name="Path 116979" d="M19.5,27.5a.938.938,0,0,1-.368-.075C18.842,27.3,12,24.321,12,18.192V13.17a.937.937,0,0,1,.636-.888L19.2,10.05a.938.938,0,0,1,.6,0l6.562,2.233A.937.937,0,0,1,27,13.17v5.022c0,6.129-6.842,9.109-7.132,9.234a.96.96,0,0,1-.368.074ZM13.875,13.841v4.35c0,4.166,4.32,6.671,5.625,7.331,1.305-.66,5.625-3.165,5.625-7.331v-4.35L19.5,11.927Z" transform="translate(3 2.5)" fill="#d82a1b"/>
      <path id="Path_116980" data-name="Path 116980" d="M18.437,20.875a.93.93,0,0,1-.663-.275l-2.5-2.5A.938.938,0,0,1,16.6,16.774l1.736,1.736,3.1-4.135a.937.937,0,1,1,1.5,1.126l-3.75,5a.936.936,0,0,1-.684.373h-.065Z" transform="translate(3.75 3.5)" fill="#d82a1b"/>
      <path id="Path_116981" data-name="Path 116981" d="M13.238,26.25h-9.8A3.44,3.44,0,0,1,0,22.812V3.438A3.44,3.44,0,0,1,3.438,0H17.813A3.44,3.44,0,0,1,21.25,3.438v6.788a.938.938,0,0,1-1.875,0V3.438a1.565,1.565,0,0,0-1.562-1.563H3.438A1.565,1.565,0,0,0,1.875,3.438V22.812a1.565,1.565,0,0,0,1.563,1.563h9.8a.938.938,0,0,1,0,1.875Z" fill="#d82a1b"/>
      <path id="Path_116982" data-name="Path 116982" d="M15.812,9.875H3.938A.937.937,0,1,1,3.938,8H15.812a.937.937,0,1,1,0,1.875Z" transform="translate(0.75 2)" fill="#d82a1b"/>
      <path id="Path_116983" data-name="Path 116983" d="M10.813,13.875H3.938a.938.938,0,0,1,0-1.875h6.875a.938.938,0,0,1,0,1.875Z" transform="translate(0.75 3)" fill="#d82a1b"/>
      <path id="Path_116984" data-name="Path 116984" d="M9.563,5.875H3.938A.937.937,0,1,1,3.938,4H9.563a.937.937,0,1,1,0,1.875Z" transform="translate(0.75 1)" fill="#d82a1b"/>
    </g>
  </g>
</svg>
