<svg xmlns="http://www.w3.org/2000/svg" width="16.501" height="16.5" viewBox="0 0 16.501 16.5">
  <g id="Upload" transform="translate(0 -0.001)">
    <path id="Path_114065" data-name="Path 114065" d="M15.47,21a1.033,1.033,0,0,0-1.031,1.031V24.61H2.063V22.031a1.031,1.031,0,1,0-2.063,0V24.61a2.065,2.065,0,0,0,2.063,2.063H14.438A2.065,2.065,0,0,0,16.5,24.61V22.031A1.033,1.033,0,0,0,15.47,21Z" transform="translate(0 -10.171)" fill="#338ec0"/>
    <path id="Path_114066" data-name="Path 114066" d="M7.031,6.188a1.024,1.024,0,0,0,.729-.3l2.365-2.365v8.339a1.031,1.031,0,0,0,2.063,0V3.522l2.365,2.365a1.031,1.031,0,1,0,1.458-1.458L11.887.3A1.01,1.01,0,0,0,11.552.08,1.031,1.031,0,0,0,10.427.3L6.3,4.428a1.031,1.031,0,0,0,.729,1.76Z" transform="translate(-2.906 0)" fill="#338ec0"/>
  </g>
</svg>
