<svg xmlns="http://www.w3.org/2000/svg" xmlns:xlink="http://www.w3.org/1999/xlink" width="378" height="86" viewBox="0 0 378 86">
  <defs>
    <filter id="Rectangle_169392" x="0" y="0" width="378" height="86" filterUnits="userSpaceOnUse">
      <feOffset dy="3" input="SourceAlpha"/>
      <feGaussianBlur stdDeviation="3" result="blur"/>
      <feFlood flood-color="#ffe5d9"/>
      <feComposite operator="in" in2="blur"/>
      <feComposite in="SourceGraphic"/>
    </filter>
    <filter id="Rectangle_169387" x="0" y="0" width="378" height="86" filterUnits="userSpaceOnUse">
      <feOffset dy="3" input="SourceAlpha"/>
      <feGaussianBlur stdDeviation="3" result="blur-2"/>
      <feFlood flood-color="#ffe5d9"/>
      <feComposite operator="in" in2="blur-2"/>
      <feComposite in="SourceGraphic"/>
    </filter>
    <clipPath id="clip-path">
      <g transform="matrix(1, 0, 0, 1, 0, 0)" filter="url(#Rectangle_169392)">
        <rect id="Rectangle_169392-2" data-name="Rectangle 169392" width="360" height="68" transform="translate(0 460)" fill="#fdfdfd"/>
      </g>
    </clipPath>
  </defs>
  <g id="valiatenow" transform="translate(9 -454)">
    <g transform="matrix(1, 0, 0, 1, -9, 454)" filter="url(#Rectangle_169387)">
      <rect id="Rectangle_169387-2" data-name="Rectangle 169387" width="360" height="68" transform="translate(9 6)" fill="#fdfdfd"/>
    </g>
    <g id="Mask_Group_5" data-name="Mask Group 5" clip-path="url(#clip-path)">
      <g id="Group_158973" data-name="Group 158973" transform="matrix(-0.799, 0.602, -0.602, -0.799, 659.469, 358.726)" opacity="0.59" style="mix-blend-mode: normal;isolation: isolate">
        <path id="Path_187948" data-name="Path 187948" d="M143.846,25.627c162.7,317.222,445.872,163.633,445.2,162.83" transform="translate(0 12.954)" fill="none" stroke="#ffe5d9" stroke-width="0.48"/>
        <path id="Path_187949" data-name="Path 187949" d="M148.888,21.971c54.857,107.137,125.873,161.56,196.159,183.455C469.6,244.394,585.572,181.178,585.1,180.691" transform="translate(1.051 12.192)" fill="none" stroke="#ffe5d9" stroke-width="0.621" opacity="0.941"/>
        <path id="Path_187950" data-name="Path 187950" d="M153.931,18.315c52.135,102.012,121.5,157.56,192.24,179.375,121.618,37.823,235.494-24.308,234.986-24.764" transform="translate(2.102 11.43)" fill="none" stroke="#ffe5d9" stroke-width="0.763" opacity="0.882"/>
        <path id="Path_187951" data-name="Path 187951" d="M158.973,14.659c49.415,96.887,117.13,153.56,188.321,175.3,118.679,36.676,230.464-24.37,229.92-24.8" transform="translate(3.153 10.668)" fill="none" stroke="#ffe5d9" stroke-width="0.904" opacity="0.824"/>
        <path id="Path_187952" data-name="Path 187952" d="M164.015,11c46.694,91.762,112.806,149.406,184.4,171.217,115.815,35.281,225.433-24.432,224.853-24.826" transform="translate(4.204 9.906)" fill="none" stroke="#ffe5d9" stroke-width="1.045" opacity="0.765"/>
        <path id="Path_187953" data-name="Path 187953" d="M169.058,7.347C213.03,93.984,277.5,152.724,349.541,174.485c112.886,34.1,220.4-24.495,219.787-24.857" transform="translate(5.255 9.144)" fill="none" stroke="#ffe5d9" stroke-width="1.186" opacity="0.706"/>
        <path id="Path_187954" data-name="Path 187954" d="M174.1,3.691C215.352,85.2,278.177,145.044,350.664,166.75c109.954,32.925,215.374-24.557,214.721-24.888" transform="translate(6.306 8.382)" fill="none" stroke="#ffe5d9" stroke-width="1.328" opacity="0.647"/>
        <path id="Path_187955" data-name="Path 187955" d="M179.142.035c38.531,76.387,99.711,137.333,172.646,158.979C458.807,190.776,562.132,134.4,561.443,134.1" transform="translate(7.357 7.62)" fill="none" stroke="#ffe5d9" stroke-width="1.469" opacity="0.588"/>
        <path id="Path_187956" data-name="Path 187956" d="M184.185-3.621c35.809,71.262,95.343,133.32,168.726,154.9C456.992,181.887,558.224,126.6,557.5,126.331" transform="translate(8.408 6.858)" fill="none" stroke="#ffe5d9" stroke-width="1.61" opacity="0.529"/>
        <path id="Path_187957" data-name="Path 187957" d="M189.227-7.277C222.316,58.86,280.2,122.036,354.034,143.544c101.14,29.464,200.283-24.741,199.523-24.979" transform="translate(9.459 6.096)" fill="none" stroke="#ffe5d9" stroke-width="1.751" opacity="0.471"/>
        <path id="Path_187958" data-name="Path 187958" d="M194.269-10.933c30.369,61.013,86.6,125.312,160.889,146.742,98.2,28.327,195.252-24.8,194.456-25.011" transform="translate(10.51 5.334)" fill="none" stroke="#ffe5d9" stroke-width="1.893" opacity="0.412"/>
        <path id="Path_187959" data-name="Path 187959" d="M199.312-14.589C226.958,41.3,281.54,106.729,356.281,128.074c95.25,27.2,190.223-24.866,189.389-25.04" transform="translate(11.561 4.572)" fill="none" stroke="#ffe5d9" stroke-width="2.034" opacity="0.353"/>
        <path id="Path_187960" data-name="Path 187960" d="M204.354-18.245C229.28,32.518,282.206,99.088,357.4,120.339c92.3,26.084,185.192-24.929,184.323-25.071" transform="translate(12.612 3.81)" fill="none" stroke="#ffe5d9" stroke-width="2.175" opacity="0.294"/>
        <path id="Path_187961" data-name="Path 187961" d="M209.4-21.9C231.6,23.737,282.87,91.455,358.529,112.6c89.349,24.977,180.162-24.99,179.256-25.1" transform="translate(13.663 3.048)" fill="none" stroke="#ffe5d9" stroke-width="2.316" opacity="0.235"/>
        <path id="Path_187962" data-name="Path 187962" d="M214.439-25.557c19.484,40.513,69.092,109.39,145.212,130.426,86.4,23.876,175.132-25.053,174.191-25.134" transform="translate(14.714 2.286)" fill="none" stroke="#ffe5d9" stroke-width="2.457" opacity="0.176"/>
        <path id="Path_187963" data-name="Path 187963" d="M219.481-29.213C236.244,6.174,284.155,76.346,360.774,97.133c83.4,22.923,170.1-25.114,169.125-25.164" transform="translate(15.765 1.524)" fill="none" stroke="#ffe5d9" stroke-width="2.599" opacity="0.118"/>
        <path id="Path_187964" data-name="Path 187964" d="M224.523-32.869C238.566-2.607,284.826,68.689,361.9,89.4,442.362,111.176,526.971,64.222,525.957,64.2" transform="translate(16.816 0.762)" fill="none" stroke="#ffe5d9" stroke-width="2.74" opacity="0.059"/>
        <path id="Path_187965" data-name="Path 187965" d="M229.566-36.525C240.887-11.388,285.5,61.033,363.022,81.663S523.063,56.425,522.014,56.438" transform="translate(17.867 0)" fill="none" stroke="#ffe5d9" stroke-width="2.881" opacity="0"/>
      </g>
    </g>
    <path id="Rectangle_169391" data-name="Rectangle 169391" d="M0,0H65A20,20,0,0,1,85,20V48A20,20,0,0,1,65,68H0a0,0,0,0,1,0,0V0A0,0,0,0,1,0,0Z" transform="translate(0 460)" fill="#f5c4cc"/>
    <path id="Rectangle_169388" data-name="Rectangle 169388" d="M0,0H63A20,20,0,0,1,83,20V48A20,20,0,0,1,63,68H0a0,0,0,0,1,0,0V0A0,0,0,0,1,0,0Z" transform="translate(0 460)" fill="#fdeef0"/>
    <g id="Group_158972" data-name="Group 158972" transform="translate(7380 -5541.162)">
      <rect id="Rectangle_169389" data-name="Rectangle 169389" width="46" height="46" transform="translate(-7364 6012.324)" fill="none"/>
      <g id="family_9_" data-name="family (9)" transform="translate(-7359.553 6012)">
        <path id="Path_208229" data-name="Path 208229" d="M20.465,19.144a.741.741,0,0,0,1.3,0,5.137,5.137,0,0,1,3.795-2.157V26.2h1.482V16.987a5.207,5.207,0,0,1,3.795,2.157.741.741,0,0,0,1.3,0,5.476,5.476,0,0,1,4.536-2.223c1.868,0,3.861.971,4.536,2.223a.741.741,0,0,0,.652.385h.185a.741.741,0,0,0,.556-.741A16.306,16.306,0,0,0,27.047,2.482V1.741A.741.741,0,0,0,26.305,1h0a.741.741,0,0,0-.741.741v.741A16.306,16.306,0,0,0,10,18.788a.742.742,0,0,0,1.393.378,5.476,5.476,0,0,1,4.536-2.223C17.8,16.942,19.791,17.906,20.465,19.144ZM41,16.794a7.589,7.589,0,0,0-8.36-.17A15.335,15.335,0,0,0,28.529,4.15,14.823,14.823,0,0,1,41,16.794ZM26.305,4.157a13.723,13.723,0,0,1,4.758,12.985,7.545,7.545,0,0,0-9.517,0A13.723,13.723,0,0,1,26.305,4.157Zm-14.69,12.6A14.823,14.823,0,0,1,24.082,4.15a15.335,15.335,0,0,0-4.106,12.474,7.589,7.589,0,0,0-8.36.17Z" transform="translate(-7.776 -1)" fill="#e85246"/>
        <path id="Path_208230" data-name="Path 208230" d="M21.223,55.477H25.67a.741.741,0,0,0,.741-.741V47.784l1.075-.541a.741.741,0,0,0,.408-.66V42.032a2.853,2.853,0,0,0-2.542-2.861,2.965,2.965,0,1,0-3.81,0A2.853,2.853,0,0,0,19,42.032v4.551a.741.741,0,0,0,.408.66l1.075.541v6.952A.741.741,0,0,0,21.223,55.477Zm2.223-20.011a1.482,1.482,0,1,1-1.482,1.482A1.482,1.482,0,0,1,23.447,35.465Zm-2.965,6.567a1.379,1.379,0,0,1,1.379-1.379h3.172a1.379,1.379,0,0,1,1.379,1.379v4.091l-1.075.541a.741.741,0,0,0-.408.66v6.67H21.965v-6.67a.741.741,0,0,0-.408-.66l-1.075-.541Z" transform="translate(-10.106 -9.525)" fill="#e85246"/>
        <path id="Path_208231" data-name="Path 208231" d="M41.889,46.583V42.032a2.853,2.853,0,0,0-2.542-2.861,2.965,2.965,0,1,0-3.81,0A2.853,2.853,0,0,0,33,42.032v4.551a.741.741,0,0,0,.408.66l.978.489L33,54.587a.748.748,0,0,0,.741.889h7.412a.769.769,0,0,0,.741-.889l-1.371-6.856.978-.489A.741.741,0,0,0,41.889,46.583ZM37.442,35.465a1.482,1.482,0,1,1-1.482,1.482A1.482,1.482,0,0,1,37.442,35.465Zm2.965,10.658-1.075.541a.741.741,0,0,0-.408.808l1.319,6.522h-5.6l1.319-6.522a.741.741,0,0,0-.393-.808l-1.09-.541V42.032a1.379,1.379,0,0,1,1.379-1.379h3.172a1.379,1.379,0,0,1,1.379,1.379Z" transform="translate(-13.725 -9.525)" fill="#e85246"/>
        <path id="Path_208232" data-name="Path 208232" d="M7,46.656v3.113a.741.741,0,0,0,.408.66l.823.415.556,5.522a.741.741,0,0,0,.741.667H11.9a.741.741,0,0,0,.741-.667l.556-5.522.823-.415a.741.741,0,0,0,.393-.66V46.656a2.223,2.223,0,0,0-1.934-2.223,2.594,2.594,0,1,0-3.543,0A2.223,2.223,0,0,0,7,46.656Zm3.706-5.188a1.112,1.112,0,1,1-1.112,1.112A1.112,1.112,0,0,1,10.706,41.468ZM8.482,46.656a.741.741,0,0,1,.741-.741h2.965a.741.741,0,0,1,.741.741v2.653l-.741.393a.741.741,0,0,0-.4.586l-.571,5.262H10.194l-.534-5.262a.741.741,0,0,0-.4-.586l-.778-.393Z" transform="translate(-7 -11.08)" fill="#e85246"/>
        <path id="Path_208233" data-name="Path 208233" d="M47,46.656v3.113a.741.741,0,0,0,.408.66l.823.415.556,5.522a.741.741,0,0,0,.741.667H51.9a.741.741,0,0,0,.741-.667l.556-5.522.823-.415a.741.741,0,0,0,.393-.66V46.656a2.223,2.223,0,0,0-1.934-2.223,2.594,2.594,0,1,0-3.543,0A2.223,2.223,0,0,0,47,46.656Zm3.706-5.188a1.112,1.112,0,1,1-1.112,1.112A1.112,1.112,0,0,1,50.706,41.468Zm-2.223,5.188a.741.741,0,0,1,.741-.741h2.965a.741.741,0,0,1,.741.741v2.653l-.741.393a.741.741,0,0,0-.4.586l-.571,5.262H50.194l-.534-5.262a.741.741,0,0,0-.4-.586l-.741-.393Z" transform="translate(-17.353 -11.08)" fill="#e85246"/>
      </g>
    </g>
    <path id="Rectangle_169390" data-name="Rectangle 169390" d="M15,0H96a0,0,0,0,1,0,0V30a0,0,0,0,1,0,0H15A15,15,0,0,1,0,15v0A15,15,0,0,1,15,0Z" transform="translate(264 498)" fill="#fdeef0"/>
    <text id="Validate_Now" data-name="Validate Now" transform="translate(278 517)" fill="#383838" font-size="11" font-family="Inter-Regular, Inter"><tspan x="0" y="0">Validate Now</tspan></text>
    <text id="Validate_your_family_details" data-name="Validate your family details" transform="translate(89 499)" fill="#383838" font-size="14" font-family="Inter-Regular, Inter"><tspan x="0" y="0">Validate your family details</tspan></text>
  </g>
</svg>
