<svg xmlns="http://www.w3.org/2000/svg" width="20" height="20" viewBox="0 0 20 20">
  <g id="Wellness_Support" data-name="Wellness Support" transform="translate(12692 13923.417)">
    <g id="Group_309" data-name="Group 309" transform="translate(-12692 -13923.417)">
      <rect id="Rectangle_167666" data-name="Rectangle 167666" width="20" height="20" fill="none"/>
      <g id="Group_315" data-name="Group 315" transform="translate(0 0)">
        <rect id="Rectangle_167462" data-name="Rectangle 167462" width="20" height="20" fill="none"/>
        <g id="Layer_x0020_1" transform="translate(0 0)">
          <path id="Path_114251" data-name="Path 114251" d="M8.01,19.688a.353.353,0,0,1-.3-.176l-3.479-5.74a.362.362,0,0,1,.129-.48l2.46-1.476a.347.347,0,0,1,.48.117l3.467,5.74a.347.347,0,0,1-.117.48l-2.46,1.476A.349.349,0,0,1,8.01,19.688Zm7.649-8.434a.4.4,0,0,1-.2-.059,9.756,9.756,0,0,1-4.053-5.576,7.608,7.608,0,0,1-.234-2.929.337.337,0,0,1,.258-.281c3.257-.914,3.889-2.472,3.9-2.483a.345.345,0,0,1,.656,0c0,.012.679,1.57,3.9,2.483a.355.355,0,0,1,.258.269,7.793,7.793,0,0,1-.223,2.94,9.677,9.677,0,0,1-4.065,5.576A.4.4,0,0,1,15.66,11.253Zm0-3.4A.868.868,0,0,1,14.8,7V6.333h-.668a.861.861,0,0,1,0-1.722H14.8V3.955a.855.855,0,1,1,1.71,0v.656h.668a.861.861,0,0,1,0,1.722h-.668V7A.868.868,0,0,1,15.66,7.856Zm.246,10.273a1.728,1.728,0,0,1-.457-.059l-4.639-1.23L8.128,12.39l2.085-1.23c1.1-.726,3.725.269,5.845.925a1.983,1.983,0,0,1,1.23,1.581l4.4-3.011a.349.349,0,0,1,.176-.059c3.081-.211,2.144,2.542,1.816,2.741l-6.443,4.287A2.035,2.035,0,0,1,15.906,18.13Zm-7.474.035a.689.689,0,0,1-.656-.668.645.645,0,0,1,1.289,0A.661.661,0,0,1,8.432,18.165Z" transform="translate(-4.182 0.312)" fill="#0075b8" fill-rule="evenodd"/>
        </g>
      </g>
    </g>
  </g>
</svg>
