<svg xmlns="http://www.w3.org/2000/svg" width="36" height="36" viewBox="0 0 36 36">
  <g id="Whatsapp" transform="translate(-169 -416.766)">
    <rect id="Rectangle_167737" data-name="Rectangle 167737" width="36" height="36" transform="translate(169 416.766)" fill="none"/>
    <g id="whatsapp-2" data-name="whatsapp" transform="translate(169 417)">
      <path id="Path_114091" data-name="Path 114091" d="M.761,35.766A.761.761,0,0,1,.027,34.8l2.325-8.491a17.735,17.735,0,1,1,15.525,9.159h-.008a17.77,17.77,0,0,1-8.206-2.015L.954,35.741a.765.765,0,0,1-.193.025Zm0,0" transform="translate(0 0.001)" fill="#e5e5e5"/>
      <path id="Path_114092" data-name="Path 114092" d="M10.895,45.139,13.3,36.346a16.974,16.974,0,1,1,14.708,8.5H28a16.959,16.959,0,0,1-8.111-2.066Zm9.414-5.431.515.305A14.088,14.088,0,0,0,28,41.979h.005a14.106,14.106,0,1,0-11.951-6.61l.336.534-1.425,5.2Zm0,0" transform="translate(-10.133 -10.134)" fill="#fff"/>
      <path id="Path_114093" data-name="Path 114093" d="M19.344,52.442l2.325-8.489a16.386,16.386,0,1,1,14.2,8.2H35.86a16.383,16.383,0,0,1-7.83-1.994Zm0,0" transform="translate(-17.993 -18.029)" fill="#64b161"/>
      <g id="Group_308" data-name="Group 308" transform="translate(0.761 0.761)">
        <path id="Path_114094" data-name="Path 114094" d="M10.895,45.139,13.3,36.346a16.974,16.974,0,1,1,14.708,8.5H28a16.959,16.959,0,0,1-8.111-2.066Zm9.414-5.431.515.305A14.088,14.088,0,0,0,28,41.979h.005a14.106,14.106,0,1,0-11.951-6.61l.336.534-1.425,5.2Zm0,0" transform="translate(-10.895 -10.895)" fill="#fff"/>
        <path id="Path_114095" data-name="Path 114095" d="M136.828,142.356c-.318-.706-.652-.72-.955-.733-.247-.011-.53-.01-.813-.01a1.559,1.559,0,0,0-1.131.531,4.754,4.754,0,0,0-1.485,3.537,8.249,8.249,0,0,0,1.732,4.386c.212.283,2.934,4.7,7.244,6.4,3.583,1.413,4.311,1.132,5.089,1.061a4.283,4.283,0,0,0,2.862-2.016,3.542,3.542,0,0,0,.247-2.017c-.106-.177-.389-.283-.813-.495s-2.509-1.238-2.9-1.38-.672-.212-.954.213-1.1,1.379-1.343,1.662-.495.319-.919.107a11.6,11.6,0,0,1-3.41-2.1,12.778,12.778,0,0,1-2.36-2.937c-.247-.424,0-.634.186-.865a12.8,12.8,0,0,0,1.06-1.45.781.781,0,0,0-.035-.743C138.03,145.292,137.205,143.195,136.828,142.356Zm0,0" transform="translate(-123.955 -132.482)" fill="#fff" fill-rule="evenodd"/>
      </g>
    </g>
  </g>
</svg>
