<svg xmlns="http://www.w3.org/2000/svg" width="24" height="24" viewBox="0 0 24 24">
  <g id="Whatsapp" transform="translate(12692 13923.133)">
    <g id="Group_309" data-name="Group 309" transform="translate(-12692 -13923.187)">
      <rect id="Rectangle_167666" data-name="Rectangle 167666" width="24" height="24" transform="translate(0 0.054)" fill="none"/>
      <g id="Group_316" data-name="Group 316" transform="translate(12692 13923.187)">
        <g id="Group_309-2" data-name="Group 309" transform="translate(-12692 -13923.187)">
          <rect id="Rectangle_167666-2" data-name="Rectangle 167666" width="24" height="24" transform="translate(0 0.054)" fill="none"/>
          <g id="whatsapp_1_" data-name="whatsapp (1)" transform="translate(0 0.149)">
            <g id="Group_307" data-name="Group 307">
              <path id="Path_114090" data-name="Path 114090" d="M11.955,0h-.006A11.945,11.945,0,0,0,2.275,18.958L.786,23.4,5.38,21.929A11.95,11.95,0,1,0,11.955,0ZM18.91,16.878a3.373,3.373,0,0,1-2.346,1.687c-.625.133-1.44.239-4.186-.9C8.866,16.21,6.6,12.641,6.427,12.409A6.826,6.826,0,0,1,5.008,8.8,3.816,3.816,0,0,1,6.23,5.9a1.737,1.737,0,0,1,1.222-.429c.148,0,.281.007.4.013.351.015.527.036.759.59.288.695.991,2.41,1.074,2.586a.711.711,0,0,1,.051.647,2.065,2.065,0,0,1-.387.548c-.176.2-.344.359-.52.577-.161.19-.344.393-.14.744a10.609,10.609,0,0,0,1.939,2.41,8.787,8.787,0,0,0,2.8,1.729.756.756,0,0,0,.843-.133,14.461,14.461,0,0,0,.934-1.237.667.667,0,0,1,.858-.26c.323.112,2.03.956,2.381,1.131s.583.26.668.408A2.977,2.977,0,0,1,18.91,16.878Z" fill="#c5c5c5"/>
            </g>
          </g>
        </g>
      </g>
    </g>
  </g>
</svg>
